<svg width="168" height="72" viewBox="0 0 168 72" fill="none" xmlns="http://www.w3.org/2000/svg">
  <g clip-path="url(#clip0)">
    <path d="M67.555 67.097c.423-.917 1.34-3.21 1.482-3.704.035-.106.07-.212.07-.247s-.035-.106-.106-.141c-.07-.036-.176-.036-.247-.036-.035 0-.07-.035-.07-.07s.035-.07.176-.07H70.095c.07 0 .106 0 .106.035s-.035.07-.07.07c-.036 0-.212 0-.318.07-.106.071-.212.177-.388.636-.07.176-.424.987-.776 1.834-.424.988-.741 1.729-.918 2.046-.176.423-.246.494-.317.494-.07 0-.141-.07-.247-.423l-1.729-4.163c-.176-.388-.246-.459-.493-.494-.106-.035-.247-.035-.283-.035-.035 0-.07-.035-.07-.07 0-.036.07-.036.176-.036h1.481c.142 0 .177 0 .177.035s-.035.07-.07.07c-.07 0-.177 0-.247.036-.07.035-.07.07-.07.106 0 .07.07.282.175.564l1.341 3.493zM71.4 64.803v-1.446c0-.247-.07-.353-.282-.388h-.247a.076.076 0 01-.07-.07c0-.036.035-.071.105-.071H73.376c.14 0 .247-.035.317-.035.035 0 .07-.036.106-.036.035 0 .035.036.035.07 0 .036-.035.142-.07.318 0 .07-.035.353-.035.459 0 .035-.036.07-.071.07-.035 0-.07-.035-.07-.07s0-.176-.036-.247c-.035-.106-.106-.176-.494-.212-.106 0-.917-.035-1.023-.035-.035 0-.035.035-.035.07v1.835c0 .035 0 .07.035.07H73.2c.177 0 .283-.035.353-.105.035-.035.07-.07.106-.07.035 0 .035 0 .035.07 0 .035-.035.14-.07.388 0 .14-.036.388-.036.423 0 .07 0 .141-.07.141-.035 0-.035-.035-.035-.07 0-.07 0-.141-.036-.212-.035-.106-.07-.176-.352-.212-.177-.035-.953-.035-1.059-.035-.035 0-.035.035-.035.035V67.167c0 .459.141.53.847.53.176 0 .529 0 .705-.072.176-.07.282-.211.318-.458 0-.07.035-.106.07-.106s.035.07.035.106c0 .035-.07.494-.105.67-.036.177-.106.177-.388.177-.53 0-.918 0-1.235-.036h-.564-.741c-.07 0-.106 0-.106-.07 0-.035 0-.07.07-.07s.141-.036.212-.036c.141-.035.141-.177.176-.353.036-.282.036-.811.036-1.481v-1.165h.07zM76.022 64.804v-1.447c0-.247-.071-.352-.283-.388h-.247a.076.076 0 01-.07-.07c0-.036.035-.07.106-.07h1.764c.705 0 1.975-.072 2.822.775.352.353.67.917.67 1.729 0 .846-.353 1.517-.74 1.905-.318.317-.918.776-2.117.776-.318 0-.67-.035-.988-.035-.318-.036-.53-.036-.565-.036h-.705c-.07 0-.106 0-.106-.07 0-.036 0-.07.07-.07.071 0 .142 0 .212-.036.141-.035.141-.176.177-.353.035-.282.035-.811.035-1.481v-1.13h-.035zm.635.74v1.482c0 .176.035.423.07.494.07.141.318.282 1.164.282.635 0 1.235-.212 1.658-.6.353-.352.565-.987.565-1.622 0-.847-.388-1.411-.67-1.694-.67-.67-1.447-.74-2.258-.74-.141 0-.353.035-.424.035-.07.035-.07.07-.07.141v2.222h-.035zM82.865 67.061c0 .564.07.74.282.776.141.035.282.035.353.035.035 0 .07.036.07.071 0 .035-.035.07-.14.07-.389 0-.67-.035-.741-.035-.07 0-.353.036-.67.036-.071 0-.106 0-.106-.071 0-.035.035-.07.07-.07.07 0 .176 0 .282-.036.177-.035.212-.247.212-.847v-3.88c0-.282.035-.353.106-.353.07 0 .212.141.282.212.106.106 1.129 1.2 2.223 2.328.705.706 1.446 1.517 1.658 1.729l-.071-3.387c0-.423-.035-.6-.247-.635-.141-.035-.282-.035-.353-.035a.076.076 0 01-.07-.07c0-.036.07-.036.14-.036h1.342c.07 0 .14 0 .14.035 0 .036-.035.071-.07.071h-.177c-.246.035-.246.176-.246.6v3.986c0 .459 0 .494-.071.494-.07 0-.141-.07-.53-.424-.07-.07-1.093-1.058-1.834-1.834-.81-.846-1.587-1.693-1.834-1.905v3.175zM91.296 62.757c1.588 0 2.787.953 2.787 2.54 0 1.517-1.129 2.752-2.822 2.752-1.905 0-2.752-1.447-2.752-2.646 0-1.094.847-2.646 2.787-2.646zm.176 5.045c.636 0 1.906-.318 1.906-2.293 0-1.623-.988-2.47-2.082-2.47-1.164 0-2.01.741-2.01 2.223-.036 1.552.917 2.54 2.186 2.54zM100.292 67.097c.423-.917 1.34-3.21 1.481-3.704.036-.106.071-.212.071-.247s-.035-.106-.106-.141c-.07-.036-.176-.036-.247-.036-.035 0-.07-.035-.07-.07s.035-.07.176-.07H102.832c.07 0 .106 0 .106.035s-.036.07-.071.07c-.035 0-.212 0-.317.07-.106.071-.212.177-.388.636-.071.176-.424.987-.777 1.834-.423.988-.74 1.729-.917 2.046-.176.423-.247.494-.317.494-.071 0-.141-.07-.247-.423l-1.729-4.163c-.176-.388-.247-.459-.494-.494-.105-.035-.247-.035-.282-.035a.076.076 0 01-.07-.07c0-.036.07-.036.176-.036h1.481c.142 0 .177 0 .177.035s-.035.07-.07.07c-.071 0-.177 0-.248.036-.07.035-.07.07-.07.106 0 .07.07.282.176.564l1.341 3.493zM104.137 64.803v-1.446c0-.247-.07-.353-.282-.388h-.247c-.035 0-.07-.035-.07-.07 0-.036.035-.071.105-.071H106.113c.141 0 .247-.035.317-.035.036 0 .071-.036.106-.036s.035.036.035.07c0 .036-.035.142-.07.318 0 .07-.035.353-.035.459 0 .035-.036.07-.071.07-.035 0-.071-.035-.071-.07s0-.176-.035-.247c-.035-.106-.106-.176-.494-.212-.106 0-.917-.035-1.023-.035-.035 0-.035.035-.035.07v1.835c0 .035 0 .07.035.07h1.164c.177 0 .283-.035.353-.105.035-.035.071-.07.106-.07s.035 0 .035.07c0 .035-.035.14-.07.388 0 .14-.036.388-.036.423 0 .07 0 .141-.07.141-.035 0-.035-.035-.035-.07 0-.07 0-.141-.036-.212-.035-.106-.07-.176-.352-.212-.177-.035-.953-.035-1.059-.035-.035 0-.035.035-.035.035V67.167c0 .459.141.53.847.53.176 0 .529 0 .705-.072.177-.07.282-.211.318-.458 0-.07.035-.106.07-.106s.036.07.036.106c0 .035-.071.494-.106.67-.036.177-.106.177-.388.177-.53 0-.918 0-1.235-.036h-.564-.741c-.071 0-.106 0-.106-.07 0-.035 0-.07.07-.07.071 0 .142-.036.212-.036.141-.035.141-.177.176-.353.036-.282.036-.811.036-1.481v-1.165h.07zM108.794 67.343c-.671-.6-.847-1.375-.847-2.01 0-.459.176-1.235.776-1.835.423-.423 1.058-.74 2.152-.74.282 0 .67.035 1.023.07.247.035.494.106.706.106.07 0 .07.035.07.07 0 .07 0 .141-.035.388v.706c0 .106-.035.141-.071.141-.035 0-.07-.035-.07-.141 0-.247-.106-.53-.282-.67-.247-.212-.741-.388-1.376-.388-.917 0-1.341.246-1.588.458-.529.494-.635 1.094-.635 1.764 0 1.305 1.023 2.47 2.54 2.47.529 0 .882-.036 1.164-.318.141-.141.247-.423.283-.564 0-.071.035-.106.07-.106s.071.035.071.106c0 .035-.106.635-.177.881-.035.142-.07.142-.176.212-.282.106-.811.141-1.27.141-1.058-.035-1.764-.282-2.328-.74zm1.164-5.997c.035-.035.035-.035.07-.035.036 0 .036 0 .071.035.176.177.564.494.67.565.035 0 .071.035.071.035.035 0 .07 0 .141-.035.176-.106.494-.353.67-.494.071-.07.106-.07.141-.07.035 0 .071.035.071.07s-.036.07-.036.07c-.07.071-.811.741-.881.812-.071.07-.106.07-.142.07-.035 0-.07-.035-.105-.07-.071-.035-.706-.53-.812-.6a.456.456 0 01-.106-.07c0-.036.036-.036.036-.071l.141-.212zM113.909 67.52c0-.176.141-.423.423-.423.247 0 .423.176.423.423a.444.444 0 01-.458.459.454.454 0 01-.388-.459z" fill="#87764E"/>
    <path d="M65.791 23.847c-.247-.529-.317-.67-.74-.74-.177-.036-.283-.036-.353-.036-.106 0-.141-.035-.141-.07 0-.07.07-.07.176-.07.53 0 1.2.034 1.305.034.106 0 .635-.035 1.059-.035.14 0 .176.035.176.07 0 .071-.035.107-.176.107-.177 0-.247.035-.353.07-.106.07-.106.141-.106.212 0 .07.07.282.176.564l2.011 5.08c.565-1.27 1.905-4.621 2.117-5.292a.92.92 0 00.106-.387c0-.071 0-.142-.106-.177s-.247-.035-.353-.035c-.07 0-.141-.035-.141-.07 0-.071.035-.107.176-.107.424 0 .953.036 1.094.036.035 0 .494-.036.776-.036.106 0 .176.036.176.071 0 .07-.035.106-.14.106-.142 0-.283 0-.495.106-.14.105-.247.247-.529.882-.07.14-.635 1.446-1.164 2.645-.6 1.411-1.093 2.505-1.27 2.893-.317.635-.353.811-.459.811-.14 0-.211-.14-.388-.635l-2.434-5.997zM76.48 29.845c1.023 0 1.446-.106 1.623-.459.106-.212.14-.353.176-.53.035-.105.035-.176.106-.176.07 0 .07.071.07.177 0 .317-.14.952-.211 1.2-.07.246-.106.282-.353.282-1.693 0-3.316-.036-5.115-.036-.141 0-.176 0-.176-.07s.035-.106.14-.282c1.518-2.223 2.964-4.34 4.375-6.562h-2.117c-.635 0-1.164 0-1.517.141-.352.141-.458.6-.493.847-.036.14-.07.176-.106.176-.035 0-.07-.07-.07-.141 0-.141.14-1.058.21-1.34.036-.142.036-.212.107-.212.106 0 .176.07.458.07 1.094.036 1.588.036 1.729.036h2.822c.141 0 .247 0 .247.07 0 .035-.035.106-.07.177-1.517 2.293-2.893 4.41-4.41 6.632h2.575zM81.172 27.481c-.07 0-.106.035-.106.106l-.494 1.446c-.105.318-.211.635-.211.812 0 .211.14.282.388.282h.07c.106 0 .141.035.141.07 0 .07-.105.07-.176.07-.247 0-.776-.034-.917-.034-.106 0-.635.035-1.094.035-.14 0-.176-.035-.176-.07 0-.036.035-.071.141-.071h.247c.494-.035.706-.424.882-.917l2.293-6.068c.141-.317.176-.388.247-.388.07 0 .106.035.247.353.176.388 1.728 4.374 2.328 5.82.388.918.706 1.059.882 1.13.141.07.317.07.388.07.07 0 .141.035.141.07 0 .036-.035.07-.176.07-.106 0-.988 0-1.764-.034-.212 0-.282-.036-.282-.071 0-.035.035-.07.07-.07.035-.036.106-.071.035-.247l-.917-2.293c-.035-.036-.035-.071-.105-.071h-2.082zm1.94-.388c.036 0 .036-.035.036-.07l-.918-2.54c-.07-.177-.07-.177-.14 0l-.847 2.54c-.036.035 0 .07.035.07h1.834z" fill="#1A262E"/>
    <path d="M88.121 27.94c0 1.658 0 2.293-.317 3.034-.212.493-.67.952-1.552 1.552-.141.07-.282.211-.388.247h-.07c-.036 0-.071 0-.071-.07 0-.072.07-.107.14-.142.107-.07.248-.176.318-.247.706-.67 1.023-1.164 1.023-3.775v-2.822c0-1.517 0-1.799-.035-2.081-.035-.317-.141-.459-.459-.564-.07 0-.246-.036-.352-.036a.076.076 0 01-.07-.07c0-.07.07-.106.175-.106.494 0 1.165.035 1.2.035.035 0 .74-.035 1.058-.035.106 0 .177.035.177.106 0 .035-.036.07-.071.07-.07 0-.141 0-.247.035-.247.071-.353.247-.388.565-.035.317-.035.564-.035 2.081v2.223h-.035zM90.803 25.753c0-1.517 0-1.8-.036-2.082-.035-.317-.105-.494-.423-.564-.07 0-.176-.035-.282-.035-.07 0-.141-.036-.141-.07 0-.072.07-.107.176-.107.247 0 .53.035 1.2.035h2.328c.247 0 .353-.035.458-.07.07-.035.07-.035.141-.035.036 0 .036.035.036.07 0 .07-.07.247-.106.53 0 .211-.035.387-.035.6 0 .105-.036.176-.07.176-.036 0-.072-.036-.072-.142a.76.76 0 00-.07-.352c-.07-.247-.176-.318-.74-.353-.142 0-1.27-.035-1.306-.035-.035 0-.07.035-.07.105v2.61c0 .072 0 .107.07.107.141 0 1.305 0 1.552-.035.247 0 .423-.036.53-.177.035-.07.07-.106.14-.106.036 0 .036 0 .036.07 0 .071-.036.283-.07.6-.036.318-.036.565-.036.706 0 .106-.035.141-.07.141-.071 0-.071-.07-.071-.141 0-.07 0-.176-.036-.282-.035-.141-.105-.318-.564-.353-.247-.035-1.2-.035-1.376-.035-.07 0-.07.035-.07.07v2.399c.035.424.07.635.317.741.177.07.459.106.847.106.211 0 .6 0 .882-.07.352-.107.423-.318.529-.777.035-.106.07-.176.106-.176.07 0 .07.106.07.176 0 .07-.106.811-.14.988-.036.247-.142.247-.495.247-.776 0-1.093-.035-1.481-.035-.388 0-.918-.036-1.34-.036-.248 0-.495.036-.777.036-.106 0-.176-.036-.176-.071 0-.035.035-.07.105-.07.071 0 .142 0 .247-.036.212-.035.353-.212.353-.917 0-.388.035-.847.035-1.729v-1.622h-.105zM104.031 29.033c.036.282.106.918.565 1.023.211.036.423.07.6.07.035 0 .141 0 .141.071s-.036.106-.177.106a36.25 36.25 0 01-1.799-.07c-.247-.036-.353-.036-.353-.106 0-.035.036-.07.106-.106.071-.035.106-.176.071-.317l-.529-4.904-2.435 4.939c-.211.458-.246.564-.352.564-.07 0-.141-.106-.353-.494-.177-.317-1.094-2.187-1.164-2.293-.07-.14-1.2-2.363-1.27-2.61l-.423 4.41v.423c0 .14.07.282.282.353.14.035.211.035.317.035.106 0 .106.035.106.07 0 .071-.07.106-.212.106-.352 0-.846-.035-.952-.035-.106 0-.6.035-.882.035-.106 0-.176 0-.176-.106 0-.035.035-.07.14-.07h.212c.283-.035.388-.282.424-.776l.776-6.315c.035-.211.07-.282.14-.282.071 0 .107.035.177.176l3.069 5.962 2.928-5.962c.071-.14.106-.211.177-.211.07 0 .106.106.106.282l.74 6.032zM106.677 29.386c-.987-.846-1.234-1.975-1.234-2.928 0-.635.247-1.799 1.164-2.645.635-.6 1.552-1.023 3.104-1.023.529 0 .953.035 1.517.14.353.071.741.107 1.023.142.106 0 .106.07.106.106 0 .105-.035.211-.071.564 0 .317 0 .917-.035 1.058 0 .177-.035.212-.106.212-.07 0-.106-.07-.106-.212 0-.317-.176-.776-.458-.987-.353-.283-1.164-.6-2.046-.6-1.27 0-1.87.353-2.223.67-.741.67-.917 1.517-.917 2.505 0 1.905 1.552 3.598 3.563 3.598.776 0 1.341-.07 1.764-.459.212-.211.317-.494.388-.81.035-.107.071-.177.141-.177.071 0 .071.07.071.176 0 .106-.141 1.023-.247 1.27-.071.176-.106.212-.247.282-.388.177-1.164.247-1.799.247-1.482-.07-2.54-.423-3.352-1.129zM114.085 25.752c0-1.517 0-1.799-.035-2.116-.035-.318-.106-.494-.317-.53-.106-.035-.212-.035-.247-.035-.071 0-.142-.035-.142-.07 0-.07.036-.07.177-.07.353 0 1.023.034 1.058.034.035 0 .706-.035 1.023-.035.106 0 .177.035.177.07 0 .036-.036.071-.142.071-.07 0-.141 0-.211.036-.318.035-.353.211-.388.564-.036.317 0 .564 0 2.081v1.729c0 .882 0 1.693.035 2.116.035.318.106.46.388.53a2.2 2.2 0 00.423.035c.106 0 .142.035.142.07 0 .036-.036.071-.177.071-.6 0-1.27-.035-1.305-.035-.035 0-.706.035-1.023.035-.106 0-.177-.035-.177-.07 0-.036.036-.071.142-.071.07 0 .176 0 .282-.035.211-.036.247-.283.247-.565.07-.423.07-1.235.07-2.081v-1.729zM69.636 45.26c-.105 0-.176.071-.211.177l-.988 2.822c-.212.635-.388 1.235-.388 1.588 0 .388.247.6.74.6h.142c.212 0 .282.07.282.14 0 .106-.176.141-.353.141-.494 0-1.517-.07-1.764-.07-.211 0-1.199.07-2.151.07-.247 0-.353-.035-.353-.14 0-.106.106-.142.282-.142.106 0 .318 0 .459-.035.952-.106 1.34-.847 1.728-1.764l4.48-11.853c.247-.635.318-.776.459-.776.106 0 .212.106.459.706.317.74 3.386 8.607 4.55 11.394.741 1.764 1.411 2.081 1.694 2.187.282.106.6.106.776.106.14 0 .282.035.282.141 0 .106-.106.141-.353.141-.212 0-1.905 0-3.422-.035-.423-.035-.564-.035-.564-.141 0-.07.07-.141.14-.141.107-.035.213-.141.107-.494l-1.764-4.516a.194.194 0 00-.177-.105h-4.092zm3.846-.776c.105 0 .105-.07.07-.14l-1.764-4.975c-.106-.317-.14-.317-.247 0l-1.693 4.974c-.035.106 0 .141.035.141h3.599zM81.772 48.965c-1.905-1.658-2.4-3.88-2.4-5.75 0-1.27.495-3.493 2.258-5.186 1.2-1.164 3.034-2.01 6.033-2.01 1.023 0 1.87.105 2.963.246.706.106 1.447.212 1.976.247.176 0 .211.106.211.212 0 .176-.07.388-.106 1.093-.035.635-.035 1.8-.035 2.081-.035.318-.07.424-.176.424-.141 0-.177-.141-.177-.424 0-.635-.317-1.516-.882-1.94-.67-.6-2.257-1.164-3.986-1.164-2.504 0-3.633.706-4.304 1.305-1.446 1.34-1.799 2.964-1.799 4.94 0 3.739 3.034 7.02 6.985 7.02 1.517 0 2.646-.142 3.457-.918.388-.423.635-.988.741-1.623.035-.211.106-.352.247-.352.106 0 .106.14.106.317 0 .176-.282 2.01-.459 2.505-.14.352-.211.423-.529.564-.776.353-2.293.459-3.563.459-2.928 0-4.974-.67-6.561-2.046zM98.387 45.26c-.106 0-.176.071-.212.177l-.987 2.822c-.212.635-.388 1.235-.388 1.588 0 .388.247.6.74.6h.142c.211 0 .282.07.282.14 0 .106-.177.141-.353.141-.494 0-1.517-.07-1.764-.07-.212 0-1.2.07-2.152.07-.247 0-.352-.035-.352-.14 0-.106.105-.142.282-.142.106 0 .317 0 .458-.035.953-.106 1.34-.847 1.729-1.764l4.48-11.853c.247-.635.318-.776.459-.776.105 0 .211.106.458.706.318.74 3.387 8.607 4.551 11.394.741 1.764 1.411 2.081 1.693 2.187.282.106.6.106.776.106.141 0 .283.035.283.141 0 .106-.106.141-.353.141-.212 0-1.905 0-3.422-.035-.423-.035-.564-.035-.564-.141 0-.07.07-.141.141-.141.105-.035.211-.141.105-.494l-1.763-4.516a.195.195 0 00-.177-.105h-4.092zm3.845-.776c.106 0 .106-.07.071-.14l-1.764-4.975c-.106-.317-.141-.317-.247 0l-1.693 4.974c-.035.106 0 .141.035.141h3.598zM110.134 41.839c0-2.964 0-3.528-.035-4.128-.035-.6-.212-.917-.882-1.058-.141-.035-.459-.035-.635-.035-.106 0-.212-.07-.212-.141 0-.142.141-.177.353-.177.917 0 2.328.07 2.399.07.141 0 1.34-.07 2.575-.07 1.976 0 5.68-.211 8.043 2.187.988.988 1.905 2.575 1.905 4.833 0 2.4-1.023 4.233-2.152 5.362-.882.882-2.575 2.188-5.997 2.188-.846 0-1.94-.036-2.822-.106-.847-.036-1.552-.106-1.623-.106-.035 0-.352 0-.776.035-.423 0-.952.035-1.305.035-.212 0-.317-.035-.317-.14 0-.071.07-.142.247-.142.176 0 .352-.035.529-.07.388-.07.529-.53.599-1.023.141-.847.106-2.364.106-4.198v-3.316zm1.835 1.905c0 2.01.035 3.774.035 4.127.035.706.07 1.305.212 1.517.246.388.952.846 3.316.846 1.834 0 3.492-.6 4.691-1.763.988-.988 1.447-2.681 1.447-4.48 0-2.54-1.164-4.093-1.941-4.833-1.904-1.905-4.127-2.152-6.349-2.152-.318 0-1.023.07-1.164.14-.177.107-.247.177-.247.389-.036.635-.036 2.575-.036 3.916v2.293h.036zM126.185 41.839c0-2.963 0-3.493-.035-4.092-.036-.635-.212-.953-.847-1.094-.141-.035-.353-.035-.529-.035-.141 0-.282-.07-.282-.141 0-.141.106-.177.352-.177.459 0 1.059.036 2.329.07.106 0 4.127 0 4.55-.034.459-.036.706-.036.882-.106.141-.035.141-.07.247-.07.036 0 .106.035.106.14 0 .141-.141.459-.176 1.023-.036.388-.036.741-.071 1.164 0 .212-.035.353-.141.353-.106 0-.141-.106-.141-.247-.035-.353-.106-.564-.141-.705-.141-.459-.353-.6-1.446-.67-.283-.036-2.505-.036-2.576-.036-.07 0-.106.035-.106.177v5.115c0 .14.036.211.142.211.282 0 2.575-.035 3.033-.07.53-.035.847-.106 1.023-.353.106-.141.142-.176.247-.176.036 0 .106.035.106.14 0 .107-.106.53-.141 1.2-.07.635-.07 1.094-.106 1.376-.035.176-.07.247-.141.247-.106 0-.141-.141-.141-.282s-.035-.353-.07-.53c-.106-.282-.212-.6-1.094-.67a84.494 84.494 0 00-2.681-.105c-.141 0-.141.07-.141.14v1.659c0 .705-.036 2.68 0 3.069.035.846.141 1.27.635 1.446.353.141.882.212 1.658.212.423 0 1.164.035 1.693-.141.67-.212.847-.635 1.023-1.482.035-.212.106-.318.212-.318.141 0 .141.212.141.353s-.177 1.588-.247 1.94c-.106.46-.247.494-.988.494-1.481 0-2.116-.035-2.893-.035a64.429 64.429 0 00-2.645-.07c-.529 0-.953.07-1.482.07-.212 0-.317-.035-.317-.141 0-.106.105-.141.211-.141.141 0 .282-.035.459-.07.388-.107.67-.389.705-1.765.036-.776.036-1.693.036-3.386v-3.457h-.212zM152.114 48.294c.07.53.211 1.8 1.093 2.011.388.106.847.141 1.164.141.106 0 .283.036.283.141 0 .106-.106.177-.353.177-.388 0-2.822-.106-3.563-.141-.494-.036-.67-.106-.67-.212 0-.07.105-.141.211-.212.106-.035.177-.317.141-.635l-.987-9.63-4.798 9.7c-.423.883-.494 1.094-.706 1.094-.141 0-.247-.211-.67-.952-.353-.635-2.152-4.233-2.293-4.445-.141-.282-2.328-4.621-2.504-5.115l-.847 8.643c-.035.317-.035.529-.035.846 0 .247.105.6.564.67.247.036.388.036.635.071.176.036.212.106.212.141 0 .141-.141.177-.388.177-.706 0-1.694-.07-1.87-.07-.212 0-1.164.07-1.729.07-.211 0-.352-.036-.352-.177 0-.035.105-.14.282-.14.141 0 .176 0 .423-.036.529-.035.741-.6.847-1.482l1.517-12.346c.035-.389.141-.565.247-.565.105 0 .176.07.352.353l6.033 11.676 5.75-11.64c.106-.248.212-.389.353-.389s.211.212.211.565l1.447 11.711zM158.852 45.86c0-1.093-.142-1.482-.494-2.081-.141-.247-2.752-4.48-3.457-5.468-.6-.847-.847-1.129-1.165-1.376-.317-.212-.599-.318-1.058-.353-.141 0-.247-.07-.247-.176 0-.07.106-.141.282-.141.353 0 2.082.07 2.117.07.141 0 .882-.07 1.693-.07.212 0 .282.07.282.14 0 .107-.07.142-.246.177-.318.07-.353.177-.353.353 0 .212.141.459.282.74.282.565 3.245 5.328 3.598 5.892.353-.776 2.893-4.903 3.21-5.468.424-.74.53-.952.53-1.2 0-.282-.283-.282-.53-.352-.176-.035-.247-.106-.247-.176 0-.071.036-.142.283-.142.529 0 1.023.071 1.375.071.283 0 1.588-.07 1.976-.07.212 0 .282.07.282.14 0 .106-.106.177-.282.177-.459.035-.811.07-1.129.282-.353.212-.458.423-.847.917-1.305 1.8-3.492 5.468-3.809 6.244-.283.706-.212 1.2-.212 1.764v1.658c0 .141 0 .988.035 1.8.035.528.106.917.776 1.058.283.07.671.105.847.105.176 0 .247.071.247.142 0 .105-.071.176-.282.176-1.129 0-2.505-.07-2.576-.07-.035 0-1.411.07-2.01.07-.212 0-.318-.07-.318-.176 0-.071.071-.142.212-.142.176 0 .388-.035.564-.07.388-.07.529-.53.6-1.094.071-.811.071-1.622.071-1.799V45.86z" fill="#1A262E"/>
    <path fill-rule="evenodd" clip-rule="evenodd" d="M31.96 27.516h-.281l-2.188-1.094-5.291 1.553-5.538-.389-2.011.847s-3.175-.776-6.491-2.68a22.229 22.229 0 00-1.447 2.398c-.493.952-.917 1.8-1.234 2.434.423.317.846.564 1.234.776 2.152.988 3.105 1.058 3.317 1.058h.035l-1.482 1.13s2.505 1.587 3.563 1.834c.494.105.917.14 1.2.14.352 0 .6-.035.6-.035l-.213.636 3.14 7.76-.353 5.998-.705 1.234.388 1.411s1.834 2.117 5.503 2.117c1.552 0 3.457-.388 5.68-1.482.423-1.693 1.376-8.078 1.376-8.078l4.444-6.35-1.446-3.986 5.221-2.152.74-.67-2.116-1.2 3.387-2.61s.247-8.36-12.1-11.994c-.706-.212-1.482-.389-2.258-.565.706.282 1.34.6 1.94.988 4.94 3.069 5.362 8.643 5.362 8.643s.424 2.328-1.975 2.328z" fill="#87764E"/>
    <path fill-rule="evenodd" clip-rule="evenodd" d="M28.398 62.828c-.141-.105-2.152-3.81-2.152-3.81s-.282-1.587-.459-3.421c-.705.14-1.375.211-2.046.211-4.092 0-6.244-2.398-6.314-2.504l-.177-.212-.07-.247-.388-1.41-.141-.495.247-.458.564-.988.317-5.433-2.998-7.408c-.282-.035-.565-.07-.847-.141-1.164-.282-3.457-1.693-3.915-1.976l-1.447-.917.882-.67c-.353-.141-.74-.317-1.164-.494H8.219a16.323 16.323 0 01-1.234-.74c-.036.105-.07.14-.07.14a18.966 18.966 0 00-.847 10.654l-1.235 1.976-.741 2.116 1.905 3.845 2.928 9.384s-1.235 1.411-1.411 2.117l-.388 2.857H17.99s-.353-2.857-.988-4.127c-.635-1.27-2.257-2.329-2.257-2.329L12.1 51.893c.141.14.317.282.459.458 1.058 1.094 4.515 4.904 5.22 5.927.706 1.058 3.563 4.586 3.21 7.655 0 0-1.058 1.129-1.657 2.787-.353.987-.388 3.245-.388 3.245h14.922s-1.376-5.856-1.588-6.173c-.952-1.34-3.74-2.858-3.88-2.964zM49.881 53.727c.212-2.822 2.329-5.115 2.329-5.115s.494-4.516.494-5.221c0 0-3.246-2.893-4.022-3.599-.07-1.164-1.023-2.01-1.023-2.01-.035-.282.176-1.729-1.023-5.856-2.152-7.267-6.703-13.723-7.796-15.028-1.059-1.305-6.068-7.056-10.266-8.325-1.764.529-4.233 2.363-6.597 4.374-.917-1.8-1.799-3.387-3.598-3.563-3.034-.247-4.903 4.374-8.678 3.669-2.434-2.928 1.164-4.551 1.023-7.62C10.548.635 3.316-2.222 0 2.187c1.34.494 3.81-.458 4.833 1.094-1.129 2.681.67 4.022 1.728 5.433-.6 1.552-.352 4.198 0 5.82 3.246 3.987 8.467.177 11.43-1.446.741.459 1.094 1.34 1.376 2.293-.423.423-1.588 1.517-1.588 1.517-1.834 1.799-3.104 3.175-3.104 3.175s-1.905 2.081-3.88 4.762c2.47 1.376 4.868 2.117 5.715 2.364l1.658-.706.247-.106.246.036 5.362.388 5.116-1.482.423-.106.388.177 1.976.987c.211 0 .564-.035.705-.211.176-.212.176-.635.141-.776V25.294c0-.07-.458-5.221-5.185-7.938-.142-.176-5.715-3.245-5.715-3.245s2.787-.07 4.974.282c.917.141 1.552.318 1.587.318 5.574 1.481 9.525 4.021 11.853 7.584 1.94 3.034 1.87 5.68 1.87 5.786l-.035.564-.46.353-1.975 1.517.53.317 1.446.812-1.235 1.128-.74.67-.142.142-.176.07-4.198 1.729 1.058 2.893.212.6-.353.529-4.268 6.138c-.177 1.27-.988 6.35-1.376 7.902l-.106.529-.459.247c-.352.176-.705.353-1.058.494 1.411.458 2.01 1.516 2.01 1.516l8.926-6.173 4.022 1.058-.177 2.646s-2.787.776-3.669 4.057c-.882 3.28 3.422 6.914 3.422 6.914s2.54 2.187 4.586 1.305c3.951-1.728 3.493-6.208 3.493-6.208l.882-1.764c.035-.07-2.681-1.023-2.435-4.34z" fill="#87764E"/>
    <path fill-rule="evenodd" clip-rule="evenodd" d="M26.634 15.522c6.773 2.681 7.302 9.595 7.302 9.595s.459 2.575-2.258 2.4l-2.187-1.095-5.291 1.553-5.539-.388-2.01.846S4.41 25.47 2.716 16.721c-1.27 8.96 2.928 13.053 5.997 14.675 2.434 1.13 3.352 1.059 3.352 1.059l-1.482 1.093s2.505 1.588 3.563 1.835c1.023.247 1.799.106 1.799.106l-.212.635 3.14 7.76-.353 5.998-.705 1.234.388 1.411s3.774 4.304 11.147.6c.423-1.693 1.376-8.078 1.376-8.078l4.445-6.35-1.447-3.986 5.222-2.152.74-.67-2.116-1.2 3.386-2.61c.07 0 .353-9.349-14.322-12.559z" fill="#87764E"/>
  </g>
  <defs>
    <clipPath id="clip0">
      <path fill="white" d="M0 0h168v72H0z"/>
    </clipPath>
  </defs>
</svg>
