<svg width="168" height="72" viewBox="0 0 168 72" fill="none" xmlns="http://www.w3.org/2000/svg">
<g clip-path="url(#clip0)">
<path d="M67.555 67.0965C67.9784 66.1793 68.8956 63.8863 69.0367 63.3924C69.0719 63.2866 69.1072 63.1808 69.1072 63.1455C69.1072 63.1102 69.0719 63.0397 69.0014 63.0044C68.9308 62.9691 68.825 62.9691 68.7544 62.9691C68.7192 62.9691 68.6839 62.9338 68.6839 62.8986C68.6839 62.8633 68.7192 62.828 68.8603 62.828C69.1425 62.828 69.46 62.828 69.5305 62.828C69.5658 62.828 69.8833 62.828 70.095 62.828C70.1655 62.828 70.2008 62.828 70.2008 62.8633C70.2008 62.8986 70.1655 62.9338 70.1302 62.9338C70.095 62.9338 69.9186 62.9338 69.8128 63.0044C69.7069 63.0749 69.6011 63.1808 69.4247 63.6394C69.3542 63.8158 69.0014 64.6271 68.6486 65.4738C68.2253 66.4615 67.9078 67.2023 67.7314 67.5198C67.555 67.9431 67.4845 68.0137 67.4139 68.0137C67.3434 68.0137 67.2728 67.9431 67.167 67.5904L65.4384 63.4277C65.2621 63.0397 65.1915 62.9691 64.9446 62.9338C64.8387 62.8986 64.6976 62.8986 64.6623 62.8986C64.6271 62.8986 64.5918 62.8633 64.5918 62.828C64.5918 62.7927 64.6624 62.7927 64.7682 62.7927C65.0857 62.7927 65.509 62.7927 65.5795 62.7927C65.6501 62.7927 65.9676 62.7927 66.2498 62.7927C66.3909 62.7927 66.4262 62.7927 66.4262 62.828C66.4262 62.8633 66.3909 62.8986 66.3556 62.8986C66.2851 62.8986 66.1792 62.8986 66.1087 62.9338C66.0381 62.9691 66.0381 63.0044 66.0381 63.0397C66.0381 63.1102 66.1087 63.3219 66.2145 63.6041L67.555 67.0965Z" fill="#87764E"/>
<path d="M71.4002 64.8034C71.4002 63.7451 71.4002 63.5687 71.4002 63.357C71.4002 63.1101 71.3297 63.0043 71.118 62.969C71.0475 62.969 70.9416 62.969 70.8711 62.969C70.8358 62.969 70.8005 62.9337 70.8005 62.8984C70.8005 62.8632 70.8358 62.8279 70.9064 62.8279C71.2239 62.8279 71.6825 62.8279 71.7177 62.8279C71.753 62.8279 73.2346 62.8279 73.3757 62.8279C73.5169 62.8279 73.6227 62.7926 73.6932 62.7926C73.7285 62.7926 73.7638 62.7573 73.7991 62.7573C73.8343 62.7573 73.8343 62.7926 73.8343 62.8279C73.8343 62.8632 73.7991 62.969 73.7638 63.1454C73.7638 63.2159 73.7285 63.4981 73.7285 63.604C73.7285 63.6392 73.6932 63.6745 73.658 63.6745C73.6227 63.6745 73.5874 63.6392 73.5874 63.604C73.5874 63.5687 73.5874 63.4276 73.5521 63.357C73.5169 63.2512 73.4463 63.1806 73.0583 63.1454C72.9524 63.1454 72.1411 63.1101 72.0352 63.1101C71.9999 63.1101 72 63.1454 72 63.1807V65.015C72 65.0503 71.9999 65.0856 72.0352 65.0856C72.1058 65.0856 73.0583 65.0856 73.1994 65.0856C73.3757 65.0856 73.4816 65.0503 73.5521 64.9798C73.5874 64.9445 73.6227 64.9092 73.658 64.9092C73.6932 64.9092 73.6932 64.9092 73.6932 64.9798C73.6932 65.015 73.658 65.1209 73.6227 65.3678C73.6227 65.5089 73.5874 65.7559 73.5874 65.7911C73.5874 65.8617 73.5874 65.9322 73.5168 65.9322C73.4816 65.9322 73.4816 65.897 73.4816 65.8617C73.4816 65.7911 73.4816 65.7206 73.4463 65.65C73.411 65.5442 73.3757 65.4736 73.0935 65.4384C72.9171 65.4031 72.1411 65.4031 72.0352 65.4031C71.9999 65.4031 72 65.4384 72 65.4384V66.0028C72 66.2497 72 67.0258 72 67.1669C72 67.6255 72.1411 67.6961 72.8466 67.6961C73.023 67.6961 73.3757 67.6961 73.5521 67.6255C73.7285 67.555 73.8343 67.4139 73.8696 67.1669C73.8696 67.0964 73.9049 67.0611 73.9402 67.0611C73.9755 67.0611 73.9754 67.1316 73.9754 67.1669C73.9754 67.2022 73.9049 67.6608 73.8696 67.8372C73.8343 68.0136 73.7638 68.0136 73.4816 68.0136C72.9524 68.0136 72.5644 68.0136 72.2469 67.9783C71.9647 67.9783 71.753 67.9783 71.6825 67.9783C71.6825 67.9783 71.5414 67.9783 71.365 67.9783C71.2239 67.9783 71.0828 67.9783 70.9416 67.9783C70.8711 67.9783 70.8358 67.9783 70.8358 67.9077C70.8358 67.8725 70.8358 67.8372 70.9064 67.8372C70.9769 67.8372 71.0475 67.8019 71.118 67.8019C71.2591 67.7666 71.2591 67.6255 71.2944 67.4491C71.3297 67.1669 71.3297 66.6378 71.3297 65.9675V64.8034H71.4002Z" fill="#87764E"/>
<path d="M76.0216 64.8034C76.0216 63.745 76.0216 63.5687 76.0216 63.357C76.0216 63.1101 75.951 63.0042 75.7394 62.969C75.6688 62.969 75.563 62.969 75.4924 62.969C75.4572 62.969 75.4219 62.9337 75.4219 62.8984C75.4219 62.8631 75.4572 62.8279 75.5277 62.8279C75.8452 62.8279 76.3038 62.8279 76.3391 62.8279C76.4096 62.8279 76.8682 62.8279 77.2915 62.8279C77.9971 62.8279 79.267 62.7573 80.1137 63.6039C80.4665 63.9567 80.784 64.5211 80.784 65.3325C80.784 66.1791 80.4312 66.8494 80.0431 67.2375C79.7256 67.5549 79.1259 68.0135 77.9265 68.0135C77.609 68.0135 77.2563 67.9783 76.9388 67.9783C76.6213 67.943 76.4096 67.943 76.3743 67.943C76.3743 67.943 76.2332 67.943 76.0921 67.943C75.951 67.943 75.7746 67.943 75.6688 67.943C75.5983 67.943 75.563 67.943 75.563 67.8724C75.563 67.8372 75.563 67.8019 75.6335 67.8019C75.7041 67.8019 75.7746 67.8019 75.8452 67.7666C75.9863 67.7313 75.9863 67.5902 76.0216 67.4138C76.0569 67.1316 76.0569 66.6025 76.0569 65.9322V64.8034H76.0216ZM76.6566 65.5442C76.6566 66.2497 76.6566 66.8847 76.6566 67.0258C76.6566 67.2022 76.6918 67.4491 76.7271 67.5197C76.7977 67.6608 77.0446 67.8019 77.8913 67.8019C78.5262 67.8019 79.1259 67.5902 79.5493 67.2022C79.902 66.8494 80.1137 66.2144 80.1137 65.5794C80.1137 64.7328 79.7256 64.1684 79.4434 63.8862C78.7732 63.2159 77.9971 63.1453 77.1857 63.1453C77.0446 63.1453 76.8329 63.1806 76.7624 63.1806C76.6918 63.2159 76.6918 63.2512 76.6918 63.3217V65.5442H76.6566Z" fill="#87764E"/>
<path d="M82.8651 67.0611C82.8651 67.6255 82.9356 67.8019 83.1473 67.8372C83.2884 67.8725 83.4295 67.8725 83.5001 67.8725C83.5353 67.8725 83.5706 67.9077 83.5706 67.943C83.5706 67.9783 83.5353 68.0136 83.4295 68.0136C83.0415 68.0136 82.7592 67.9783 82.6887 67.9783C82.6181 67.9783 82.3359 68.0136 82.0184 68.0136C81.9479 68.0136 81.9126 68.0136 81.9126 67.943C81.9126 67.9077 81.9479 67.8725 81.9832 67.8725C82.0537 67.8725 82.1595 67.8725 82.2654 67.8372C82.4417 67.8019 82.477 67.5902 82.477 66.9905V63.1101C82.477 62.8279 82.5123 62.7573 82.5829 62.7573C82.6534 62.7573 82.7945 62.8984 82.8651 62.969C82.9709 63.0748 83.9939 64.1684 85.0875 65.2973C85.793 66.0028 86.5339 66.8142 86.7455 67.0258L86.675 63.6392C86.675 63.2159 86.6397 63.0395 86.428 63.0043C86.2869 62.969 86.1458 62.969 86.0753 62.969C86.04 62.969 86.0047 62.9337 86.0047 62.8984C86.0047 62.8632 86.0753 62.8632 86.1458 62.8632C86.4633 62.8632 86.8161 62.8632 86.8866 62.8632C86.9572 62.8632 87.2041 62.8632 87.4863 62.8632C87.5569 62.8632 87.6274 62.8632 87.6274 62.8984C87.6274 62.9337 87.5922 62.969 87.5569 62.969C87.5216 62.969 87.4863 62.969 87.3805 62.969C87.1336 63.0043 87.1336 63.1454 87.1336 63.5687V67.555C87.1336 68.0136 87.1336 68.0488 87.063 68.0488C86.9925 68.0488 86.9219 67.9783 86.5339 67.6255C86.4633 67.555 85.4403 66.5672 84.6995 65.7911C83.8881 64.9445 83.112 64.0978 82.8651 63.8862V67.0611Z" fill="#87764E"/>
<path d="M91.2961 62.7573C92.8836 62.7573 94.083 63.7098 94.083 65.2973C94.083 66.8142 92.9542 68.0488 91.2609 68.0488C89.3559 68.0488 88.5093 66.6025 88.5093 65.4031C88.5093 64.3095 89.3559 62.7573 91.2961 62.7573ZM91.4725 67.8019C92.1075 67.8019 93.3775 67.4844 93.3775 65.5089C93.3775 63.8862 92.3897 63.0395 91.2961 63.0395C90.132 63.0395 89.2854 63.7804 89.2854 65.262C89.2501 66.8142 90.2026 67.8019 91.4725 67.8019Z" fill="#87764E"/>
<path d="M100.292 67.0965C100.715 66.1793 101.632 63.8863 101.773 63.3924C101.809 63.2866 101.844 63.1808 101.844 63.1455C101.844 63.1102 101.809 63.0397 101.738 63.0044C101.668 62.9691 101.562 62.9691 101.491 62.9691C101.456 62.9691 101.421 62.9338 101.421 62.8986C101.421 62.8633 101.456 62.828 101.597 62.828C101.879 62.828 102.197 62.828 102.267 62.828C102.303 62.828 102.62 62.828 102.832 62.828C102.902 62.828 102.938 62.828 102.938 62.8633C102.938 62.8986 102.902 62.9338 102.867 62.9338C102.832 62.9338 102.655 62.9338 102.55 63.0044C102.444 63.0749 102.338 63.1808 102.162 63.6394C102.091 63.8158 101.738 64.6271 101.385 65.4738C100.962 66.4615 100.645 67.2023 100.468 67.5198C100.292 67.9431 100.221 68.0137 100.151 68.0137C100.08 68.0137 100.01 67.9431 99.9038 67.5904L98.1753 63.4277C97.9989 63.0397 97.9283 62.9691 97.6814 62.9338C97.5756 62.8986 97.4344 62.8986 97.3992 62.8986C97.3639 62.8986 97.3286 62.8633 97.3286 62.828C97.3286 62.7927 97.3992 62.7927 97.505 62.7927C97.8225 62.7927 98.2458 62.7927 98.3164 62.7927C98.3869 62.7927 98.7044 62.7927 98.9866 62.7927C99.1277 62.7927 99.163 62.7927 99.163 62.828C99.163 62.8633 99.1277 62.8986 99.0925 62.8986C99.0219 62.8986 98.9161 62.8986 98.8455 62.9338C98.775 62.9691 98.775 63.0044 98.775 63.0397C98.775 63.1102 98.8455 63.3219 98.9513 63.6041L100.292 67.0965Z" fill="#87764E"/>
<path d="M104.137 64.8034C104.137 63.7451 104.137 63.5687 104.137 63.357C104.137 63.1101 104.067 63.0043 103.855 62.969C103.785 62.969 103.679 62.969 103.608 62.969C103.573 62.969 103.538 62.9337 103.538 62.8984C103.538 62.8632 103.573 62.8279 103.643 62.8279C103.961 62.8279 104.42 62.8279 104.455 62.8279C104.49 62.8279 105.972 62.8279 106.113 62.8279C106.254 62.8279 106.36 62.7926 106.43 62.7926C106.466 62.7926 106.501 62.7573 106.536 62.7573C106.571 62.7573 106.571 62.7926 106.571 62.8279C106.571 62.8632 106.536 62.969 106.501 63.1454C106.501 63.2159 106.466 63.4981 106.466 63.604C106.466 63.6392 106.43 63.6745 106.395 63.6745C106.36 63.6745 106.324 63.6392 106.324 63.604C106.324 63.5687 106.324 63.4276 106.289 63.357C106.254 63.2512 106.183 63.1806 105.795 63.1454C105.689 63.1454 104.878 63.1101 104.772 63.1101C104.737 63.1101 104.737 63.1454 104.737 63.1807V65.015C104.737 65.0503 104.737 65.0856 104.772 65.0856C104.843 65.0856 105.795 65.0856 105.936 65.0856C106.113 65.0856 106.219 65.0503 106.289 64.9798C106.324 64.9445 106.36 64.9092 106.395 64.9092C106.43 64.9092 106.43 64.9092 106.43 64.9798C106.43 65.015 106.395 65.1209 106.36 65.3678C106.36 65.5089 106.324 65.7559 106.324 65.7911C106.324 65.8617 106.324 65.9322 106.254 65.9322C106.219 65.9322 106.219 65.897 106.219 65.8617C106.219 65.7911 106.219 65.7206 106.183 65.65C106.148 65.5442 106.113 65.4736 105.831 65.4384C105.654 65.4031 104.878 65.4031 104.772 65.4031C104.737 65.4031 104.737 65.4384 104.737 65.4384V66.0028C104.737 66.2497 104.737 67.0258 104.737 67.1669C104.737 67.6255 104.878 67.6961 105.584 67.6961C105.76 67.6961 106.113 67.6961 106.289 67.6255C106.466 67.555 106.571 67.4139 106.607 67.1669C106.607 67.0964 106.642 67.0611 106.677 67.0611C106.712 67.0611 106.713 67.1316 106.713 67.1669C106.713 67.2022 106.642 67.6608 106.607 67.8372C106.571 68.0136 106.501 68.0136 106.219 68.0136C105.689 68.0136 105.301 68.0136 104.984 67.9783C104.702 67.9783 104.49 67.9783 104.42 67.9783C104.42 67.9783 104.278 67.9783 104.102 67.9783C103.961 67.9783 103.82 67.9783 103.679 67.9783C103.608 67.9783 103.573 67.9783 103.573 67.9077C103.573 67.8725 103.573 67.8372 103.643 67.8372C103.714 67.8372 103.785 67.8019 103.855 67.8019C103.996 67.7666 103.996 67.6255 104.031 67.4491C104.067 67.1669 104.067 66.6378 104.067 65.9675V64.8034H104.137Z" fill="#87764E"/>
<path d="M108.794 67.3434C108.123 66.7437 107.947 65.9676 107.947 65.3326C107.947 64.874 108.123 64.0979 108.723 63.4982C109.146 63.0749 109.781 62.7574 110.875 62.7574C111.157 62.7574 111.545 62.7927 111.898 62.8279C112.145 62.8632 112.392 62.9338 112.604 62.9338C112.674 62.9338 112.674 62.969 112.674 63.0043C112.674 63.0749 112.674 63.1454 112.639 63.3924C112.639 63.604 112.639 63.9921 112.639 64.0979C112.639 64.2037 112.604 64.239 112.568 64.239C112.533 64.239 112.498 64.2037 112.498 64.0979C112.498 63.851 112.392 63.5688 112.216 63.4276C111.969 63.216 111.475 63.0396 110.84 63.0396C109.923 63.0396 109.499 63.2865 109.252 63.4982C108.723 63.9921 108.617 64.5918 108.617 65.262C108.617 66.5673 109.64 67.7314 111.157 67.7314C111.686 67.7314 112.039 67.6961 112.321 67.4139C112.462 67.2728 112.568 66.9906 112.604 66.8495C112.604 66.7789 112.639 66.7437 112.674 66.7437C112.709 66.7437 112.745 66.7789 112.745 66.8495C112.745 66.8848 112.639 67.4845 112.568 67.7314C112.533 67.8725 112.498 67.8725 112.392 67.9431C112.11 68.0489 111.581 68.0842 111.122 68.0842C110.064 68.0489 109.358 67.802 108.794 67.3434ZM109.958 61.3463C109.993 61.311 109.993 61.311 110.028 61.311C110.064 61.311 110.064 61.311 110.099 61.3463C110.275 61.5227 110.663 61.8402 110.769 61.9107C110.804 61.9107 110.84 61.946 110.84 61.946C110.875 61.946 110.91 61.946 110.981 61.9107C111.157 61.8049 111.475 61.558 111.651 61.4169C111.722 61.3463 111.757 61.3463 111.792 61.3463C111.827 61.3463 111.863 61.3816 111.863 61.4169C111.863 61.4521 111.827 61.4874 111.827 61.4874C111.757 61.558 111.016 62.2282 110.946 62.2988C110.875 62.3693 110.84 62.3693 110.804 62.3693C110.769 62.3693 110.734 62.3341 110.699 62.2988C110.628 62.2635 109.993 61.7696 109.887 61.6991C109.817 61.6638 109.781 61.6285 109.781 61.6285C109.781 61.5932 109.817 61.5932 109.817 61.558L109.958 61.3463Z" fill="#87764E"/>
<path d="M113.909 67.5198C113.909 67.3434 114.05 67.0964 114.332 67.0964C114.579 67.0964 114.755 67.2728 114.755 67.5198C114.755 67.7667 114.579 67.9784 114.297 67.9784C114.05 67.9431 113.909 67.7314 113.909 67.5198Z" fill="#87764E"/>
<path d="M65.7913 23.8471C65.5444 23.318 65.4738 23.1769 65.0505 23.1063C64.8741 23.071 64.7683 23.071 64.6977 23.071C64.5919 23.071 64.5566 23.0358 64.5566 23.0005C64.5566 22.9299 64.6272 22.9299 64.733 22.9299C65.2622 22.9299 65.9324 22.9652 66.0383 22.9652C66.1441 22.9652 66.6732 22.9299 67.0966 22.9299C67.2377 22.9299 67.273 22.9652 67.273 23.0005C67.273 23.071 67.2377 23.1063 67.0966 23.1063C66.9202 23.1063 66.8496 23.1416 66.7438 23.1769C66.638 23.2474 66.638 23.318 66.638 23.3885C66.638 23.4591 66.7085 23.6707 66.8144 23.953L68.8251 29.0328C69.3896 27.7629 70.7301 24.4116 70.9417 23.7413C71.0123 23.6002 71.0476 23.4591 71.0476 23.3533C71.0476 23.2827 71.0476 23.2121 70.9417 23.1769C70.8359 23.1416 70.6948 23.1416 70.589 23.1416C70.5184 23.1416 70.4479 23.1063 70.4479 23.071C70.4479 23.0005 70.4831 22.9652 70.6243 22.9652C71.0476 22.9652 71.5767 23.0005 71.7178 23.0005C71.7531 23.0005 72.2117 22.9652 72.4939 22.9652C72.5998 22.9652 72.6703 23.0005 72.6703 23.0358C72.6703 23.1063 72.635 23.1416 72.5292 23.1416C72.3881 23.1416 72.247 23.1416 72.0353 23.2474C71.8942 23.3533 71.7884 23.4944 71.5062 24.1293C71.4356 24.2705 70.8712 25.5757 70.342 26.7751C69.7423 28.1862 69.2485 29.2798 69.0721 29.6678C68.7546 30.3028 68.7193 30.4792 68.6135 30.4792C68.4724 30.4792 68.4018 30.3381 68.2254 29.8442L65.7913 23.8471Z" fill="#1A262E"/>
<path d="M76.4801 29.8442C77.5031 29.8442 77.9264 29.7384 78.1028 29.3856C78.2086 29.1739 78.2439 29.0328 78.2792 28.8564C78.3145 28.7506 78.3145 28.6801 78.385 28.6801C78.4556 28.6801 78.4556 28.7506 78.4556 28.8564C78.4556 29.1739 78.3145 29.8089 78.2439 30.0558C78.1734 30.3028 78.1381 30.3381 77.8911 30.3381C76.1978 30.3381 74.5751 30.3028 72.776 30.3028C72.6349 30.3028 72.5996 30.3028 72.5996 30.2322C72.5996 30.1617 72.6349 30.1264 72.7407 29.95C74.2576 27.7276 75.704 25.611 77.115 23.3885H74.9984C74.3635 23.3885 73.8343 23.3885 73.4815 23.5296C73.1288 23.6707 73.0229 24.1293 72.9877 24.3763C72.9524 24.5174 72.9171 24.5527 72.8818 24.5527C72.8465 24.5527 72.8113 24.4821 72.8113 24.4116C72.8113 24.2704 72.9524 23.3533 73.0229 23.071C73.0582 22.9299 73.0582 22.8594 73.1288 22.8594C73.2346 22.8594 73.3051 22.9299 73.5874 22.9299C74.6809 22.9652 75.1748 22.9652 75.3159 22.9652H78.1381C78.2792 22.9652 78.385 22.9652 78.385 23.0358C78.385 23.071 78.3497 23.1416 78.3145 23.2121C76.7976 25.5051 75.4218 27.6217 73.9049 29.8442H76.4801Z" fill="#1A262E"/>
<path d="M81.1721 27.4805C81.1016 27.4805 81.0663 27.5158 81.0663 27.5863L80.5724 29.0327C80.4666 29.3502 80.3608 29.6677 80.3608 29.8441C80.3608 30.0557 80.5019 30.1263 80.7488 30.1263C80.7841 30.1263 80.7841 30.1263 80.8194 30.1263C80.9252 30.1263 80.9605 30.1616 80.9605 30.1968C80.9605 30.2674 80.8546 30.2674 80.7841 30.2674C80.5371 30.2674 80.008 30.2321 79.8669 30.2321C79.7611 30.2321 79.2319 30.2674 78.7733 30.2674C78.6322 30.2674 78.5969 30.2321 78.5969 30.1968C78.5969 30.1616 78.6322 30.1263 78.738 30.1263C78.8086 30.1263 78.9144 30.1263 78.985 30.1263C79.4788 30.091 79.6905 29.703 79.8669 29.2091L82.1599 23.1415C82.301 22.824 82.3363 22.7534 82.4068 22.7534C82.4774 22.7534 82.5127 22.7887 82.6538 23.1062C82.8301 23.4942 84.3823 27.4805 84.982 28.9269C85.3701 29.8441 85.6876 29.9852 85.864 30.0557C86.0051 30.1263 86.1814 30.1263 86.252 30.1263C86.3226 30.1263 86.3931 30.1616 86.3931 30.1968C86.3931 30.2321 86.3578 30.2674 86.2167 30.2674C86.1109 30.2674 85.229 30.2674 84.4529 30.2321C84.2412 30.2321 84.1707 30.1968 84.1707 30.1616C84.1707 30.1263 84.2059 30.091 84.2412 30.091C84.2765 30.0557 84.347 30.0204 84.2765 29.8441L83.3593 27.5511C83.324 27.5158 83.324 27.4805 83.2535 27.4805H81.1721ZM83.1124 27.0925C83.1476 27.0925 83.1476 27.0572 83.1476 27.0219L82.2304 24.482C82.1599 24.3056 82.1599 24.3056 82.0893 24.482L81.2427 27.0219C81.2074 27.0572 81.2427 27.0925 81.278 27.0925H83.1124Z" fill="#1A262E"/>
<path d="M88.1215 27.9392C88.1215 29.5972 88.1215 30.2322 87.804 30.973C87.5923 31.4669 87.1337 31.9255 86.2518 32.5252C86.1107 32.5958 85.9696 32.7369 85.8638 32.7722C85.8638 32.7722 85.8285 32.7722 85.7932 32.7722C85.7579 32.7722 85.7227 32.7722 85.7227 32.7016C85.7227 32.6311 85.7932 32.5958 85.8638 32.5605C85.9696 32.4899 86.1107 32.3841 86.1813 32.3136C86.8868 31.6433 87.2043 31.1494 87.2043 28.5389V25.7168C87.2043 24.1999 87.2043 23.9177 87.169 23.6355C87.1337 23.318 87.0279 23.1769 86.7104 23.071C86.6399 23.071 86.4635 23.0358 86.3576 23.0358C86.3224 23.0358 86.2871 23.0005 86.2871 22.9652C86.2871 22.8947 86.3576 22.8594 86.4635 22.8594C86.9573 22.8594 87.6276 22.8947 87.6629 22.8947C87.6982 22.8947 88.4037 22.8594 88.7212 22.8594C88.827 22.8594 88.8976 22.8947 88.8976 22.9652C88.8976 23.0005 88.8623 23.0358 88.827 23.0358C88.7565 23.0358 88.6859 23.0358 88.5801 23.071C88.3331 23.1416 88.2273 23.318 88.192 23.6355C88.1568 23.953 88.1568 24.1999 88.1568 25.7168V27.9392H88.1215Z" fill="#1A262E"/>
<path d="M90.8026 25.752C90.8026 24.235 90.8026 23.9528 90.7673 23.6706C90.732 23.3531 90.6615 23.1767 90.344 23.1062C90.2734 23.1062 90.1676 23.0709 90.0618 23.0709C89.9912 23.0709 89.9207 23.0356 89.9207 23.0004C89.9207 22.9298 89.9912 22.8945 90.097 22.8945C90.344 22.8945 90.6262 22.9298 91.2965 22.9298C91.367 22.9298 93.4131 22.9298 93.6247 22.9298C93.8717 22.9298 93.9775 22.8945 94.0833 22.8593C94.1539 22.824 94.1539 22.824 94.2244 22.824C94.2597 22.824 94.2597 22.8593 94.2597 22.8945C94.2597 22.9651 94.1892 23.1415 94.1539 23.4237C94.1539 23.6353 94.1186 23.8117 94.1186 24.0234C94.1186 24.1292 94.0833 24.1998 94.0481 24.1998C94.0128 24.1998 93.9775 24.1645 93.9775 24.0587C93.9775 23.8823 93.9422 23.7764 93.907 23.7059C93.8364 23.459 93.7306 23.3884 93.1661 23.3531C93.025 23.3531 91.8962 23.3179 91.8609 23.3179C91.8256 23.3179 91.7903 23.3531 91.7903 23.4237V26.0342C91.7903 26.1047 91.7903 26.14 91.8609 26.14C92.002 26.14 93.1661 26.14 93.4131 26.1047C93.66 26.1047 93.8364 26.0694 93.9422 25.9283C93.9775 25.8578 94.0128 25.8225 94.0833 25.8225C94.1186 25.8225 94.1186 25.8225 94.1186 25.8931C94.1186 25.9636 94.0833 26.1753 94.0481 26.4928C94.0128 26.8103 94.0128 27.0572 94.0128 27.1983C94.0128 27.3041 93.9775 27.3394 93.9422 27.3394C93.8717 27.3394 93.8717 27.2689 93.8717 27.1983C93.8717 27.1277 93.8717 27.0219 93.8364 26.9161C93.8011 26.775 93.7306 26.5986 93.272 26.5633C93.025 26.528 92.0726 26.528 91.8962 26.528C91.8256 26.528 91.8256 26.5633 91.8256 26.5986V27.4452C91.8256 27.798 91.8256 28.821 91.8256 28.9974C91.8609 29.4207 91.8962 29.6324 92.1431 29.7382C92.3195 29.8088 92.6017 29.8441 92.9898 29.8441C93.2014 29.8441 93.5895 29.8441 93.8717 29.7735C94.2244 29.6677 94.295 29.456 94.4008 28.9974C94.4361 28.8916 94.4714 28.821 94.5067 28.821C94.5772 28.821 94.5772 28.9269 94.5772 28.9974C94.5772 29.068 94.4714 29.8088 94.4361 29.9852C94.4008 30.2321 94.295 30.2321 93.9422 30.2321C93.1661 30.2321 92.8486 30.1968 92.4606 30.1968C92.0726 30.1968 91.5434 30.1616 91.1201 30.1616C90.8731 30.1616 90.6262 30.1968 90.344 30.1968C90.2382 30.1968 90.1676 30.1616 90.1676 30.1263C90.1676 30.091 90.2029 30.0557 90.2734 30.0557C90.344 30.0557 90.4145 30.0557 90.5204 30.0204C90.732 29.9852 90.8731 29.8088 90.8731 29.1032C90.8731 28.7152 90.9084 28.2566 90.9084 27.3747V25.752H90.8026Z" fill="#1A262E"/>
<path d="M104.031 29.0328C104.067 29.315 104.137 29.95 104.596 30.0558C104.807 30.0911 105.019 30.1264 105.196 30.1264C105.231 30.1264 105.337 30.1264 105.337 30.197C105.337 30.2675 105.301 30.3028 105.16 30.3028C104.949 30.3028 103.714 30.2675 103.361 30.2322C103.114 30.1969 103.008 30.197 103.008 30.1264C103.008 30.0911 103.044 30.0558 103.114 30.0206C103.185 29.9853 103.22 29.8442 103.185 29.7031L102.656 24.7996L100.221 29.7384C100.01 30.197 99.9745 30.3028 99.8687 30.3028C99.7981 30.3028 99.7276 30.197 99.5159 29.8089C99.3395 29.4914 98.4223 27.6217 98.3518 27.5159C98.2812 27.3748 97.1524 25.1524 97.0818 24.9054L96.6585 29.315C96.6585 29.4914 96.6585 29.562 96.6585 29.7384C96.6585 29.8795 96.7291 30.0206 96.9407 30.0911C97.0818 30.1264 97.1524 30.1264 97.2582 30.1264C97.364 30.1264 97.364 30.1617 97.364 30.197C97.364 30.2675 97.2935 30.3028 97.1524 30.3028C96.7996 30.3028 96.3057 30.2675 96.1999 30.2675C96.0941 30.2675 95.6002 30.3028 95.318 30.3028C95.2122 30.3028 95.1416 30.3028 95.1416 30.197C95.1416 30.1617 95.1769 30.1264 95.2827 30.1264C95.3533 30.1264 95.3885 30.1264 95.4944 30.1264C95.7766 30.0911 95.8824 29.8442 95.9177 29.3503L96.6938 23.0358C96.7291 22.8241 96.7643 22.7535 96.8349 22.7535C96.9054 22.7535 96.9407 22.7888 97.0113 22.9299L100.08 28.8917L103.008 22.9299C103.079 22.7888 103.114 22.7183 103.185 22.7183C103.255 22.7183 103.291 22.8241 103.291 23.0005L104.031 29.0328Z" fill="#1A262E"/>
<path d="M106.677 29.3856C105.69 28.5389 105.443 27.4101 105.443 26.4576C105.443 25.8226 105.69 24.6585 106.607 23.8118C107.242 23.2121 108.159 22.7888 109.711 22.7888C110.24 22.7888 110.664 22.8241 111.228 22.9299C111.581 23.0005 111.969 23.0358 112.251 23.071C112.357 23.071 112.357 23.1416 112.357 23.1769C112.357 23.2827 112.322 23.3885 112.286 23.7413C112.286 24.0588 112.286 24.6585 112.251 24.7996C112.251 24.976 112.216 25.0113 112.145 25.0113C112.075 25.0113 112.039 24.9407 112.039 24.7996C112.039 24.4821 111.863 24.0235 111.581 23.8118C111.228 23.5296 110.417 23.2121 109.535 23.2121C108.265 23.2121 107.665 23.5649 107.312 23.8824C106.571 24.5527 106.395 25.3993 106.395 26.3871C106.395 28.292 107.947 29.9853 109.958 29.9853C110.734 29.9853 111.299 29.9147 111.722 29.5267C111.934 29.315 112.039 29.0328 112.11 28.7153C112.145 28.6095 112.181 28.5389 112.251 28.5389C112.322 28.5389 112.322 28.6095 112.322 28.7153C112.322 28.8212 112.181 29.7384 112.075 29.9853C112.004 30.1617 111.969 30.197 111.828 30.2675C111.44 30.4439 110.664 30.5144 110.029 30.5144C108.547 30.4439 107.489 30.0911 106.677 29.3856Z" fill="#1A262E"/>
<path d="M114.085 25.7521C114.085 24.2352 114.085 23.953 114.05 23.6355C114.015 23.318 113.944 23.1416 113.733 23.1063C113.627 23.071 113.521 23.071 113.486 23.071C113.415 23.071 113.344 23.0358 113.344 23.0005C113.344 22.9299 113.38 22.9299 113.521 22.9299C113.874 22.9299 114.544 22.9652 114.579 22.9652C114.614 22.9652 115.285 22.9299 115.602 22.9299C115.708 22.9299 115.779 22.9652 115.779 23.0005C115.779 23.0358 115.743 23.071 115.637 23.071C115.567 23.071 115.496 23.071 115.426 23.1063C115.108 23.1416 115.073 23.318 115.038 23.6707C115.002 23.9882 115.038 24.2352 115.038 25.7521V27.4806C115.038 28.3626 115.038 29.1739 115.073 29.5973C115.108 29.9147 115.179 30.0559 115.461 30.1264C115.602 30.1617 115.849 30.1617 115.884 30.1617C115.99 30.1617 116.026 30.197 116.026 30.2322C116.026 30.2675 115.99 30.3028 115.849 30.3028C115.249 30.3028 114.579 30.2675 114.544 30.2675C114.509 30.2675 113.838 30.3028 113.521 30.3028C113.415 30.3028 113.344 30.2675 113.344 30.2322C113.344 30.197 113.38 30.1617 113.486 30.1617C113.556 30.1617 113.662 30.1617 113.768 30.1264C113.979 30.0911 114.015 29.8442 114.015 29.562C114.085 29.1387 114.085 28.3273 114.085 27.4806V25.7521Z" fill="#1A262E"/>
<path d="M69.6364 45.2601C69.5305 45.2601 69.46 45.3307 69.4247 45.4365L68.437 48.2586C68.2253 48.8936 68.0489 49.4933 68.0489 49.8461C68.0489 50.2341 68.2959 50.4458 68.7897 50.4458C68.8603 50.4458 68.8956 50.4458 68.9308 50.4458C69.1425 50.4458 69.2131 50.5164 69.2131 50.5869C69.2131 50.6927 69.0367 50.728 68.8603 50.728C68.3664 50.728 67.3434 50.6575 67.0964 50.6575C66.8848 50.6575 65.897 50.728 64.9446 50.728C64.6976 50.728 64.5918 50.6927 64.5918 50.5869C64.5918 50.4811 64.6976 50.4458 64.874 50.4458C64.9798 50.4458 65.1915 50.4458 65.3326 50.4105C66.2851 50.3047 66.6731 49.5639 67.0612 48.6467L71.5413 36.7937C71.7883 36.1587 71.8588 36.0176 71.9999 36.0176C72.1058 36.0176 72.2116 36.1234 72.4585 36.7231C72.776 37.4639 75.8451 45.3307 77.0092 48.1175C77.75 49.8814 78.4203 50.1989 78.7025 50.3047C78.9847 50.4105 79.3022 50.4105 79.4786 50.4105C79.6197 50.4105 79.7608 50.4458 79.7608 50.5516C79.7608 50.6575 79.655 50.6927 79.4081 50.6927C79.1964 50.6927 77.5031 50.6927 75.9862 50.6575C75.5629 50.6222 75.4218 50.6222 75.4218 50.5164C75.4218 50.4458 75.4923 50.3753 75.5629 50.3753C75.6687 50.34 75.7745 50.2341 75.6687 49.8814L73.9049 45.3659C73.8696 45.2954 73.799 45.2601 73.7285 45.2601H69.6364ZM73.4816 44.484C73.5874 44.484 73.5874 44.4135 73.5521 44.3429L71.7883 39.3689C71.6824 39.0514 71.6472 39.0514 71.5413 39.3689L69.848 44.3429C69.8128 44.4487 69.848 44.484 69.8833 44.484H73.4816Z" fill="#1A262E"/>
<path d="M81.7716 48.9642C79.8667 47.3062 79.3728 45.0837 79.3728 43.2141C79.3728 41.9441 79.8667 39.7216 81.6305 38.0284C82.8299 36.8642 84.6643 36.0176 87.6629 36.0176C88.6859 36.0176 89.5325 36.1234 90.6261 36.2645C91.3316 36.3703 92.0725 36.4762 92.6016 36.5115C92.778 36.5115 92.8133 36.6173 92.8133 36.7231C92.8133 36.8995 92.7427 37.1112 92.7074 37.8167C92.6722 38.4517 92.6722 39.6158 92.6722 39.898C92.6369 40.2155 92.6016 40.3214 92.4958 40.3214C92.3547 40.3214 92.3194 40.1802 92.3194 39.898C92.3194 39.263 92.0019 38.3811 91.4375 37.9578C90.7672 37.3581 89.1798 36.7937 87.4512 36.7937C84.9465 36.7937 83.8177 37.4992 83.1474 38.0989C81.7011 39.4394 81.3483 41.0622 81.3483 43.0377C81.3483 46.777 84.3821 50.0578 88.3331 50.0578C89.85 50.0578 90.9789 49.9167 91.7902 49.1406C92.1783 48.7172 92.4252 48.1528 92.5311 47.5178C92.5663 47.3062 92.6369 47.1651 92.778 47.1651C92.8838 47.1651 92.8838 47.3062 92.8838 47.4826C92.8838 47.6589 92.6016 49.4933 92.4252 49.9872C92.2841 50.34 92.2136 50.4105 91.8961 50.5516C91.12 50.9044 89.6031 51.0102 88.3331 51.0102C85.4051 51.0102 83.3591 50.34 81.7716 48.9642Z" fill="#1A262E"/>
<path d="M98.3871 45.2601C98.2813 45.2601 98.2107 45.3307 98.1754 45.4365L97.1877 48.2586C96.976 48.8936 96.7997 49.4933 96.7997 49.8461C96.7997 50.2341 97.0466 50.4458 97.5405 50.4458C97.611 50.4458 97.6463 50.4458 97.6816 50.4458C97.8932 50.4458 97.9638 50.5164 97.9638 50.5869C97.9638 50.6927 97.7874 50.728 97.611 50.728C97.1172 50.728 96.0941 50.6575 95.8472 50.6575C95.6355 50.6575 94.6478 50.728 93.6953 50.728C93.4484 50.728 93.3425 50.6927 93.3425 50.5869C93.3425 50.4811 93.4484 50.4458 93.6247 50.4458C93.7306 50.4458 93.9422 50.4458 94.0833 50.4105C95.0358 50.3047 95.4239 49.5639 95.8119 48.6467L100.292 36.7937C100.539 36.1587 100.61 36.0176 100.751 36.0176C100.856 36.0176 100.962 36.1234 101.209 36.7231C101.527 37.4639 104.596 45.3307 105.76 48.1175C106.501 49.8814 107.171 50.1989 107.453 50.3047C107.735 50.4105 108.053 50.4105 108.229 50.4105C108.37 50.4105 108.512 50.4458 108.512 50.5516C108.512 50.6575 108.406 50.6927 108.159 50.6927C107.947 50.6927 106.254 50.6927 104.737 50.6575C104.314 50.6222 104.173 50.6222 104.173 50.5164C104.173 50.4458 104.243 50.3753 104.314 50.3753C104.419 50.34 104.525 50.2341 104.419 49.8814L102.656 45.3659C102.62 45.2954 102.55 45.2601 102.479 45.2601H98.3871ZM102.232 44.484C102.338 44.484 102.338 44.4135 102.303 44.3429L100.539 39.3689C100.433 39.0514 100.398 39.0514 100.292 39.3689L98.5988 44.3429C98.5635 44.4487 98.5988 44.484 98.6341 44.484H102.232Z" fill="#1A262E"/>
<path d="M110.134 41.8381C110.134 38.8749 110.134 38.3105 110.099 37.7108C110.064 37.1111 109.887 36.7936 109.217 36.6525C109.076 36.6172 108.758 36.6172 108.582 36.6172C108.476 36.6172 108.37 36.5466 108.37 36.4761C108.37 36.335 108.511 36.2997 108.723 36.2997C109.64 36.2997 111.051 36.3702 111.122 36.3702C111.263 36.3702 112.462 36.2997 113.697 36.2997C115.673 36.2997 119.377 36.088 121.74 38.4868C122.728 39.4746 123.645 41.0621 123.645 43.3198C123.645 45.7186 122.622 47.553 121.493 48.6818C120.611 49.5638 118.918 50.869 115.496 50.869C114.65 50.869 113.556 50.8337 112.674 50.7632C111.827 50.7279 111.122 50.6573 111.051 50.6573C111.016 50.6573 110.699 50.6573 110.275 50.6926C109.852 50.6926 109.323 50.7279 108.97 50.7279C108.758 50.7279 108.653 50.6926 108.653 50.5868C108.653 50.5162 108.723 50.4457 108.9 50.4457C109.076 50.4457 109.252 50.4104 109.429 50.3751C109.817 50.3046 109.958 49.846 110.028 49.3521C110.169 48.5055 110.134 46.9886 110.134 45.1542V41.8381ZM111.969 43.7431C111.969 45.7539 112.004 47.5177 112.004 47.8705C112.039 48.576 112.074 49.1757 112.216 49.3874C112.462 49.7754 113.168 50.234 115.532 50.234C117.366 50.234 119.024 49.6343 120.223 48.4702C121.211 47.4824 121.67 45.7891 121.67 43.99C121.67 41.4501 120.506 39.8979 119.729 39.1571C117.825 37.2522 115.602 37.0052 113.38 37.0052C113.062 37.0052 112.357 37.0758 112.216 37.1463C112.039 37.2522 111.969 37.3227 111.969 37.5344C111.933 38.1694 111.933 40.1096 111.933 41.4501V43.7431H111.969Z" fill="#1A262E"/>
<path d="M126.185 41.8383C126.185 38.875 126.185 38.3459 126.15 37.7461C126.114 37.1112 125.938 36.7937 125.303 36.6526C125.162 36.6173 124.95 36.6173 124.774 36.6173C124.633 36.6173 124.492 36.5467 124.492 36.4762C124.492 36.3351 124.598 36.2998 124.844 36.2998C125.303 36.2998 125.903 36.3351 127.173 36.3704C127.279 36.3704 131.3 36.3704 131.723 36.3351C132.182 36.2998 132.429 36.2998 132.605 36.2292C132.746 36.194 132.746 36.1587 132.852 36.1587C132.888 36.1587 132.958 36.194 132.958 36.2998C132.958 36.4409 132.817 36.7584 132.782 37.3228C132.746 37.7109 132.746 38.0636 132.711 38.487C132.711 38.6986 132.676 38.8397 132.57 38.8397C132.464 38.8397 132.429 38.7339 132.429 38.5928C132.394 38.24 132.323 38.0284 132.288 37.8873C132.147 37.4287 131.935 37.2875 130.842 37.217C130.559 37.1817 128.337 37.1817 128.266 37.1817C128.196 37.1817 128.16 37.217 128.16 37.3581V42.4732C128.16 42.6144 128.196 42.6849 128.302 42.6849C128.584 42.6849 130.877 42.6496 131.335 42.6144C131.865 42.5791 132.182 42.5085 132.358 42.2616C132.464 42.1205 132.5 42.0852 132.605 42.0852C132.641 42.0852 132.711 42.1205 132.711 42.2263C132.711 42.3321 132.605 42.7555 132.57 43.4257C132.5 44.0607 132.5 44.5193 132.464 44.8015C132.429 44.9779 132.394 45.0484 132.323 45.0484C132.217 45.0484 132.182 44.9073 132.182 44.7662C132.182 44.6251 132.147 44.4135 132.112 44.2371C132.006 43.9549 131.9 43.6374 131.018 43.5668C130.489 43.5315 128.69 43.461 128.337 43.461C128.196 43.461 128.196 43.5315 128.196 43.6021V45.2601C128.196 45.9656 128.16 47.9411 128.196 48.3292C128.231 49.1758 128.337 49.5992 128.831 49.7755C129.184 49.9167 129.713 49.9872 130.489 49.9872C130.912 49.9872 131.653 50.0225 132.182 49.8461C132.852 49.6344 133.029 49.2111 133.205 48.3645C133.24 48.1528 133.311 48.047 133.417 48.047C133.558 48.047 133.558 48.2586 133.558 48.3997C133.558 48.5409 133.381 49.9872 133.311 50.34C133.205 50.7986 133.064 50.8339 132.323 50.8339C130.842 50.8339 130.207 50.7986 129.43 50.7986C128.654 50.7633 127.596 50.728 126.785 50.728C126.256 50.728 125.832 50.7986 125.303 50.7986C125.091 50.7986 124.986 50.7633 124.986 50.6575C124.986 50.5516 125.091 50.5164 125.197 50.5164C125.338 50.5164 125.479 50.4811 125.656 50.4458C126.044 50.34 126.326 50.0578 126.361 48.682C126.397 47.9059 126.397 46.9887 126.397 45.2954V41.8383H126.185Z" fill="#1A262E"/>
<path d="M152.114 48.2939C152.184 48.8231 152.325 50.093 153.207 50.3047C153.595 50.4105 154.054 50.4458 154.371 50.4458C154.477 50.4458 154.654 50.4811 154.654 50.5869C154.654 50.6927 154.548 50.7633 154.301 50.7633C153.913 50.7633 151.479 50.6575 150.738 50.6222C150.244 50.5869 150.068 50.5164 150.068 50.4105C150.068 50.34 150.173 50.2694 150.279 50.1989C150.385 50.1636 150.456 49.8814 150.42 49.5639L149.433 39.9333L144.635 49.6344C144.212 50.5164 144.141 50.728 143.929 50.728C143.788 50.728 143.682 50.5164 143.259 49.7755C142.906 49.1406 141.107 45.5423 140.966 45.3307C140.825 45.0484 138.638 40.7094 138.462 40.2155L137.615 48.8583C137.58 49.1758 137.58 49.3875 137.58 49.705C137.58 49.9519 137.685 50.3047 138.144 50.3753C138.391 50.4105 138.532 50.4105 138.779 50.4458C138.955 50.4811 138.991 50.5516 138.991 50.5869C138.991 50.728 138.85 50.7633 138.603 50.7633C137.897 50.7633 136.909 50.6927 136.733 50.6927C136.521 50.6927 135.569 50.7633 135.004 50.7633C134.793 50.7633 134.652 50.728 134.652 50.5869C134.652 50.5516 134.757 50.4458 134.934 50.4458C135.075 50.4458 135.11 50.4458 135.357 50.4105C135.886 50.3752 136.098 49.8108 136.204 48.9289L137.721 36.582C137.756 36.194 137.862 36.0176 137.968 36.0176C138.073 36.0176 138.144 36.0881 138.32 36.3703L144.353 48.047L150.103 36.4056C150.209 36.1587 150.315 36.0176 150.456 36.0176C150.597 36.0176 150.667 36.2292 150.667 36.582L152.114 48.2939Z" fill="#1A262E"/>
<path d="M158.852 45.8598C158.852 44.7662 158.71 44.3782 158.358 43.7785C158.217 43.5315 155.606 39.2983 154.901 38.3106C154.301 37.4639 154.054 37.1817 153.736 36.9348C153.419 36.7231 153.137 36.6173 152.678 36.582C152.537 36.582 152.431 36.5115 152.431 36.4056C152.431 36.3351 152.537 36.2645 152.713 36.2645C153.066 36.2645 154.795 36.3351 154.83 36.3351C154.971 36.3351 155.712 36.2645 156.523 36.2645C156.735 36.2645 156.805 36.3351 156.805 36.4056C156.805 36.5115 156.735 36.5467 156.559 36.582C156.241 36.6526 156.206 36.7584 156.206 36.9348C156.206 37.1464 156.347 37.3934 156.488 37.6756C156.77 38.24 159.733 43.0024 160.086 43.5668C160.439 42.7907 162.979 38.6633 163.296 38.0989C163.72 37.3581 163.826 37.1464 163.826 36.8995C163.826 36.6173 163.543 36.6173 163.296 36.5467C163.12 36.5115 163.049 36.4409 163.049 36.3704C163.049 36.2998 163.085 36.2292 163.332 36.2292C163.861 36.2292 164.355 36.2998 164.707 36.2998C164.99 36.2998 166.295 36.2292 166.683 36.2292C166.895 36.2292 166.965 36.2998 166.965 36.3704C166.965 36.4762 166.859 36.5467 166.683 36.5467C166.224 36.582 165.872 36.6173 165.554 36.829C165.201 37.0406 165.096 37.2523 164.707 37.7462C163.402 39.5453 161.215 43.2141 160.898 43.9901C160.615 44.6957 160.686 45.1896 160.686 45.754V47.412C160.686 47.5531 160.686 48.3997 160.721 49.2111C160.756 49.7403 160.827 50.1283 161.497 50.2694C161.78 50.34 162.168 50.3753 162.344 50.3753C162.52 50.3753 162.591 50.4458 162.591 50.5164C162.591 50.6222 162.52 50.6927 162.309 50.6927C161.18 50.6927 159.804 50.6222 159.733 50.6222C159.698 50.6222 158.322 50.6927 157.723 50.6927C157.511 50.6927 157.405 50.6222 157.405 50.5164C157.405 50.4458 157.476 50.3753 157.617 50.3753C157.793 50.3753 158.005 50.34 158.181 50.3047C158.569 50.2341 158.71 49.7755 158.781 49.2111C158.852 48.3997 158.852 47.5884 158.852 47.412V45.8598Z" fill="#1A262E"/>
<path fill-rule="evenodd" clip-rule="evenodd" d="M31.9609 27.516C31.855 27.516 31.7845 27.516 31.6787 27.516L29.4915 26.4224L24.2 27.9746L18.6615 27.5865L16.6507 28.4332C16.6507 28.4332 13.4758 27.6571 10.1598 25.7521C9.77175 26.3166 9.2426 27.1279 8.71345 28.151C8.21957 29.1034 7.79625 29.9501 7.47876 30.5851C7.90208 30.9025 8.3254 31.1495 8.71345 31.3611C10.8653 32.3489 11.8178 32.4194 12.0295 32.4194C12.0647 32.4194 12.0647 32.4194 12.0647 32.4194L10.5831 33.5483C10.5831 33.5483 13.0878 35.1358 14.1461 35.3827C14.64 35.4885 15.0633 35.5238 15.3455 35.5238C15.6983 35.5238 15.9452 35.4885 15.9452 35.4885L15.7335 36.1235L18.8732 43.8844L18.5204 49.8815L17.8149 51.1162L18.2029 52.5272C18.2029 52.5272 20.0373 54.6438 23.7061 54.6438C25.2583 54.6438 27.1632 54.2558 29.3857 53.1622C29.809 51.4689 30.7615 45.0838 30.7615 45.0838L35.2063 38.734L33.76 34.7477L38.981 32.5958L39.7218 31.9256L37.6052 30.7262L40.9917 28.1157C40.9917 28.1157 41.2387 19.7551 28.8918 16.1216C28.1863 15.9099 27.4102 15.7335 26.6341 15.5571C27.3396 15.8393 27.9746 16.1568 28.5743 16.5449C33.5131 19.614 33.9364 25.1877 33.9364 25.1877C33.9364 25.1877 34.3597 27.516 31.9609 27.516Z" fill="#87764E"/>
<path fill-rule="evenodd" clip-rule="evenodd" d="M28.3978 62.828C28.2567 62.7222 26.2459 59.0181 26.2459 59.0181C26.2459 59.0181 25.9637 57.4307 25.7873 55.5963C25.0817 55.7374 24.4115 55.8079 23.7412 55.8079C19.6491 55.8079 17.4972 53.4091 17.4267 53.3033L17.2503 53.0916L17.1797 52.8447L16.7917 51.4336L16.6506 50.9397L16.8975 50.4811L17.462 49.4934L17.7794 44.0608L14.7809 36.6526C14.4987 36.6173 14.2165 36.5821 13.9343 36.5115C12.7701 36.2293 10.4771 34.8182 10.0185 34.536L8.5722 33.6188L9.45412 32.9486C9.10135 32.8074 8.7133 32.6311 8.28998 32.4547H8.25471H8.21943C7.83138 32.243 7.40806 31.9961 6.98474 31.7139C6.94946 31.8197 6.91419 31.855 6.91419 31.855C5.43256 35.7354 5.43256 39.5453 6.06754 42.5086L4.83285 44.4841L4.09204 46.6007L5.99699 50.4459L8.92496 59.8295C8.92496 59.8295 7.69028 61.2406 7.51389 61.9461L7.12585 64.8035H17.9911C17.9911 64.8035 17.6383 61.9461 17.0034 60.6761C16.3684 59.4062 14.7456 58.3479 14.7456 58.3479L12.0999 51.8922C12.241 52.0333 12.4174 52.1744 12.5585 52.3508C13.6168 53.4444 17.0739 57.2543 17.7794 58.2773C18.485 59.3356 21.3424 62.8633 20.9896 65.9324C20.9896 65.9324 19.9313 67.0613 19.3316 68.7193C18.9789 69.707 18.9436 71.9647 18.9436 71.9647H33.8657C33.8657 71.9647 32.4899 66.1088 32.2782 65.7913C31.3257 64.4508 28.5389 62.9339 28.3978 62.828Z" fill="#87764E"/>
<path fill-rule="evenodd" clip-rule="evenodd" d="M49.8814 53.7266C50.0931 50.9045 52.2097 48.6115 52.2097 48.6115C52.2097 48.6115 52.7036 44.0961 52.7036 43.3905C52.7036 43.3905 49.4581 40.4978 48.682 39.7923C48.6115 38.6281 47.659 37.7815 47.659 37.7815C47.6237 37.4993 47.8354 36.0529 46.636 31.9256C44.4841 24.6585 39.9334 18.2029 38.8398 16.8976C37.7815 15.5924 32.7722 9.84226 28.5742 8.57229C26.8104 9.10145 24.341 10.9358 21.9775 12.9466C21.0603 11.1475 20.1783 9.56005 18.3792 9.38366C15.3454 9.13672 13.4757 13.758 9.70113 13.0525C7.26703 10.1245 10.8653 8.50174 10.7242 5.43266C10.5478 0.63501 3.31602 -2.22241 0 2.18719C1.34052 2.68107 3.8099 1.72859 4.83292 3.28077C3.70407 5.96181 5.50318 7.30233 6.56149 8.7134C5.96178 10.2656 6.20872 12.9113 6.56149 14.5341C9.80696 18.5204 15.0279 14.7105 17.9912 13.0877C18.732 13.5463 19.0848 14.4282 19.367 15.3807C18.9437 15.804 17.7795 16.8976 17.7795 16.8976C15.9451 18.6967 14.6752 20.0725 14.6752 20.0725C14.6752 20.0725 12.7702 22.1539 10.7947 24.8349C13.2641 26.2107 15.6629 26.9515 16.5096 27.1985L18.1676 26.4929L18.4145 26.3871L18.6614 26.4224L24.0235 26.8104L29.1387 25.3288L29.562 25.223L29.95 25.3993L31.9255 26.3871C32.1372 26.3871 32.49 26.3518 32.6311 26.1754C32.8074 25.9638 32.8074 25.5404 32.7722 25.3993V25.3641V25.2935C32.7722 25.223 32.3136 20.0725 27.5865 17.3562C27.4454 17.1798 21.8716 14.1108 21.8716 14.1108C21.8716 14.1108 24.6585 14.0402 26.8457 14.393C27.7629 14.5341 28.3978 14.7105 28.4331 14.7105C34.0069 16.1921 37.9579 18.732 40.2861 22.295C42.2264 25.3288 42.1558 27.9745 42.1558 28.0804L42.1205 28.6448L41.6619 28.9976L39.6864 30.5145L40.2156 30.832L41.6619 31.6433L40.4272 32.7722L39.6864 33.4425L39.5453 33.5836L39.3689 33.6541L35.171 35.3827L36.2293 38.2754L36.441 38.8751L36.0882 39.4042L31.8197 45.5424C31.6433 46.8124 30.8319 51.8922 30.4439 53.4444L30.3381 53.9736L29.8795 54.2205C29.5267 54.3969 29.1739 54.5733 28.8212 54.7144C30.2322 55.173 30.8319 56.2313 30.8319 56.2313L39.757 50.0578L43.7785 51.1161L43.6022 53.7619C43.6022 53.7619 40.8153 54.538 39.9334 57.8187C39.0514 61.0995 43.3552 64.733 43.3552 64.733C43.3552 64.733 45.8951 66.9202 47.9412 66.0382C51.8922 64.3097 51.4336 59.8295 51.4336 59.8295L52.3155 58.0657C52.3508 57.9951 49.6345 57.0426 49.8814 53.7266Z" fill="#87764E"/>
<path fill-rule="evenodd" clip-rule="evenodd" d="M26.6339 15.5217C33.4071 18.2028 33.9362 25.117 33.9362 25.117C33.9362 25.117 34.3948 27.6922 31.6785 27.5158L29.4913 26.4223L24.1998 27.9744L18.6613 27.5864L16.6506 28.433C16.6506 28.433 4.40951 25.4698 2.71622 16.7211C1.44625 25.6815 5.64419 29.7736 8.71328 31.3963C11.1474 32.5252 12.0646 32.4546 12.0646 32.4546L10.5829 33.5482C10.5829 33.5482 13.0876 35.1356 14.1459 35.3826C15.1689 35.6295 15.945 35.4884 15.945 35.4884L15.7334 36.1234L18.873 43.8843L18.5202 49.8814L17.8147 51.116L18.2027 52.5271C18.2027 52.5271 21.9774 56.8309 29.3502 53.1268C29.7735 51.4335 30.726 45.0484 30.726 45.0484L35.1709 38.6986L33.7245 34.7123L38.9455 32.5604L39.6863 31.8902L37.5697 30.6908L40.9563 28.0803C41.0268 28.0803 41.3091 18.7319 26.6339 15.5217Z" fill="#87764E"/>
</g>
<defs>
<clipPath id="clip0">
<rect width="168" height="72" fill="white"/>
</clipPath>
</defs>
</svg>
