<svg width="105" height="33" viewBox="0 0 105 33" fill="none" xmlns="http://www.w3.org/2000/svg">
  <path fill-rule="evenodd" clip-rule="evenodd" d="M29.568 22.472v.001l.162.393c.422 1.192.552 2.319.293 3.446-.358 2.383-1.95 4.444-4.224 5.346-.812.355-1.722.516-2.632.516-.26 0-.584-.033-.844-.065a8.634 8.634 0 01-3.25-1.095c-1.299-.74-2.598-1.803-4.028-3.35-1.43 1.547-2.697 2.61-4.028 3.35a8.635 8.635 0 01-3.25 1.095c-.26.032-.584.065-.844.065-.91 0-1.787-.161-2.632-.516a6.855 6.855 0 01-4.223-5.346c-.163-1.16-.033-2.287.39-3.478.162-.419.324-.805.487-1.16.118-.264.237-.521.352-.772.138-.3.271-.59.395-.87l.033-.064c2.241-4.831 4.678-9.727 7.18-14.557l.097-.194c.26-.483.52-.998.78-1.513.325-.58.682-1.192 1.17-1.772C12.023.71 13.485 0 15.11 0c1.592 0 3.087.709 4.126 1.997.48.534.793 1.096 1.094 1.635l.076.136c.26.515.52 1.03.78 1.514l.097.193a334.997 334.997 0 017.18 14.557l.033.032c.123.28.257.57.394.87.116.25.234.508.353.773.108.236.216.5.325.765zM54.813 8.084c0 1.159-.942 2.093-2.111 2.093a2.098 2.098 0 01-2.112-2.093c0-1.16.91-2.094 2.112-2.094 1.202.032 2.111.966 2.111 2.094zm-8.71 4.218v.516s-1.007-1.289-3.152-1.289c-3.541 0-6.303 2.673-6.303 6.377 0 3.672 2.73 6.377 6.303 6.377 2.177 0 3.152-1.32 3.152-1.32v.547c0 .257.195.45.455.45h2.631V11.852h-2.631a.463.463 0 00-.455.451zm-2.63 9.083c1.17 0 2.144-.612 2.632-1.32v-4.316c-.455-.677-1.495-1.32-2.632-1.32-2.08 0-3.671 1.287-3.671 3.477s1.592 3.479 3.671 3.479zm7.667-9.533h3.12v12.11h-3.12v-12.11zm43.44.966s1.007-1.288 3.151-1.288c3.509 0 6.271 2.705 6.271 6.376 0 3.672-2.762 6.377-6.303 6.377-2.144 0-3.152-1.32-3.152-1.32v.547c0 .226-.194.451-.454.451H91.46V6.022h3.119v6.796zm2.63 8.534c-1.202 0-2.144-.611-2.632-1.32v-4.316c.487-.644 1.527-1.32 2.632-1.32 2.08 0 3.671 1.288 3.671 3.478 0 2.19-1.592 3.478-3.671 3.478zm-7.374 2.64V16.78c0-2.03-.422-3.188-1.527-4.09-.91-.773-2.046-1.16-3.411-1.16-1.202 0-2.404.355-3.314 1.289v-.516a.463.463 0 00-.455-.45H78.66V23.96h3.12v-8.438c.616-.709 1.591-1.192 2.533-1.192 1.755 0 2.404.805 2.404 2.802v6.86h3.12zM71.086 11.53c-2.144 0-3.15 1.288-3.15 1.288V6.022h-3.12v17.94h2.632c.26 0 .455-.226.455-.452v-.547s1.007 1.32 3.151 1.32c3.542 0 6.303-2.705 6.303-6.377.033-3.671-2.729-6.376-6.27-6.376zm-3.149 8.502c.487.709 1.43 1.32 2.632 1.32 2.08 0 3.671-1.288 3.671-3.478 0-2.19-1.592-3.478-3.671-3.478-1.105 0-2.145.676-2.632 1.32v4.316zm-5.817-8.503c.942 0 1.43.161 1.43.161v2.867s-2.6-.87-4.224.966v8.47h-3.119V11.85h2.632c.26 0 .455.226.455.451v.516c.584-.677 1.851-1.289 2.826-1.289zM15.078 24.541c-1.755-2.19-2.892-4.251-3.282-5.99-.162-.741-.195-1.385-.097-1.965a3.11 3.11 0 01.52-1.353c.617-.87 1.657-1.417 2.859-1.417s2.274.516 2.859 1.417c.26.387.454.838.52 1.353.097.58.064 1.256-.098 1.965-.39 1.706-1.527 3.768-3.281 5.99zm10.008 5.282c1.591-.644 2.729-2.093 2.956-3.768.13-.837.032-1.643-.228-2.48a6.153 6.153 0 00-.275-.693c-.048-.108-.097-.22-.147-.338-.13-.257-.252-.531-.373-.805-.122-.274-.244-.547-.374-.805v-.032A425.73 425.73 0 0019.53 6.409l-.098-.193c-.13-.241-.26-.491-.39-.74-.13-.25-.26-.5-.39-.741-.26-.516-.552-.999-.909-1.417-.682-.773-1.592-1.192-2.6-1.192-1.006 0-1.916.419-2.598 1.192-.358.418-.65.901-.91 1.417-.13.241-.26.49-.39.74s-.26.5-.39.741l-.097.193A350.855 350.855 0 003.61 20.87l-.032.065c-.26.548-.52 1.095-.747 1.61-.05.118-.1.23-.147.338-.109.245-.208.47-.276.693a5.288 5.288 0 00-.292 2.512c.227 1.675 1.364 3.124 2.956 3.768.747.29 1.592.419 2.47.322.812-.096 1.624-.354 2.469-.837 1.17-.644 2.371-1.643 3.703-3.124-2.112-2.609-3.444-5.024-3.93-7.15a6.63 6.63 0 01-.163-2.737 5.2 5.2 0 01.877-2.19c1.007-1.417 2.697-2.287 4.58-2.287 1.885 0 3.575.838 4.582 2.287.455.644.747 1.385.877 2.19.098.837.065 1.739-.162 2.737-.488 2.126-1.787 4.509-3.932 7.118 1.365 1.481 2.534 2.48 3.704 3.124.845.483 1.657.74 2.47.837.844.097 1.689 0 2.468-.322z" fill="#1C1C1C" opacity=".15"/>
</svg>
