<svg width="455" height="430" fill="none" xmlns="http://www.w3.org/2000/svg"><path d="M165.101 48L392 7l57.101 199L404.5 423.5 165.101 364 6.5 206 165.101 48z" fill="url(#paint0_angular)" fill-opacity=".7"/><path opacity=".1" stroke="#fff" d="M264 206.5H11M263.576 206.265l-96-154.001M263.58 205.729l126-195M264 205.5h180M264.42 205.729l138 214M264.423 206.267l-48.5 77-48.5 77"/><circle cx="392" cy="6" r="5" stroke="#54BAB3" stroke-width="2"/><circle cx="165" cy="48" r="5" stroke="#54BAB3" stroke-width="2"/><circle cx="6" cy="206" r="5" stroke="#54BAB3" stroke-width="2"/><circle cx="165" cy="364" r="5" stroke="#54BAB3" stroke-width="2"/><circle cx="449" cy="206" r="5" stroke="#54BAB3" stroke-width="2"/><circle cx="404" cy="424" r="5" stroke="#54BAB3" stroke-width="2"/><defs><radialGradient id="paint0_angular" cx="0" cy="0" r="1" gradientUnits="userSpaceOnUse" gradientTransform="rotate(57.057 -57.479 345.827) scale(223.424)"><stop stop-color="#EAEFF5"/><stop offset="1" stop-color="#EAEFF5" stop-opacity=".15"/></radialGradient></defs></svg>