<svg width="212" height="72" viewBox="0 0 212 72" fill="none" xmlns="http://www.w3.org/2000/svg">
<g clip-path="url(#clip0)">
<path d="M67.555 67.0967C67.9784 66.1795 68.8956 63.8865 69.0367 63.3927C69.0719 63.2868 69.1072 63.181 69.1072 63.1457C69.1072 63.1105 69.0719 63.0399 69.0014 63.0046C68.9308 62.9694 68.825 62.9694 68.7544 62.9694C68.7192 62.9694 68.6839 62.9341 68.6839 62.8988C68.6839 62.8635 68.7192 62.8282 68.8603 62.8282C69.1425 62.8282 69.46 62.8282 69.5305 62.8282C69.5658 62.8282 69.8833 62.8282 70.095 62.8282C70.1655 62.8282 70.2008 62.8282 70.2008 62.8635C70.2008 62.8988 70.1655 62.9341 70.1302 62.9341C70.095 62.9341 69.9186 62.9341 69.8128 63.0046C69.7069 63.0752 69.6011 63.181 69.4247 63.6396C69.3542 63.816 69.0014 64.6274 68.6486 65.474C68.2253 66.4618 67.9078 67.2026 67.7314 67.5201C67.555 67.9434 67.4845 68.0139 67.4139 68.0139C67.3434 68.0139 67.2728 67.9434 67.167 67.5906L65.4384 63.428C65.2621 63.0399 65.1915 62.9694 64.9446 62.9341C64.8387 62.8988 64.6976 62.8988 64.6623 62.8988C64.6271 62.8988 64.5918 62.8635 64.5918 62.8282C64.5918 62.793 64.6624 62.793 64.7682 62.793C65.0857 62.793 65.509 62.793 65.5795 62.793C65.6501 62.793 65.9676 62.793 66.2498 62.793C66.3909 62.793 66.4262 62.793 66.4262 62.8282C66.4262 62.8635 66.3909 62.8988 66.3556 62.8988C66.2851 62.8988 66.1792 62.8988 66.1087 62.9341C66.0381 62.9694 66.0381 63.0046 66.0381 63.0399C66.0381 63.1105 66.1087 63.3221 66.2145 63.6043L67.555 67.0967Z" fill="#87764E"/>
<path d="M71.4002 64.8036C71.4002 63.7453 71.4002 63.5689 71.4002 63.3573C71.4002 63.1103 71.3297 63.0045 71.118 62.9692C71.0475 62.9692 70.9416 62.9692 70.8711 62.9692C70.8358 62.9692 70.8005 62.934 70.8005 62.8987C70.8005 62.8634 70.8358 62.8281 70.9064 62.8281C71.2239 62.8281 71.6825 62.8281 71.7177 62.8281C71.753 62.8281 73.2346 62.8281 73.3758 62.8281C73.5169 62.8281 73.6227 62.7928 73.6932 62.7928C73.7285 62.7928 73.7638 62.7576 73.7991 62.7576C73.8343 62.7576 73.8344 62.7928 73.8344 62.8281C73.8344 62.8634 73.7991 62.9692 73.7638 63.1456C73.7638 63.2162 73.7285 63.4984 73.7285 63.6042C73.7285 63.6395 73.6932 63.6748 73.658 63.6748C73.6227 63.6748 73.5874 63.6395 73.5874 63.6042C73.5874 63.5689 73.5874 63.4278 73.5521 63.3573C73.5169 63.2514 73.4463 63.1809 73.0583 63.1456C72.9524 63.1456 72.1411 63.1103 72.0352 63.1103C72 63.1103 72 63.1456 72 63.1809V65.0153C72 65.0506 72 65.0858 72.0352 65.0858C72.1058 65.0858 73.0583 65.0858 73.1994 65.0858C73.3758 65.0858 73.4816 65.0506 73.5521 64.98C73.5874 64.9447 73.6227 64.9095 73.658 64.9095C73.6932 64.9095 73.6932 64.9095 73.6932 64.98C73.6932 65.0153 73.658 65.1211 73.6227 65.3681C73.6227 65.5092 73.5874 65.7561 73.5874 65.7914C73.5874 65.8619 73.5874 65.9325 73.5169 65.9325C73.4816 65.9325 73.4816 65.8972 73.4816 65.8619C73.4816 65.7914 73.4816 65.7208 73.4463 65.6503C73.411 65.5444 73.3757 65.4739 73.0935 65.4386C72.9171 65.4033 72.1411 65.4033 72.0352 65.4033C72 65.4033 72 65.4386 72 65.4386V66.003C72 66.25 72 67.0261 72 67.1672C72 67.6258 72.1411 67.6963 72.8466 67.6963C73.023 67.6963 73.3758 67.6963 73.5521 67.6258C73.7285 67.5552 73.8343 67.4141 73.8696 67.1672C73.8696 67.0966 73.9049 67.0613 73.9402 67.0613C73.9755 67.0613 73.9755 67.1319 73.9755 67.1672C73.9755 67.2025 73.9049 67.6611 73.8696 67.8374C73.8343 68.0138 73.7638 68.0138 73.4816 68.0138C72.9524 68.0138 72.5644 68.0138 72.2469 67.9785C71.9647 67.9785 71.753 67.9785 71.6825 67.9785C71.6825 67.9785 71.5414 67.9785 71.365 67.9785C71.2239 67.9785 71.0828 67.9785 70.9416 67.9785C70.8711 67.9785 70.8358 67.9785 70.8358 67.908C70.8358 67.8727 70.8358 67.8374 70.9064 67.8374C70.9769 67.8374 71.0475 67.8022 71.118 67.8022C71.2591 67.7669 71.2591 67.6258 71.2944 67.4494C71.3297 67.1672 71.3297 66.638 71.3297 65.9678V64.8036H71.4002Z" fill="#87764E"/>
<path d="M76.0216 64.8036C76.0216 63.7453 76.0216 63.5689 76.0216 63.3573C76.0216 63.1103 75.951 63.0045 75.7394 62.9692C75.6688 62.9692 75.563 62.9692 75.4924 62.9692C75.4572 62.9692 75.4219 62.9339 75.4219 62.8987C75.4219 62.8634 75.4572 62.8281 75.5277 62.8281C75.8452 62.8281 76.3038 62.8281 76.3391 62.8281C76.4096 62.8281 76.8682 62.8281 77.2915 62.8281C77.9971 62.8281 79.267 62.7575 80.1137 63.6042C80.4665 63.957 80.784 64.5214 80.784 65.3328C80.784 66.1794 80.4312 66.8497 80.0431 67.2377C79.7256 67.5552 79.1259 68.0138 77.9265 68.0138C77.609 68.0138 77.2563 67.9785 76.9388 67.9785C76.6213 67.9432 76.4096 67.9432 76.3743 67.9432C76.3743 67.9432 76.2332 67.9432 76.0921 67.9432C75.951 67.9432 75.7746 67.9432 75.6688 67.9432C75.5983 67.9432 75.563 67.9432 75.563 67.8727C75.563 67.8374 75.563 67.8021 75.6335 67.8021C75.7041 67.8021 75.7746 67.8021 75.8452 67.7669C75.9863 67.7316 75.9863 67.5905 76.0216 67.4141C76.0569 67.1319 76.0569 66.6027 76.0569 65.9325V64.8036H76.0216ZM76.6566 65.5444C76.6566 66.2499 76.6566 66.8849 76.6566 67.026C76.6566 67.2024 76.6918 67.4494 76.7271 67.5199C76.7977 67.661 77.0446 67.8021 77.8913 67.8021C78.5262 67.8021 79.1259 67.5905 79.5493 67.2024C79.902 66.8497 80.1137 66.2147 80.1137 65.5797C80.1137 64.733 79.7256 64.1686 79.4434 63.8864C78.7732 63.2161 77.9971 63.1456 77.1857 63.1456C77.0446 63.1456 76.8329 63.1809 76.7624 63.1809C76.6918 63.2161 76.6918 63.2514 76.6918 63.322V65.5444H76.6566Z" fill="#87764E"/>
<path d="M82.8651 67.0614C82.8651 67.6258 82.9356 67.8022 83.1473 67.8374C83.2884 67.8727 83.4295 67.8727 83.5001 67.8727C83.5353 67.8727 83.5706 67.908 83.5706 67.9433C83.5706 67.9785 83.5353 68.0138 83.4295 68.0138C83.0415 68.0138 82.7592 67.9785 82.6887 67.9785C82.6181 67.9785 82.3359 68.0138 82.0184 68.0138C81.9479 68.0138 81.9126 68.0138 81.9126 67.9433C81.9126 67.908 81.9479 67.8727 81.9832 67.8727C82.0537 67.8727 82.1595 67.8727 82.2654 67.8374C82.4417 67.8022 82.477 67.5905 82.477 66.9908V63.1103C82.477 62.8281 82.5123 62.7576 82.5829 62.7576C82.6534 62.7576 82.7945 62.8987 82.8651 62.9692C82.9709 63.0751 83.9939 64.1686 85.0875 65.2975C85.793 66.003 86.5339 66.8144 86.7455 67.0261L86.675 63.6395C86.675 63.2162 86.6397 63.0398 86.428 63.0045C86.2869 62.9692 86.1458 62.9692 86.0753 62.9692C86.04 62.9692 86.0047 62.934 86.0047 62.8987C86.0047 62.8634 86.0753 62.8634 86.1458 62.8634C86.4633 62.8634 86.8161 62.8634 86.8866 62.8634C86.9572 62.8634 87.2041 62.8634 87.4863 62.8634C87.5569 62.8634 87.6274 62.8634 87.6274 62.8987C87.6274 62.934 87.5922 62.9692 87.5569 62.9692C87.5216 62.9692 87.4863 62.9692 87.3805 62.9692C87.1336 63.0045 87.1336 63.1456 87.1336 63.5689V67.5552C87.1336 68.0138 87.1336 68.0491 87.063 68.0491C86.9925 68.0491 86.9219 67.9785 86.5339 67.6258C86.4633 67.5552 85.4403 66.5675 84.6995 65.7914C83.8881 64.9447 83.112 64.0981 82.8651 63.8864V67.0614Z" fill="#87764E"/>
<path d="M91.2964 62.7576C92.8838 62.7576 94.0833 63.71 94.0833 65.2975C94.0833 66.8144 92.9544 68.0491 91.2611 68.0491C89.3562 68.0491 88.5095 66.6027 88.5095 65.4033C88.5095 64.3098 89.3562 62.7576 91.2964 62.7576ZM91.4728 67.8022C92.1078 67.8022 93.3777 67.4847 93.3777 65.5092C93.3777 63.8864 92.39 63.0398 91.2964 63.0398C90.1323 63.0398 89.2856 63.7806 89.2856 65.2622C89.2503 66.8144 90.2028 67.8022 91.4728 67.8022Z" fill="#87764E"/>
<path d="M100.292 67.0967C100.715 66.1795 101.632 63.8865 101.773 63.3927C101.809 63.2868 101.844 63.181 101.844 63.1457C101.844 63.1105 101.809 63.0399 101.738 63.0046C101.668 62.9694 101.562 62.9694 101.491 62.9694C101.456 62.9694 101.421 62.9341 101.421 62.8988C101.421 62.8635 101.456 62.8282 101.597 62.8282C101.879 62.8282 102.197 62.8282 102.267 62.8282C102.303 62.8282 102.62 62.8282 102.832 62.8282C102.902 62.8282 102.938 62.8282 102.938 62.8635C102.938 62.8988 102.902 62.9341 102.867 62.9341C102.832 62.9341 102.655 62.9341 102.55 63.0046C102.444 63.0752 102.338 63.181 102.162 63.6396C102.091 63.816 101.738 64.6274 101.385 65.474C100.962 66.4618 100.645 67.2026 100.468 67.5201C100.292 67.9434 100.221 68.0139 100.151 68.0139C100.08 68.0139 100.01 67.9434 99.9038 67.5906L98.1753 63.428C97.9989 63.0399 97.9283 62.9694 97.6814 62.9341C97.5756 62.8988 97.4344 62.8988 97.3992 62.8988C97.3639 62.8988 97.3286 62.8635 97.3286 62.8282C97.3286 62.793 97.3992 62.793 97.505 62.793C97.8225 62.793 98.2458 62.793 98.3164 62.793C98.3869 62.793 98.7044 62.793 98.9866 62.793C99.1277 62.793 99.163 62.793 99.163 62.8282C99.163 62.8635 99.1277 62.8988 99.0925 62.8988C99.0219 62.8988 98.9161 62.8988 98.8455 62.9341C98.775 62.9694 98.775 63.0046 98.775 63.0399C98.775 63.1105 98.8455 63.3221 98.9513 63.6043L100.292 67.0967Z" fill="#87764E"/>
<path d="M104.137 64.8036C104.137 63.7453 104.137 63.5689 104.137 63.3573C104.137 63.1103 104.067 63.0045 103.855 62.9692C103.784 62.9692 103.678 62.9692 103.608 62.9692C103.573 62.9692 103.537 62.934 103.537 62.8987C103.537 62.8634 103.573 62.8281 103.643 62.8281C103.961 62.8281 104.419 62.8281 104.455 62.8281C104.49 62.8281 105.971 62.8281 106.113 62.8281C106.254 62.8281 106.36 62.7928 106.43 62.7928C106.465 62.7928 106.501 62.7576 106.536 62.7576C106.571 62.7576 106.571 62.7928 106.571 62.8281C106.571 62.8634 106.536 62.9692 106.501 63.1456C106.501 63.2162 106.465 63.4984 106.465 63.6042C106.465 63.6395 106.43 63.6748 106.395 63.6748C106.359 63.6748 106.324 63.6395 106.324 63.6042C106.324 63.5689 106.324 63.4278 106.289 63.3573C106.254 63.2514 106.183 63.1809 105.795 63.1456C105.689 63.1456 104.878 63.1103 104.772 63.1103C104.737 63.1103 104.737 63.1456 104.737 63.1809V65.0153C104.737 65.0506 104.737 65.0858 104.772 65.0858C104.843 65.0858 105.795 65.0858 105.936 65.0858C106.113 65.0858 106.218 65.0506 106.289 64.98C106.324 64.9447 106.359 64.9095 106.395 64.9095C106.43 64.9095 106.43 64.9095 106.43 64.98C106.43 65.0153 106.395 65.1211 106.359 65.3681C106.359 65.5092 106.324 65.7561 106.324 65.7914C106.324 65.8619 106.324 65.9325 106.254 65.9325C106.218 65.9325 106.218 65.8972 106.218 65.8619C106.218 65.7914 106.218 65.7208 106.183 65.6503C106.148 65.5444 106.113 65.4739 105.83 65.4386C105.654 65.4033 104.878 65.4033 104.772 65.4033C104.737 65.4033 104.737 65.4386 104.737 65.4386V66.003C104.737 66.25 104.737 67.0261 104.737 67.1672C104.737 67.6258 104.878 67.6963 105.583 67.6963C105.76 67.6963 106.113 67.6963 106.289 67.6258C106.465 67.5552 106.571 67.4141 106.606 67.1672C106.606 67.0966 106.642 67.0613 106.677 67.0613C106.712 67.0613 106.712 67.1319 106.712 67.1672C106.712 67.2025 106.642 67.6611 106.606 67.8374C106.571 68.0138 106.501 68.0138 106.218 68.0138C105.689 68.0138 105.301 68.0138 104.984 67.9785C104.701 67.9785 104.49 67.9785 104.419 67.9785C104.419 67.9785 104.278 67.9785 104.102 67.9785C103.961 67.9785 103.82 67.9785 103.678 67.9785C103.608 67.9785 103.573 67.9785 103.573 67.908C103.573 67.8727 103.573 67.8374 103.643 67.8374C103.714 67.8374 103.784 67.8022 103.855 67.8022C103.996 67.7669 103.996 67.6258 104.031 67.4494C104.067 67.1672 104.067 66.638 104.067 65.9678V64.8036H104.137Z" fill="#87764E"/>
<path d="M108.794 67.3436C108.123 66.7439 107.947 65.9678 107.947 65.3328C107.947 64.8742 108.123 64.0981 108.723 63.4984C109.146 63.0751 109.781 62.7576 110.875 62.7576C111.157 62.7576 111.545 62.7929 111.898 62.8282C112.145 62.8635 112.392 62.934 112.604 62.934C112.674 62.934 112.674 62.9693 112.674 63.0046C112.674 63.0751 112.674 63.1457 112.639 63.3926C112.639 63.6043 112.639 63.9923 112.639 64.0981C112.639 64.204 112.604 64.2393 112.568 64.2393C112.533 64.2393 112.498 64.204 112.498 64.0981C112.498 63.8512 112.392 63.569 112.216 63.4279C111.969 63.2162 111.475 63.0398 110.84 63.0398C109.923 63.0398 109.499 63.2868 109.252 63.4984C108.723 63.9923 108.617 64.592 108.617 65.2623C108.617 66.5675 109.64 67.7317 111.157 67.7317C111.686 67.7317 112.039 67.6964 112.321 67.4142C112.462 67.2731 112.568 66.9908 112.604 66.8497C112.604 66.7792 112.639 66.7439 112.674 66.7439C112.709 66.7439 112.745 66.7792 112.745 66.8497C112.745 66.885 112.639 67.4847 112.568 67.7317C112.533 67.8728 112.498 67.8728 112.392 67.9433C112.11 68.0492 111.581 68.0844 111.122 68.0844C110.064 68.0492 109.358 67.8022 108.794 67.3436ZM109.958 61.3466C109.993 61.3113 109.993 61.3113 110.028 61.3113C110.064 61.3113 110.064 61.3113 110.099 61.3466C110.275 61.5229 110.663 61.8404 110.769 61.911C110.804 61.911 110.84 61.9463 110.84 61.9463C110.875 61.9463 110.91 61.9463 110.981 61.911C111.157 61.8052 111.475 61.5582 111.651 61.4171C111.722 61.3466 111.757 61.3466 111.792 61.3466C111.827 61.3466 111.863 61.3818 111.863 61.4171C111.863 61.4524 111.827 61.4877 111.827 61.4877C111.757 61.5582 111.016 62.2285 110.946 62.299C110.875 62.3696 110.84 62.3696 110.804 62.3696C110.769 62.3696 110.734 62.3343 110.699 62.299C110.628 62.2638 109.993 61.7699 109.887 61.6993C109.817 61.664 109.781 61.6288 109.781 61.6288C109.781 61.5935 109.817 61.5935 109.817 61.5582L109.958 61.3466Z" fill="#87764E"/>
<path d="M113.909 67.52C113.909 67.3436 114.05 67.0967 114.332 67.0967C114.579 67.0967 114.755 67.2731 114.755 67.52C114.755 67.7669 114.579 67.9786 114.297 67.9786C114.05 67.9433 113.909 67.7317 113.909 67.52Z" fill="#87764E"/>
<path d="M65.7913 23.8474C65.5444 23.3182 65.4738 23.1771 65.0505 23.1066C64.8741 23.0713 64.7683 23.0713 64.6977 23.0713C64.5919 23.0713 64.5566 23.036 64.5566 23.0007C64.5566 22.9302 64.6272 22.9302 64.733 22.9302C65.2622 22.9302 65.9324 22.9655 66.0383 22.9655C66.1441 22.9655 66.6732 22.9302 67.0966 22.9302C67.2377 22.9302 67.273 22.9655 67.273 23.0007C67.273 23.0713 67.2377 23.1066 67.0966 23.1066C66.9202 23.1066 66.8496 23.1418 66.7438 23.1771C66.638 23.2477 66.638 23.3182 66.638 23.3888C66.638 23.4593 66.7085 23.671 66.8144 23.9532L68.8251 29.0331C69.3896 27.7631 70.7301 24.4118 70.9417 23.7415C71.0123 23.6004 71.0476 23.4593 71.0476 23.3535C71.0476 23.2829 71.0476 23.2124 70.9417 23.1771C70.8359 23.1418 70.6948 23.1418 70.589 23.1418C70.5184 23.1418 70.4479 23.1066 70.4479 23.0713C70.4479 23.0007 70.4831 22.9655 70.6243 22.9655C71.0476 22.9655 71.5767 23.0007 71.7178 23.0007C71.7531 23.0007 72.2117 22.9655 72.4939 22.9655C72.5998 22.9655 72.6703 23.0007 72.6703 23.036C72.6703 23.1066 72.635 23.1418 72.5292 23.1418C72.3881 23.1418 72.247 23.1418 72.0353 23.2477C71.8942 23.3535 71.7884 23.4946 71.5062 24.1296C71.4356 24.2707 70.8712 25.5759 70.342 26.7753C69.7423 28.1864 69.2485 29.28 69.0721 29.668C68.7546 30.303 68.7193 30.4794 68.6135 30.4794C68.4724 30.4794 68.4018 30.3383 68.2254 29.8444L65.7913 23.8474Z" fill="#1A262E"/>
<path d="M76.4803 29.8444C77.5033 29.8444 77.9266 29.7386 78.103 29.3858C78.2089 29.1742 78.2441 29.0331 78.2794 28.8567C78.3147 28.7508 78.3147 28.6803 78.3852 28.6803C78.4558 28.6803 78.4558 28.7508 78.4558 28.8567C78.4558 29.1742 78.3147 29.8091 78.2441 30.0561C78.1736 30.303 78.1383 30.3383 77.8914 30.3383C76.1981 30.3383 74.5754 30.303 72.7762 30.303C72.6351 30.303 72.5999 30.303 72.5999 30.2325C72.5999 30.1619 72.6351 30.1266 72.741 29.9503C74.2579 27.7278 75.7042 25.6112 77.1153 23.3888H74.9987C74.3637 23.3888 73.8345 23.3888 73.4818 23.5299C73.129 23.671 73.0232 24.1296 72.9879 24.3765C72.9526 24.5176 72.9173 24.5529 72.8821 24.5529C72.8468 24.5529 72.8115 24.4824 72.8115 24.4118C72.8115 24.2707 72.9526 23.3535 73.0232 23.0713C73.0584 22.9302 73.0585 22.8596 73.129 22.8596C73.2348 22.8596 73.3054 22.9302 73.5876 22.9302C74.6812 22.9654 75.1751 22.9654 75.3162 22.9654H78.1383C78.2794 22.9654 78.3852 22.9654 78.3852 23.036C78.3852 23.0713 78.35 23.1418 78.3147 23.2124C76.7978 25.5054 75.422 27.622 73.9051 29.8444H76.4803Z" fill="#1A262E"/>
<path d="M81.1721 27.4808C81.1016 27.4808 81.0663 27.516 81.0663 27.5866L80.5724 29.0329C80.4666 29.3504 80.3608 29.6679 80.3608 29.8443C80.3608 30.056 80.5019 30.1265 80.7488 30.1265C80.7841 30.1265 80.7841 30.1265 80.8194 30.1265C80.9252 30.1265 80.9605 30.1618 80.9605 30.1971C80.9605 30.2676 80.8546 30.2676 80.7841 30.2676C80.5371 30.2676 80.008 30.2323 79.8669 30.2323C79.7611 30.2323 79.2319 30.2676 78.7733 30.2676C78.6322 30.2676 78.5969 30.2323 78.5969 30.1971C78.5969 30.1618 78.6322 30.1265 78.738 30.1265C78.8086 30.1265 78.9144 30.1265 78.985 30.1265C79.4788 30.0912 79.6905 29.7032 79.8669 29.2093L82.1599 23.1417C82.301 22.8242 82.3363 22.7537 82.4068 22.7537C82.4774 22.7537 82.5127 22.7889 82.6538 23.1064C82.8301 23.4945 84.3823 27.4808 84.982 28.9271C85.3701 29.8443 85.6876 29.9854 85.8639 30.056C86.0051 30.1265 86.1814 30.1265 86.252 30.1265C86.3225 30.1265 86.3931 30.1618 86.3931 30.1971C86.3931 30.2323 86.3578 30.2676 86.2167 30.2676C86.1109 30.2676 85.229 30.2676 84.4529 30.2323C84.2412 30.2323 84.1707 30.1971 84.1707 30.1618C84.1707 30.1265 84.2059 30.0912 84.2412 30.0912C84.2765 30.056 84.347 30.0207 84.2765 29.8443L83.3593 27.5513C83.324 27.516 83.324 27.4808 83.2535 27.4808H81.1721ZM83.1124 27.0927C83.1476 27.0927 83.1476 27.0574 83.1476 27.0222L82.2304 24.4822C82.1599 24.3058 82.1599 24.3058 82.0893 24.4822L81.2427 27.0222C81.2074 27.0574 81.2427 27.0927 81.278 27.0927H83.1124Z" fill="#1A262E"/>
<path d="M88.1215 27.9395C88.1215 29.5975 88.1215 30.2325 87.804 30.9733C87.5923 31.4672 87.1337 31.9258 86.2518 32.5255C86.1107 32.596 85.9696 32.7371 85.8638 32.7724C85.8638 32.7724 85.8285 32.7724 85.7932 32.7724C85.7579 32.7724 85.7227 32.7724 85.7227 32.7018C85.7227 32.6313 85.7932 32.596 85.8638 32.5607C85.9696 32.4902 86.1107 32.3844 86.1813 32.3138C86.8868 31.6435 87.2043 31.1497 87.2043 28.5392V25.717C87.2043 24.2001 87.2043 23.9179 87.169 23.6357C87.1337 23.3182 87.0279 23.1771 86.7104 23.0713C86.6399 23.0713 86.4635 23.036 86.3576 23.036C86.3224 23.036 86.2871 23.0007 86.2871 22.9654C86.2871 22.8949 86.3576 22.8596 86.4635 22.8596C86.9573 22.8596 87.6276 22.8949 87.6629 22.8949C87.6982 22.8949 88.4037 22.8596 88.7212 22.8596C88.827 22.8596 88.8976 22.8949 88.8976 22.9654C88.8976 23.0007 88.8623 23.036 88.827 23.036C88.7565 23.036 88.6859 23.036 88.5801 23.0713C88.3331 23.1418 88.2273 23.3182 88.192 23.6357C88.1567 23.9532 88.1567 24.2001 88.1567 25.717V27.9395H88.1215Z" fill="#1A262E"/>
<path d="M90.8026 25.7522C90.8026 24.2353 90.8026 23.9531 90.7673 23.6709C90.732 23.3534 90.6615 23.177 90.344 23.1064C90.2734 23.1064 90.1676 23.0712 90.0618 23.0712C89.9912 23.0712 89.9207 23.0359 89.9207 23.0006C89.9207 22.93 89.9912 22.8948 90.097 22.8948C90.344 22.8948 90.6262 22.9301 91.2964 22.9301C91.367 22.9301 93.4131 22.9301 93.6247 22.9301C93.8717 22.9301 93.9775 22.8948 94.0833 22.8595C94.1539 22.8242 94.1539 22.8242 94.2244 22.8242C94.2597 22.8242 94.2597 22.8595 94.2597 22.8948C94.2597 22.9653 94.1891 23.1417 94.1539 23.4239C94.1539 23.6356 94.1186 23.812 94.1186 24.0236C94.1186 24.1295 94.0833 24.2 94.048 24.2C94.0128 24.2 93.9775 24.1647 93.9775 24.0589C93.9775 23.8825 93.9422 23.7767 93.9069 23.7061C93.8364 23.4592 93.7306 23.3886 93.1661 23.3534C93.025 23.3534 91.8962 23.3181 91.8609 23.3181C91.8256 23.3181 91.7903 23.3534 91.7903 23.4239V26.0344C91.7903 26.105 91.7903 26.1402 91.8609 26.1402C92.002 26.1402 93.1661 26.1402 93.4131 26.105C93.66 26.105 93.8364 26.0697 93.9422 25.9286C93.9775 25.858 94.0128 25.8227 94.0833 25.8227C94.1186 25.8227 94.1186 25.8227 94.1186 25.8933C94.1186 25.9639 94.0833 26.1755 94.048 26.493C94.0128 26.8105 94.0128 27.0574 94.0128 27.1985C94.0128 27.3044 93.9775 27.3397 93.9422 27.3397C93.8717 27.3397 93.8717 27.2691 93.8717 27.1985C93.8717 27.128 93.8717 27.0222 93.8364 26.9163C93.8011 26.7752 93.7305 26.5988 93.2719 26.5636C93.025 26.5283 92.0725 26.5283 91.8962 26.5283C91.8256 26.5283 91.8256 26.5636 91.8256 26.5988V27.4455C91.8256 27.7983 91.8256 28.8213 91.8256 28.9977C91.8609 29.421 91.8962 29.6326 92.1431 29.7385C92.3195 29.809 92.6017 29.8443 92.9897 29.8443C93.2014 29.8443 93.5894 29.8443 93.8717 29.7738C94.2244 29.6679 94.295 29.4563 94.4008 28.9977C94.4361 28.8918 94.4714 28.8213 94.5066 28.8213C94.5772 28.8213 94.5772 28.9271 94.5772 28.9977C94.5772 29.0682 94.4714 29.809 94.4361 29.9854C94.4008 30.2324 94.295 30.2323 93.9422 30.2323C93.1661 30.2323 92.8486 30.1971 92.4606 30.1971C92.0725 30.1971 91.5434 30.1618 91.1201 30.1618C90.8731 30.1618 90.6262 30.1971 90.344 30.1971C90.2381 30.1971 90.1676 30.1618 90.1676 30.1265C90.1676 30.0912 90.2029 30.056 90.2734 30.056C90.344 30.056 90.4145 30.056 90.5204 30.0207C90.732 29.9854 90.8731 29.809 90.8731 29.1035C90.8731 28.7154 90.9084 28.2568 90.9084 27.3749V25.7522H90.8026Z" fill="#1A262E"/>
<path d="M104.031 29.0331C104.067 29.3153 104.137 29.9503 104.596 30.0561C104.807 30.0914 105.019 30.1266 105.196 30.1266C105.231 30.1266 105.337 30.1266 105.337 30.1972C105.337 30.2677 105.301 30.303 105.16 30.303C104.949 30.303 103.714 30.2677 103.361 30.2325C103.114 30.1972 103.008 30.1972 103.008 30.1266C103.008 30.0914 103.044 30.0561 103.114 30.0208C103.185 29.9855 103.22 29.8444 103.185 29.7033L102.656 24.7998L100.221 29.7386C100.01 30.1972 99.9745 30.303 99.8687 30.303C99.7981 30.303 99.7276 30.1972 99.5159 29.8091C99.3395 29.4917 98.4223 27.622 98.3518 27.5162C98.2812 27.375 97.1524 25.1526 97.0818 24.9057L96.6585 29.3153C96.6585 29.4917 96.6585 29.5622 96.6585 29.7386C96.6585 29.8797 96.7291 30.0208 96.9407 30.0914C97.0818 30.1266 97.1524 30.1266 97.2582 30.1266C97.364 30.1266 97.364 30.1619 97.364 30.1972C97.364 30.2677 97.2935 30.303 97.1524 30.303C96.7996 30.303 96.3057 30.2677 96.1999 30.2677C96.0941 30.2677 95.6002 30.303 95.318 30.303C95.2122 30.303 95.1416 30.303 95.1416 30.1972C95.1416 30.1619 95.1769 30.1266 95.2827 30.1266C95.3533 30.1266 95.3885 30.1266 95.4944 30.1266C95.7766 30.0914 95.8824 29.8444 95.9177 29.3505L96.6938 23.036C96.7291 22.8243 96.7643 22.7538 96.8349 22.7538C96.9054 22.7538 96.9407 22.7891 97.0113 22.9302L100.08 28.8919L103.008 22.9302C103.079 22.7891 103.114 22.7185 103.185 22.7185C103.255 22.7185 103.291 22.8243 103.291 23.0007L104.031 29.0331Z" fill="#1A262E"/>
<path d="M106.677 29.3858C105.69 28.5392 105.443 27.4103 105.443 26.4579C105.443 25.8229 105.69 24.6587 106.607 23.8121C107.242 23.2124 108.159 22.7891 109.711 22.7891C110.24 22.7891 110.664 22.8243 111.228 22.9302C111.581 23.0007 111.969 23.036 112.251 23.0713C112.357 23.0713 112.357 23.1418 112.357 23.1771C112.357 23.2829 112.322 23.3888 112.286 23.7415C112.286 24.059 112.286 24.6587 112.251 24.7998C112.251 24.9762 112.216 25.0115 112.145 25.0115C112.075 25.0115 112.039 24.941 112.039 24.7998C112.039 24.4824 111.863 24.0238 111.581 23.8121C111.228 23.5299 110.417 23.2124 109.535 23.2124C108.265 23.2124 107.665 23.5652 107.312 23.8826C106.571 24.5529 106.395 25.3995 106.395 26.3873C106.395 28.2922 107.947 29.9855 109.958 29.9855C110.734 29.9855 111.299 29.915 111.722 29.5269C111.934 29.3153 112.039 29.0331 112.11 28.7156C112.145 28.6097 112.181 28.5392 112.251 28.5392C112.322 28.5392 112.322 28.6097 112.322 28.7156C112.322 28.8214 112.181 29.7386 112.075 29.9855C112.004 30.1619 111.969 30.1972 111.828 30.2678C111.44 30.4441 110.664 30.5147 110.029 30.5147C108.547 30.4441 107.489 30.0914 106.677 29.3858Z" fill="#1A262E"/>
<path d="M114.085 25.7523C114.085 24.2354 114.085 23.9532 114.05 23.6357C114.015 23.3182 113.944 23.1418 113.733 23.1066C113.627 23.0713 113.521 23.0713 113.486 23.0713C113.415 23.0713 113.344 23.036 113.344 23.0007C113.344 22.9302 113.38 22.9302 113.521 22.9302C113.874 22.9302 114.544 22.9655 114.579 22.9655C114.614 22.9655 115.285 22.9302 115.602 22.9302C115.708 22.9302 115.779 22.9655 115.779 23.0007C115.779 23.036 115.743 23.0713 115.637 23.0713C115.567 23.0713 115.496 23.0713 115.426 23.1066C115.108 23.1418 115.073 23.3182 115.038 23.671C115.002 23.9885 115.038 24.2354 115.038 25.7523V27.4809C115.038 28.3628 115.038 29.1742 115.073 29.5975C115.108 29.915 115.179 30.0561 115.461 30.1266C115.602 30.1619 115.849 30.1619 115.884 30.1619C115.99 30.1619 116.026 30.1972 116.026 30.2325C116.026 30.2677 115.99 30.303 115.849 30.303C115.249 30.303 114.579 30.2678 114.544 30.2678C114.509 30.2678 113.838 30.303 113.521 30.303C113.415 30.303 113.344 30.2677 113.344 30.2325C113.344 30.1972 113.38 30.1619 113.486 30.1619C113.556 30.1619 113.662 30.1619 113.768 30.1266C113.979 30.0914 114.015 29.8444 114.015 29.5622C114.085 29.1389 114.085 28.3275 114.085 27.4809V25.7523Z" fill="#1A262E"/>
<path d="M67.167 49.8462C65.1209 48.0824 64.5918 45.7188 64.5918 43.7433C64.5918 42.4028 65.1209 40.0393 67.0259 38.2049C68.3311 36.9702 70.2714 36.053 73.4816 36.053C74.5751 36.053 75.4571 36.1588 76.6565 36.2999C77.4326 36.4057 78.2086 36.5469 78.7731 36.5469C78.9495 36.5469 78.9847 36.6527 78.9847 36.7938C78.9847 36.9702 78.9142 37.2171 78.8789 37.9579C78.8436 38.6282 78.8436 39.8629 78.8436 40.1804C78.8084 40.5331 78.7731 40.639 78.6672 40.639C78.4909 40.639 78.4909 40.4979 78.4909 40.1804C78.4909 39.4748 78.1381 38.5576 77.5384 38.099C76.8329 37.4641 75.1396 36.8643 73.3052 36.8643C70.6594 36.8643 69.4247 37.6052 68.6839 38.2401C67.1317 39.6512 66.779 41.3798 66.779 43.4964C66.779 47.4827 70.0244 50.9751 74.2224 50.9751C75.8451 50.9751 77.0445 50.7987 77.8912 49.9873C78.3145 49.5287 78.5614 48.929 78.6672 48.2588C78.7025 48.0118 78.7731 47.906 78.9142 47.906C79.02 47.906 79.02 48.0824 79.02 48.2588C79.02 48.4351 78.7025 50.4107 78.5261 50.9045C78.385 51.2926 78.3145 51.3631 77.9617 51.5042C77.1151 51.857 75.5276 51.9981 74.1871 51.9981C71.0122 52.0334 68.8603 51.2926 67.167 49.8462Z" fill="#1A262E"/>
<path d="M80.3958 44.0255C80.3958 40.8506 82.8651 36.053 88.7916 36.053C93.554 36.053 97.1522 38.8751 97.1522 43.7081C97.1522 48.294 93.7657 52.0334 88.6505 52.0334C82.7946 52.0334 80.3958 47.6591 80.3958 44.0255ZM94.9298 44.3078C94.9298 39.4748 91.9665 36.7938 88.6858 36.7938C85.3345 36.7938 82.6535 38.8398 82.6535 43.3906C82.6535 48.0824 85.264 51.222 89.2855 51.222C90.873 51.222 94.9298 50.3754 94.9298 44.3078Z" fill="#1A262E"/>
<path d="M100.398 37.0407C100.398 36.2999 100.468 36.053 100.645 36.053C100.821 36.053 101.209 36.5469 101.386 36.688C101.597 36.9349 104.949 40.3215 108.3 43.7786C110.17 45.613 112.568 48.0824 113.203 48.6468L112.956 38.6635C112.921 37.3582 112.78 36.9349 112.145 36.7585C111.722 36.688 111.369 36.6527 111.193 36.6527C110.946 36.6527 110.91 36.5469 110.91 36.4763C110.91 36.3705 111.087 36.3352 111.334 36.3352C112.357 36.3352 113.38 36.4057 113.591 36.4057C113.838 36.4057 114.579 36.3352 115.496 36.3352C115.743 36.3352 115.849 36.3705 115.849 36.4763C115.849 36.5821 115.779 36.6527 115.637 36.6527C115.496 36.688 115.285 36.688 115.038 36.7232C114.473 36.8291 114.332 37.076 114.332 38.5224L114.297 50.5518C114.297 51.7512 114.262 51.857 114.085 51.857C113.909 51.857 113.662 51.6806 112.498 50.587C112.392 50.5518 109.076 47.2357 106.995 45.1897C104.49 42.6145 102.091 40.1098 101.491 39.4748L101.809 48.8585C101.844 50.5165 101.985 51.1515 102.585 51.2926C102.973 51.3984 103.361 51.3984 103.573 51.3984C103.749 51.3984 103.855 51.4689 103.855 51.5748C103.855 51.6806 103.749 51.7512 103.467 51.7512C102.162 51.7512 101.315 51.6806 101.139 51.6806C100.962 51.6806 100.08 51.7512 99.0574 51.7512C98.8457 51.7512 98.7046 51.7159 98.7046 51.5748C98.7046 51.4689 98.8104 51.3984 99.0574 51.3984C99.2337 51.3984 99.4807 51.3984 99.7982 51.2926C100.327 51.1162 100.433 50.4812 100.433 48.7174C100.398 37.3229 100.398 41.027 100.398 37.0407Z" fill="#1A262E"/>
<path d="M117.754 51.5042C117.437 51.3631 117.437 51.2573 117.437 50.6929C117.437 49.5993 117.507 48.7879 117.542 48.4351C117.578 48.2235 117.613 48.0824 117.719 48.0824C117.825 48.0824 117.895 48.1529 117.895 48.3293C117.895 48.4704 117.895 48.7526 117.966 49.0348C118.283 50.587 119.694 51.1867 121.07 51.1867C123.046 51.1867 124.033 49.8109 124.033 48.6115C124.033 47.2357 123.398 46.3891 121.67 44.978L120.717 44.2372C118.424 42.4028 117.93 41.1328 117.93 39.6865C117.93 37.464 119.694 35.9824 122.375 35.9824C123.222 35.9824 123.786 36.053 124.316 36.1588C124.774 36.2646 124.951 36.2646 125.127 36.2646C125.303 36.2646 125.339 36.2999 125.339 36.4057C125.339 36.5116 125.233 37.3582 125.233 38.734C125.233 39.0868 125.197 39.2279 125.056 39.2279C124.95 39.2279 124.915 39.1221 124.88 38.981C124.845 38.7693 124.809 38.2754 124.598 37.8521C124.492 37.6404 123.927 36.7232 121.917 36.7232C120.47 36.7232 119.412 37.5699 119.412 39.0162C119.412 40.1451 119.976 40.8506 121.987 42.3675L122.552 42.7908C125.056 44.6958 125.691 45.9658 125.691 47.6943C125.691 48.541 125.339 50.0931 123.857 51.1162C122.904 51.7159 121.776 51.9628 120.611 51.9628C119.588 52.0334 118.671 51.8923 117.754 51.5042Z" fill="#1A262E"/>
<path d="M130.806 45.0837C130.806 48.0117 131.371 49.2464 132.253 50.0578C133.276 50.975 134.44 51.1514 135.428 51.1514C136.662 51.1514 137.791 50.7986 138.709 49.7756C139.661 48.682 139.873 46.8476 139.873 44.7662V42.2263C139.873 39.0867 139.873 38.5222 139.837 37.8873C139.802 37.1817 139.732 36.829 138.955 36.7231C138.779 36.6879 138.497 36.6879 138.285 36.6879C138.144 36.6879 138.038 36.6173 138.038 36.5467C138.038 36.4056 138.144 36.3704 138.391 36.3704C139.414 36.3704 140.613 36.4409 140.719 36.4409C140.825 36.4409 141.883 36.3704 142.554 36.3704C142.801 36.3704 142.906 36.4056 142.906 36.5467C142.906 36.6526 142.801 36.7231 142.66 36.7231C142.518 36.7231 142.483 36.7231 142.236 36.7584C141.566 36.829 141.46 37.2523 141.425 37.9578C141.39 38.5928 141.39 39.1572 141.39 42.2969V44.4488C141.39 46.6006 141.143 49.2111 139.449 50.6575C137.897 51.9627 136.345 52.1038 135.075 52.1038C134.405 52.1038 132.147 52.1038 130.595 50.6575C129.572 49.705 128.831 48.2587 128.831 45.2954V42.3321C128.831 39.1572 128.831 38.6281 128.76 37.9578C128.725 37.3228 128.619 36.8995 127.879 36.7937C127.737 36.7584 127.455 36.7584 127.244 36.7584C127.067 36.7584 126.997 36.6879 126.997 36.6173C126.997 36.4762 127.102 36.4409 127.349 36.4409C128.372 36.4409 129.678 36.5115 129.854 36.5115C130.03 36.5115 131.477 36.4409 132.112 36.4409C132.359 36.4409 132.465 36.4762 132.465 36.6173C132.465 36.7584 132.288 36.7937 132.182 36.7937C132.041 36.7937 131.83 36.829 131.653 36.829C131.089 36.8995 130.983 37.3228 130.948 37.9931C130.912 38.6281 130.912 39.1925 130.912 42.3674V45.0837H130.806Z" fill="#1A262E"/>
<path d="M148.233 45.8952C148.233 48.6468 148.339 50.0579 148.727 50.4459C149.115 50.7987 149.574 50.9398 151.232 50.9398C152.29 50.9398 153.242 50.9398 153.772 50.2696C154.019 49.9168 154.195 49.4229 154.23 49.0701C154.265 48.8938 154.301 48.7879 154.407 48.7879C154.512 48.7879 154.548 48.8585 154.548 49.1054C154.548 49.3524 154.407 50.7282 154.265 51.2573C154.124 51.7512 154.16 51.857 152.995 51.857C151.373 51.857 149.574 51.7512 147.175 51.7512C146.399 51.7512 145.905 51.8217 145.058 51.8217C144.811 51.8217 144.67 51.7865 144.67 51.6453C144.67 51.5748 144.741 51.5042 144.917 51.5042C145.093 51.5042 145.305 51.5042 145.482 51.469C145.905 51.3984 146.046 50.9045 146.117 50.3401C146.258 49.4229 146.222 47.7649 146.222 45.9305V42.3323C146.222 39.1574 146.222 38.6282 146.187 37.9932C146.152 37.323 146.046 36.8996 145.235 36.7938C145.093 36.7585 144.811 36.7585 144.635 36.7585C144.458 36.7585 144.388 36.688 144.388 36.5821C144.388 36.4763 144.494 36.4058 144.741 36.4058C145.764 36.4058 147.175 36.4763 147.245 36.4763C147.598 36.4763 149.044 36.4058 149.715 36.4058C149.962 36.4058 150.032 36.4763 150.032 36.5821C150.032 36.688 149.926 36.7585 149.785 36.7585C149.609 36.7585 149.362 36.7938 149.15 36.7938C148.48 36.8996 148.339 37.2877 148.304 37.9579C148.268 38.5929 148.268 39.1221 148.268 42.297V45.8952H148.233Z" fill="#1A262E"/>
<path d="M161.18 45.8245C161.18 47.6589 161.215 49.3875 161.286 50.2694C161.356 50.8338 161.391 51.1866 161.991 51.3277C162.273 51.3983 162.732 51.4336 162.944 51.4336C163.12 51.4336 163.226 51.5041 163.226 51.5747C163.226 51.6805 163.155 51.751 162.908 51.751C161.674 51.751 160.263 51.6805 160.157 51.6805C160.051 51.6805 158.64 51.751 158.005 51.751C157.758 51.751 157.652 51.7158 157.652 51.5747C157.652 51.5041 157.723 51.3983 157.899 51.3983C158.075 51.3983 158.252 51.3983 158.428 51.363C158.887 51.2924 158.957 51.0102 159.063 50.1989C159.169 49.3522 159.169 47.6237 159.169 45.8245V37.2523C158.393 37.2523 157.123 37.2523 156.135 37.2875C154.583 37.3228 154.266 37.5345 153.913 38.0636C153.701 38.4164 153.595 38.6986 153.56 38.8044C153.489 38.9808 153.454 38.9808 153.348 38.9808C153.242 38.9808 153.242 38.875 153.242 38.7692C153.207 38.6281 153.595 37.0406 153.736 36.4056C153.807 36.1234 153.877 36.0176 153.948 36.0176C154.124 36.0176 154.583 36.2292 155.006 36.2645C155.853 36.3703 156.523 36.3703 156.559 36.3703H164.425C165.095 36.3703 165.801 36.3351 166.154 36.2645C166.471 36.194 166.542 36.1587 166.612 36.1587C166.718 36.1587 166.754 36.2645 166.754 36.3703C166.754 37.0406 166.718 38.6281 166.718 38.8044C166.718 39.0161 166.612 39.0867 166.542 39.0867C166.436 39.0867 166.365 38.9808 166.365 38.8044C166.365 38.7339 166.365 38.6986 166.33 38.4517C166.224 37.4992 165.907 37.2523 163.508 37.217C162.591 37.217 161.85 37.1817 161.144 37.1817V45.8245H161.18Z" fill="#1A262E"/>
<path d="M169.858 42.2264C169.858 39.0515 169.858 38.4871 169.823 37.8521C169.787 37.2171 169.646 36.8291 169.117 36.7585C168.87 36.7232 168.694 36.7233 168.553 36.688C168.376 36.6527 168.306 36.6174 168.306 36.5116C168.306 36.4058 168.412 36.3352 168.659 36.3352C169.399 36.3352 170.775 36.4058 170.846 36.4058C170.952 36.4058 172.327 36.3352 172.998 36.3352C173.245 36.3352 173.35 36.3705 173.35 36.5116C173.35 36.6174 173.28 36.6527 173.103 36.688C172.962 36.7233 172.857 36.7232 172.68 36.7232C171.975 36.8291 171.904 37.1818 171.869 37.8874C171.833 38.5224 171.833 39.0868 171.833 42.2617V45.8599C171.833 47.6943 171.798 49.3876 171.939 50.2343C172.045 50.9398 172.116 51.1867 172.751 51.3279C173.068 51.3984 173.562 51.4337 173.668 51.4337C173.88 51.469 173.915 51.5042 173.915 51.6101C173.915 51.7159 173.809 51.7865 173.562 51.7865C172.327 51.7865 170.952 51.7159 170.81 51.7159C170.74 51.7159 169.329 51.7865 168.659 51.7865C168.447 51.7865 168.271 51.7512 168.271 51.6101C168.271 51.5042 168.376 51.4337 168.588 51.4337C168.694 51.4337 168.976 51.3984 169.152 51.3631C169.576 51.2573 169.646 50.7987 169.717 50.199C169.823 49.3524 169.823 47.6238 169.823 45.8247V42.2264H169.858Z" fill="#1A262E"/>
<path d="M177.407 37.0407C177.407 36.2999 177.478 36.053 177.654 36.053C177.83 36.053 178.219 36.5469 178.395 36.688C178.607 36.9349 181.958 40.3215 185.309 43.7786C187.179 45.613 189.578 48.0824 190.213 48.6468L189.966 38.6635C189.93 37.3582 189.789 36.9349 189.154 36.7585C188.731 36.688 188.378 36.6527 188.202 36.6527C187.955 36.6527 187.92 36.5469 187.92 36.4763C187.92 36.3705 188.096 36.3352 188.343 36.3352C189.366 36.3352 190.389 36.4057 190.601 36.4057C190.848 36.4057 191.588 36.3352 192.506 36.3352C192.753 36.3352 192.858 36.3705 192.858 36.4763C192.858 36.5821 192.788 36.6527 192.647 36.6527C192.506 36.688 192.294 36.688 192.047 36.7232C191.483 36.8291 191.342 37.076 191.342 38.5224L191.306 50.5518C191.306 51.7512 191.271 51.857 191.095 51.857C190.918 51.857 190.671 51.6806 189.507 50.587C189.401 50.5518 186.085 47.2357 184.004 45.1897C181.499 42.6145 179.1 40.1098 178.501 39.4748L178.818 48.8585C178.854 50.5165 178.995 51.1515 179.594 51.2926C179.982 51.3984 180.37 51.3984 180.582 51.3984C180.794 51.3984 180.864 51.4689 180.864 51.5748C180.864 51.6806 180.758 51.7512 180.476 51.7512C179.171 51.7512 178.324 51.6806 178.148 51.6806C177.972 51.6806 177.09 51.7512 176.067 51.7512C175.855 51.7512 175.714 51.7159 175.714 51.5748C175.714 51.4689 175.82 51.3984 176.067 51.3984C176.243 51.3984 176.49 51.3984 176.807 51.2926C177.337 51.1162 177.442 50.4812 177.442 48.7174C177.407 37.3229 177.442 41.027 177.407 37.0407Z" fill="#1A262E"/>
<path d="M208.909 49.9873C208.909 50.9398 208.874 50.9751 208.627 51.1162C207.322 51.7864 205.381 52.0334 204.217 52.0334C202.665 52.0334 199.631 51.9275 197.197 49.8815C195.892 48.7879 194.622 46.7771 194.622 44.0608C194.622 40.8154 196.28 38.4871 198.256 37.2877C200.09 36.1941 202.136 36.053 203.618 36.053C205.17 36.053 206.193 36.2294 207.039 36.4057C207.428 36.4763 208.345 36.5821 208.874 36.6174C209.05 36.6174 209.05 36.7232 209.05 36.7938C209.05 37.076 208.874 37.8168 208.874 39.8982C208.874 40.2509 208.839 40.3215 208.697 40.3215C208.592 40.3215 208.556 40.1804 208.521 40.0393C208.521 39.8276 208.415 39.0868 208.063 38.5576C207.498 37.7815 205.77 36.8643 203.088 36.8643C201.783 36.8643 200.266 36.8996 198.679 38.1343C197.444 39.0868 196.668 40.8859 196.668 43.2847C196.668 46.1422 198.22 48.2588 198.855 48.8585C200.443 50.4106 202.207 51.0809 204.288 51.0809C204.958 51.0809 206.016 50.9751 206.581 50.6576C206.828 50.5165 207.004 50.2695 207.004 49.9521V46.4949C207.004 44.9075 206.898 44.59 206.052 44.4841C205.911 44.4489 205.664 44.4489 205.487 44.4489C205.311 44.4489 205.205 44.343 205.205 44.2725C205.205 44.1666 205.311 44.0961 205.558 44.0961C206.51 44.0961 207.921 44.1314 207.992 44.1314C208.098 44.1314 209.509 44.0961 210.144 44.0961C210.391 44.0961 210.497 44.1314 210.497 44.2725C210.497 44.343 210.426 44.4489 210.214 44.4489C210.038 44.4489 210.003 44.4489 209.791 44.4841C209.227 44.5547 209.086 44.978 209.015 45.6836C208.98 46.3891 208.98 46.9888 208.98 47.8354V49.9873H208.909Z" fill="#1A262E"/>
<path fill-rule="evenodd" clip-rule="evenodd" d="M31.9609 27.516C31.855 27.516 31.7845 27.516 31.6787 27.516L29.4915 26.4224L24.2 27.9746L18.6615 27.5865L16.6507 28.4332C16.6507 28.4332 13.4758 27.6571 10.1598 25.7521C9.77175 26.3166 9.2426 27.1279 8.71345 28.151C8.21957 29.1034 7.79625 29.9501 7.47876 30.5851C7.90208 30.9025 8.3254 31.1495 8.71345 31.3611C10.8653 32.3489 11.8178 32.4194 12.0295 32.4194C12.0647 32.4194 12.0647 32.4194 12.0647 32.4194L10.5831 33.5483C10.5831 33.5483 13.0878 35.1358 14.1461 35.3827C14.64 35.4885 15.0633 35.5238 15.3455 35.5238C15.6983 35.5238 15.9452 35.4885 15.9452 35.4885L15.7335 36.1235L18.8732 43.8844L18.5204 49.8815L17.8149 51.1162L18.2029 52.5272C18.2029 52.5272 20.0373 54.6438 23.7061 54.6438C25.2583 54.6438 27.1632 54.2558 29.3857 53.1622C29.809 51.4689 30.7615 45.0838 30.7615 45.0838L35.2063 38.734L33.76 34.7477L38.981 32.5958L39.7218 31.9256L37.6052 30.7262L40.9917 28.1157C40.9917 28.1157 41.2387 19.7551 28.8918 16.1216C28.1863 15.9099 27.4102 15.7335 26.6341 15.5571C27.3396 15.8393 27.9746 16.1568 28.5743 16.5449C33.5131 19.614 33.9364 25.1877 33.9364 25.1877C33.9364 25.1877 34.3597 27.516 31.9609 27.516Z" fill="#87764E"/>
<path fill-rule="evenodd" clip-rule="evenodd" d="M28.3978 62.8283C28.2567 62.7224 26.2459 59.0184 26.2459 59.0184C26.2459 59.0184 25.9637 57.4309 25.7873 55.5965C25.0818 55.7376 24.4115 55.8082 23.7412 55.8082C19.6491 55.8082 17.4972 53.4094 17.4267 53.3035L17.2503 53.0919L17.1797 52.8449L16.7917 51.4339L16.6506 50.94L16.8975 50.4814L17.462 49.4936L17.7795 44.061L14.7809 36.6529C14.4987 36.6176 14.2165 36.5823 13.9343 36.5118C12.7701 36.2295 10.4771 34.8185 10.0185 34.5363L8.5722 33.6191L9.45412 32.9488C9.10135 32.8077 8.71331 32.6313 8.28998 32.4549H8.25471H8.21943C7.83138 32.2433 7.40806 31.9963 6.98474 31.7141C6.94946 31.8199 6.91419 31.8552 6.91419 31.8552C5.43256 35.7357 5.43256 39.5456 6.06754 42.5088L4.83285 44.4843L4.09204 46.6009L5.99699 50.4461L8.92497 59.8297C8.92497 59.8297 7.69028 61.2408 7.51389 61.9464L7.12585 64.8038H17.9911C17.9911 64.8038 17.6383 61.9464 17.0034 60.6764C16.3684 59.4064 14.7456 58.3481 14.7456 58.3481L12.0999 51.8925C12.241 52.0336 12.4174 52.1747 12.5585 52.3511C13.6168 53.4446 17.0739 57.2545 17.7795 58.2776C18.485 59.3359 21.3424 62.8636 20.9896 65.9326C20.9896 65.9326 19.9313 67.0615 19.3316 68.7195C18.9789 69.7073 18.9436 71.965 18.9436 71.965H33.8657C33.8657 71.965 32.4899 66.109 32.2782 65.7915C31.3258 64.451 28.5389 62.9341 28.3978 62.8283Z" fill="#87764E"/>
<path fill-rule="evenodd" clip-rule="evenodd" d="M49.8814 53.7266C50.0931 50.9045 52.2097 48.6115 52.2097 48.6115C52.2097 48.6115 52.7036 44.0961 52.7036 43.3905C52.7036 43.3905 49.4581 40.4978 48.682 39.7923C48.6115 38.6282 47.659 37.7815 47.659 37.7815C47.6237 37.4993 47.8354 36.0529 46.636 31.9256C44.4841 24.6585 39.9334 18.2029 38.8398 16.8976C37.7815 15.5924 32.7722 9.84226 28.5742 8.5723C26.8104 9.10145 24.341 10.9358 21.9775 12.9466C21.0603 11.1475 20.1783 9.56005 18.3792 9.38366C15.3454 9.13672 13.4757 13.758 9.70113 13.0525C7.26703 10.1245 10.8653 8.50174 10.7242 5.43266C10.5478 0.63501 3.31602 -2.22241 0 2.18719C1.34052 2.68107 3.8099 1.72859 4.83292 3.28077C3.70407 5.96181 5.50318 7.30233 6.56149 8.7134C5.96178 10.2656 6.20872 12.9113 6.56149 14.5341C9.80696 18.5204 15.0279 14.7105 17.9912 13.0877C18.732 13.5463 19.0848 14.4282 19.367 15.3807C18.9437 15.804 17.7795 16.8976 17.7795 16.8976C15.9451 18.6967 14.6752 20.0725 14.6752 20.0725C14.6752 20.0725 12.7702 22.1539 10.7947 24.8349C13.2641 26.2107 15.6629 26.9515 16.5096 27.1985L18.1676 26.4929L18.4145 26.3871L18.6614 26.4224L24.0235 26.8104L29.1387 25.3288L29.562 25.223L29.95 25.3993L31.9255 26.3871C32.1372 26.3871 32.49 26.3518 32.6311 26.1754C32.8074 25.9638 32.8074 25.5404 32.7722 25.3993V25.3641V25.2935C32.7722 25.223 32.3136 20.0725 27.5865 17.3562C27.4454 17.1798 21.8716 14.1108 21.8716 14.1108C21.8716 14.1108 24.6585 14.0402 26.8457 14.393C27.7629 14.5341 28.3978 14.7105 28.4331 14.7105C34.0069 16.1921 37.9579 18.732 40.2861 22.295C42.2264 25.3288 42.1558 27.9745 42.1558 28.0804L42.1205 28.6448L41.6619 28.9976L39.6864 30.5145L40.2156 30.832L41.6619 31.6433L40.4272 32.7722L39.6864 33.4425L39.5453 33.5836L39.3689 33.6541L35.171 35.3827L36.2293 38.2754L36.441 38.8751L36.0882 39.4042L31.8197 45.5424C31.6433 46.8124 30.8319 51.8922 30.4439 53.4444L30.3381 53.9736L29.8795 54.2205C29.5267 54.3969 29.1739 54.5733 28.8212 54.7144C30.2322 55.173 30.8319 56.2313 30.8319 56.2313L39.757 50.0578L43.7785 51.1161L43.6022 53.7619C43.6022 53.7619 40.8153 54.538 39.9334 57.8187C39.0514 61.0995 43.3552 64.733 43.3552 64.733C43.3552 64.733 45.8951 66.9202 47.9412 66.0382C51.8922 64.3097 51.4336 59.8295 51.4336 59.8295L52.3155 58.0657C52.3508 57.9951 49.6345 57.0427 49.8814 53.7266Z" fill="#87764E"/>
<path fill-rule="evenodd" clip-rule="evenodd" d="M26.6339 15.522C33.4071 18.203 33.9362 25.1173 33.9362 25.1173C33.9362 25.1173 34.3948 27.6925 31.6785 27.5161L29.4913 26.4225L24.1998 27.9747L18.6613 27.5866L16.6506 28.4333C16.6506 28.4333 4.40951 25.47 2.71622 16.7214C1.44625 25.6817 5.64419 29.7738 8.71328 31.3965C11.1474 32.5254 12.0646 32.4548 12.0646 32.4548L10.5829 33.5484C10.5829 33.5484 13.0876 35.1359 14.1459 35.3828C15.1689 35.6298 15.945 35.4887 15.945 35.4887L15.7334 36.1236L18.873 43.8845L18.5202 49.8816L17.8147 51.1163L18.2027 52.5274C18.2027 52.5274 21.9774 56.8311 29.3502 53.1271C29.7735 51.4338 30.726 45.0487 30.726 45.0487L35.1709 38.6988L33.7245 34.7126L38.9455 32.5607L39.6863 31.8904L37.5697 30.691L40.9563 28.0805C41.0268 28.0805 41.3091 18.7322 26.6339 15.522Z" fill="#87764E"/>
</g>
<defs>
<clipPath id="clip0">
<rect width="212" height="72" fill="white"/>
</clipPath>
</defs>
</svg>
