<svg width="212" height="72" viewBox="0 0 212 72" fill="none" xmlns="http://www.w3.org/2000/svg">
  <g clip-path="url(#clip0)">
    <path d="M67.396 67.096c.422-.917 1.337-3.21 1.478-3.704a1.44 1.44 0 00.07-.247c0-.035-.035-.106-.105-.14-.07-.036-.176-.036-.247-.036-.035 0-.07-.035-.07-.07 0-.036.035-.071.176-.071h1.232c.07 0 .105 0 .105.035s-.035.07-.07.07-.211 0-.317.071c-.105.07-.211.177-.387.635-.07.176-.422.988-.774 1.834-.423.988-.74 1.73-.915 2.047-.176.423-.247.493-.317.493s-.14-.07-.246-.423l-1.725-4.163c-.176-.388-.246-.458-.493-.493-.105-.036-.246-.036-.281-.036-.035 0-.07-.035-.07-.07 0-.036.07-.036.175-.036h1.479c.14 0 .175 0 .175.036 0 .035-.035.07-.07.07-.07 0-.176 0-.246.036-.07.035-.07.07-.07.105 0 .071.07.283.175.565l1.338 3.492zM71.232 64.803v-1.446c0-.247-.07-.353-.282-.388h-.246c-.035 0-.07-.035-.07-.07 0-.036.035-.071.105-.071h2.464c.14 0 .246-.035.316-.035.036 0 .07-.036.106-.036.035 0 .035.036.035.07 0 .036-.035.142-.07.318 0 .07-.035.353-.035.459 0 .035-.036.07-.07.07-.036 0-.071-.035-.071-.07s0-.176-.035-.247c-.035-.106-.106-.176-.493-.212-.106 0-.915-.035-1.02-.035-.036 0-.036.035-.036.07v1.835c0 .035 0 .07.035.07h1.162c.176 0 .281-.035.352-.105.035-.035.07-.07.105-.07.035 0 .035 0 .035.07 0 .035-.035.14-.07.388 0 .14-.035.388-.035.423 0 .07 0 .141-.07.141-.036 0-.036-.035-.036-.07 0-.07 0-.141-.035-.212-.035-.106-.07-.176-.352-.212-.176-.035-.95-.035-1.056-.035-.035 0-.035.035-.035.035V67.167c0 .459.14.53.845.53.176 0 .528 0 .704-.072.176-.07.281-.211.316-.458 0-.07.036-.106.07-.106.036 0 .036.07.036.106 0 .035-.07.494-.106.67-.035.177-.105.177-.387.177-.528 0-.915 0-1.232-.036h-.563-.739c-.07 0-.105 0-.105-.07 0-.035 0-.07.07-.07s.14-.036.211-.036c.141-.035.141-.177.176-.353.035-.282.035-.811.035-1.481v-1.165h.07zM75.842 64.804v-1.447c0-.247-.07-.352-.281-.388h-.247c-.035 0-.07-.035-.07-.07 0-.036.035-.07.106-.07h1.759c.704 0 1.971-.072 2.816.775.352.353.668.917.668 1.729 0 .846-.352 1.517-.739 1.905-.317.317-.915.776-2.111.776-.317 0-.669-.035-.986-.035-.317-.036-.528-.036-.563-.036h-.704c-.07 0-.105 0-.105-.07 0-.036 0-.07.07-.07s.14 0 .211-.036c.141-.035.141-.176.176-.353.035-.282.035-.811.035-1.481v-1.13h-.035zm.634.74v1.482c0 .176.035.423.07.494.07.141.317.282 1.161.282.634 0 1.232-.212 1.655-.6.352-.352.563-.987.563-1.622 0-.847-.388-1.411-.669-1.694-.669-.67-1.443-.74-2.252-.74-.141 0-.352.035-.423.035-.07.035-.07.07-.07.141v2.222h-.035zM82.67 67.061c0 .564.07.74.281.776.141.035.282.035.352.035.035 0 .07.036.07.071 0 .035-.035.07-.14.07-.387 0-.669-.035-.74-.035-.07 0-.351.036-.668.036-.07 0-.106 0-.106-.071 0-.035.036-.07.07-.07.071 0 .177 0 .282-.036.176-.035.212-.247.212-.847v-3.88c0-.282.035-.353.105-.353.07 0 .211.141.282.212.105.106 1.126 1.2 2.217 2.328.704.706 1.443 1.517 1.654 1.729l-.07-3.387c0-.423-.036-.6-.247-.635-.14-.035-.281-.035-.352-.035-.035 0-.07-.035-.07-.07 0-.036.07-.036.14-.036h1.338c.07 0 .14 0 .14.035 0 .036-.034.071-.07.071h-.175c-.247.035-.247.176-.247.6v3.986c0 .459 0 .494-.07.494s-.141-.07-.528-.424c-.07-.07-1.091-1.058-1.83-1.834-.81-.846-1.584-1.693-1.83-1.905v3.175zM91.081 62.757c1.584 0 2.78.953 2.78 2.54 0 1.517-1.126 2.752-2.815 2.752-1.9 0-2.745-1.447-2.745-2.646 0-1.094.844-2.646 2.78-2.646zm.176 5.045c.633 0 1.9-.318 1.9-2.293 0-1.623-.985-2.47-2.076-2.47-1.161 0-2.006.741-2.006 2.223-.035 1.552.915 2.54 2.182 2.54zM100.055 67.096c.423-.917 1.338-3.21 1.479-3.704.035-.106.07-.212.07-.247s-.035-.106-.106-.14c-.07-.036-.176-.036-.246-.036-.035 0-.07-.035-.07-.07 0-.036.035-.071.176-.071H102.589c.071 0 .106 0 .106.035s-.035.07-.07.07c-.036 0-.212 0-.317.071-.106.07-.211.177-.387.635-.071.176-.423.988-.775 1.834-.422.988-.739 1.73-.915 2.047-.176.423-.246.493-.316.493s-.141-.07-.247-.423l-1.724-4.163c-.176-.388-.247-.458-.493-.493-.105-.036-.246-.036-.281-.036-.036 0-.07-.035-.07-.07 0-.036.07-.036.175-.036H98.753c.141 0 .176 0 .176.036 0 .035-.035.07-.07.07-.07 0-.176 0-.246.036-.07.035-.07.07-.07.105 0 .071.07.283.175.565l1.337 3.492zM103.892 64.803v-1.446c0-.247-.071-.353-.282-.388h-.246a.076.076 0 01-.071-.07c0-.036.035-.071.106-.071h2.463c.141 0 .247-.035.317-.035.035 0 .07-.036.106-.036.035 0 .035.036.035.07 0 .036-.035.142-.071.318 0 .07-.035.353-.035.459 0 .035-.035.07-.07.07s-.07-.035-.07-.07 0-.176-.036-.247c-.035-.106-.105-.176-.492-.212-.106 0-.915-.035-1.021-.035-.035 0-.035.035-.035.07v1.835c0 .035 0 .07.035.07h1.161c.176 0 .282-.035.352-.105.036-.035.071-.07.106-.07s.035 0 .035.07c0 .035-.035.14-.07.388 0 .14-.035.388-.035.423 0 .07 0 .141-.071.141-.035 0-.035-.035-.035-.07 0-.07 0-.141-.035-.212-.035-.106-.071-.176-.352-.212-.176-.035-.95-.035-1.056-.035-.035 0-.035.035-.035.035V67.167c0 .459.141.53.844.53.176 0 .528 0 .704-.072.176-.07.282-.211.317-.458 0-.07.035-.106.07-.106.036 0 .036.07.036.106 0 .035-.071.494-.106.67-.035.177-.106.177-.387.177-.528 0-.915 0-1.232-.036h-.563-.739c-.07 0-.106 0-.106-.07 0-.035 0-.07.071-.07.07 0 .141-.036.211-.036.141-.035.141-.177.176-.353.035-.282.035-.811.035-1.481v-1.165h.071zM108.537 67.343c-.669-.6-.845-1.375-.845-2.01 0-.459.176-1.235.775-1.835.422-.423 1.055-.74 2.146-.74.282 0 .669.035 1.021.07.246.035.493.106.704.106.07 0 .07.035.07.07 0 .07 0 .141-.035.388v.706c0 .106-.035.141-.07.141s-.071-.035-.071-.141c0-.247-.105-.53-.281-.67-.247-.212-.739-.388-1.373-.388-.915 0-1.337.246-1.583.458-.528.494-.634 1.094-.634 1.764 0 1.305 1.021 2.47 2.534 2.47.528 0 .88-.036 1.161-.318.141-.141.247-.423.282-.564 0-.071.035-.106.07-.106.036 0 .071.035.071.106 0 .035-.106.635-.176.881-.035.142-.071.142-.176.212-.282.106-.81.141-1.267.141-1.056-.035-1.76-.282-2.323-.74zm1.161-5.997c.036-.035.036-.035.071-.035.035 0 .035 0 .07.035.176.177.563.494.669.565.035 0 .07.035.07.035.035 0 .071 0 .141-.035.176-.106.493-.353.669-.494.07-.07.105-.07.14-.07.036 0 .071.035.071.07s-.035.07-.035.07c-.071.071-.81.741-.88.812-.071.07-.106.07-.141.07-.035 0-.07-.035-.106-.07-.07-.035-.703-.53-.809-.6-.07-.035-.106-.07-.106-.07 0-.036.036-.036.036-.071l.14-.212zM113.64 67.52c0-.176.141-.423.422-.423.247 0 .423.176.423.423a.444.444 0 01-.458.459.454.454 0 01-.387-.459z" fill="#87764E"/>
    <path d="M65.636 23.847c-.246-.53-.317-.67-.739-.74-.176-.036-.282-.036-.352-.036-.106 0-.14-.036-.14-.07 0-.071.07-.071.175-.071.528 0 1.197.035 1.302.035.106 0 .634-.035 1.056-.035.141 0 .176.035.176.07 0 .07-.035.106-.176.106-.176 0-.246.035-.352.07-.105.071-.105.142-.105.212s.07.282.176.565l2.006 5.08c.563-1.27 1.9-4.622 2.111-5.292a.923.923 0 00.106-.388c0-.07 0-.141-.106-.176-.105-.036-.246-.036-.352-.036-.07 0-.14-.035-.14-.07 0-.07.035-.106.176-.106.422 0 .95.035 1.09.035.036 0 .493-.035.775-.035.106 0 .176.035.176.07 0 .071-.035.106-.14.106-.142 0-.282 0-.494.106-.14.106-.246.247-.528.882-.07.141-.633 1.446-1.16 2.646a131.32 131.32 0 01-1.268 2.893c-.317.634-.352.81-.457.81-.141 0-.212-.14-.388-.634l-2.428-5.997zM76.3 29.844c1.02 0 1.443-.106 1.619-.458.105-.212.14-.353.176-.53.035-.105.035-.176.105-.176.07 0 .07.07.07.176 0 .318-.14.953-.21 1.2-.071.247-.106.282-.353.282-1.689 0-3.308-.035-5.103-.035-.14 0-.175 0-.175-.07 0-.071.035-.107.14-.283 1.514-2.222 2.956-4.339 4.364-6.561h-2.111c-.634 0-1.162 0-1.514.14-.352.142-.457.6-.492.847-.036.141-.07.177-.106.177-.035 0-.07-.07-.07-.141 0-.142.14-1.059.21-1.341.036-.141.036-.212.106-.212.106 0 .176.07.458.07 1.09.036 1.584.036 1.724.036h2.816c.14 0 .246 0 .246.07a.597.597 0 01-.07.177c-1.513 2.293-2.886 4.41-4.4 6.632h2.57zM80.98 27.48c-.07 0-.105.036-.105.106l-.493 1.447c-.105.317-.21.635-.21.811 0 .212.14.282.386.282h.07c.106 0 .141.035.141.07 0 .071-.105.071-.176.071-.246 0-.774-.035-.915-.035-.105 0-.633.035-1.09.035-.141 0-.177-.035-.177-.07s.036-.07.141-.07h.246c.493-.036.704-.424.88-.918l2.288-6.067c.14-.318.176-.389.246-.389s.106.036.247.353c.176.388 1.724 4.374 2.322 5.82.387.918.704 1.06.88 1.13.141.07.317.07.387.07s.141.035.141.07c0 .036-.035.071-.176.071-.105 0-.985 0-1.76-.035-.21 0-.281-.035-.281-.07 0-.036.035-.071.07-.071.035-.035.106-.07.035-.247l-.915-2.293c-.035-.035-.035-.07-.105-.07H80.98zm1.936-.387c.035 0 .035-.036.035-.071l-.915-2.54c-.07-.176-.07-.176-.14 0l-.845 2.54c-.035.035 0 .07.035.07h1.83z" fill="#1A262E"/>
    <path d="M87.914 27.94c0 1.657 0 2.292-.317 3.033-.211.494-.669.953-1.549 1.552-.14.07-.281.212-.387.247h-.07c-.035 0-.07 0-.07-.07s.07-.106.14-.142a2.49 2.49 0 00.317-.246c.704-.67 1.02-1.165 1.02-3.775v-2.822c0-1.517 0-1.8-.035-2.081-.035-.318-.14-.46-.457-.565-.07 0-.246-.035-.352-.035-.035 0-.07-.036-.07-.07 0-.071.07-.107.176-.107.492 0 1.161.036 1.196.036.035 0 .74-.036 1.056-.036.106 0 .176.036.176.106 0 .035-.035.07-.07.07-.07 0-.141 0-.247.036-.246.07-.352.247-.387.564-.035.318-.035.565-.035 2.082v2.222h-.035zM90.588 25.752c0-1.517 0-1.799-.035-2.081-.035-.318-.105-.494-.422-.565-.07 0-.176-.035-.282-.035-.07 0-.14-.035-.14-.07 0-.071.07-.106.175-.106.247 0 .528.035 1.197.035h2.323c.246 0 .352-.035.457-.07.07-.036.07-.036.141-.036.035 0 .035.035.035.07 0 .071-.07.248-.105.53 0 .212-.035.388-.035.6 0 .105-.036.176-.07.176-.036 0-.071-.035-.071-.141a.76.76 0 00-.07-.353c-.071-.247-.177-.317-.74-.353-.14 0-1.267-.035-1.302-.035-.035 0-.07.035-.07.106v2.61c0 .071 0 .106.07.106.14 0 1.302 0 1.549-.035.246 0 .422-.035.528-.176.035-.071.07-.106.14-.106.035 0 .035 0 .035.07s-.035.282-.07.6-.035.564-.035.706c0 .105-.035.14-.07.14-.07 0-.07-.07-.07-.14 0-.071 0-.177-.036-.283-.035-.14-.106-.317-.563-.352-.247-.036-1.197-.036-1.373-.036-.07 0-.07.036-.07.07v2.4c.035.423.07.635.317.74.176.071.457.106.844.106.212 0 .599 0 .88-.07.352-.106.422-.318.528-.776.035-.106.07-.177.106-.177.07 0 .07.106.07.177 0 .07-.105.811-.14.987-.036.247-.141.247-.493.247-.775 0-1.091-.035-1.479-.035-.387 0-.915-.035-1.337-.035-.246 0-.493.035-.774.035-.106 0-.176-.035-.176-.07 0-.036.035-.071.105-.071.07 0 .141 0 .247-.035.211-.036.352-.212.352-.918 0-.388.035-.846.035-1.728v-1.623h-.106zM103.786 29.033c.035.282.106.917.563 1.023.211.035.422.07.598.07.036 0 .141 0 .141.07 0 .071-.035.107-.176.107-.211 0-1.443-.036-1.795-.07-.246-.036-.352-.036-.352-.107 0-.035.036-.07.106-.105.07-.036.106-.177.07-.318l-.528-4.903-2.428 4.938c-.211.459-.246.565-.352.565-.07 0-.14-.106-.352-.494-.176-.318-1.09-2.187-1.161-2.293-.07-.141-1.197-2.364-1.267-2.61l-.422 4.409v.423c0 .142.07.283.281.353.14.035.211.035.317.035.105 0 .105.036.105.07 0 .071-.07.107-.21.107-.353 0-.845-.036-.951-.036-.105 0-.598.036-.88.036-.105 0-.176 0-.176-.106 0-.035.035-.07.141-.07h.211c.282-.036.387-.283.422-.777l.775-6.314c.035-.212.07-.283.14-.283s.106.036.177.177l3.061 5.962 2.921-5.962c.071-.141.106-.212.176-.212.071 0 .106.106.106.282l.739 6.033zM106.426 29.386c-.986-.847-1.232-1.976-1.232-2.928 0-.635.246-1.8 1.161-2.646.634-.6 1.549-1.023 3.097-1.023.528 0 .95.035 1.514.141.352.07.739.106 1.02.141.106 0 .106.07.106.106 0 .106-.035.212-.071.564 0 .318 0 .918-.035 1.059 0 .176-.035.212-.105.212-.071 0-.106-.071-.106-.212 0-.318-.176-.776-.457-.988-.352-.282-1.162-.6-2.042-.6-1.267 0-1.865.353-2.217.67-.739.67-.915 1.517-.915 2.505 0 1.905 1.549 3.598 3.555 3.598.774 0 1.337-.07 1.759-.458.211-.212.317-.494.387-.811.036-.106.071-.177.141-.177.071 0 .071.07.071.177 0 .105-.141 1.023-.247 1.27-.07.176-.105.211-.246.282-.387.176-1.161.247-1.795.247-1.478-.07-2.534-.424-3.343-1.13zM113.816 25.752c0-1.517 0-1.8-.035-2.117-.035-.317-.106-.494-.317-.529-.105-.035-.211-.035-.246-.035-.07 0-.141-.036-.141-.07 0-.071.035-.071.176-.071.352 0 1.021.035 1.056.035.035 0 .704-.035 1.021-.035.105 0 .176.035.176.07s-.036.07-.141.07c-.071 0-.141 0-.211.036-.317.035-.352.212-.388.564-.035.318 0 .565 0 2.082v1.728c0 .882 0 1.694.036 2.117.035.317.105.459.387.53.141.034.387.034.422.034.106 0 .141.036.141.071 0 .035-.035.07-.176.07-.598 0-1.267-.035-1.302-.035-.035 0-.704.035-1.021.035-.105 0-.176-.035-.176-.07s.035-.07.141-.07c.07 0 .176 0 .281-.036.212-.035.247-.282.247-.564.07-.424.07-1.235.07-2.082v-1.728zM67.009 49.846c-2.042-1.763-2.57-4.127-2.57-6.102 0-1.34.528-3.705 2.429-5.539 1.302-1.235 3.238-2.152 6.44-2.152 1.091 0 1.971.106 3.168.247.774.106 1.548.247 2.111.247.176 0 .211.106.211.247 0 .176-.07.423-.105 1.164-.035.67-.035 1.905-.035 2.223-.035.352-.07.458-.176.458-.176 0-.176-.14-.176-.458 0-.706-.352-1.623-.95-2.082-.704-.635-2.394-1.234-4.224-1.234-2.64 0-3.871.74-4.61 1.375-1.549 1.411-1.9 3.14-1.9 5.257 0 3.986 3.237 7.478 7.425 7.478 1.62 0 2.816-.176 3.66-.987.423-.459.67-1.059.775-1.729.035-.247.105-.353.246-.353.106 0 .106.177.106.353s-.317 2.152-.493 2.646c-.14.388-.211.458-.563.6-.845.352-2.428.493-3.766.493-3.167.036-5.314-.705-7.003-2.151zM80.206 44.026c0-3.175 2.464-7.973 8.376-7.973 4.751 0 8.341 2.822 8.341 7.655 0 4.586-3.379 8.326-8.482 8.326-5.842 0-8.235-4.375-8.235-8.008zm14.5.282c0-4.833-2.956-7.514-6.23-7.514-3.343 0-6.018 2.046-6.018 6.597 0 4.692 2.605 7.831 6.617 7.831 1.584 0 5.63-.846 5.63-6.914zM100.161 37.041c0-.74.07-.988.246-.988s.563.494.739.635c.212.247 3.555 3.634 6.898 7.09 1.866 1.835 4.259 4.305 4.892 4.869l-.246-9.983c-.035-1.306-.176-1.729-.81-1.905a6.828 6.828 0 00-.95-.106c-.246 0-.281-.106-.281-.176 0-.106.176-.142.422-.142 1.021 0 2.041.071 2.252.071.247 0 .986-.07 1.901-.07.246 0 .352.035.352.14 0 .106-.071.177-.211.177-.141.035-.352.035-.599.07-.563.106-.704.353-.704 1.8l-.035 12.029c0 1.2-.035 1.305-.211 1.305s-.422-.176-1.584-1.27c-.105-.035-3.413-3.351-5.49-5.397a730.306 730.306 0 01-5.49-5.715l.317 9.384c.035 1.658.176 2.293.774 2.434.387.106.774.106.985.106.176 0 .282.07.282.176 0 .106-.106.176-.387.176-1.302 0-2.147-.07-2.323-.07-.176 0-1.056.07-2.076.07-.212 0-.352-.035-.352-.176 0-.106.105-.176.352-.176.176 0 .422 0 .739-.106.528-.177.633-.812.633-2.575-.035-11.395-.035-7.69-.035-11.677zM117.476 51.504c-.317-.14-.317-.247-.317-.811 0-1.094.071-1.905.106-2.258.035-.212.07-.353.176-.353.106 0 .176.07.176.247 0 .141 0 .424.07.706.317 1.552 1.725 2.152 3.097 2.152 1.971 0 2.957-1.376 2.957-2.575 0-1.376-.634-2.223-2.358-3.634l-.951-.74c-2.287-1.835-2.78-3.105-2.78-4.551 0-2.223 1.76-3.705 4.435-3.705.844 0 1.407.071 1.935.177.458.106.634.106.81.106.176 0 .211.035.211.14 0 .107-.106.953-.106 2.329 0 .353-.035.494-.176.494-.105 0-.141-.106-.176-.247-.035-.212-.07-.706-.281-1.129-.106-.212-.669-1.129-2.675-1.129-1.443 0-2.499.847-2.499 2.293 0 1.13.563 1.835 2.569 3.352l.564.423c2.498 1.905 3.132 3.175 3.132 4.903 0 .847-.352 2.4-1.83 3.422-.951.6-2.077.847-3.238.847-1.021.07-1.936-.07-2.851-.459zM130.498 45.084c0 2.928.563 4.163 1.443 4.974 1.021.917 2.182 1.094 3.167 1.094 1.232 0 2.358-.353 3.273-1.376.951-1.094 1.162-2.928 1.162-5.01v-2.54c0-3.14 0-3.703-.035-4.338-.036-.706-.106-1.059-.88-1.165-.176-.035-.458-.035-.669-.035-.141 0-.246-.07-.246-.141 0-.141.105-.176.352-.176 1.02 0 2.217.07 2.322.07.106 0 1.162-.07 1.83-.07.247 0 .352.035.352.176 0 .106-.105.176-.246.176-.141 0-.176 0-.422.036-.669.07-.775.493-.81 1.2-.035.634-.035 1.198-.035 4.338v2.152c0 2.152-.246 4.762-1.936 6.209-1.548 1.305-3.097 1.446-4.364 1.446-.668 0-2.921 0-4.469-1.446-1.021-.953-1.76-2.4-1.76-5.362v-2.964c0-3.175 0-3.704-.07-4.374-.035-.635-.141-1.058-.88-1.164-.141-.035-.422-.035-.634-.035-.176 0-.246-.07-.246-.142 0-.14.106-.176.352-.176 1.021 0 2.323.07 2.499.07.176 0 1.619-.07 2.252-.07.246 0 .352.035.352.176 0 .142-.176.177-.281.177-.141 0-.352.035-.528.035-.564.07-.669.494-.704 1.164-.035.635-.035 1.2-.035 4.375v2.716h-.106zM147.883 45.895c0 2.752.106 4.163.493 4.55.387.354.845.495 2.499.495 1.056 0 2.006 0 2.534-.67.246-.353.422-.847.457-1.2.036-.176.071-.282.176-.282.106 0 .141.07.141.317s-.141 1.623-.281 2.152c-.141.494-.106.6-1.267.6-1.619 0-3.414-.106-5.807-.106-.775 0-1.267.07-2.112.07-.246 0-.387-.035-.387-.176 0-.07.07-.14.246-.14s.387 0 .563-.036c.423-.07.563-.565.634-1.129.141-.917.105-2.575.105-4.41v-3.598c0-3.175 0-3.704-.035-4.339-.035-.67-.141-1.093-.95-1.2-.141-.035-.422-.035-.598-.035s-.247-.07-.247-.176c0-.106.106-.176.352-.176 1.021 0 2.429.07 2.499.07.352 0 1.795-.07 2.464-.07.246 0 .316.07.316.176 0 .106-.105.176-.246.176-.176 0-.422.036-.634.036-.668.106-.809.494-.844 1.164-.035.635-.035 1.164-.035 4.339v3.598h-.036zM160.799 45.825c0 1.834.036 3.563.106 4.444.07.565.106.918.704 1.059.281.07.739.106.95.106.176 0 .282.07.282.14 0 .107-.071.177-.317.177-1.232 0-2.64-.07-2.745-.07-.106 0-1.513.07-2.147.07-.246 0-.352-.035-.352-.176 0-.07.071-.177.246-.177.176 0 .352 0 .528-.035.458-.07.528-.353.634-1.164.105-.847.105-2.575.105-4.374v-8.573c-.774 0-2.041 0-3.026.035-1.549.036-1.865.248-2.217.777a3.863 3.863 0 00-.352.74c-.071.177-.106.177-.212.177-.105 0-.105-.106-.105-.212-.035-.14.352-1.728.493-2.363.07-.283.14-.388.211-.388.176 0 .633.211 1.056.246.844.106 1.513.106 1.548.106h7.848c.669 0 1.373-.035 1.725-.105.317-.071.387-.106.457-.106.106 0 .141.105.141.211 0 .67-.035 2.258-.035 2.434 0 .212-.106.283-.176.283-.106 0-.176-.106-.176-.283 0-.07 0-.105-.035-.352-.106-.953-.423-1.2-2.816-1.235-.915 0-1.654-.035-2.358-.035v8.642h.035zM169.457 42.226c0-3.175 0-3.74-.035-4.374-.035-.635-.176-1.023-.704-1.094-.246-.035-.422-.035-.563-.07-.176-.035-.246-.07-.246-.177 0-.105.105-.176.352-.176.739 0 2.111.07 2.182.07.105 0 1.478-.07 2.146-.07.247 0 .352.035.352.176 0 .106-.07.142-.246.177-.141.035-.246.035-.422.035-.704.106-.775.459-.81 1.164-.035.635-.035 1.2-.035 4.374v3.599c0 1.834-.035 3.527.106 4.374.105.706.176.953.809 1.094.317.07.81.105.915.105.211.036.247.071.247.177s-.106.176-.352.176c-1.232 0-2.605-.07-2.746-.07-.07 0-1.478.07-2.146.07-.211 0-.387-.035-.387-.176 0-.106.105-.177.316-.177.106 0 .387-.035.563-.07.423-.106.493-.565.563-1.164.106-.847.106-2.575.106-4.375v-3.598h.035zM176.989 37.041c0-.74.07-.988.246-.988s.563.494.739.635c.211.247 3.555 3.634 6.898 7.09 1.865 1.835 4.258 4.305 4.892 4.869l-.246-9.983c-.036-1.306-.176-1.729-.81-1.905a6.828 6.828 0 00-.95-.106c-.246 0-.282-.106-.282-.176 0-.106.176-.142.423-.142 1.02 0 2.041.071 2.252.071.246 0 .985-.07 1.901-.07.246 0 .351.035.351.14 0 .106-.07.177-.211.177-.141.035-.352.035-.598.07-.563.106-.704.353-.704 1.8l-.035 12.029c0 1.2-.035 1.305-.211 1.305s-.423-.176-1.584-1.27c-.106-.035-3.414-3.351-5.49-5.397a730.306 730.306 0 01-5.49-5.715l.316 9.384c.036 1.658.176 2.293.775 2.434.387.106.774.106.985.106.211 0 .282.07.282.176 0 .106-.106.176-.388.176-1.302 0-2.146-.07-2.322-.07-.176 0-1.056.07-2.077.07-.211 0-.352-.035-.352-.176 0-.106.106-.176.352-.176.176 0 .423 0 .739-.106.528-.177.634-.812.634-2.575-.035-11.395 0-7.69-.035-11.677zM208.416 49.988c0 .952-.035.987-.281 1.128-1.302.67-3.238.918-4.399.918-1.549 0-4.575-.106-7.004-2.152-1.302-1.094-2.569-3.105-2.569-5.82 0-3.246 1.654-5.575 3.625-6.774 1.83-1.094 3.871-1.235 5.349-1.235 1.549 0 2.57.177 3.414.353.387.07 1.302.176 1.83.212.176 0 .176.105.176.176 0 .282-.176 1.023-.176 3.104 0 .353-.035.424-.176.424-.105 0-.14-.141-.176-.283 0-.211-.105-.952-.457-1.481-.563-.776-2.288-1.693-4.962-1.693-1.303 0-2.816.035-4.4 1.27-1.231.952-2.006 2.751-2.006 5.15 0 2.857 1.549 4.974 2.182 5.574 1.584 1.552 3.344 2.222 5.42 2.222.669 0 1.725-.106 2.288-.423a.803.803 0 00.422-.706v-3.457c0-1.587-.106-1.905-.95-2.01-.141-.036-.387-.036-.563-.036-.176 0-.282-.106-.282-.176 0-.106.106-.177.352-.177.95 0 2.358.036 2.428.036.106 0 1.514-.036 2.147-.036.247 0 .352.036.352.177 0 .07-.07.176-.281.176-.176 0-.212 0-.423.035-.563.07-.704.494-.774 1.2-.035.705-.035 1.305-.035 2.152v2.152h-.071z" fill="#1A262E"/>
    <path fill-rule="evenodd" clip-rule="evenodd" d="M31.886 27.516h-.282l-2.182-1.094-5.279 1.553-5.525-.389-2.006.847s-3.168-.776-6.476-2.68a22.24 22.24 0 00-1.443 2.398c-.493.952-.915 1.8-1.232 2.434.423.317.845.564 1.232.776 2.147.988 3.097 1.058 3.308 1.058h.035l-1.478 1.13s2.499 1.587 3.555 1.834c.492.105.915.14 1.196.14.352 0 .599-.035.599-.035l-.211.636 3.132 7.76-.352 5.998-.704 1.234.387 1.411s1.83 2.117 5.49 2.117c1.549 0 3.45-.388 5.666-1.482.423-1.693 1.373-8.078 1.373-8.078l4.434-6.35-1.443-3.986 5.21-2.152.738-.67-2.111-1.2 3.378-2.61s.246-8.36-12.071-11.994c-.704-.212-1.478-.389-2.253-.565.704.282 1.338.6 1.936.988 4.927 3.069 5.35 8.643 5.35 8.643s.422 2.328-1.971 2.328z" fill="#87764E"/>
    <path fill-rule="evenodd" clip-rule="evenodd" d="M28.33 62.828c-.14-.106-2.146-3.81-2.146-3.81s-.281-1.587-.457-3.422a10.29 10.29 0 01-2.042.212c-4.082 0-6.229-2.399-6.3-2.505l-.175-.211-.07-.247-.388-1.411-.14-.494.246-.459.563-.988.317-5.432-2.992-7.408c-.281-.036-.563-.07-.845-.142-1.16-.282-3.448-1.693-3.906-1.975l-1.443-.917.88-.67c-.352-.142-.74-.318-1.161-.494H8.2c-.387-.212-.81-.459-1.232-.741a.387.387 0 01-.07.141 19.008 19.008 0 00-.845 10.654l-1.231 1.975-.74 2.117 1.901 3.845 2.921 9.384s-1.232 1.41-1.408 2.116l-.387 2.858h10.84s-.352-2.858-.986-4.128c-.633-1.27-2.252-2.328-2.252-2.328l-2.64-6.456c.141.141.317.282.458.459 1.056 1.093 4.505 4.903 5.209 5.926.704 1.059 3.554 4.586 3.202 7.655 0 0-1.056 1.13-1.654 2.787-.352.988-.387 3.246-.387 3.246h14.887s-1.373-5.856-1.584-6.174c-.95-1.34-3.73-2.857-3.871-2.963zM49.764 53.726c.21-2.822 2.323-5.115 2.323-5.115s.492-4.515.492-5.22c0 0-3.237-2.893-4.012-3.599-.07-1.164-1.02-2.01-1.02-2.01-.036-.283.175-1.73-1.021-5.857-2.147-7.267-6.687-13.722-7.778-15.028-1.056-1.305-6.053-7.055-10.241-8.325-1.76.53-4.223 2.364-6.581 4.374-.915-1.799-1.795-3.386-3.59-3.563-3.027-.247-4.892 4.375-8.658 3.67-2.428-2.929 1.162-4.552 1.02-7.62C10.524.634 3.309-2.224 0 2.186c1.337.494 3.8-.459 4.822 1.094-1.127 2.68.668 4.021 1.724 5.432-.598 1.552-.352 4.198 0 5.82 3.238 3.987 8.447.177 11.403-1.445.739.458 1.09 1.34 1.372 2.293-.422.423-1.583 1.516-1.583 1.516a99.05 99.05 0 00-3.098 3.175s-1.9 2.082-3.87 4.763c2.463 1.375 4.856 2.116 5.7 2.363l1.655-.705.246-.106.246.035 5.35.388 5.103-1.482.422-.105.387.176 1.971.988c.211 0 .563-.035.704-.212.176-.212.176-.635.14-.776V25.294c0-.071-.457-5.222-5.173-7.938-.14-.176-5.701-3.246-5.701-3.246s2.78-.07 4.962.283c.915.14 1.549.317 1.584.317 5.56 1.482 9.502 4.022 11.825 7.585 1.936 3.033 1.865 5.68 1.865 5.785l-.035.565-.457.352-1.971 1.517.528.318 1.443.811-1.232 1.129-.74.67-.14.141-.176.07-4.188 1.73 1.056 2.892.211.6-.352.529-4.258 6.138c-.176 1.27-.986 6.35-1.373 7.902l-.105.53-.458.246c-.352.177-.704.353-1.056.494 1.408.459 2.006 1.517 2.006 1.517l8.904-6.173 4.012 1.058-.176 2.646s-2.78.776-3.66 4.056c-.88 3.281 3.414 6.915 3.414 6.915s2.534 2.187 4.575 1.305c3.942-1.729 3.484-6.209 3.484-6.209l.88-1.764c.035-.07-2.675-1.023-2.428-4.339z" fill="#87764E"/>
    <path fill-rule="evenodd" clip-rule="evenodd" d="M26.571 15.521c6.757 2.681 7.285 9.596 7.285 9.596s.458 2.575-2.252 2.399l-2.182-1.094-5.28 1.552-5.525-.388-2.006.847S4.4 25.47 2.71 16.72c-1.267 8.96 2.92 13.052 5.983 14.675 2.428 1.129 3.343 1.058 3.343 1.058l-1.478 1.094s2.499 1.587 3.555 1.834c1.02.247 1.794.106 1.794.106l-.21.635 3.131 7.761-.351 5.997-.704 1.235.387 1.41s3.765 4.305 11.121.6c.422-1.693 1.373-8.078 1.373-8.078l4.434-6.35-1.443-3.986 5.209-2.152.739-.67-2.112-1.2 3.379-2.61c.07 0 .352-9.348-14.289-12.558z" fill="#87764E"/>
  </g>
  <defs>
    <clipPath id="clip0">
      <path fill="white" d="M0 0h211.5v72H0z"/>
    </clipPath>
  </defs>
</svg>
