<svg width="125" height="24" viewBox="0 0 125 24" fill="none" xmlns="http://www.w3.org/2000/svg">
  <g opacity=".15" fill-rule="evenodd" clip-rule="evenodd" fill="#1C1C1C">
    <path d="M14.39 4.5L7.195 9l7.195 4.5L7.195 18 0 13.463l7.195-4.5L0 4.5 7.195 0l7.195 4.5zm0 0L21.547 0l7.195 4.5L21.547 9l7.195 4.5-7.195 4.5-7.157-4.537 7.195-4.5L14.39 4.5zM7.157 19.425l7.195-4.5 7.195 4.5-7.195 4.5-7.195-4.5zM88.1 19.426l.267-2.213c.65 1.575 1.99 2.513 4.057 2.55 3.138 0 5.205-2.287 5.205-6.3v-.375c0-4.012-2.181-6-5.129-6.037-1.951 0-3.33.862-4.018 2.437V3.301h-3.138v16.125h2.755zM40.184 4.5h-5.818v14.925H40.3c3.79 0 6.66-2.175 6.66-7.013v-1.012c0-4.8-3.062-6.9-6.775-6.9zM37.62 16.688V7.201h2.373c2.143 0 3.636 1.35 3.636 4.35v.787c0 3-1.416 4.35-3.521 4.35H37.62zm11.098-9.337h2.564l.421 2.812c.498-1.912 1.76-2.925 4.057-2.925h.804v3.225h-1.34c-2.64 0-3.291.9-3.291 3.45v5.55h-3.215V7.351zm8.497 5.962v.338c0 3.975 2.258 6.075 6.239 6.112 3.75 0 6.238-2.137 6.238-6.112v-.338c0-4.05-2.564-6.262-6.238-6.262-3.598 0-6.239 2.212-6.239 6.262zm9.185.3v-.3c0-2.25-1.148-3.6-2.985-3.6-1.798 0-2.985 1.238-2.985 3.6v.3c0 2.175 1.148 3.413 2.985 3.413 1.837-.038 2.985-1.238 2.985-3.413zm7.653-6.262h-2.679l-.038 16.275h3.138v-6.113c.65 1.388 1.99 2.25 3.942 2.25 2.909 0 5.205-2.1 5.205-6.075v-.337c0-4.088-2.066-6.3-5.205-6.3-2.028 0-3.406 1.05-4.057 2.587l-.306-2.287zm6.317 6.262v-.262c0-2.4-1.263-3.6-2.947-3.6-1.799 0-2.985 1.35-2.985 3.6v.225c0 2.137 1.148 3.487 2.947 3.487 1.837-.037 2.985-1.2 2.985-3.45zm13.969-.15v-.3c0-2.212-1.225-3.45-2.947-3.45-1.76 0-2.985 1.388-2.985 3.488v.262c0 2.25 1.186 3.563 2.947 3.563 1.875 0 2.985-1.163 2.985-3.563zm4.669-.15v.338c0 3.975 2.258 6.075 6.238 6.112 3.713 0 6.238-2.137 6.238-6.112v-.338c0-4.05-2.564-6.262-6.238-6.262-3.597 0-6.238 2.212-6.238 6.262zm9.223 0c0-2.25-1.148-3.6-2.985-3.6-1.799 0-2.985 1.238-2.985 3.6v.3c0 2.175 1.148 3.413 2.985 3.413 1.837-.038 2.985-1.238 2.985-3.413v-.3zm3.14-5.962l4.325 5.812-4.708 6.263h3.789l2.756-4.013 2.832 4.013h3.636l-4.631-6.3 4.401-5.775h-3.674l-2.526 3.637-2.488-3.637h-3.712z"/>
  </g>
</svg>
