<svg width="90" height="30" viewBox="0 0 90 30" fill="none" xmlns="http://www.w3.org/2000/svg">
  <g opacity=".15" fill="#1C1C1C">
    <path fill-rule="evenodd" clip-rule="evenodd" d="M31.16 22.857c4.067 0 7.382-3.122 7.382-7.36 0-4.266-3.315-7.358-7.382-7.358-4.068 0-7.383 3.092-7.383 7.359 0 4.237 3.315 7.359 7.383 7.359zm-.001-11.819c2.23 0 4.15 1.812 4.15 4.46 0 2.617-1.92 4.459-4.15 4.459-2.23 0-4.151-1.838-4.151-4.46 0-2.647 1.92-4.459 4.15-4.459zM47.086 22.857c4.067 0 7.382-3.122 7.382-7.36 0-4.266-3.315-7.358-7.383-7.358-4.067 0-7.382 3.095-7.382 7.359 0 4.237 3.315 7.359 7.383 7.359zm-.002-11.819c2.23 0 4.151 1.812 4.151 4.46 0 2.617-1.921 4.459-4.15 4.459-2.23 0-4.151-1.838-4.151-4.46 0-2.647 1.92-4.459 4.15-4.459zM69.733 21.795V8.587h-3.07v1.197h-.112c-.727-.866-2.12-1.645-3.875-1.645-3.68 0-7.051 3.231-7.051 7.385 0 4.125 3.371 7.33 7.05 7.33 1.76 0 3.153-.78 3.876-1.672h.113v1.058c0 2.817-1.503 4.313-3.929 4.313-1.977 0-3.205-1.413-3.706-2.611l-2.813 1.171c.81 1.951 2.956 4.337 6.523 4.337 3.789 0 6.994-2.22 6.994-7.655zm-6.769-10.757c2.2 0 3.929 1.895 3.929 4.486 0 2.565-1.729 4.433-3.929 4.433-2.23 0-4.097-1.868-4.097-4.433 0-2.59 1.868-4.485 4.097-4.485z"/>
    <path d="M74.793.84v21.566H71.64V.84h3.152z"/>
    <path fill-rule="evenodd" clip-rule="evenodd" d="M89.583 19.592l-2.509-1.673c-.836 1.228-1.977 2.038-3.623 2.038-1.642 0-2.813-.754-3.567-2.23l9.838-4.075-.335-.836c-.61-1.642-2.478-4.681-6.297-4.681-3.793 0-6.942 2.983-6.942 7.359 0 4.128 3.123 7.36 7.303 7.36 3.371 0 5.322-2.065 6.132-3.262zM85.93 12.54l-6.576 2.73c-.083-2.84 2.203-4.29 3.845-4.29 1.28 0 2.37.64 2.73 1.56z"/>
    <path d="M11.847 13.584V10.46H22.37c.102.545.155 1.188.155 1.885 0 2.342-.64 5.24-2.704 7.303-2.007 2.09-4.572 3.205-7.97 3.205-6.297 0-11.592-5.13-11.592-11.427S5.553 0 11.85 0c3.483 0 5.965 1.367 7.83 3.149l-2.203 2.203c-1.337-1.254-3.149-2.23-5.63-2.23-4.6 0-8.196 3.706-8.196 8.305s3.597 8.305 8.195 8.305c2.983 0 4.682-1.198 5.77-2.286.883-.883 1.463-2.144 1.692-3.866l-7.462.004z"/>
  </g>
</svg>
