<svg width="24" height="24" viewBox="0 0 24 24" fill="none" xmlns="http://www.w3.org/2000/svg">
<path fill-rule="evenodd" clip-rule="evenodd" d="M21.4746 5.27755C20.7227 5.70986 19.8874 6.02645 18.9988 6.19682C18.2893 5.4607 17.2758 5 16.1541 5C14.0013 5 12.257 6.69585 12.257 8.78638C12.257 9.0831 12.2914 9.37201 12.3564 9.64886C9.11703 9.49198 6.24522 7.98424 4.32337 5.69353C3.98723 6.25219 3.79505 6.90242 3.79505 7.59737C3.79505 8.9099 4.4834 10.0705 5.5291 10.7484C4.89043 10.7278 4.28903 10.5582 3.76436 10.2742V10.3225C3.76436 12.1568 5.10746 13.6879 6.89047 14.0358C6.56382 14.1217 6.21891 14.1671 5.86304 14.1671C5.61167 14.1671 5.36833 14.1437 5.12938 14.1011C5.62701 15.6039 7.06584 16.6992 8.77139 16.7297C7.43706 17.7441 5.75636 18.3503 3.93023 18.3503C3.61601 18.3503 3.30545 18.3325 3 18.2978C4.72528 19.3718 6.77428 20 8.976 20C16.1453 20 20.065 14.2296 20.065 9.22578C20.065 9.0611 20.0628 8.89925 20.0555 8.73669C20.8155 8.20288 21.4775 7.53632 22 6.77464C21.3007 7.07704 20.5495 7.27935 19.7603 7.37092C20.5663 6.90384 21.1838 6.16062 21.4746 5.27755Z" fill="#87764E"/>
</svg>
