<svg width="21" height="20" viewBox="0 0 21 20" fill="none" xmlns="http://www.w3.org/2000/svg">
<path fill-rule="evenodd" clip-rule="evenodd" d="M19.397 0H1.60394C0.994519 0 0.500488 0.494031 0.500488 1.10345V18.8966C0.500488 19.506 0.994519 20 1.60394 20H11.1901V12.2655H8.58669V9.23793H11.1901V7.01034C11.1901 4.42759 12.7695 3.02069 15.0729 3.02069C15.8491 3.019 16.6249 3.05813 17.397 3.13793V5.83793H15.8108C14.5557 5.83793 14.3108 6.43103 14.3108 7.3069V9.23448H17.3108L16.9212 12.2621H14.2936V20H19.397C20.0065 20 20.5005 19.506 20.5005 18.8966V1.10345C20.5005 0.494031 20.0065 0 19.397 0Z" fill="#16181E"/>
</svg>
