<svg width="20" height="20" viewBox="0 0 20 20" fill="none" xmlns="http://www.w3.org/2000/svg">
<path fill-rule="evenodd" clip-rule="evenodd" d="M5.87701 0.0601777C6.94362 0.0115116 7.28416 0 10 0C12.7158 0 13.0564 0.0115116 14.123 0.0601777C15.1874 0.108725 15.9143 0.277786 16.5504 0.525007C17.208 0.780524 17.7656 1.12246 18.3216 1.67839C18.8775 2.23436 19.2195 2.79203 19.475 3.44962C19.7222 4.08569 19.8913 4.81263 19.9398 5.87701C19.9885 6.94362 20 7.28416 20 10C20 12.7158 19.9885 13.0564 19.9398 14.123C19.8913 15.1874 19.7222 15.9143 19.475 16.5504C19.2195 17.208 18.8775 17.7656 18.3216 18.3216C17.7656 18.8775 17.208 19.2195 16.5504 19.475C15.9143 19.7222 15.1874 19.8913 14.123 19.9398C13.0564 19.9885 12.7158 20 10 20C7.28416 20 6.94362 19.9885 5.87701 19.9398C4.81263 19.8913 4.08569 19.7222 3.44962 19.475C2.79203 19.2195 2.23436 18.8775 1.67839 18.3216C1.12246 17.7656 0.780524 17.208 0.525007 16.5504C0.277786 15.9143 0.108725 15.1874 0.0601777 14.123C0.0115116 13.0564 0 12.7158 0 10C0 7.28416 0.0115116 6.94362 0.0601777 5.87701C0.108725 4.81263 0.277786 4.08569 0.525007 3.44962C0.780524 2.79203 1.12246 2.23436 1.67839 1.67839C2.23436 1.12246 2.79203 0.780524 3.44962 0.525007C4.08569 0.277786 4.81263 0.108725 5.87701 0.0601777ZM15.8977 2.20415C15.5453 2.0672 15.0159 1.9043 14.0409 1.85984C12.9864 1.81173 12.6701 1.80153 10 1.80153C7.32989 1.80153 7.0136 1.81173 5.95914 1.85984C4.98415 1.9043 4.45466 2.0672 4.10229 2.20415C3.63551 2.38556 3.30239 2.60225 2.95248 2.95221C2.60253 3.30212 2.38583 3.63524 2.20443 4.10201C2.06748 4.45439 1.90457 4.98388 1.86011 5.95887C1.812 7.01333 1.8018 7.32962 1.8018 9.99975C1.8018 12.6698 1.812 12.9861 1.86011 14.0406C1.90457 15.0156 2.06748 15.5451 2.20443 15.8974C2.38583 16.3642 2.60257 16.6973 2.95248 17.0472C3.30239 17.3972 3.63551 17.6139 4.10229 17.7953C4.45466 17.9322 4.98415 18.0952 5.95914 18.1396C7.01349 18.1877 7.3297 18.1979 10 18.1979C12.6703 18.1979 12.9866 18.1877 14.0409 18.1396C15.0159 18.0952 15.5453 17.9322 15.8977 17.7953C16.3645 17.6139 16.6976 17.3972 17.0475 17.0472C17.3975 16.6973 17.6142 16.3642 17.7956 15.8974C17.9325 15.5451 18.0954 15.0156 18.1399 14.0406C18.188 12.9861 18.1982 12.6698 18.1982 9.99975C18.1982 7.32962 18.188 7.01333 18.1399 5.95887C18.0954 4.98388 17.9325 4.45439 17.7956 4.10201C17.6142 3.63524 17.3975 3.30212 17.0475 2.95221C16.6976 2.60225 16.3645 2.38556 15.8977 2.20415ZM10 4.86514C7.16394 4.86514 4.86488 7.1642 4.86488 10.0003C4.86488 12.8363 7.16394 15.1354 10 15.1354C12.8361 15.1354 15.1351 12.8363 15.1351 10.0003C15.1351 7.1642 12.8361 4.86514 10 4.86514ZM6.66667 9.99955C6.66667 11.8405 8.15904 13.3329 10 13.3329C11.841 13.3329 13.3333 11.8405 13.3333 9.99955C13.3333 8.15858 11.841 6.6662 10 6.6662C8.15904 6.6662 6.66667 8.15858 6.66667 9.99955ZM15.338 5.86169C16.0008 5.86169 16.538 5.32445 16.538 4.6617C16.538 3.99895 16.0008 3.46168 15.338 3.46168C14.6753 3.46168 14.138 3.99895 14.138 4.6617C14.138 5.32445 14.6753 5.86169 15.338 5.86169Z" fill="black"/>
</svg>
