<svg width="21" height="20" viewBox="0 0 21 20" fill="none" xmlns="http://www.w3.org/2000/svg">
<path fill-rule="evenodd" clip-rule="evenodd" d="M3.00049 20H18.0005C19.3805 20 20.5005 18.88 20.5005 17.5V2.5C20.5005 1.12 19.3805 0 18.0005 0H3.00049C1.62049 0 0.500488 1.12 0.500488 2.5V17.5C0.500488 18.88 1.62049 20 3.00049 20ZM15.4755 7.78501C15.4755 11.17 12.8955 15.08 8.1805 15.08C6.7355 15.08 5.3855 14.655 4.2555 13.935C4.4555 13.96 4.6605 13.97 4.8655 13.97C6.0655 13.97 7.1705 13.56 8.0505 12.87C6.9305 12.85 5.9805 12.11 5.6555 11.09C5.8105 11.12 5.9705 11.135 6.1355 11.135C6.3705 11.135 6.5955 11.105 6.8105 11.045C5.6405 10.81 4.7555 9.77001 4.7555 8.53001V8.49501C5.1005 8.68501 5.4955 8.80001 5.9155 8.81501C5.2305 8.35501 4.7755 7.57001 4.7755 6.68001C4.7755 6.21001 4.9005 5.77001 5.1205 5.39001C6.3855 6.94001 8.2755 7.96501 10.4055 8.07001C10.3655 7.88001 10.3405 7.68501 10.3405 7.48501C10.3405 6.07001 11.4905 4.92001 12.9055 4.92001C13.6405 4.92001 14.3055 5.23001 14.7755 5.73001C15.3605 5.61501 15.9105 5.40501 16.4055 5.11001C16.2105 5.71001 15.8055 6.21501 15.2755 6.53001C15.7955 6.46501 16.2905 6.33001 16.7505 6.12501C16.4055 6.64001 15.9705 7.09501 15.4705 7.45501C15.4755 7.56501 15.4755 7.67501 15.4755 7.78501Z" fill="black"/>
</svg>
