<svg width="142" height="72" viewBox="0 0 142 72" fill="none" xmlns="http://www.w3.org/2000/svg">
<g clip-path="url(#clip0)">
<path d="M67.5551 67.0965C67.9784 66.1793 68.8956 63.8863 69.0367 63.3924C69.072 63.2866 69.1072 63.1808 69.1072 63.1455C69.1072 63.1102 69.072 63.0397 69.0014 63.0044C68.9309 62.9691 68.825 62.9691 68.7545 62.9691C68.7192 62.9691 68.6839 62.9338 68.6839 62.8986C68.6839 62.8633 68.7192 62.828 68.8603 62.828C69.1425 62.828 69.46 62.828 69.5306 62.828C69.5658 62.828 69.8833 62.828 70.095 62.828C70.1655 62.828 70.2008 62.828 70.2008 62.8633C70.2008 62.8986 70.1655 62.9338 70.1303 62.9338C70.095 62.9338 69.9186 62.9338 69.8128 63.0044C69.7069 63.0749 69.6011 63.1808 69.4247 63.6394C69.3542 63.8158 69.0014 64.6271 68.6486 65.4738C68.2253 66.4615 67.9078 67.2023 67.7314 67.5198C67.5551 67.9431 67.4845 68.0137 67.4139 68.0137C67.3434 68.0137 67.2728 67.9431 67.167 67.5904L65.4384 63.4277C65.2621 63.0397 65.1915 62.9691 64.9446 62.9338C64.8387 62.8986 64.6976 62.8986 64.6623 62.8986C64.6271 62.8986 64.5918 62.8633 64.5918 62.828C64.5918 62.7927 64.6624 62.7927 64.7682 62.7927C65.0857 62.7927 65.509 62.7927 65.5795 62.7927C65.6501 62.7927 65.9676 62.7927 66.2498 62.7927C66.3909 62.7927 66.4262 62.7927 66.4262 62.828C66.4262 62.8633 66.3909 62.8986 66.3556 62.8986C66.2851 62.8986 66.1793 62.8986 66.1087 62.9338C66.0381 62.9691 66.0381 63.0044 66.0381 63.0397C66.0381 63.1102 66.1087 63.3219 66.2145 63.6041L67.5551 67.0965Z" fill="#87764E"/>
<path d="M71.4002 64.8034C71.4002 63.7451 71.4002 63.5687 71.4002 63.357C71.4002 63.1101 71.3297 63.0043 71.118 62.969C71.0475 62.969 70.9416 62.969 70.8711 62.969C70.8358 62.969 70.8005 62.9337 70.8005 62.8984C70.8005 62.8632 70.8358 62.8279 70.9064 62.8279C71.2239 62.8279 71.6825 62.8279 71.7177 62.8279C71.753 62.8279 73.2346 62.8279 73.3757 62.8279C73.5169 62.8279 73.6227 62.7926 73.6932 62.7926C73.7285 62.7926 73.7638 62.7573 73.7991 62.7573C73.8343 62.7573 73.8343 62.7926 73.8343 62.8279C73.8343 62.8632 73.7991 62.969 73.7638 63.1454C73.7638 63.2159 73.7285 63.4981 73.7285 63.604C73.7285 63.6392 73.6932 63.6745 73.658 63.6745C73.6227 63.6745 73.5874 63.6392 73.5874 63.604C73.5874 63.5687 73.5874 63.4276 73.5521 63.357C73.5169 63.2512 73.4463 63.1806 73.0583 63.1454C72.9524 63.1454 72.1411 63.1101 72.0352 63.1101C71.9999 63.1101 72 63.1454 72 63.1807V65.015C72 65.0503 71.9999 65.0856 72.0352 65.0856C72.1058 65.0856 73.0583 65.0856 73.1994 65.0856C73.3757 65.0856 73.4816 65.0503 73.5521 64.9798C73.5874 64.9445 73.6227 64.9092 73.658 64.9092C73.6932 64.9092 73.6932 64.9092 73.6932 64.9798C73.6932 65.015 73.658 65.1209 73.6227 65.3678C73.6227 65.5089 73.5874 65.7559 73.5874 65.7911C73.5874 65.8617 73.5874 65.9322 73.5168 65.9322C73.4816 65.9322 73.4816 65.897 73.4816 65.8617C73.4816 65.7911 73.4816 65.7206 73.4463 65.65C73.411 65.5442 73.3757 65.4736 73.0935 65.4384C72.9171 65.4031 72.1411 65.4031 72.0352 65.4031C71.9999 65.4031 72 65.4384 72 65.4384V66.0028C72 66.2497 72 67.0258 72 67.1669C72 67.6255 72.1411 67.6961 72.8466 67.6961C73.023 67.6961 73.3757 67.6961 73.5521 67.6255C73.7285 67.555 73.8343 67.4139 73.8696 67.1669C73.8696 67.0964 73.9049 67.0611 73.9402 67.0611C73.9755 67.0611 73.9754 67.1316 73.9754 67.1669C73.9754 67.2022 73.9049 67.6608 73.8696 67.8372C73.8343 68.0136 73.7638 68.0136 73.4816 68.0136C72.9524 68.0136 72.5644 68.0136 72.2469 67.9783C71.9647 67.9783 71.753 67.9783 71.6825 67.9783C71.6825 67.9783 71.5414 67.9783 71.365 67.9783C71.2239 67.9783 71.0828 67.9783 70.9416 67.9783C70.8711 67.9783 70.8358 67.9783 70.8358 67.9077C70.8358 67.8725 70.8358 67.8372 70.9064 67.8372C70.9769 67.8372 71.0475 67.8019 71.118 67.8019C71.2591 67.7666 71.2591 67.6255 71.2944 67.4491C71.3297 67.1669 71.3297 66.6378 71.3297 65.9675V64.8034H71.4002Z" fill="#87764E"/>
<path d="M76.0216 64.8034C76.0216 63.745 76.0216 63.5687 76.0216 63.357C76.0216 63.1101 75.951 63.0042 75.7394 62.969C75.6688 62.969 75.563 62.969 75.4924 62.969C75.4572 62.969 75.4219 62.9337 75.4219 62.8984C75.4219 62.8631 75.4572 62.8279 75.5277 62.8279C75.8452 62.8279 76.3038 62.8279 76.3391 62.8279C76.4096 62.8279 76.8682 62.8279 77.2915 62.8279C77.9971 62.8279 79.267 62.7573 80.1137 63.6039C80.4664 63.9567 80.7839 64.5211 80.7839 65.3325C80.7839 66.1791 80.4312 66.8494 80.0431 67.2375C79.7256 67.5549 79.1259 68.0135 77.9265 68.0135C77.609 68.0135 77.2563 67.9783 76.9388 67.9783C76.6213 67.943 76.4096 67.943 76.3743 67.943C76.3743 67.943 76.2332 67.943 76.0921 67.943C75.951 67.943 75.7746 67.943 75.6688 67.943C75.5983 67.943 75.563 67.943 75.563 67.8724C75.563 67.8372 75.563 67.8019 75.6335 67.8019C75.7041 67.8019 75.7746 67.8019 75.8452 67.7666C75.9863 67.7313 75.9863 67.5902 76.0216 67.4138C76.0569 67.1316 76.0569 66.6025 76.0569 65.9322V64.8034H76.0216ZM76.6566 65.5442C76.6566 66.2497 76.6566 66.8847 76.6566 67.0258C76.6566 67.2022 76.6918 67.4491 76.7271 67.5197C76.7977 67.6608 77.0446 67.8019 77.8912 67.8019C78.5262 67.8019 79.1259 67.5902 79.5493 67.2022C79.902 66.8494 80.1137 66.2144 80.1137 65.5794C80.1137 64.7328 79.7256 64.1684 79.4434 63.8862C78.7732 63.2159 77.9971 63.1453 77.1857 63.1453C77.0446 63.1453 76.8329 63.1806 76.7624 63.1806C76.6918 63.2159 76.6918 63.2512 76.6918 63.3217V65.5442H76.6566Z" fill="#87764E"/>
<path d="M82.8651 67.0611C82.8651 67.6255 82.9356 67.8019 83.1473 67.8372C83.2884 67.8725 83.4295 67.8725 83.5001 67.8725C83.5353 67.8725 83.5706 67.9077 83.5706 67.943C83.5706 67.9783 83.5353 68.0136 83.4295 68.0136C83.0415 68.0136 82.7592 67.9783 82.6887 67.9783C82.6181 67.9783 82.3359 68.0136 82.0184 68.0136C81.9479 68.0136 81.9126 68.0136 81.9126 67.943C81.9126 67.9077 81.9479 67.8725 81.9832 67.8725C82.0537 67.8725 82.1595 67.8725 82.2654 67.8372C82.4418 67.8019 82.477 67.5902 82.477 66.9905V63.1101C82.477 62.8279 82.5123 62.7573 82.5829 62.7573C82.6534 62.7573 82.7945 62.8984 82.8651 62.969C82.9709 63.0748 83.9939 64.1684 85.0875 65.2973C85.7931 66.0028 86.5339 66.8142 86.7455 67.0258L86.675 63.6392C86.675 63.2159 86.6397 63.0395 86.428 63.0043C86.2869 62.969 86.1458 62.969 86.0753 62.969C86.04 62.969 86.0047 62.9337 86.0047 62.8984C86.0047 62.8632 86.0753 62.8632 86.1458 62.8632C86.4633 62.8632 86.8161 62.8632 86.8866 62.8632C86.9572 62.8632 87.2041 62.8632 87.4863 62.8632C87.5569 62.8632 87.6274 62.8632 87.6274 62.8984C87.6274 62.9337 87.5922 62.969 87.5569 62.969C87.5216 62.969 87.4863 62.969 87.3805 62.969C87.1336 63.0043 87.1336 63.1454 87.1336 63.5687V67.555C87.1336 68.0136 87.1336 68.0488 87.063 68.0488C86.9925 68.0488 86.9219 67.9783 86.5339 67.6255C86.4633 67.555 85.4403 66.5672 84.6995 65.7911C83.8881 64.9445 83.112 64.0978 82.8651 63.8862V67.0611Z" fill="#87764E"/>
<path d="M91.2961 62.7573C92.8836 62.7573 94.083 63.7098 94.083 65.2973C94.083 66.8142 92.9542 68.0488 91.2609 68.0488C89.3559 68.0488 88.5093 66.6025 88.5093 65.4031C88.5093 64.3095 89.3559 62.7573 91.2961 62.7573ZM91.4725 67.8019C92.1075 67.8019 93.3775 67.4844 93.3775 65.5089C93.3775 63.8862 92.3897 63.0395 91.2961 63.0395C90.132 63.0395 89.2854 63.7804 89.2854 65.262C89.2501 66.8142 90.2026 67.8019 91.4725 67.8019Z" fill="#87764E"/>
<path d="M100.292 67.0965C100.715 66.1793 101.632 63.8863 101.773 63.3924C101.809 63.2866 101.844 63.1808 101.844 63.1455C101.844 63.1102 101.809 63.0397 101.738 63.0044C101.668 62.9691 101.562 62.9691 101.491 62.9691C101.456 62.9691 101.421 62.9338 101.421 62.8986C101.421 62.8633 101.456 62.828 101.597 62.828C101.879 62.828 102.197 62.828 102.267 62.828C102.303 62.828 102.62 62.828 102.832 62.828C102.902 62.828 102.938 62.828 102.938 62.8633C102.938 62.8986 102.902 62.9338 102.867 62.9338C102.832 62.9338 102.655 62.9338 102.55 63.0044C102.444 63.0749 102.338 63.1808 102.162 63.6394C102.091 63.8158 101.738 64.6271 101.385 65.4738C100.962 66.4615 100.645 67.2023 100.468 67.5198C100.292 67.9431 100.221 68.0137 100.151 68.0137C100.08 68.0137 100.01 67.9431 99.9038 67.5904L98.1753 63.4277C97.9989 63.0397 97.9283 62.9691 97.6814 62.9338C97.5756 62.8986 97.4344 62.8986 97.3992 62.8986C97.3639 62.8986 97.3286 62.8633 97.3286 62.828C97.3286 62.7927 97.3992 62.7927 97.505 62.7927C97.8225 62.7927 98.2458 62.7927 98.3164 62.7927C98.3869 62.7927 98.7044 62.7927 98.9866 62.7927C99.1277 62.7927 99.163 62.7927 99.163 62.828C99.163 62.8633 99.1277 62.8986 99.0925 62.8986C99.0219 62.8986 98.9161 62.8986 98.8455 62.9338C98.775 62.9691 98.775 63.0044 98.775 63.0397C98.775 63.1102 98.8455 63.3219 98.9514 63.6041L100.292 67.0965Z" fill="#87764E"/>
<path d="M104.137 64.8034C104.137 63.7451 104.137 63.5687 104.137 63.357C104.137 63.1101 104.067 63.0043 103.855 62.969C103.785 62.969 103.679 62.969 103.608 62.969C103.573 62.969 103.538 62.9337 103.538 62.8984C103.538 62.8632 103.573 62.8279 103.643 62.8279C103.961 62.8279 104.42 62.8279 104.455 62.8279C104.49 62.8279 105.972 62.8279 106.113 62.8279C106.254 62.8279 106.36 62.7926 106.43 62.7926C106.466 62.7926 106.501 62.7573 106.536 62.7573C106.571 62.7573 106.571 62.7926 106.571 62.8279C106.571 62.8632 106.536 62.969 106.501 63.1454C106.501 63.2159 106.466 63.4981 106.466 63.604C106.466 63.6392 106.43 63.6745 106.395 63.6745C106.36 63.6745 106.324 63.6392 106.324 63.604C106.324 63.5687 106.324 63.4276 106.289 63.357C106.254 63.2512 106.183 63.1806 105.795 63.1454C105.689 63.1454 104.878 63.1101 104.772 63.1101C104.737 63.1101 104.737 63.1454 104.737 63.1807V65.015C104.737 65.0503 104.737 65.0856 104.772 65.0856C104.843 65.0856 105.795 65.0856 105.936 65.0856C106.113 65.0856 106.219 65.0503 106.289 64.9798C106.324 64.9445 106.36 64.9092 106.395 64.9092C106.43 64.9092 106.43 64.9092 106.43 64.9798C106.43 65.015 106.395 65.1209 106.36 65.3678C106.36 65.5089 106.324 65.7559 106.324 65.7911C106.324 65.8617 106.324 65.9322 106.254 65.9322C106.219 65.9322 106.219 65.897 106.219 65.8617C106.219 65.7911 106.219 65.7206 106.183 65.65C106.148 65.5442 106.113 65.4736 105.831 65.4384C105.654 65.4031 104.878 65.4031 104.772 65.4031C104.737 65.4031 104.737 65.4384 104.737 65.4384V66.0028C104.737 66.2497 104.737 67.0258 104.737 67.1669C104.737 67.6255 104.878 67.6961 105.584 67.6961C105.76 67.6961 106.113 67.6961 106.289 67.6255C106.466 67.555 106.571 67.4139 106.607 67.1669C106.607 67.0964 106.642 67.0611 106.677 67.0611C106.713 67.0611 106.713 67.1316 106.713 67.1669C106.713 67.2022 106.642 67.6608 106.607 67.8372C106.571 68.0136 106.501 68.0136 106.219 68.0136C105.689 68.0136 105.301 68.0136 104.984 67.9783C104.702 67.9783 104.49 67.9783 104.42 67.9783C104.42 67.9783 104.278 67.9783 104.102 67.9783C103.961 67.9783 103.82 67.9783 103.679 67.9783C103.608 67.9783 103.573 67.9783 103.573 67.9077C103.573 67.8725 103.573 67.8372 103.643 67.8372C103.714 67.8372 103.785 67.8019 103.855 67.8019C103.996 67.7666 103.996 67.6255 104.031 67.4491C104.067 67.1669 104.067 66.6378 104.067 65.9675V64.8034H104.137Z" fill="#87764E"/>
<path d="M108.794 67.3434C108.123 66.7437 107.947 65.9676 107.947 65.3326C107.947 64.874 108.123 64.0979 108.723 63.4982C109.146 63.0749 109.781 62.7574 110.875 62.7574C111.157 62.7574 111.545 62.7927 111.898 62.8279C112.145 62.8632 112.392 62.9338 112.604 62.9338C112.674 62.9338 112.674 62.969 112.674 63.0043C112.674 63.0749 112.674 63.1454 112.639 63.3924C112.639 63.604 112.639 63.9921 112.639 64.0979C112.639 64.2037 112.604 64.239 112.568 64.239C112.533 64.239 112.498 64.2037 112.498 64.0979C112.498 63.851 112.392 63.5688 112.216 63.4276C111.969 63.216 111.475 63.0396 110.84 63.0396C109.923 63.0396 109.499 63.2865 109.252 63.4982C108.723 63.9921 108.617 64.5918 108.617 65.262C108.617 66.5673 109.64 67.7314 111.157 67.7314C111.686 67.7314 112.039 67.6961 112.321 67.4139C112.462 67.2728 112.568 66.9906 112.604 66.8495C112.604 66.7789 112.639 66.7437 112.674 66.7437C112.709 66.7437 112.745 66.7789 112.745 66.8495C112.745 66.8848 112.639 67.4845 112.568 67.7314C112.533 67.8725 112.498 67.8725 112.392 67.9431C112.11 68.0489 111.581 68.0842 111.122 68.0842C110.064 68.0489 109.358 67.802 108.794 67.3434ZM109.958 61.3463C109.993 61.311 109.993 61.311 110.028 61.311C110.064 61.311 110.064 61.311 110.099 61.3463C110.275 61.5227 110.663 61.8402 110.769 61.9107C110.804 61.9107 110.84 61.946 110.84 61.946C110.875 61.946 110.91 61.946 110.981 61.9107C111.157 61.8049 111.475 61.558 111.651 61.4169C111.722 61.3463 111.757 61.3463 111.792 61.3463C111.827 61.3463 111.863 61.3816 111.863 61.4169C111.863 61.4521 111.827 61.4874 111.827 61.4874C111.757 61.558 111.016 62.2282 110.946 62.2988C110.875 62.3693 110.84 62.3693 110.804 62.3693C110.769 62.3693 110.734 62.3341 110.699 62.2988C110.628 62.2635 109.993 61.7696 109.887 61.6991C109.817 61.6638 109.781 61.6285 109.781 61.6285C109.781 61.5932 109.817 61.5932 109.817 61.558L109.958 61.3463Z" fill="#87764E"/>
<path d="M113.909 67.5198C113.909 67.3434 114.05 67.0964 114.332 67.0964C114.579 67.0964 114.755 67.2728 114.755 67.5198C114.755 67.7667 114.579 67.9784 114.297 67.9784C114.05 67.9431 113.909 67.7314 113.909 67.5198Z" fill="#87764E"/>
<path d="M65.7913 23.8471C65.5444 23.318 65.4738 23.1769 65.0505 23.1063C64.8741 23.071 64.7683 23.071 64.6977 23.071C64.5919 23.071 64.5566 23.0358 64.5566 23.0005C64.5566 22.9299 64.6272 22.9299 64.733 22.9299C65.2622 22.9299 65.9324 22.9652 66.0383 22.9652C66.1441 22.9652 66.6732 22.9299 67.0966 22.9299C67.2377 22.9299 67.2729 22.9652 67.2729 23.0005C67.2729 23.071 67.2377 23.1063 67.0966 23.1063C66.9202 23.1063 66.8496 23.1416 66.7438 23.1769C66.638 23.2474 66.638 23.318 66.638 23.3885C66.638 23.4591 66.7085 23.6707 66.8143 23.953L68.8251 29.0328C69.3896 27.7629 70.7301 24.4116 70.9417 23.7413C71.0123 23.6002 71.0476 23.4591 71.0476 23.3533C71.0476 23.2827 71.0476 23.2121 70.9417 23.1769C70.8359 23.1416 70.6948 23.1416 70.589 23.1416C70.5184 23.1416 70.4479 23.1063 70.4479 23.071C70.4479 23.0005 70.4831 22.9652 70.6242 22.9652C71.0476 22.9652 71.5767 23.0005 71.7178 23.0005C71.7531 23.0005 72.2117 22.9652 72.4939 22.9652C72.5997 22.9652 72.6703 23.0005 72.6703 23.0358C72.6703 23.1063 72.635 23.1416 72.5292 23.1416C72.3881 23.1416 72.247 23.1416 72.0353 23.2474C71.8942 23.3533 71.7884 23.4944 71.5062 24.1293C71.4356 24.2705 70.8712 25.5757 70.342 26.7751C69.7423 28.1862 69.2484 29.2798 69.0721 29.6678C68.7546 30.3028 68.7193 30.4792 68.6135 30.4792C68.4724 30.4792 68.4018 30.3381 68.2254 29.8442L65.7913 23.8471Z" fill="#1A262E"/>
<path d="M76.4801 29.8442C77.5031 29.8442 77.9264 29.7384 78.1028 29.3856C78.2086 29.1739 78.2439 29.0328 78.2792 28.8564C78.3144 28.7506 78.3144 28.6801 78.385 28.6801C78.4556 28.6801 78.4556 28.7506 78.4556 28.8564C78.4556 29.1739 78.3144 29.8089 78.2439 30.0558C78.1733 30.3028 78.1381 30.3381 77.8911 30.3381C76.1978 30.3381 74.5751 30.3028 72.776 30.3028C72.6349 30.3028 72.5996 30.3028 72.5996 30.2322C72.5996 30.1617 72.6349 30.1264 72.7407 29.95C74.2576 27.7276 75.704 25.611 77.115 23.3885H74.9984C74.3634 23.3885 73.8343 23.3885 73.4815 23.5296C73.1288 23.6707 73.0229 24.1293 72.9877 24.3763C72.9524 24.5174 72.9171 24.5527 72.8818 24.5527C72.8465 24.5527 72.8113 24.4821 72.8113 24.4116C72.8113 24.2704 72.9524 23.3533 73.0229 23.071C73.0582 22.9299 73.0582 22.8594 73.1288 22.8594C73.2346 22.8594 73.3051 22.9299 73.5874 22.9299C74.6809 22.9652 75.1748 22.9652 75.3159 22.9652H78.1381C78.2792 22.9652 78.385 22.9652 78.385 23.0358C78.385 23.071 78.3497 23.1416 78.3144 23.2121C76.7975 25.5051 75.4218 27.6217 73.9048 29.8442H76.4801Z" fill="#1A262E"/>
<path d="M81.1721 27.4805C81.1016 27.4805 81.0663 27.5158 81.0663 27.5863L80.5724 29.0327C80.4666 29.3502 80.3608 29.6677 80.3608 29.8441C80.3608 30.0557 80.5019 30.1263 80.7488 30.1263C80.7841 30.1263 80.7841 30.1263 80.8194 30.1263C80.9252 30.1263 80.9605 30.1616 80.9605 30.1968C80.9605 30.2674 80.8546 30.2674 80.7841 30.2674C80.5371 30.2674 80.008 30.2321 79.8669 30.2321C79.7611 30.2321 79.2319 30.2674 78.7733 30.2674C78.6322 30.2674 78.5969 30.2321 78.5969 30.1968C78.5969 30.1616 78.6322 30.1263 78.738 30.1263C78.8086 30.1263 78.9144 30.1263 78.985 30.1263C79.4788 30.091 79.6905 29.703 79.8669 29.2091L82.1599 23.1415C82.301 22.824 82.3363 22.7534 82.4068 22.7534C82.4774 22.7534 82.5127 22.7887 82.6538 23.1062C82.8301 23.4942 84.3823 27.4805 84.982 28.9269C85.3701 29.8441 85.6876 29.9852 85.8639 30.0557C86.0051 30.1263 86.1814 30.1263 86.252 30.1263C86.3225 30.1263 86.3931 30.1616 86.3931 30.1968C86.3931 30.2321 86.3578 30.2674 86.2167 30.2674C86.1109 30.2674 85.229 30.2674 84.4529 30.2321C84.2412 30.2321 84.1707 30.1968 84.1707 30.1616C84.1707 30.1263 84.2059 30.091 84.2412 30.091C84.2765 30.0557 84.347 30.0204 84.2765 29.8441L83.3593 27.5511C83.324 27.5158 83.324 27.4805 83.2535 27.4805H81.1721ZM83.1124 27.0925C83.1476 27.0925 83.1476 27.0572 83.1476 27.0219L82.2304 24.482C82.1599 24.3056 82.1599 24.3056 82.0893 24.482L81.2427 27.0219C81.2074 27.0572 81.2427 27.0925 81.278 27.0925H83.1124Z" fill="#1A262E"/>
<path d="M88.1215 27.9392C88.1215 29.5972 88.1215 30.2322 87.804 30.973C87.5923 31.4669 87.1337 31.9255 86.2518 32.5252C86.1107 32.5958 85.9696 32.7369 85.8638 32.7722C85.8638 32.7722 85.8285 32.7722 85.7932 32.7722C85.7579 32.7722 85.7227 32.7722 85.7227 32.7016C85.7227 32.6311 85.7932 32.5958 85.8638 32.5605C85.9696 32.4899 86.1107 32.3841 86.1813 32.3136C86.8868 31.6433 87.2043 31.1494 87.2043 28.5389V25.7168C87.2043 24.1999 87.2043 23.9177 87.169 23.6355C87.1337 23.318 87.0279 23.1769 86.7104 23.071C86.6399 23.071 86.4635 23.0358 86.3576 23.0358C86.3224 23.0358 86.2871 23.0005 86.2871 22.9652C86.2871 22.8947 86.3576 22.8594 86.4635 22.8594C86.9573 22.8594 87.6276 22.8947 87.6629 22.8947C87.6982 22.8947 88.4037 22.8594 88.7212 22.8594C88.827 22.8594 88.8976 22.8947 88.8976 22.9652C88.8976 23.0005 88.8623 23.0358 88.827 23.0358C88.7565 23.0358 88.6859 23.0358 88.5801 23.071C88.3331 23.1416 88.2273 23.318 88.192 23.6355C88.1568 23.953 88.1568 24.1999 88.1568 25.7168V27.9392H88.1215Z" fill="#1A262E"/>
<path d="M90.8026 25.752C90.8026 24.235 90.8026 23.9528 90.7673 23.6706C90.732 23.3531 90.6615 23.1767 90.344 23.1062C90.2734 23.1062 90.1676 23.0709 90.0618 23.0709C89.9912 23.0709 89.9207 23.0356 89.9207 23.0004C89.9207 22.9298 89.9912 22.8945 90.097 22.8945C90.344 22.8945 90.6262 22.9298 91.2965 22.9298C91.367 22.9298 93.4131 22.9298 93.6247 22.9298C93.8717 22.9298 93.9775 22.8945 94.0833 22.8593C94.1539 22.824 94.1539 22.824 94.2244 22.824C94.2597 22.824 94.2597 22.8593 94.2597 22.8945C94.2597 22.9651 94.1892 23.1415 94.1539 23.4237C94.1539 23.6353 94.1186 23.8117 94.1186 24.0234C94.1186 24.1292 94.0833 24.1998 94.0481 24.1998C94.0128 24.1998 93.9775 24.1645 93.9775 24.0587C93.9775 23.8823 93.9422 23.7764 93.907 23.7059C93.8364 23.459 93.7306 23.3884 93.1661 23.3531C93.025 23.3531 91.8962 23.3179 91.8609 23.3179C91.8256 23.3179 91.7903 23.3531 91.7903 23.4237V26.0342C91.7903 26.1047 91.7903 26.14 91.8609 26.14C92.002 26.14 93.1661 26.14 93.4131 26.1047C93.66 26.1047 93.8364 26.0694 93.9422 25.9283C93.9775 25.8578 94.0128 25.8225 94.0833 25.8225C94.1186 25.8225 94.1186 25.8225 94.1186 25.8931C94.1186 25.9636 94.0833 26.1753 94.0481 26.4928C94.0128 26.8103 94.0128 27.0572 94.0128 27.1983C94.0128 27.3041 93.9775 27.3394 93.9422 27.3394C93.8717 27.3394 93.8717 27.2689 93.8717 27.1983C93.8717 27.1277 93.8717 27.0219 93.8364 26.9161C93.8011 26.775 93.7306 26.5986 93.272 26.5633C93.025 26.528 92.0725 26.528 91.8962 26.528C91.8256 26.528 91.8256 26.5633 91.8256 26.5986V27.4452C91.8256 27.798 91.8256 28.821 91.8256 28.9974C91.8609 29.4207 91.8962 29.6324 92.1431 29.7382C92.3195 29.8088 92.6017 29.8441 92.9897 29.8441C93.2014 29.8441 93.5895 29.8441 93.8717 29.7735C94.2244 29.6677 94.295 29.456 94.4008 28.9974C94.4361 28.8916 94.4714 28.821 94.5067 28.821C94.5772 28.821 94.5772 28.9269 94.5772 28.9974C94.5772 29.068 94.4714 29.8088 94.4361 29.9852C94.4008 30.2321 94.295 30.2321 93.9422 30.2321C93.1661 30.2321 92.8486 30.1968 92.4606 30.1968C92.0725 30.1968 91.5434 30.1616 91.1201 30.1616C90.8731 30.1616 90.6262 30.1968 90.344 30.1968C90.2382 30.1968 90.1676 30.1616 90.1676 30.1263C90.1676 30.091 90.2029 30.0557 90.2734 30.0557C90.344 30.0557 90.4145 30.0557 90.5204 30.0204C90.732 29.9852 90.8731 29.8088 90.8731 29.1032C90.8731 28.7152 90.9084 28.2566 90.9084 27.3747V25.752H90.8026Z" fill="#1A262E"/>
<path d="M104.031 29.0328C104.067 29.315 104.137 29.95 104.596 30.0558C104.807 30.0911 105.019 30.1264 105.195 30.1264C105.231 30.1264 105.337 30.1264 105.337 30.197C105.337 30.2675 105.301 30.3028 105.16 30.3028C104.949 30.3028 103.714 30.2675 103.361 30.2322C103.114 30.1969 103.008 30.197 103.008 30.1264C103.008 30.0911 103.044 30.0558 103.114 30.0206C103.185 29.9853 103.22 29.8442 103.185 29.7031L102.656 24.7996L100.221 29.7384C100.01 30.197 99.9745 30.3028 99.8687 30.3028C99.7981 30.3028 99.7276 30.197 99.5159 29.8089C99.3395 29.4914 98.4223 27.6217 98.3518 27.5159C98.2812 27.3748 97.1524 25.1524 97.0818 24.9054L96.6585 29.315C96.6585 29.4914 96.6585 29.562 96.6585 29.7384C96.6585 29.8795 96.729 30.0206 96.9407 30.0911C97.0818 30.1264 97.1524 30.1264 97.2582 30.1264C97.364 30.1264 97.364 30.1617 97.364 30.197C97.364 30.2675 97.2935 30.3028 97.1524 30.3028C96.7996 30.3028 96.3057 30.2675 96.1999 30.2675C96.0941 30.2675 95.6002 30.3028 95.318 30.3028C95.2122 30.3028 95.1416 30.3028 95.1416 30.197C95.1416 30.1617 95.1769 30.1264 95.2827 30.1264C95.3533 30.1264 95.3885 30.1264 95.4944 30.1264C95.7766 30.0911 95.8824 29.8442 95.9177 29.3503L96.6938 23.0358C96.7291 22.8241 96.7643 22.7535 96.8349 22.7535C96.9054 22.7535 96.9407 22.7888 97.0113 22.9299L100.08 28.8917L103.008 22.9299C103.079 22.7888 103.114 22.7183 103.185 22.7183C103.255 22.7183 103.291 22.8241 103.291 23.0005L104.031 29.0328Z" fill="#1A262E"/>
<path d="M106.677 29.3856C105.69 28.5389 105.443 27.4101 105.443 26.4576C105.443 25.8226 105.69 24.6585 106.607 23.8118C107.242 23.2121 108.159 22.7888 109.711 22.7888C110.24 22.7888 110.664 22.8241 111.228 22.9299C111.581 23.0005 111.969 23.0358 112.251 23.071C112.357 23.071 112.357 23.1416 112.357 23.1769C112.357 23.2827 112.322 23.3885 112.286 23.7413C112.286 24.0588 112.286 24.6585 112.251 24.7996C112.251 24.976 112.216 25.0113 112.145 25.0113C112.075 25.0113 112.039 24.9407 112.039 24.7996C112.039 24.4821 111.863 24.0235 111.581 23.8118C111.228 23.5296 110.417 23.2121 109.535 23.2121C108.265 23.2121 107.665 23.5649 107.312 23.8824C106.571 24.5527 106.395 25.3993 106.395 26.3871C106.395 28.292 107.947 29.9853 109.958 29.9853C110.734 29.9853 111.299 29.9147 111.722 29.5267C111.934 29.315 112.039 29.0328 112.11 28.7153C112.145 28.6095 112.181 28.5389 112.251 28.5389C112.322 28.5389 112.322 28.6095 112.322 28.7153C112.322 28.8212 112.181 29.7384 112.075 29.9853C112.004 30.1617 111.969 30.197 111.828 30.2675C111.44 30.4439 110.664 30.5144 110.029 30.5144C108.547 30.4439 107.489 30.0911 106.677 29.3856Z" fill="#1A262E"/>
<path d="M114.085 25.7521C114.085 24.2352 114.085 23.953 114.05 23.6355C114.015 23.318 113.944 23.1416 113.733 23.1063C113.627 23.071 113.521 23.071 113.486 23.071C113.415 23.071 113.344 23.0358 113.344 23.0005C113.344 22.9299 113.38 22.9299 113.521 22.9299C113.874 22.9299 114.544 22.9652 114.579 22.9652C114.614 22.9652 115.285 22.9299 115.602 22.9299C115.708 22.9299 115.779 22.9652 115.779 23.0005C115.779 23.0358 115.743 23.071 115.637 23.071C115.567 23.071 115.496 23.071 115.426 23.1063C115.108 23.1416 115.073 23.318 115.038 23.6707C115.002 23.9882 115.038 24.2352 115.038 25.7521V27.4806C115.038 28.3626 115.038 29.1739 115.073 29.5973C115.108 29.9147 115.179 30.0559 115.461 30.1264C115.602 30.1617 115.849 30.1617 115.884 30.1617C115.99 30.1617 116.026 30.197 116.026 30.2322C116.026 30.2675 115.99 30.3028 115.849 30.3028C115.249 30.3028 114.579 30.2675 114.544 30.2675C114.509 30.2675 113.838 30.3028 113.521 30.3028C113.415 30.3028 113.344 30.2675 113.344 30.2322C113.344 30.197 113.38 30.1617 113.486 30.1617C113.556 30.1617 113.662 30.1617 113.768 30.1264C113.979 30.0911 114.015 29.8442 114.015 29.562C114.085 29.1387 114.085 28.3273 114.085 27.4806V25.7521Z" fill="#1A262E"/>
<path d="M66.1441 42.2262C66.1441 39.0513 66.1441 38.4868 66.1088 37.8519C66.0735 37.2169 65.9324 36.8288 65.4033 36.7583C65.1563 36.723 64.98 36.723 64.8389 36.6877C64.6625 36.6525 64.5919 36.6172 64.5919 36.5113C64.5919 36.4055 64.6977 36.335 64.9447 36.335C65.6855 36.335 67.0613 36.4055 67.1318 36.4055C67.2377 36.4055 68.6135 36.335 69.2837 36.335C69.5307 36.335 69.6365 36.3702 69.6365 36.5113C69.6365 36.6172 69.5659 36.6525 69.3896 36.6877C69.2485 36.723 69.1426 36.723 68.9662 36.723C68.2607 36.8288 68.1901 37.1816 68.1549 37.8871C68.1196 38.5221 68.1196 39.0866 68.1196 42.2615V45.8597C68.1196 47.6941 68.0843 49.3874 68.2254 50.234C68.3313 50.9396 68.4018 51.1865 69.0368 51.3276C69.3543 51.3982 69.8482 51.4334 69.954 51.4334C70.1657 51.4687 70.2009 51.504 70.2009 51.6098C70.2009 51.7157 70.0951 51.7862 69.8482 51.7862C68.6135 51.7862 67.2377 51.7157 67.0966 51.7157C67.026 51.7157 65.6149 51.7862 64.9447 51.7862C64.733 51.7862 64.5566 51.7509 64.5566 51.6098C64.5566 51.504 64.6625 51.4334 64.8741 51.4334C64.98 51.4334 65.2622 51.3982 65.4386 51.3629C65.8619 51.2571 65.9324 50.7985 66.003 50.1988C66.1088 49.3521 66.1088 47.6235 66.1088 45.8244V42.2262H66.1441Z" fill="#1A262E"/>
<path d="M73.2702 37.0405C73.2702 36.2997 73.3407 36.0527 73.5171 36.0527C73.6935 36.0527 74.0816 36.5466 74.2579 36.6877C74.4696 36.9347 77.8209 40.3212 81.1722 43.7784C83.0419 45.6128 85.4407 48.0821 86.0757 48.6466L85.8287 38.6632C85.7935 37.358 85.6523 36.9347 85.0174 36.7583C84.594 36.6877 84.2413 36.6524 84.0649 36.6524C83.818 36.6524 83.7827 36.5466 83.7827 36.4761C83.7827 36.3702 83.9591 36.335 84.206 36.335C85.229 36.335 86.2521 36.4055 86.4637 36.4055C86.7107 36.4055 87.4515 36.335 88.3687 36.335C88.6156 36.335 88.7214 36.3702 88.7214 36.4761C88.7214 36.5819 88.6509 36.6524 88.5098 36.6524C88.3687 36.6877 88.157 36.6877 87.9101 36.723C87.3456 36.8288 87.2045 37.0758 87.2045 38.5221L87.1693 50.5515C87.1693 51.7509 87.134 51.8568 86.9576 51.8568C86.7812 51.8568 86.5343 51.6804 85.3701 50.5868C85.2643 50.5515 81.9483 47.2355 79.867 45.1894C77.3623 42.6142 74.9635 40.1096 74.3638 39.4746L74.6813 48.8582C74.7165 50.5162 74.8576 51.1512 75.4574 51.2923C75.8454 51.3981 76.2334 51.3982 76.4451 51.3982C76.6568 51.3982 76.7273 51.4687 76.7273 51.5745C76.7273 51.6804 76.6215 51.7509 76.3393 51.7509C75.034 51.7509 74.1874 51.6804 74.011 51.6804C73.8346 51.6804 72.9527 51.7509 71.9297 51.7509C71.718 51.7509 71.5769 51.7156 71.5769 51.5745C71.5769 51.4687 71.6827 51.3982 71.9297 51.3982C72.1061 51.3982 72.353 51.3981 72.6705 51.2923C73.1996 51.1159 73.3055 50.481 73.3055 48.7171C73.2702 37.3227 73.3055 41.0268 73.2702 37.0405Z" fill="#1A262E"/>
<path d="M91.0496 38.3105C90.5557 37.1816 90.4146 36.8994 89.5327 36.7583C89.1799 36.723 88.933 36.6877 88.8271 36.6877C88.6508 36.6877 88.5449 36.6172 88.5449 36.5113C88.5449 36.4055 88.7213 36.335 88.933 36.335C90.0265 36.335 91.4376 36.4055 91.6846 36.4055C91.8962 36.4055 93.0251 36.335 93.907 36.335C94.1892 36.335 94.295 36.3702 94.295 36.4761C94.295 36.5819 94.1892 36.6525 93.9423 36.6525C93.5895 36.6525 93.3778 36.6877 93.2015 36.7583C92.9898 36.8641 92.9898 37.0052 92.9898 37.1816C92.9898 37.358 93.1309 37.8166 93.3778 38.381L97.6111 48.9993C98.8105 46.3536 101.562 39.3688 101.985 37.9577C102.091 37.6402 102.162 37.3227 102.162 37.1816C102.162 37.0405 102.126 36.8641 101.95 36.7936C101.774 36.723 101.456 36.6877 101.174 36.6877C100.998 36.6877 100.857 36.6525 100.857 36.5466C100.857 36.4408 100.927 36.3702 101.209 36.3702C102.056 36.3702 103.22 36.4408 103.502 36.4408C103.608 36.4408 104.561 36.3702 105.16 36.3702C105.407 36.3702 105.513 36.4055 105.513 36.5113C105.513 36.6172 105.407 36.6877 105.266 36.6877C104.984 36.6877 104.666 36.6877 104.243 36.9347C103.996 37.1111 103.679 37.4285 103.114 38.8043C103.008 39.0866 101.809 41.8381 100.715 44.3075C99.4454 47.2708 98.4577 49.5285 98.0697 50.3399C97.4347 51.6451 97.3641 52.0332 97.1172 52.0332C96.835 52.0332 96.6939 51.7509 96.3058 50.6926L91.0496 38.3105Z" fill="#1A262E"/>
<path d="M107.347 42.2262C107.347 39.0865 107.347 38.5221 107.312 37.8519C107.277 37.1816 107.1 36.8288 106.395 36.6877C106.254 36.6524 106.007 36.6524 105.83 36.6524C105.654 36.6524 105.513 36.5819 105.513 36.5113C105.513 36.3702 105.619 36.335 105.866 36.335C106.36 36.335 106.995 36.3702 108.335 36.4055C108.441 36.4055 112.709 36.4055 113.203 36.3702C113.697 36.335 113.944 36.335 114.156 36.2644C114.297 36.2291 114.332 36.1938 114.403 36.1938C114.438 36.1938 114.509 36.2291 114.509 36.3702C114.509 36.5113 114.367 36.8641 114.332 37.4638C114.297 37.8871 114.297 38.2399 114.262 38.6985C114.262 38.9102 114.226 39.0513 114.085 39.0513C113.944 39.0513 113.909 38.9454 113.909 38.8043C113.874 38.4516 113.803 38.2046 113.732 38.0282C113.591 37.5344 113.38 37.3933 112.18 37.3227C111.863 37.2874 109.499 37.2874 109.429 37.2874C109.358 37.2874 109.323 37.3227 109.323 37.4638V42.8964C109.323 43.0376 109.358 43.1434 109.464 43.1434C109.746 43.1434 112.216 43.1081 112.709 43.0728C113.274 43.0376 113.627 42.967 113.803 42.7201C113.909 42.579 113.979 42.5437 114.05 42.5437C114.085 42.5437 114.156 42.579 114.156 42.6848C114.156 42.7906 114.05 43.2492 113.979 43.9548C113.909 44.625 113.909 45.1189 113.874 45.4011C113.838 45.5775 113.803 45.648 113.697 45.648C113.591 45.648 113.556 45.5069 113.556 45.3306C113.556 45.1894 113.521 44.9425 113.486 44.7661C113.38 44.4486 113.239 44.1311 112.321 44.0606C111.757 44.0253 109.817 43.9548 109.429 43.9548C109.288 43.9548 109.252 44.0253 109.252 44.1311V45.895C109.252 46.6358 109.217 48.7524 109.252 49.1405C109.288 50.0224 109.429 50.481 109.923 50.6926C110.275 50.869 110.875 50.9043 111.686 50.9043C112.145 50.9043 112.921 50.9396 113.521 50.7632C114.226 50.5515 114.403 50.0576 114.614 49.1757C114.65 48.9288 114.72 48.823 114.826 48.823C114.967 48.823 114.967 49.0346 114.967 49.1757C114.967 49.3521 114.791 50.869 114.72 51.2571C114.614 51.7509 114.473 51.7862 113.662 51.7862C112.074 51.7862 111.404 51.7509 110.558 51.7509C109.711 51.7157 108.617 51.6804 107.735 51.6804C107.171 51.6804 106.712 51.7509 106.148 51.7509C105.936 51.7509 105.795 51.7157 105.795 51.5746C105.795 51.4687 105.901 51.3982 106.007 51.3982C106.148 51.3982 106.324 51.3629 106.501 51.3276C106.924 51.2218 107.206 50.9043 107.277 49.4227C107.312 48.6113 107.312 47.6235 107.312 45.7892V42.2262H107.347Z" fill="#1A262E"/>
<path d="M117.719 51.504C117.401 51.3629 117.401 51.257 117.401 50.6926C117.401 49.599 117.472 48.7877 117.507 48.4349C117.542 48.2232 117.578 48.0821 117.683 48.0821C117.789 48.0821 117.86 48.1527 117.86 48.3291C117.86 48.4702 117.86 48.7524 117.93 49.0346C118.248 50.5868 119.659 51.1865 121.035 51.1865C123.01 51.1865 123.998 49.8107 123.998 48.6113C123.998 47.2355 123.363 46.3888 121.634 44.9778L120.682 44.237C118.389 42.4026 117.895 41.1326 117.895 39.6862C117.895 37.4638 119.659 35.9822 122.34 35.9822C123.187 35.9822 123.751 36.0527 124.28 36.1586C124.739 36.2644 124.915 36.2644 125.091 36.2644C125.268 36.2644 125.303 36.2997 125.303 36.4055C125.303 36.5113 125.197 37.358 125.197 38.7338C125.197 39.0865 125.162 39.2276 125.021 39.2276C124.915 39.2276 124.88 39.1218 124.845 38.9807C124.809 38.769 124.774 38.2752 124.562 37.8519C124.456 37.6402 123.892 36.723 121.881 36.723C120.435 36.723 119.377 37.5696 119.377 39.016C119.377 40.1448 119.941 40.8504 121.952 42.3673L122.516 42.7906C125.021 44.6956 125.656 45.9655 125.656 47.6941C125.656 48.5407 125.303 50.0929 123.822 51.1159C122.869 51.7156 121.74 51.9626 120.576 51.9626C119.553 52.0331 118.601 51.892 117.719 51.504Z" fill="#1A262E"/>
<path d="M134.687 45.8243C134.687 47.6587 134.722 49.3873 134.793 50.2692C134.863 50.8336 134.899 51.1864 135.498 51.3275C135.781 51.398 136.239 51.4333 136.451 51.4333C136.627 51.4333 136.733 51.5039 136.733 51.5744C136.733 51.6802 136.663 51.7508 136.416 51.7508C135.181 51.7508 133.77 51.6802 133.664 51.6802C133.558 51.6802 132.147 51.7508 131.512 51.7508C131.265 51.7508 131.159 51.7155 131.159 51.5744C131.159 51.5039 131.23 51.398 131.406 51.398C131.583 51.398 131.759 51.398 131.936 51.3628C132.394 51.2922 132.465 51.01 132.57 50.1986C132.676 49.352 132.676 47.6234 132.676 45.8243V37.252C131.9 37.252 130.63 37.252 129.643 37.2873C128.09 37.3226 127.773 37.5342 127.42 38.0634C127.208 38.4162 127.103 38.6984 127.067 38.8042C126.997 38.9806 126.961 38.9806 126.856 38.9806C126.75 38.9806 126.75 38.8748 126.75 38.7689C126.715 38.6278 127.103 37.0404 127.244 36.4054C127.314 36.1232 127.385 36.0173 127.455 36.0173C127.632 36.0173 128.09 36.229 128.514 36.2643C129.36 36.3701 130.031 36.3701 130.066 36.3701H137.933C138.603 36.3701 139.308 36.3348 139.661 36.2643C139.979 36.1937 140.049 36.1584 140.12 36.1584C140.226 36.1584 140.261 36.2643 140.261 36.3701C140.261 37.0404 140.226 38.6278 140.226 38.8042C140.226 39.0159 140.12 39.0864 140.049 39.0864C139.943 39.0864 139.873 38.9806 139.873 38.8042C139.873 38.7337 139.873 38.6984 139.838 38.4514C139.732 37.499 139.414 37.252 137.015 37.2167C136.098 37.2167 135.357 37.1815 134.652 37.1815V45.8243H134.687Z" fill="#1A262E"/>
<path fill-rule="evenodd" clip-rule="evenodd" d="M31.9609 27.516C31.855 27.516 31.7845 27.516 31.6787 27.516L29.4915 26.4224L24.2 27.9746L18.6615 27.5865L16.6507 28.4332C16.6507 28.4332 13.4758 27.6571 10.1598 25.7521C9.77175 26.3166 9.2426 27.1279 8.71345 28.151C8.21957 29.1034 7.79625 29.9501 7.47876 30.5851C7.90208 30.9025 8.3254 31.1495 8.71345 31.3611C10.8653 32.3489 11.8178 32.4194 12.0295 32.4194C12.0647 32.4194 12.0647 32.4194 12.0647 32.4194L10.5831 33.5483C10.5831 33.5483 13.0878 35.1358 14.1461 35.3827C14.64 35.4885 15.0633 35.5238 15.3455 35.5238C15.6983 35.5238 15.9452 35.4885 15.9452 35.4885L15.7335 36.1235L18.8732 43.8844L18.5204 49.8815L17.8149 51.1162L18.2029 52.5272C18.2029 52.5272 20.0373 54.6438 23.7061 54.6438C25.2583 54.6438 27.1632 54.2558 29.3857 53.1622C29.809 51.4689 30.7615 45.0838 30.7615 45.0838L35.2063 38.734L33.76 34.7477L38.981 32.5958L39.7218 31.9256L37.6052 30.7262L40.9917 28.1157C40.9917 28.1157 41.2387 19.7551 28.8918 16.1216C28.1863 15.9099 27.4102 15.7335 26.6341 15.5571C27.3396 15.8393 27.9746 16.1568 28.5743 16.5449C33.5131 19.614 33.9364 25.1877 33.9364 25.1877C33.9364 25.1877 34.3597 27.516 31.9609 27.516Z" fill="#87764E"/>
<path fill-rule="evenodd" clip-rule="evenodd" d="M28.3978 62.828C28.2567 62.7222 26.2459 59.0181 26.2459 59.0181C26.2459 59.0181 25.9637 57.4307 25.7873 55.5963C25.0817 55.7374 24.4115 55.8079 23.7412 55.8079C19.6491 55.8079 17.4972 53.4091 17.4267 53.3033L17.2503 53.0916L17.1797 52.8447L16.7917 51.4336L16.6506 50.9397L16.8975 50.4811L17.462 49.4934L17.7794 44.0608L14.7809 36.6526C14.4987 36.6173 14.2165 36.5821 13.9343 36.5115C12.7701 36.2293 10.4771 34.8182 10.0185 34.536L8.5722 33.6188L9.45412 32.9486C9.10135 32.8074 8.7133 32.6311 8.28998 32.4547H8.25471H8.21943C7.83138 32.243 7.40806 31.9961 6.98474 31.7139C6.94946 31.8197 6.91419 31.855 6.91419 31.855C5.43256 35.7354 5.43256 39.5453 6.06754 42.5086L4.83285 44.4841L4.09204 46.6007L5.99699 50.4459L8.92496 59.8295C8.92496 59.8295 7.69028 61.2406 7.51389 61.9461L7.12585 64.8035H17.9911C17.9911 64.8035 17.6383 61.9461 17.0034 60.6761C16.3684 59.4062 14.7456 58.3479 14.7456 58.3479L12.0999 51.8922C12.241 52.0333 12.4174 52.1744 12.5585 52.3508C13.6168 53.4444 17.0739 57.2543 17.7794 58.2773C18.485 59.3356 21.3424 62.8633 20.9896 65.9324C20.9896 65.9324 19.9313 67.0613 19.3316 68.7193C18.9789 69.707 18.9436 71.9647 18.9436 71.9647H33.8657C33.8657 71.9647 32.4899 66.1088 32.2782 65.7913C31.3257 64.4508 28.5389 62.9339 28.3978 62.828Z" fill="#87764E"/>
<path fill-rule="evenodd" clip-rule="evenodd" d="M49.8814 53.7266C50.0931 50.9045 52.2097 48.6115 52.2097 48.6115C52.2097 48.6115 52.7036 44.0961 52.7036 43.3905C52.7036 43.3905 49.4581 40.4978 48.682 39.7923C48.6115 38.6281 47.659 37.7815 47.659 37.7815C47.6237 37.4993 47.8354 36.0529 46.636 31.9256C44.4841 24.6585 39.9334 18.2029 38.8398 16.8976C37.7815 15.5924 32.7722 9.84226 28.5742 8.57229C26.8104 9.10145 24.341 10.9358 21.9775 12.9466C21.0603 11.1475 20.1783 9.56005 18.3792 9.38366C15.3454 9.13672 13.4757 13.758 9.70113 13.0525C7.26702 10.1245 10.8653 8.50174 10.7242 5.43266C10.5478 0.63501 3.31602 -2.22241 0 2.18719C1.34052 2.68107 3.8099 1.72859 4.83292 3.28077C3.70407 5.96181 5.50318 7.30233 6.56149 8.7134C5.96178 10.2656 6.20872 12.9113 6.56149 14.5341C9.80696 18.5204 15.0279 14.7105 17.9912 13.0877C18.732 13.5463 19.0848 14.4282 19.367 15.3807C18.9437 15.804 17.7795 16.8976 17.7795 16.8976C15.9451 18.6967 14.6752 20.0725 14.6752 20.0725C14.6752 20.0725 12.7702 22.1539 10.7947 24.8349C13.2641 26.2107 15.6629 26.9515 16.5096 27.1985L18.1676 26.4929L18.4145 26.3871L18.6614 26.4224L24.0235 26.8104L29.1387 25.3288L29.562 25.223L29.95 25.3993L31.9255 26.3871C32.1372 26.3871 32.49 26.3518 32.6311 26.1754C32.8074 25.9638 32.8074 25.5404 32.7722 25.3993V25.3641V25.2935C32.7722 25.223 32.3136 20.0725 27.5865 17.3562C27.4454 17.1798 21.8716 14.1108 21.8716 14.1108C21.8716 14.1108 24.6585 14.0402 26.8457 14.393C27.7629 14.5341 28.3978 14.7105 28.4331 14.7105C34.0069 16.1921 37.9579 18.732 40.2861 22.295C42.2264 25.3288 42.1558 27.9745 42.1558 28.0804L42.1205 28.6448L41.6619 28.9976L39.6864 30.5145L40.2156 30.832L41.6619 31.6433L40.4272 32.7722L39.6864 33.4425L39.5453 33.5836L39.3689 33.6541L35.171 35.3827L36.2293 38.2754L36.441 38.8751L36.0882 39.4042L31.8197 45.5424C31.6433 46.8124 30.8319 51.8922 30.4439 53.4444L30.3381 53.9736L29.8795 54.2205C29.5267 54.3969 29.1739 54.5733 28.8212 54.7144C30.2322 55.173 30.8319 56.2313 30.8319 56.2313L39.757 50.0578L43.7785 51.1161L43.6021 53.7619C43.6021 53.7619 40.8153 54.538 39.9334 57.8187C39.0514 61.0995 43.3552 64.733 43.3552 64.733C43.3552 64.733 45.8951 66.9202 47.9412 66.0382C51.8922 64.3097 51.4336 59.8295 51.4336 59.8295L52.3155 58.0657C52.3508 57.9951 49.6345 57.0426 49.8814 53.7266Z" fill="#87764E"/>
<path fill-rule="evenodd" clip-rule="evenodd" d="M26.6339 15.5217C33.407 18.2028 33.9362 25.117 33.9362 25.117C33.9362 25.117 34.3948 27.6922 31.6785 27.5158L29.4913 26.4223L24.1998 27.9744L18.6613 27.5864L16.6506 28.433C16.6506 28.433 4.4095 25.4698 2.71622 16.7211C1.44625 25.6815 5.64419 29.7736 8.71328 31.3963C11.1474 32.5252 12.0646 32.4546 12.0646 32.4546L10.5829 33.5482C10.5829 33.5482 13.0876 35.1356 14.1459 35.3826C15.1689 35.6295 15.945 35.4884 15.945 35.4884L15.7334 36.1234L18.873 43.8843L18.5202 49.8814L17.8147 51.116L18.2027 52.5271C18.2027 52.5271 21.9774 56.8309 29.3502 53.1268C29.7735 51.4335 30.726 45.0484 30.726 45.0484L35.1709 38.6986L33.7245 34.7123L38.9455 32.5604L39.6863 31.8902L37.5697 30.6908L40.9563 28.0803C41.0268 28.0803 41.309 18.7319 26.6339 15.5217Z" fill="#87764E"/>
</g>
<defs>
<clipPath id="clip0">
<rect width="142" height="72" fill="white"/>
</clipPath>
</defs>
</svg>
