<svg width="320" height="256" fill="none" xmlns="http://www.w3.org/2000/svg"><path opacity=".3" fill-rule="evenodd" clip-rule="evenodd" d="M676.455 97.183l-103.6 42.866-95.637-42.866-95.637 19.911-95.636-41.19-96.32 62.183-94.954-74.103L-.965 29.25l-95.637 131.649-95.636-92.97-104.266 49.165V254.46l973.06.679-.101-157.956z" fill="url(#paint0_linear)"/><path d="M677.923 97.783l.383.924-.924.383-103.746 43.012-.461.191-.399.166-.394-.177-.456-.205-95.174-42.724-94.869 19.944-.36.076-.312.065-.292-.126-.338-.147-94.946-41.13-92.087 60.366.078.061-.161-.007-2.443 1.602-.693.454-.597.391-.564-.438-.654-.508-2.307-1.793-.161-.006.083-.055-93.071-72.338-93.463-33.8-93.436 128.853.23.223-.417.035-.91 1.254-.785 1.083-.678.936-.829-.806-.96-.933-1.11-1.079-.416.036.188-.259-93.3-90.715-102.751 48.704-.904.428-.428-.903-.993-2.094-.428-.904.904-.428 101.297-48.015-.061-.06.138.024 2.731-1.295.727-.345.628-.297.498.484.577.56 2.167 2.108.138.023-.077.036 91.697 89.158 92.339-127.34-.117-.042.19-.058 1.61-2.222h0l.512-.706.442-.609.708.256.82.297 2.58.933.19-.058-.074.1L94.847 61.82l.172.063.15.054.124.097.145.112 94.507 73.455 94.297-61.815.522-.343.451-.295.495.214.573.248 95.384 41.321 94.884-19.947.369-.078.319-.067.297.134.344.154 94.964 42.63 102.885-42.655.924-.383.383.924.887 2.14z" fill="#54BAB3" stroke="#fff" stroke-width="2"/><g filter="url(#filter0_d)"><path fill-rule="evenodd" clip-rule="evenodd" d="M286.753 84.274a7.53 7.53 0 110-15.06 7.53 7.53 0 010 15.06z" fill="#fff"/></g><path fill-rule="evenodd" clip-rule="evenodd" d="M286.753 80.799a4.055 4.055 0 110-8.11 4.055 4.055 0 010 8.11z" fill="#54BAB3"/><g filter="url(#filter1_d)"><path fill-rule="evenodd" clip-rule="evenodd" d="M190.026 143.932a7.53 7.53 0 110-15.06 7.53 7.53 0 010 15.06z" fill="#fff"/></g><path fill-rule="evenodd" clip-rule="evenodd" d="M190.026 140.456a4.054 4.054 0 110-8.108 4.054 4.054 0 010 8.108z" fill="#54BAB3"/><g filter="url(#filter2_d)"><path fill-rule="evenodd" clip-rule="evenodd" d="M93.879 71.531a7.53 7.53 0 110-15.059 7.53 7.53 0 010 15.06z" fill="#fff"/></g><path fill-rule="evenodd" clip-rule="evenodd" d="M93.879 68.056a4.054 4.054 0 110-8.108 4.054 4.054 0 010 8.108z" fill="#54BAB3"/><g filter="url(#filter3_d)"><path fill-rule="evenodd" clip-rule="evenodd" d="M-1.11 37.938a7.53 7.53 0 110-15.06 7.53 7.53 0 010 15.06z" fill="#fff"/></g><path fill-rule="evenodd" clip-rule="evenodd" d="M-1.11 34.463a4.054 4.054 0 110-8.11 4.054 4.054 0 010 8.11z" fill="#54BAB3"/><path opacity=".6" d="M1000.36 11H-679.643M1000.36 61H-679.643M1000.36 111H-679.643M1000.36 161H-679.643" stroke="#52B6AF" stroke-linecap="square" stroke-dasharray="1 6"/><defs><filter id="filter0_d" x="273.223" y="63.215" width="27.059" height="27.059" filterUnits="userSpaceOnUse" color-interpolation-filters="sRGB"><feFlood flood-opacity="0" result="BackgroundImageFix"/><feColorMatrix in="SourceAlpha" values="0 0 0 0 0 0 0 0 0 0 0 0 0 0 0 0 0 0 127 0"/><feOffset/><feGaussianBlur stdDeviation="3"/><feColorMatrix values="0 0 0 0 0 0 0 0 0 0 0 0 0 0 0 0 0 0 0.16 0"/><feBlend in2="BackgroundImageFix" result="effect1_dropShadow"/><feBlend in="SourceGraphic" in2="effect1_dropShadow" result="shape"/></filter><filter id="filter1_d" x="176.496" y="122.873" width="27.059" height="27.059" filterUnits="userSpaceOnUse" color-interpolation-filters="sRGB"><feFlood flood-opacity="0" result="BackgroundImageFix"/><feColorMatrix in="SourceAlpha" values="0 0 0 0 0 0 0 0 0 0 0 0 0 0 0 0 0 0 127 0"/><feOffset/><feGaussianBlur stdDeviation="3"/><feColorMatrix values="0 0 0 0 0 0 0 0 0 0 0 0 0 0 0 0 0 0 0.16 0"/><feBlend in2="BackgroundImageFix" result="effect1_dropShadow"/><feBlend in="SourceGraphic" in2="effect1_dropShadow" result="shape"/></filter><filter id="filter2_d" x="80.349" y="50.472" width="27.059" height="27.059" filterUnits="userSpaceOnUse" color-interpolation-filters="sRGB"><feFlood flood-opacity="0" result="BackgroundImageFix"/><feColorMatrix in="SourceAlpha" values="0 0 0 0 0 0 0 0 0 0 0 0 0 0 0 0 0 0 127 0"/><feOffset/><feGaussianBlur stdDeviation="3"/><feColorMatrix values="0 0 0 0 0 0 0 0 0 0 0 0 0 0 0 0 0 0 0.16 0"/><feBlend in2="BackgroundImageFix" result="effect1_dropShadow"/><feBlend in="SourceGraphic" in2="effect1_dropShadow" result="shape"/></filter><filter id="filter3_d" x="-14.64" y="16.878" width="27.059" height="27.059" filterUnits="userSpaceOnUse" color-interpolation-filters="sRGB"><feFlood flood-opacity="0" result="BackgroundImageFix"/><feColorMatrix in="SourceAlpha" values="0 0 0 0 0 0 0 0 0 0 0 0 0 0 0 0 0 0 127 0"/><feOffset/><feGaussianBlur stdDeviation="3"/><feColorMatrix values="0 0 0 0 0 0 0 0 0 0 0 0 0 0 0 0 0 0 0.16 0"/><feBlend in2="BackgroundImageFix" result="effect1_dropShadow"/><feBlend in="SourceGraphic" in2="effect1_dropShadow" result="shape"/></filter><linearGradient id="paint0_linear" x1="253.545" y1="20.819" x2="253.921" y2="270.84" gradientUnits="userSpaceOnUse"><stop stop-color="#54BAB3"/><stop offset="1" stop-color="#fff" stop-opacity="0"/></linearGradient></defs></svg>