<svg width="142" height="72" viewBox="0 0 142 72" fill="none" xmlns="http://www.w3.org/2000/svg">
<g clip-path="url(#clip0)">
<path d="M67.5551 67.0967C67.9784 66.1795 68.8956 63.8865 69.0367 63.3927C69.072 63.2868 69.1072 63.181 69.1072 63.1457C69.1072 63.1105 69.072 63.0399 69.0014 63.0046C68.9309 62.9694 68.825 62.9694 68.7545 62.9694C68.7192 62.9694 68.6839 62.9341 68.6839 62.8988C68.6839 62.8635 68.7192 62.8282 68.8603 62.8282C69.1425 62.8282 69.46 62.8282 69.5306 62.8282C69.5658 62.8282 69.8833 62.8282 70.095 62.8282C70.1655 62.8282 70.2008 62.8282 70.2008 62.8635C70.2008 62.8988 70.1655 62.9341 70.1303 62.9341C70.095 62.9341 69.9186 62.9341 69.8128 63.0046C69.7069 63.0752 69.6011 63.181 69.4247 63.6396C69.3542 63.816 69.0014 64.6274 68.6486 65.474C68.2253 66.4618 67.9078 67.2026 67.7314 67.5201C67.5551 67.9434 67.4845 68.0139 67.4139 68.0139C67.3434 68.0139 67.2728 67.9434 67.167 67.5906L65.4384 63.428C65.2621 63.0399 65.1915 62.9694 64.9446 62.9341C64.8387 62.8988 64.6976 62.8988 64.6623 62.8988C64.6271 62.8988 64.5918 62.8635 64.5918 62.8282C64.5918 62.793 64.6624 62.793 64.7682 62.793C65.0857 62.793 65.509 62.793 65.5795 62.793C65.6501 62.793 65.9676 62.793 66.2498 62.793C66.3909 62.793 66.4262 62.793 66.4262 62.8282C66.4262 62.8635 66.3909 62.8988 66.3556 62.8988C66.2851 62.8988 66.1793 62.8988 66.1087 62.9341C66.0381 62.9694 66.0381 63.0046 66.0381 63.0399C66.0381 63.1105 66.1087 63.3221 66.2145 63.6043L67.5551 67.0967Z" fill="#87764E"/>
<path d="M71.4001 64.8034C71.4001 63.7451 71.4001 63.5687 71.4001 63.357C71.4001 63.1101 71.3296 63.0043 71.1179 62.969C71.0474 62.969 70.9415 62.969 70.871 62.969C70.8357 62.969 70.8004 62.9337 70.8004 62.8984C70.8004 62.8632 70.8357 62.8279 70.9062 62.8279C71.2237 62.8279 71.6823 62.8279 71.7176 62.8279C71.7529 62.8279 73.2345 62.8279 73.3756 62.8279C73.5167 62.8279 73.6226 62.7926 73.6931 62.7926C73.7284 62.7926 73.7637 62.7573 73.7989 62.7573C73.8342 62.7573 73.8342 62.7926 73.8342 62.8279C73.8342 62.8632 73.7989 62.969 73.7637 63.1454C73.7637 63.2159 73.7284 63.4981 73.7284 63.604C73.7284 63.6392 73.6931 63.6745 73.6578 63.6745C73.6226 63.6745 73.5873 63.6392 73.5873 63.604C73.5873 63.5687 73.5873 63.4276 73.552 63.357C73.5167 63.2512 73.4462 63.1806 73.0581 63.1454C72.9523 63.1454 72.1409 63.1101 72.0351 63.1101C71.9998 63.1101 71.9998 63.1454 71.9998 63.1807V65.015C71.9998 65.0503 71.9998 65.0856 72.0351 65.0856C72.1057 65.0856 73.0581 65.0856 73.1992 65.0856C73.3756 65.0856 73.4815 65.0503 73.552 64.9798C73.5873 64.9445 73.6226 64.9092 73.6578 64.9092C73.6931 64.9092 73.6931 64.9092 73.6931 64.9798C73.6931 65.015 73.6578 65.1209 73.6226 65.3678C73.6226 65.5089 73.5873 65.7559 73.5873 65.7911C73.5873 65.8617 73.5873 65.9322 73.5167 65.9322C73.4815 65.9322 73.4815 65.897 73.4815 65.8617C73.4815 65.7911 73.4815 65.7206 73.4462 65.65C73.4109 65.5442 73.3756 65.4736 73.0934 65.4384C72.917 65.4031 72.1409 65.4031 72.0351 65.4031C71.9998 65.4031 71.9998 65.4384 71.9998 65.4384V66.0028C71.9998 66.2497 71.9998 67.0258 71.9998 67.1669C71.9998 67.6255 72.1409 67.6961 72.8465 67.6961C73.0229 67.6961 73.3756 67.6961 73.552 67.6255C73.7284 67.555 73.8342 67.4139 73.8695 67.1669C73.8695 67.0964 73.9048 67.0611 73.9401 67.0611C73.9753 67.0611 73.9753 67.1316 73.9753 67.1669C73.9753 67.2022 73.9048 67.6608 73.8695 67.8372C73.8342 68.0136 73.7637 68.0136 73.4815 68.0136C72.9523 68.0136 72.5643 68.0136 72.2468 67.9783C71.9646 67.9783 71.7529 67.9783 71.6823 67.9783C71.6823 67.9783 71.5412 67.9783 71.3648 67.9783C71.2237 67.9783 71.0826 67.9783 70.9415 67.9783C70.871 67.9783 70.8357 67.9783 70.8357 67.9077C70.8357 67.8725 70.8357 67.8372 70.9062 67.8372C70.9768 67.8372 71.0474 67.8019 71.1179 67.8019C71.259 67.7666 71.259 67.6255 71.2943 67.4491C71.3296 67.1669 71.3296 66.6378 71.3296 65.9675V64.8034H71.4001Z" fill="#87764E"/>
<path d="M76.0216 64.8036C76.0216 63.7453 76.0216 63.5689 76.0216 63.3573C76.0216 63.1103 75.951 63.0045 75.7394 62.9692C75.6688 62.9692 75.563 62.9692 75.4924 62.9692C75.4572 62.9692 75.4219 62.9339 75.4219 62.8987C75.4219 62.8634 75.4572 62.8281 75.5277 62.8281C75.8452 62.8281 76.3038 62.8281 76.3391 62.8281C76.4096 62.8281 76.8682 62.8281 77.2915 62.8281C77.9971 62.8281 79.267 62.7575 80.1137 63.6042C80.4664 63.957 80.7839 64.5214 80.7839 65.3327C80.7839 66.1794 80.4312 66.8497 80.0431 67.2377C79.7256 67.5552 79.1259 68.0138 77.9265 68.0138C77.609 68.0138 77.2563 67.9785 76.9388 67.9785C76.6213 67.9432 76.4096 67.9432 76.3743 67.9432C76.3743 67.9432 76.2332 67.9432 76.0921 67.9432C75.951 67.9432 75.7746 67.9432 75.6688 67.9432C75.5983 67.9432 75.563 67.9432 75.563 67.8727C75.563 67.8374 75.563 67.8021 75.6335 67.8021C75.7041 67.8021 75.7746 67.8021 75.8452 67.7668C75.9863 67.7316 75.9863 67.5905 76.0216 67.4141C76.0569 67.1319 76.0569 66.6027 76.0569 65.9325V64.8036H76.0216ZM76.6566 65.5444C76.6566 66.2499 76.6566 66.8849 76.6566 67.026C76.6566 67.2024 76.6918 67.4494 76.7271 67.5199C76.7977 67.661 77.0446 67.8021 77.8912 67.8021C78.5262 67.8021 79.1259 67.5905 79.5493 67.2024C79.902 66.8497 80.1137 66.2147 80.1137 65.5797C80.1137 64.733 79.7256 64.1686 79.4434 63.8864C78.7732 63.2161 77.9971 63.1456 77.1857 63.1456C77.0446 63.1456 76.8329 63.1809 76.7624 63.1809C76.6918 63.2161 76.6918 63.2514 76.6918 63.322V65.5444H76.6566Z" fill="#87764E"/>
<path d="M82.8651 67.0611C82.8651 67.6255 82.9356 67.8019 83.1473 67.8372C83.2884 67.8725 83.4295 67.8725 83.5001 67.8725C83.5353 67.8725 83.5706 67.9077 83.5706 67.943C83.5706 67.9783 83.5353 68.0136 83.4295 68.0136C83.0415 68.0136 82.7592 67.9783 82.6887 67.9783C82.6181 67.9783 82.3359 68.0136 82.0184 68.0136C81.9479 68.0136 81.9126 68.0136 81.9126 67.943C81.9126 67.9077 81.9479 67.8725 81.9832 67.8725C82.0537 67.8725 82.1595 67.8725 82.2654 67.8372C82.4418 67.8019 82.477 67.5902 82.477 66.9905V63.1101C82.477 62.8279 82.5123 62.7573 82.5829 62.7573C82.6534 62.7573 82.7945 62.8984 82.8651 62.969C82.9709 63.0748 83.9939 64.1684 85.0875 65.2973C85.7931 66.0028 86.5339 66.8142 86.7455 67.0258L86.675 63.6392C86.675 63.2159 86.6397 63.0395 86.428 63.0043C86.2869 62.969 86.1458 62.969 86.0753 62.969C86.04 62.969 86.0047 62.9337 86.0047 62.8984C86.0047 62.8632 86.0753 62.8632 86.1458 62.8632C86.4633 62.8632 86.8161 62.8632 86.8866 62.8632C86.9572 62.8632 87.2041 62.8632 87.4863 62.8632C87.5569 62.8632 87.6274 62.8632 87.6274 62.8984C87.6274 62.9337 87.5922 62.969 87.5569 62.969C87.5216 62.969 87.4863 62.969 87.3805 62.969C87.1336 63.0043 87.1336 63.1454 87.1336 63.5687V67.555C87.1336 68.0136 87.1336 68.0488 87.063 68.0488C86.9925 68.0488 86.9219 67.9783 86.5339 67.6255C86.4633 67.555 85.4403 66.5672 84.6995 65.7911C83.8881 64.9445 83.112 64.0978 82.8651 63.8862V67.0611Z" fill="#87764E"/>
<path d="M91.2963 62.7573C92.8837 62.7573 94.0831 63.7098 94.0831 65.2973C94.0831 66.8142 92.9543 68.0488 91.261 68.0488C89.356 68.0488 88.5094 66.6025 88.5094 65.4031C88.5094 64.3095 89.356 62.7573 91.2963 62.7573ZM91.4727 67.8019C92.1076 67.8019 93.3776 67.4844 93.3776 65.5089C93.3776 63.8862 92.3898 63.0395 91.2963 63.0395C90.1321 63.0395 89.2855 63.7804 89.2855 65.262C89.2502 66.8142 90.2027 67.8019 91.4727 67.8019Z" fill="#87764E"/>
<path d="M100.292 67.0967C100.715 66.1795 101.632 63.8865 101.773 63.3927C101.809 63.2868 101.844 63.181 101.844 63.1457C101.844 63.1105 101.809 63.0399 101.738 63.0046C101.668 62.9694 101.562 62.9694 101.491 62.9694C101.456 62.9694 101.421 62.9341 101.421 62.8988C101.421 62.8635 101.456 62.8282 101.597 62.8282C101.879 62.8282 102.197 62.8282 102.267 62.8282C102.303 62.8282 102.62 62.8282 102.832 62.8282C102.902 62.8282 102.938 62.8282 102.938 62.8635C102.938 62.8988 102.902 62.9341 102.867 62.9341C102.832 62.9341 102.655 62.9341 102.55 63.0046C102.444 63.0752 102.338 63.181 102.162 63.6396C102.091 63.816 101.738 64.6274 101.385 65.474C100.962 66.4618 100.645 67.2026 100.468 67.5201C100.292 67.9434 100.221 68.0139 100.151 68.0139C100.08 68.0139 100.01 67.9434 99.9038 67.5906L98.1753 63.428C97.9989 63.0399 97.9283 62.9694 97.6814 62.9341C97.5756 62.8988 97.4344 62.8988 97.3992 62.8988C97.3639 62.8988 97.3286 62.8635 97.3286 62.8282C97.3286 62.793 97.3992 62.793 97.505 62.793C97.8225 62.793 98.2458 62.793 98.3164 62.793C98.3869 62.793 98.7044 62.793 98.9866 62.793C99.1277 62.793 99.163 62.793 99.163 62.8282C99.163 62.8635 99.1277 62.8988 99.0925 62.8988C99.0219 62.8988 98.9161 62.8988 98.8455 62.9341C98.775 62.9694 98.775 63.0046 98.775 63.0399C98.775 63.1105 98.8455 63.3221 98.9514 63.6043L100.292 67.0967Z" fill="#87764E"/>
<path d="M104.137 64.8034C104.137 63.7451 104.137 63.5687 104.137 63.357C104.137 63.1101 104.067 63.0043 103.855 62.969C103.784 62.969 103.679 62.969 103.608 62.969C103.573 62.969 103.537 62.9337 103.537 62.8984C103.537 62.8632 103.573 62.8279 103.643 62.8279C103.961 62.8279 104.419 62.8279 104.455 62.8279C104.49 62.8279 105.972 62.8279 106.113 62.8279C106.254 62.8279 106.36 62.7926 106.43 62.7926C106.465 62.7926 106.501 62.7573 106.536 62.7573C106.571 62.7573 106.571 62.7926 106.571 62.8279C106.571 62.8632 106.536 62.969 106.501 63.1454C106.501 63.2159 106.465 63.4981 106.465 63.604C106.465 63.6392 106.43 63.6745 106.395 63.6745C106.36 63.6745 106.324 63.6392 106.324 63.604C106.324 63.5687 106.324 63.4276 106.289 63.357C106.254 63.2512 106.183 63.1806 105.795 63.1454C105.689 63.1454 104.878 63.1101 104.772 63.1101C104.737 63.1101 104.737 63.1454 104.737 63.1807V65.015C104.737 65.0503 104.737 65.0856 104.772 65.0856C104.843 65.0856 105.795 65.0856 105.936 65.0856C106.113 65.0856 106.219 65.0503 106.289 64.9798C106.324 64.9445 106.36 64.9092 106.395 64.9092C106.43 64.9092 106.43 64.9092 106.43 64.9798C106.43 65.015 106.395 65.1209 106.36 65.3678C106.36 65.5089 106.324 65.7559 106.324 65.7911C106.324 65.8617 106.324 65.9322 106.254 65.9322C106.219 65.9322 106.219 65.897 106.219 65.8617C106.219 65.7911 106.219 65.7206 106.183 65.65C106.148 65.5442 106.113 65.4736 105.83 65.4384C105.654 65.4031 104.878 65.4031 104.772 65.4031C104.737 65.4031 104.737 65.4384 104.737 65.4384V66.0028C104.737 66.2497 104.737 67.0258 104.737 67.1669C104.737 67.6255 104.878 67.6961 105.584 67.6961C105.76 67.6961 106.113 67.6961 106.289 67.6255C106.465 67.555 106.571 67.4139 106.607 67.1669C106.607 67.0964 106.642 67.0611 106.677 67.0611C106.712 67.0611 106.712 67.1316 106.712 67.1669C106.712 67.2022 106.642 67.6608 106.607 67.8372C106.571 68.0136 106.501 68.0136 106.219 68.0136C105.689 68.0136 105.301 68.0136 104.984 67.9783C104.702 67.9783 104.49 67.9783 104.419 67.9783C104.419 67.9783 104.278 67.9783 104.102 67.9783C103.961 67.9783 103.82 67.9783 103.679 67.9783C103.608 67.9783 103.573 67.9783 103.573 67.9077C103.573 67.8725 103.573 67.8372 103.643 67.8372C103.714 67.8372 103.784 67.8019 103.855 67.8019C103.996 67.7666 103.996 67.6255 104.031 67.4491C104.067 67.1669 104.067 66.6378 104.067 65.9675V64.8034H104.137Z" fill="#87764E"/>
<path d="M108.794 67.3434C108.123 66.7437 107.947 65.9676 107.947 65.3326C107.947 64.874 108.123 64.0979 108.723 63.4982C109.146 63.0749 109.781 62.7574 110.875 62.7574C111.157 62.7574 111.545 62.7927 111.898 62.8279C112.145 62.8632 112.392 62.9338 112.604 62.9338C112.674 62.9338 112.674 62.969 112.674 63.0043C112.674 63.0749 112.674 63.1454 112.639 63.3924C112.639 63.604 112.639 63.9921 112.639 64.0979C112.639 64.2037 112.604 64.239 112.568 64.239C112.533 64.239 112.498 64.2037 112.498 64.0979C112.498 63.851 112.392 63.5688 112.216 63.4276C111.969 63.216 111.475 63.0396 110.84 63.0396C109.923 63.0396 109.499 63.2865 109.252 63.4982C108.723 63.9921 108.617 64.5918 108.617 65.262C108.617 66.5673 109.64 67.7314 111.157 67.7314C111.686 67.7314 112.039 67.6961 112.321 67.4139C112.462 67.2728 112.568 66.9906 112.604 66.8495C112.604 66.7789 112.639 66.7437 112.674 66.7437C112.709 66.7437 112.745 66.7789 112.745 66.8495C112.745 66.8848 112.639 67.4845 112.568 67.7314C112.533 67.8725 112.498 67.8725 112.392 67.9431C112.11 68.0489 111.581 68.0842 111.122 68.0842C110.064 68.0489 109.358 67.802 108.794 67.3434ZM109.958 61.3463C109.993 61.311 109.993 61.311 110.028 61.311C110.064 61.311 110.064 61.311 110.099 61.3463C110.275 61.5227 110.663 61.8402 110.769 61.9107C110.804 61.9107 110.84 61.946 110.84 61.946C110.875 61.946 110.91 61.946 110.981 61.9107C111.157 61.8049 111.475 61.558 111.651 61.4169C111.722 61.3463 111.757 61.3463 111.792 61.3463C111.827 61.3463 111.863 61.3816 111.863 61.4169C111.863 61.4521 111.827 61.4874 111.827 61.4874C111.757 61.558 111.016 62.2282 110.946 62.2988C110.875 62.3693 110.84 62.3693 110.804 62.3693C110.769 62.3693 110.734 62.3341 110.699 62.2988C110.628 62.2635 109.993 61.7696 109.887 61.6991C109.817 61.6638 109.781 61.6285 109.781 61.6285C109.781 61.5932 109.817 61.5932 109.817 61.558L109.958 61.3463Z" fill="#87764E"/>
<path d="M113.909 67.52C113.909 67.3436 114.05 67.0967 114.332 67.0967C114.579 67.0967 114.755 67.2731 114.755 67.52C114.755 67.7669 114.579 67.9786 114.297 67.9786C114.05 67.9433 113.909 67.7317 113.909 67.52Z" fill="#87764E"/>
<path d="M65.7912 23.8474C65.5443 23.3182 65.4737 23.1771 65.0504 23.1066C64.874 23.0713 64.7682 23.0713 64.6976 23.0713C64.5918 23.0713 64.5565 23.036 64.5565 23.0007C64.5565 22.9302 64.6271 22.9302 64.7329 22.9302C65.2621 22.9302 65.9323 22.9655 66.0381 22.9655C66.144 22.9655 66.6731 22.9302 67.0964 22.9302C67.2375 22.9302 67.2728 22.9655 67.2728 23.0007C67.2728 23.0713 67.2375 23.1066 67.0964 23.1066C66.9201 23.1066 66.8495 23.1418 66.7437 23.1771C66.6378 23.2477 66.6378 23.3182 66.6378 23.3888C66.6378 23.4593 66.7084 23.671 66.8142 23.9532L68.825 29.0331C69.3894 27.7631 70.7299 24.4118 70.9416 23.7415C71.0122 23.6004 71.0474 23.4593 71.0474 23.3535C71.0474 23.2829 71.0474 23.2124 70.9416 23.1771C70.8358 23.1418 70.6947 23.1418 70.5888 23.1418C70.5183 23.1418 70.4477 23.1066 70.4477 23.0713C70.4477 23.0007 70.483 22.9655 70.6241 22.9655C71.0474 22.9655 71.5766 23.0007 71.7177 23.0007C71.753 23.0007 72.2116 22.9655 72.4938 22.9655C72.5996 22.9655 72.6702 23.0007 72.6702 23.036C72.6702 23.1066 72.6349 23.1418 72.5291 23.1418C72.388 23.1418 72.2468 23.1418 72.0352 23.2477C71.8941 23.3535 71.7882 23.4946 71.506 24.1296C71.4355 24.2707 70.8711 25.5759 70.3419 26.7754C69.7422 28.1864 69.2483 29.28 69.0719 29.668C68.7545 30.303 68.7192 30.4794 68.6133 30.4794C68.4722 30.4794 68.4017 30.3383 68.2253 29.8444L65.7912 23.8474Z" fill="white"/>
<path d="M76.4801 29.8447C77.5031 29.8447 77.9264 29.7388 78.1028 29.3861C78.2086 29.1744 78.2439 29.0333 78.2792 28.8569C78.3144 28.7511 78.3144 28.6805 78.385 28.6805C78.4556 28.6805 78.4556 28.7511 78.4556 28.8569C78.4556 29.1744 78.3144 29.8094 78.2439 30.0563C78.1733 30.3033 78.1381 30.3386 77.8911 30.3386C76.1978 30.3386 74.5751 30.3033 72.776 30.3033C72.6349 30.3033 72.5996 30.3033 72.5996 30.2327C72.5996 30.1622 72.6349 30.1269 72.7407 29.9505C74.2576 27.7281 75.704 25.6115 77.115 23.389H74.9984C74.3634 23.389 73.8343 23.389 73.4815 23.5301C73.1288 23.6712 73.0229 24.1298 72.9877 24.3768C72.9524 24.5179 72.9171 24.5532 72.8818 24.5532C72.8465 24.5532 72.8113 24.4826 72.8113 24.412C72.8113 24.2709 72.9524 23.3537 73.0229 23.0715C73.0582 22.9304 73.0582 22.8599 73.1288 22.8599C73.2346 22.8599 73.3051 22.9304 73.5874 22.9304C74.6809 22.9657 75.1748 22.9657 75.3159 22.9657H78.1381C78.2792 22.9657 78.385 22.9657 78.385 23.0362C78.385 23.0715 78.3497 23.1421 78.3144 23.2126C76.7975 25.5056 75.4218 27.6222 73.9048 29.8447H76.4801Z" fill="white"/>
<path d="M81.1719 27.481C81.1013 27.481 81.0661 27.5163 81.0661 27.5868L80.5722 29.0332C80.4663 29.3507 80.3605 29.6682 80.3605 29.8446C80.3605 30.0562 80.5016 30.1268 80.7486 30.1268C80.7838 30.1268 80.7838 30.1268 80.8191 30.1268C80.925 30.1268 80.9602 30.162 80.9602 30.1973C80.9602 30.2679 80.8544 30.2679 80.7838 30.2679C80.5369 30.2679 80.0077 30.2326 79.8666 30.2326C79.7608 30.2326 79.2317 30.2679 78.7731 30.2679C78.632 30.2679 78.5967 30.2326 78.5967 30.1973C78.5967 30.162 78.632 30.1268 78.7378 30.1268C78.8083 30.1268 78.9142 30.1268 78.9847 30.1268C79.4786 30.0915 79.6903 29.7034 79.8666 29.2096L82.1596 23.142C82.3007 22.8245 82.336 22.7539 82.4066 22.7539C82.4771 22.7539 82.5124 22.7892 82.6535 23.1067C82.8299 23.4947 84.3821 27.481 84.9818 28.9274C85.3698 29.8446 85.6873 29.9857 85.8637 30.0562C86.0048 30.1268 86.1812 30.1268 86.2517 30.1268C86.3223 30.1268 86.3929 30.162 86.3929 30.1973C86.3929 30.2326 86.3576 30.2679 86.2165 30.2679C86.1106 30.2679 85.2287 30.2679 84.4526 30.2326C84.241 30.2326 84.1704 30.1973 84.1704 30.162C84.1704 30.1268 84.2057 30.0915 84.241 30.0915C84.2762 30.0562 84.3468 30.0209 84.2762 29.8446L83.359 27.5516C83.3238 27.5163 83.3238 27.481 83.2532 27.481H81.1719ZM83.1121 27.093C83.1474 27.093 83.1474 27.0577 83.1474 27.0224L82.2302 24.4825C82.1596 24.3061 82.1596 24.3061 82.0891 24.4825L81.2424 27.0224C81.2072 27.0577 81.2424 27.093 81.2777 27.093H83.1121Z" fill="white"/>
<path d="M88.1214 27.9397C88.1214 29.5977 88.1214 30.2327 87.8039 30.9735C87.5922 31.4674 87.1336 31.926 86.2517 32.5257C86.1106 32.5963 85.9695 32.7374 85.8636 32.7727C85.8636 32.7727 85.8284 32.7727 85.7931 32.7727C85.7578 32.7727 85.7225 32.7727 85.7225 32.7021C85.7225 32.6315 85.7931 32.5963 85.8636 32.561C85.9695 32.4904 86.1106 32.3846 86.1811 32.3141C86.8867 31.6438 87.2042 31.1499 87.2042 28.5394V25.7173C87.2042 24.2004 87.2042 23.9182 87.1689 23.636C87.1336 23.3185 87.0278 23.1774 86.7103 23.0715C86.6397 23.0715 86.4633 23.0362 86.3575 23.0362C86.3222 23.0362 86.287 23.001 86.287 22.9657C86.287 22.8951 86.3575 22.8599 86.4633 22.8599C86.9572 22.8599 87.6275 22.8951 87.6628 22.8951C87.698 22.8951 88.4036 22.8599 88.7211 22.8599C88.8269 22.8599 88.8974 22.8951 88.8974 22.9657C88.8974 23.001 88.8622 23.0362 88.8269 23.0362C88.7563 23.0362 88.6858 23.0362 88.58 23.0715C88.333 23.1421 88.2272 23.3185 88.1919 23.636C88.1566 23.9534 88.1566 24.2004 88.1566 25.7173V27.9397H88.1214Z" fill="white"/>
<path d="M90.8026 25.7527C90.8026 24.2358 90.8026 23.9536 90.7673 23.6714C90.732 23.3539 90.6615 23.1775 90.344 23.1069C90.2734 23.1069 90.1676 23.0716 90.0618 23.0716C89.9912 23.0716 89.9207 23.0364 89.9207 23.0011C89.9207 22.9305 89.9912 22.8953 90.097 22.8953C90.344 22.8953 90.6262 22.9305 91.2965 22.9305C91.367 22.9305 93.4131 22.9305 93.6247 22.9305C93.8717 22.9305 93.9775 22.8953 94.0833 22.86C94.1539 22.8247 94.1539 22.8247 94.2244 22.8247C94.2597 22.8247 94.2597 22.86 94.2597 22.8953C94.2597 22.9658 94.1892 23.1422 94.1539 23.4244C94.1539 23.6361 94.1186 23.8125 94.1186 24.0241C94.1186 24.1299 94.0833 24.2005 94.0481 24.2005C94.0128 24.2005 93.9775 24.1652 93.9775 24.0594C93.9775 23.883 93.9422 23.7772 93.907 23.7066C93.8364 23.4597 93.7306 23.3891 93.1661 23.3539C93.025 23.3539 91.8962 23.3186 91.8609 23.3186C91.8256 23.3186 91.7903 23.3539 91.7903 23.4244V26.0349C91.7903 26.1055 91.7903 26.1407 91.8609 26.1407C92.002 26.1407 93.1661 26.1407 93.4131 26.1055C93.66 26.1055 93.8364 26.0702 93.9422 25.9291C93.9775 25.8585 94.0128 25.8232 94.0833 25.8232C94.1186 25.8232 94.1186 25.8232 94.1186 25.8938C94.1186 25.9643 94.0833 26.176 94.0481 26.4935C94.0128 26.811 94.0128 27.0579 94.0128 27.199C94.0128 27.3049 93.9775 27.3401 93.9422 27.3401C93.8717 27.3401 93.8717 27.2696 93.8717 27.199C93.8717 27.1285 93.8717 27.0226 93.8364 26.9168C93.8011 26.7757 93.7306 26.5993 93.272 26.5641C93.025 26.5288 92.0725 26.5288 91.8962 26.5288C91.8256 26.5288 91.8256 26.564 91.8256 26.5993V27.446C91.8256 27.7987 91.8256 28.8218 91.8256 28.9981C91.8609 29.4215 91.8962 29.6331 92.1431 29.739C92.3195 29.8095 92.6017 29.8448 92.9897 29.8448C93.2014 29.8448 93.5895 29.8448 93.8717 29.7742C94.2244 29.6684 94.295 29.4567 94.4008 28.9981C94.4361 28.8923 94.4714 28.8218 94.5067 28.8218C94.5772 28.8218 94.5772 28.9276 94.5772 28.9981C94.5772 29.0687 94.4714 29.8095 94.4361 29.9859C94.4008 30.2328 94.295 30.2328 93.9422 30.2328C93.1661 30.2328 92.8486 30.1976 92.4606 30.1976C92.0725 30.1976 91.5434 30.1623 91.1201 30.1623C90.8731 30.1623 90.6262 30.1976 90.344 30.1976C90.2382 30.1976 90.1676 30.1623 90.1676 30.127C90.1676 30.0917 90.2029 30.0565 90.2734 30.0565C90.344 30.0565 90.4145 30.0565 90.5204 30.0212C90.732 29.9859 90.8731 29.8095 90.8731 29.104C90.8731 28.7159 90.9084 28.2573 90.9084 27.3754V25.7527H90.8026Z" fill="white"/>
<path d="M104.031 29.0333C104.067 29.3155 104.137 29.9505 104.596 30.0563C104.807 30.0916 105.019 30.1269 105.195 30.1269C105.231 30.1269 105.337 30.1269 105.337 30.1974C105.337 30.268 105.301 30.3033 105.16 30.3033C104.949 30.3033 103.714 30.268 103.361 30.2327C103.114 30.1974 103.008 30.1974 103.008 30.1269C103.008 30.0916 103.044 30.0563 103.114 30.0211C103.185 29.9858 103.22 29.8447 103.185 29.7036L102.656 24.8001L100.221 29.7388C100.01 30.1974 99.9745 30.3033 99.8687 30.3033C99.7981 30.3033 99.7276 30.1974 99.5159 29.8094C99.3395 29.4919 98.4223 27.6222 98.3518 27.5164C98.2812 27.3753 97.1524 25.1529 97.0818 24.9059L96.6585 29.3155C96.6585 29.4919 96.6585 29.5625 96.6585 29.7388C96.6585 29.8799 96.729 30.0211 96.9407 30.0916C97.0818 30.1269 97.1524 30.1269 97.2582 30.1269C97.364 30.1269 97.364 30.1622 97.364 30.1974C97.364 30.268 97.2935 30.3033 97.1524 30.3033C96.7996 30.3033 96.3057 30.268 96.1999 30.268C96.0941 30.268 95.6002 30.3033 95.318 30.3033C95.2122 30.3033 95.1416 30.3033 95.1416 30.1974C95.1416 30.1622 95.1769 30.1269 95.2827 30.1269C95.3533 30.1269 95.3885 30.1269 95.4944 30.1269C95.7766 30.0916 95.8824 29.8447 95.9177 29.3508L96.6938 23.0362C96.7291 22.8246 96.7643 22.754 96.8349 22.754C96.9054 22.754 96.9407 22.7893 97.0113 22.9304L100.08 28.8922L103.008 22.9304C103.079 22.7893 103.114 22.7188 103.185 22.7188C103.255 22.7188 103.291 22.8246 103.291 23.001L104.031 29.0333Z" fill="white"/>
<path d="M106.677 29.3863C105.689 28.5397 105.442 27.4108 105.442 26.4583C105.442 25.8234 105.689 24.6592 106.607 23.8126C107.242 23.2129 108.159 22.7896 109.711 22.7896C110.24 22.7896 110.663 22.8248 111.228 22.9307C111.581 23.0012 111.969 23.0365 112.251 23.0718C112.357 23.0718 112.357 23.1423 112.357 23.1776C112.357 23.2834 112.321 23.3893 112.286 23.742C112.286 24.0595 112.286 24.6592 112.251 24.8003C112.251 24.9767 112.216 25.012 112.145 25.012C112.074 25.012 112.039 24.9414 112.039 24.8003C112.039 24.4828 111.863 24.0242 111.581 23.8126C111.228 23.5304 110.416 23.2129 109.534 23.2129C108.265 23.2129 107.665 23.5656 107.312 23.8831C106.571 24.5534 106.395 25.4 106.395 26.3878C106.395 28.2927 107.947 29.986 109.958 29.986C110.734 29.986 111.298 29.9155 111.722 29.5274C111.933 29.3158 112.039 29.0335 112.11 28.7161C112.145 28.6102 112.18 28.5397 112.251 28.5397C112.321 28.5397 112.321 28.6102 112.321 28.7161C112.321 28.8219 112.18 29.7391 112.074 29.986C112.004 30.1624 111.969 30.1977 111.827 30.2682C111.439 30.4446 110.663 30.5152 110.028 30.5152C108.547 30.4446 107.488 30.0919 106.677 29.3863Z" fill="white"/>
<path d="M114.085 25.7523C114.085 24.2354 114.085 23.9532 114.05 23.6357C114.015 23.3182 113.944 23.1418 113.732 23.1066C113.627 23.0713 113.521 23.0713 113.485 23.0713C113.415 23.0713 113.344 23.036 113.344 23.0007C113.344 22.9302 113.38 22.9302 113.521 22.9302C113.874 22.9302 114.544 22.9655 114.579 22.9655C114.614 22.9655 115.285 22.9302 115.602 22.9302C115.708 22.9302 115.778 22.9655 115.778 23.0007C115.778 23.036 115.743 23.0713 115.637 23.0713C115.567 23.0713 115.496 23.0713 115.426 23.1066C115.108 23.1418 115.073 23.3182 115.038 23.671C115.002 23.9885 115.038 24.2354 115.038 25.7523V27.4809C115.038 28.3628 115.038 29.1742 115.073 29.5975C115.108 29.915 115.179 30.0561 115.461 30.1266C115.602 30.1619 115.849 30.1619 115.884 30.1619C115.99 30.1619 116.025 30.1972 116.025 30.2325C116.025 30.2678 115.99 30.303 115.849 30.303C115.249 30.303 114.579 30.2678 114.544 30.2678C114.508 30.2678 113.838 30.303 113.521 30.303C113.415 30.303 113.344 30.2678 113.344 30.2325C113.344 30.1972 113.38 30.1619 113.485 30.1619C113.556 30.1619 113.662 30.1619 113.768 30.1266C113.979 30.0914 114.015 29.8444 114.015 29.5622C114.085 29.1389 114.085 28.3275 114.085 27.4809V25.7523Z" fill="white"/>
<path d="M66.144 42.2267C66.144 39.0518 66.144 38.4873 66.1087 37.8524C66.0734 37.2174 65.9323 36.8293 65.4032 36.7588C65.1562 36.7235 64.9798 36.7235 64.8387 36.6882C64.6624 36.6529 64.5918 36.6177 64.5918 36.5118C64.5918 36.406 64.6976 36.3354 64.9446 36.3354C65.6854 36.3354 67.0612 36.406 67.1317 36.406C67.2376 36.406 68.6133 36.3354 69.2836 36.3354C69.5305 36.3354 69.6364 36.3707 69.6364 36.5118C69.6364 36.6177 69.5658 36.6529 69.3894 36.6882C69.2483 36.7235 69.1425 36.7235 68.9661 36.7235C68.2606 36.8293 68.19 37.1821 68.1548 37.8876C68.1195 38.5226 68.1195 39.087 68.1195 42.262V45.8602C68.1195 47.6946 68.0842 49.3879 68.2253 50.2345C68.3311 50.9401 68.4017 51.187 69.0367 51.3281C69.3542 51.3987 69.848 51.4339 69.9539 51.4339C70.1655 51.4692 70.2008 51.5045 70.2008 51.6103C70.2008 51.7162 70.095 51.7867 69.848 51.7867C68.6133 51.7867 67.2376 51.7162 67.0964 51.7162C67.0259 51.7162 65.6148 51.7867 64.9446 51.7867C64.7329 51.7867 64.5565 51.7514 64.5565 51.6103C64.5565 51.5045 64.6623 51.4339 64.874 51.4339C64.9798 51.4339 65.2621 51.3987 65.4384 51.3634C65.8618 51.2576 65.9323 50.799 66.0029 50.1992C66.1087 49.3526 66.1087 47.624 66.1087 45.8249V42.2267H66.144Z" fill="white"/>
<path d="M73.2699 37.0415C73.2699 36.3006 73.3405 36.0537 73.5169 36.0537C73.6933 36.0537 74.0813 36.5476 74.2577 36.6887C74.4694 36.9356 77.8207 40.3222 81.172 43.7793C83.0416 45.6137 85.4404 48.0831 86.0754 48.6475L85.8285 38.6642C85.7932 37.359 85.6521 36.9356 85.0171 36.7592C84.5938 36.6887 84.241 36.6534 84.0646 36.6534C83.8177 36.6534 83.7824 36.5476 83.7824 36.477C83.7824 36.3712 83.9588 36.3359 84.2058 36.3359C85.2288 36.3359 86.2518 36.4065 86.4635 36.4065C86.7104 36.4065 87.4512 36.3359 88.3684 36.3359C88.6154 36.3359 88.7212 36.3712 88.7212 36.477C88.7212 36.5829 88.6506 36.6534 88.5095 36.6534C88.3684 36.6887 88.1568 36.6887 87.9098 36.724C87.3454 36.8298 87.2043 37.0767 87.2043 38.5231L87.169 50.5525C87.169 51.7519 87.1337 51.8577 86.9573 51.8577C86.781 51.8577 86.534 51.6813 85.3699 50.5878C85.2641 50.5525 81.948 47.2365 79.8667 45.1904C77.3621 42.6152 74.9632 40.1105 74.3635 39.4756L74.681 48.8592C74.7163 50.5172 74.8574 51.1522 75.4571 51.2933C75.8452 51.3991 76.2332 51.3991 76.4449 51.3991C76.6565 51.3991 76.7271 51.4697 76.7271 51.5755C76.7271 51.6813 76.6212 51.7519 76.339 51.7519C75.0338 51.7519 74.1871 51.6813 74.0108 51.6813C73.8344 51.6813 72.9525 51.7519 71.9294 51.7519C71.7178 51.7519 71.5767 51.7166 71.5767 51.5755C71.5767 51.4697 71.6825 51.3991 71.9294 51.3991C72.1058 51.3991 72.3528 51.3991 72.6702 51.2933C73.1994 51.1169 73.3052 50.4819 73.3052 48.7181C73.2699 37.3237 73.3052 41.0277 73.2699 37.0415Z" fill="white"/>
<path d="M91.0495 38.311C90.5556 37.1821 90.4145 36.8999 89.5326 36.7588C89.1798 36.7235 88.9328 36.6882 88.827 36.6882C88.6506 36.6882 88.5448 36.6177 88.5448 36.5118C88.5448 36.406 88.7212 36.3354 88.9328 36.3354C90.0264 36.3354 91.4375 36.406 91.6844 36.406C91.8961 36.406 93.025 36.3354 93.9069 36.3354C94.1891 36.3354 94.2949 36.3707 94.2949 36.4766C94.2949 36.5824 94.1891 36.6529 93.9421 36.6529C93.5894 36.6529 93.3777 36.6882 93.2013 36.7588C92.9897 36.8646 92.9897 37.0057 92.9897 37.1821C92.9897 37.3585 93.1308 37.8171 93.3777 38.3815L97.6109 48.9998C98.8103 46.3541 101.562 39.3693 101.985 37.9582C102.091 37.6407 102.162 37.3232 102.162 37.1821C102.162 37.041 102.126 36.8646 101.95 36.794C101.774 36.7235 101.456 36.6882 101.174 36.6882C100.997 36.6882 100.856 36.6529 100.856 36.5471C100.856 36.4413 100.927 36.3707 101.209 36.3707C102.056 36.3707 103.22 36.4413 103.502 36.4413C103.608 36.4413 104.56 36.3707 105.16 36.3707C105.407 36.3707 105.513 36.406 105.513 36.5118C105.513 36.6177 105.407 36.6882 105.266 36.6882C104.984 36.6882 104.666 36.6882 104.243 36.9352C103.996 37.1115 103.679 37.429 103.114 38.8048C103.008 39.087 101.809 41.8386 100.715 44.308C99.4453 47.2713 98.4576 49.529 98.0695 50.3404C97.4345 51.6456 97.364 52.0336 97.1171 52.0336C96.8348 52.0336 96.6937 51.7514 96.3057 50.6931L91.0495 38.311Z" fill="white"/>
<path d="M107.347 42.2267C107.347 39.087 107.347 38.5226 107.312 37.8523C107.277 37.1821 107.1 36.8293 106.395 36.6882C106.254 36.6529 106.007 36.6529 105.83 36.6529C105.654 36.6529 105.513 36.5824 105.513 36.5118C105.513 36.3707 105.619 36.3354 105.866 36.3354C106.359 36.3354 106.994 36.3707 108.335 36.406C108.441 36.406 112.709 36.406 113.203 36.3707C113.697 36.3354 113.944 36.3354 114.156 36.2649C114.297 36.2296 114.332 36.1943 114.403 36.1943C114.438 36.1943 114.508 36.2296 114.508 36.3707C114.508 36.5118 114.367 36.8646 114.332 37.4643C114.297 37.8876 114.297 38.2404 114.261 38.699C114.261 38.9107 114.226 39.0518 114.085 39.0518C113.944 39.0518 113.909 38.9459 113.909 38.8048C113.873 38.4521 113.803 38.2051 113.732 38.0287C113.591 37.5349 113.38 37.3938 112.18 37.3232C111.863 37.2879 109.499 37.2879 109.429 37.2879C109.358 37.2879 109.323 37.3232 109.323 37.4643V42.8969C109.323 43.038 109.358 43.1439 109.464 43.1439C109.746 43.1439 112.215 43.1086 112.709 43.0733C113.274 43.038 113.626 42.9675 113.803 42.7206C113.909 42.5794 113.979 42.5442 114.05 42.5442C114.085 42.5442 114.156 42.5794 114.156 42.6853C114.156 42.7911 114.05 43.2497 113.979 43.9552C113.909 44.6255 113.909 45.1194 113.873 45.4016C113.838 45.578 113.803 45.6485 113.697 45.6485C113.591 45.6485 113.556 45.5074 113.556 45.331C113.556 45.1899 113.521 44.943 113.485 44.7666C113.38 44.4491 113.238 44.1316 112.321 44.0611C111.757 44.0258 109.817 43.9552 109.429 43.9552C109.287 43.9552 109.252 44.0258 109.252 44.1316V45.8955C109.252 46.6363 109.217 48.7529 109.252 49.1409C109.287 50.0229 109.429 50.4815 109.922 50.6931C110.275 50.8695 110.875 50.9048 111.686 50.9048C112.145 50.9048 112.921 50.9401 113.521 50.7637C114.226 50.552 114.403 50.0581 114.614 49.1762C114.65 48.9293 114.72 48.8234 114.826 48.8234C114.967 48.8234 114.967 49.0351 114.967 49.1762C114.967 49.3526 114.791 50.8695 114.72 51.2575C114.614 51.7514 114.473 51.7867 113.662 51.7867C112.074 51.7867 111.404 51.7514 110.557 51.7514C109.711 51.7161 108.617 51.6809 107.735 51.6809C107.171 51.6809 106.712 51.7514 106.148 51.7514C105.936 51.7514 105.795 51.7161 105.795 51.575C105.795 51.4692 105.901 51.3987 106.007 51.3987C106.148 51.3987 106.324 51.3634 106.501 51.3281C106.924 51.2223 107.206 50.9048 107.277 49.4232C107.312 48.6118 107.312 47.624 107.312 45.7896V42.2267H107.347Z" fill="white"/>
<path d="M117.719 51.5047C117.401 51.3636 117.401 51.2578 117.401 50.6933C117.401 49.5998 117.472 48.7884 117.507 48.4356C117.542 48.224 117.578 48.0829 117.683 48.0829C117.789 48.0829 117.86 48.1534 117.86 48.3298C117.86 48.4709 117.86 48.7531 117.93 49.0353C118.248 50.5875 119.659 51.1872 121.035 51.1872C123.01 51.1872 123.998 49.8114 123.998 48.612C123.998 47.2362 123.363 46.3896 121.634 44.9785L120.682 44.2377C118.389 42.4033 117.895 41.1333 117.895 39.687C117.895 37.4645 119.659 35.9829 122.34 35.9829C123.187 35.9829 123.751 36.0535 124.28 36.1593C124.739 36.2651 124.915 36.2651 125.091 36.2651C125.268 36.2651 125.303 36.3004 125.303 36.4062C125.303 36.5121 125.197 37.3587 125.197 38.7345C125.197 39.0873 125.162 39.2284 125.021 39.2284C124.915 39.2284 124.88 39.1225 124.845 38.9814C124.809 38.7698 124.774 38.2759 124.562 37.8526C124.456 37.6409 123.892 36.7237 121.881 36.7237C120.435 36.7237 119.377 37.5704 119.377 39.0167C119.377 40.1456 119.941 40.8511 121.952 42.368L122.516 42.7913C125.021 44.6963 125.656 45.9662 125.656 47.6948C125.656 48.5415 125.303 50.0936 123.822 51.1167C122.869 51.7164 121.74 51.9633 120.576 51.9633C119.553 52.0339 118.601 51.8928 117.719 51.5047Z" fill="white"/>
<path d="M134.687 45.825C134.687 47.6594 134.722 49.388 134.793 50.2699C134.863 50.8343 134.899 51.1871 135.498 51.3282C135.78 51.3988 136.239 51.434 136.451 51.434C136.627 51.434 136.733 51.5046 136.733 51.5751C136.733 51.681 136.662 51.7515 136.415 51.7515C135.181 51.7515 133.77 51.681 133.664 51.681C133.558 51.681 132.147 51.7515 131.512 51.7515C131.265 51.7515 131.159 51.7163 131.159 51.5751C131.159 51.5046 131.23 51.3988 131.406 51.3988C131.583 51.3988 131.759 51.3988 131.935 51.3635C132.394 51.2929 132.464 51.0107 132.57 50.1994C132.676 49.3527 132.676 47.6241 132.676 45.825V37.2528C131.9 37.2528 130.63 37.2528 129.642 37.288C128.09 37.3233 127.773 37.535 127.42 38.0641C127.208 38.4169 127.102 38.6991 127.067 38.8049C126.997 38.9813 126.961 38.9813 126.855 38.9813C126.75 38.9813 126.75 38.8755 126.75 38.7697C126.714 38.6286 127.102 37.0411 127.243 36.4061C127.314 36.1239 127.385 36.0181 127.455 36.0181C127.631 36.0181 128.09 36.2297 128.513 36.265C129.36 36.3708 130.03 36.3708 130.066 36.3708H137.932C138.603 36.3708 139.308 36.3356 139.661 36.265C139.978 36.1945 140.049 36.1592 140.12 36.1592C140.225 36.1592 140.261 36.265 140.261 36.3708C140.261 37.0411 140.225 38.6286 140.225 38.8049C140.225 39.0166 140.12 39.0872 140.049 39.0872C139.943 39.0872 139.873 38.9813 139.873 38.8049C139.873 38.7344 139.873 38.6991 139.837 38.4522C139.731 37.4997 139.414 37.2528 137.015 37.2175C136.098 37.2175 135.357 37.1822 134.652 37.1822V45.825H134.687Z" fill="white"/>
<path fill-rule="evenodd" clip-rule="evenodd" d="M31.9609 27.516C31.855 27.516 31.7845 27.516 31.6787 27.516L29.4915 26.4224L24.2 27.9746L18.6615 27.5865L16.6507 28.4332C16.6507 28.4332 13.4758 27.6571 10.1598 25.7521C9.77175 26.3166 9.2426 27.1279 8.71345 28.151C8.21957 29.1034 7.79625 29.9501 7.47876 30.5851C7.90208 30.9025 8.3254 31.1495 8.71345 31.3611C10.8653 32.3489 11.8178 32.4194 12.0295 32.4194C12.0647 32.4194 12.0647 32.4194 12.0647 32.4194L10.5831 33.5483C10.5831 33.5483 13.0878 35.1358 14.1461 35.3827C14.64 35.4885 15.0633 35.5238 15.3455 35.5238C15.6983 35.5238 15.9452 35.4885 15.9452 35.4885L15.7335 36.1235L18.8732 43.8844L18.5204 49.8815L17.8149 51.1162L18.2029 52.5272C18.2029 52.5272 20.0373 54.6438 23.7061 54.6438C25.2583 54.6438 27.1632 54.2558 29.3857 53.1622C29.809 51.4689 30.7615 45.0838 30.7615 45.0838L35.2063 38.734L33.76 34.7477L38.981 32.5958L39.7218 31.9256L37.6052 30.7262L40.9917 28.1157C40.9917 28.1157 41.2387 19.7551 28.8918 16.1216C28.1863 15.9099 27.4102 15.7335 26.6341 15.5571C27.3396 15.8393 27.9746 16.1568 28.5743 16.5449C33.5131 19.614 33.9364 25.1877 33.9364 25.1877C33.9364 25.1877 34.3597 27.516 31.9609 27.516Z" fill="#87764E"/>
<path fill-rule="evenodd" clip-rule="evenodd" d="M28.3978 62.8285C28.2567 62.7227 26.2459 59.0186 26.2459 59.0186C26.2459 59.0186 25.9637 57.4312 25.7873 55.5968C25.0817 55.7379 24.4115 55.8084 23.7412 55.8084C19.6491 55.8084 17.4972 53.4096 17.4267 53.3038L17.2503 53.0921L17.1797 52.8452L16.7917 51.4341L16.6506 50.9402L16.8975 50.4816L17.462 49.4939L17.7794 44.0612L14.7809 36.6531C14.4987 36.6178 14.2165 36.5826 13.9343 36.512C12.7701 36.2298 10.4771 34.8187 10.0185 34.5365L8.5722 33.6193L9.45412 32.949C9.10135 32.8079 8.7133 32.6316 8.28998 32.4552H8.25471H8.21943C7.83138 32.2435 7.40806 31.9966 6.98474 31.7144C6.94946 31.8202 6.91419 31.8555 6.91419 31.8555C5.43256 35.7359 5.43256 39.5458 6.06754 42.5091L4.83285 44.4846L4.09204 46.6012L5.99699 50.4464L8.92496 59.83C8.92496 59.83 7.69028 61.2411 7.51389 61.9466L7.12585 64.804H17.9911C17.9911 64.804 17.6383 61.9466 17.0034 60.6766C16.3684 59.4067 14.7456 58.3484 14.7456 58.3484L12.0999 51.8927C12.241 52.0338 12.4174 52.1749 12.5585 52.3513C13.6168 53.4449 17.0739 57.2548 17.7794 58.2778C18.485 59.3361 21.3424 62.8638 20.9896 65.9329C20.9896 65.9329 19.9313 67.0617 19.3316 68.7197C18.9789 69.7075 18.9436 71.9652 18.9436 71.9652H33.8657C33.8657 71.9652 32.4899 66.1093 32.2782 65.7918C31.3257 64.4513 28.5389 62.9344 28.3978 62.8285Z" fill="#87764E"/>
<path fill-rule="evenodd" clip-rule="evenodd" d="M49.8814 53.7269C50.0931 50.9047 52.2097 48.6117 52.2097 48.6117C52.2097 48.6117 52.7036 44.0963 52.7036 43.3908C52.7036 43.3908 49.4581 40.4981 48.682 39.7925C48.6115 38.6284 47.659 37.7817 47.659 37.7817C47.6237 37.4995 47.8354 36.0532 46.636 31.9258C44.4841 24.6588 39.9334 18.2031 38.8398 16.8979C37.7815 15.5926 32.7722 9.8425 28.5742 8.57254C26.8104 9.10169 24.341 10.9361 21.9775 12.9469C21.0603 11.1477 20.1783 9.56029 18.3792 9.38391C15.3454 9.13697 13.4757 13.7582 9.70113 13.0527C7.26702 10.1247 10.8653 8.50199 10.7242 5.4329C10.5478 0.635254 3.31602 -2.22217 0 2.18743C1.34052 2.68131 3.8099 1.72884 4.83292 3.28102C3.70407 5.96205 5.50318 7.30257 6.56149 8.71365C5.96178 10.2658 6.20872 12.9116 6.56149 14.5343C9.80696 18.5206 15.0279 14.7107 17.9912 13.088C18.732 13.5466 19.0848 14.4285 19.367 15.381C18.9437 15.8043 17.7795 16.8979 17.7795 16.8979C15.9451 18.697 14.6752 20.0728 14.6752 20.0728C14.6752 20.0728 12.7702 22.1541 10.7947 24.8352C13.2641 26.2109 15.6629 26.9518 16.5096 27.1987L18.1676 26.4932L18.4145 26.3873L18.6614 26.4226L24.0235 26.8107L29.1387 25.329L29.562 25.2232L29.95 25.3996L31.9255 26.3873C32.1372 26.3873 32.49 26.3521 32.6311 26.1757C32.8074 25.964 32.8074 25.5407 32.7722 25.3996V25.3643V25.2938C32.7722 25.2232 32.3136 20.0728 27.5865 17.3565C27.4454 17.1801 21.8716 14.111 21.8716 14.111C21.8716 14.111 24.6585 14.0404 26.8457 14.3932C27.7629 14.5343 28.3978 14.7107 28.4331 14.7107C34.0069 16.1923 37.9579 18.7323 40.2861 22.2952C42.2264 25.329 42.1558 27.9748 42.1558 28.0806L42.1205 28.645L41.6619 28.9978L39.6864 30.5147L40.2156 30.8322L41.6619 31.6436L40.4272 32.7724L39.6864 33.4427L39.5453 33.5838L39.3689 33.6544L35.171 35.3829L36.2293 38.2756L36.441 38.8753L36.0882 39.4045L31.8197 45.5426C31.6433 46.8126 30.8319 51.8925 30.4439 53.4447L30.3381 53.9738L29.8795 54.2207C29.5267 54.3971 29.1739 54.5735 28.8212 54.7146C30.2322 55.1732 30.8319 56.2315 30.8319 56.2315L39.757 50.0581L43.7785 51.1164L43.6021 53.7621C43.6021 53.7621 40.8153 54.5382 39.9334 57.819C39.0514 61.0997 43.3552 64.7332 43.3552 64.7332C43.3552 64.7332 45.8951 66.9204 47.9412 66.0385C51.8922 64.3099 51.4336 59.8298 51.4336 59.8298L52.3155 58.0659C52.3508 57.9954 49.6345 57.0429 49.8814 53.7269Z" fill="#87764E"/>
<path fill-rule="evenodd" clip-rule="evenodd" d="M26.634 15.522C33.4072 18.203 33.9363 25.1173 33.9363 25.1173C33.9363 25.1173 34.3949 27.6925 31.6786 27.5161L29.4914 26.4225L24.1999 27.9747L18.6615 27.5866L16.6507 28.4333C16.6507 28.4333 4.40963 25.47 2.71634 16.7214C1.44637 25.6817 5.64432 29.7738 8.7134 31.3965C11.1475 32.5254 12.0647 32.4548 12.0647 32.4548L10.5831 33.5484C10.5831 33.5484 13.0877 35.1359 14.146 35.3828C15.1691 35.6298 15.9451 35.4887 15.9451 35.4887L15.7335 36.1236L18.8731 43.8845L18.5204 49.8816L17.8148 51.1163L18.2029 52.5274C18.2029 52.5274 21.9775 56.8311 29.3503 53.1271C29.7737 51.4338 30.7261 45.0487 30.7261 45.0487L35.171 38.6988L33.7247 34.7126L38.9456 32.5607L39.6864 31.8904L37.5698 30.691L40.9564 28.0805C41.027 28.0805 41.3092 18.7322 26.634 15.522Z" fill="#87764E"/>
</g>
<defs>
<clipPath id="clip0">
<rect width="142" height="72" fill="white"/>
</clipPath>
</defs>
</svg>
