<svg width="24" height="32" viewBox="0 0 24 32" fill="none" xmlns="http://www.w3.org/2000/svg">
  <path fill-rule="evenodd" clip-rule="evenodd" d="M14.554 12.236h-.128l-.996-.486-2.41.69-2.522-.173-.916.377s-1.445-.345-2.955-1.192a9.83 9.83 0 00-.659 1.066c-.225.424-.418.8-.562 1.083.193.14.385.25.562.345.98.439 1.414.47 1.51.47h.016l-.675.502s1.141.706 1.623.816c.225.047.418.063.546.063.16 0 .273-.016.273-.016l-.096.282 1.43 3.451-.161 2.667-.321.549.176.627s.836.941 2.506.941c.707 0 1.575-.172 2.587-.658.192-.753.626-3.593.626-3.593l2.024-2.823-.658-1.772 2.377-.957.337-.298-.963-.534 1.542-1.16s.112-3.718-5.51-5.334a16.34 16.34 0 00-1.028-.25c.32.125.61.266.883.439 2.25 1.364 2.442 3.843 2.442 3.843s.193 1.035-.9 1.035z" fill="#87764E"/>
  <path fill-rule="evenodd" clip-rule="evenodd" d="M12.932 27.938c-.065-.048-.98-1.695-.98-1.695s-.129-.705-.209-1.521a4.82 4.82 0 01-.932.094c-1.863 0-2.843-1.067-2.875-1.114l-.08-.094-.033-.11-.176-.627-.065-.22.113-.204.257-.439.144-2.415-1.365-3.294a3.285 3.285 0 01-.386-.063c-.53-.126-1.574-.753-1.783-.879l-.658-.407.401-.298c-.16-.063-.337-.142-.53-.22h-.032a7.458 7.458 0 01-.562-.33c-.016.048-.032.063-.032.063a8.246 8.246 0 00-.386 4.737l-.562.879-.337.941.867 1.71 1.333 4.172s-.562.628-.642.941l-.177 1.27h4.948s-.16-1.27-.45-1.834c-.29-.565-1.028-1.036-1.028-1.036l-1.205-2.87c.064.063.145.125.209.204.482.486 2.056 2.18 2.377 2.635.322.47 1.623 2.04 1.462 3.404 0 0-.482.502-.755 1.239-.16.44-.176 1.443-.176 1.443h6.795s-.627-2.604-.723-2.745c-.434-.596-1.703-1.27-1.767-1.317zM22.715 23.89c.096-1.255 1.06-2.274 1.06-2.274S24 19.608 24 19.294c0 0-1.478-1.286-1.831-1.6-.032-.518-.466-.894-.466-.894-.016-.126.08-.769-.466-2.604-.98-3.231-3.052-6.102-3.55-6.682-.482-.58-2.763-3.137-4.675-3.702-.803.235-1.928 1.051-3.004 1.945-.418-.8-.82-1.506-1.639-1.584-1.381-.11-2.232 1.945-3.951 1.631-1.109-1.302.53-2.023.466-3.388C4.804.283 1.51-.988 0 .973c.61.22 1.735-.204 2.2.486-.513 1.192.306 1.788.788 2.416-.273.69-.16 1.866 0 2.588 1.478 1.772 3.855.078 5.205-.643.337.204.498.596.626 1.02-.192.188-.723.674-.723.674-.835.8-1.413 1.412-1.413 1.412s-.868.925-1.767 2.117c1.124.612 2.217.941 2.602 1.051l.755-.314.113-.047.112.016 2.442.173 2.33-.66.192-.046.177.078.9.44c.095 0 .256-.016.32-.095.08-.094.08-.282.065-.345v-.046c0-.032-.21-2.322-2.362-3.53-.064-.079-2.602-1.443-2.602-1.443s1.269-.032 2.265.125c.418.063.707.141.723.141 2.538.66 4.337 1.789 5.397 3.373.884 1.349.852 2.525.852 2.572l-.016.251-.21.157-.899.675.241.14.659.362-.562.502-.338.297-.064.063-.08.032-1.912.768.482 1.287.096.266-.16.235-1.944 2.73c-.08.564-.45 2.823-.627 3.513l-.048.236-.209.11c-.16.078-.32.156-.482.22.643.203.916.674.916.674l4.064-2.745 1.832.47-.08 1.177s-1.27.345-1.671 1.803c-.402 1.46 1.558 3.075 1.558 3.075s1.157.972 2.088.58c1.8-.768 1.59-2.76 1.59-2.76l.402-.785c.016-.031-1.22-.455-1.108-1.93z" fill="#87764E"/>
  <path fill-rule="evenodd" clip-rule="evenodd" d="M12.128 6.902c3.085 1.192 3.326 4.267 3.326 4.267s.209 1.145-1.028 1.066l-.996-.486-2.41.69-2.522-.172-.916.376s-5.574-1.317-6.345-5.207c-.578 3.984 1.333 5.803 2.73 6.525 1.11.502 1.527.47 1.527.47l-.675.487s1.14.706 1.623.816c.466.11.819.046.819.046l-.096.283 1.43 3.45-.161 2.667-.322.55.177.627s1.719 1.913 5.076.267c.193-.753.627-3.593.627-3.593l2.024-2.823-.659-1.772 2.378-.957.337-.298-.964-.534 1.543-1.16c.032 0 .16-4.157-6.523-5.585z" fill="#87764E"/>
</svg>
