<svg width="142" height="72" viewBox="0 0 142 72" fill="none" xmlns="http://www.w3.org/2000/svg">
  <g clip-path="url(#clip0)">
    <path d="M67.555 67.097c.423-.918 1.34-3.21 1.482-3.705.035-.105.07-.211.07-.247 0-.035-.035-.105-.106-.14-.07-.036-.176-.036-.247-.036-.035 0-.07-.035-.07-.07 0-.036.035-.071.176-.071H70.095c.07 0 .106 0 .106.035 0 .036-.035.07-.07.07-.036 0-.212 0-.318.071-.106.071-.212.177-.388.635-.07.177-.424.988-.776 1.835-.424.987-.741 1.728-.918 2.046-.176.423-.246.494-.317.494-.07 0-.141-.07-.247-.424l-1.729-4.162c-.176-.388-.246-.459-.493-.494-.106-.035-.247-.035-.283-.035-.035 0-.07-.036-.07-.071 0-.035.07-.035.176-.035h1.481c.142 0 .177 0 .177.035s-.035.07-.07.07c-.07 0-.177 0-.247.036-.07.035-.07.07-.07.106 0 .07.07.282.175.564l1.341 3.493zM71.4 64.803v-1.446c0-.247-.07-.353-.282-.388h-.247c-.035 0-.07-.035-.07-.07 0-.036.035-.071.106-.071h2.469c.141 0 .247-.035.317-.035.036 0 .071-.036.106-.036.036 0 .036.036.036.07 0 .036-.036.142-.071.318 0 .07-.035.353-.035.459 0 .035-.035.07-.07.07a.076.076 0 01-.071-.07.69.69 0 00-.036-.247c-.035-.106-.106-.176-.494-.212-.105 0-.917-.035-1.023-.035-.035 0-.035.035-.035.07v1.835c0 .035 0 .07.035.07H73.2c.176 0 .282-.035.352-.105.036-.035.07-.07.106-.07.035 0 .035 0 .035.07 0 .035-.035.14-.07.388 0 .14-.035.388-.035.423 0 .07 0 .141-.07.141-.036 0-.036-.035-.036-.07 0-.07 0-.141-.035-.212-.036-.106-.071-.176-.353-.212-.177-.035-.953-.035-1.058-.035-.036 0-.036.035-.036.035V67.167c0 .459.141.53.847.53.176 0 .529 0 .705-.072.177-.07.283-.211.318-.458 0-.07.035-.106.07-.106.036 0 .036.07.036.106 0 .035-.07.494-.106.67-.035.177-.106.177-.388.177-.53 0-.917 0-1.235-.036h-.564-.741c-.07 0-.106 0-.106-.07 0-.035 0-.07.07-.07.071 0 .142-.036.212-.036.141-.035.141-.177.177-.353.035-.282.035-.811.035-1.481v-1.165h.07zM76.022 64.803v-1.446c0-.247-.071-.353-.283-.388h-.247c-.035 0-.07-.035-.07-.07 0-.036.035-.071.106-.071h1.764c.705 0 1.975-.07 2.822.776.352.353.67.917.67 1.729 0 .846-.353 1.517-.74 1.905-.318.317-.918.776-2.117.776-.318 0-.67-.036-.988-.036-.318-.035-.53-.035-.565-.035h-.705c-.07 0-.106 0-.106-.07 0-.036 0-.071.07-.071.071 0 .142 0 .212-.035.141-.035.141-.177.177-.353.035-.282.035-.811.035-1.482v-1.129h-.035zm.635.741v1.482c0 .176.035.423.07.494.07.14.318.282 1.164.282.635 0 1.235-.212 1.658-.6.353-.352.565-.987.565-1.622 0-.847-.388-1.412-.67-1.694-.67-.67-1.447-.74-2.258-.74-.141 0-.353.035-.424.035-.07.035-.07.07-.07.14v2.223h-.035zM82.866 67.061c0 .564.07.74.282.776.14.035.282.035.353.035.035 0 .07.036.07.071 0 .035-.035.07-.141.07-.388 0-.67-.035-.74-.035-.071 0-.354.036-.671.036-.07 0-.106 0-.106-.071 0-.035.035-.07.07-.07.071 0 .177 0 .283-.036.176-.035.212-.247.212-.847v-3.88c0-.282.035-.353.105-.353.07 0 .212.141.283.212.105.106 1.128 1.2 2.222 2.328.706.706 1.446 1.517 1.658 1.729l-.07-3.387c0-.423-.036-.6-.248-.635-.14-.035-.282-.035-.352-.035a.076.076 0 01-.07-.07c0-.036.07-.036.14-.036h1.341c.07 0 .14 0 .14.035 0 .036-.034.071-.07.071h-.176c-.247.035-.247.176-.247.6v3.986c0 .459 0 .494-.07.494-.071 0-.142-.07-.53-.424-.07-.07-1.093-1.058-1.834-1.834-.811-.846-1.588-1.693-1.834-1.905v3.175zM91.297 62.757c1.587 0 2.787.953 2.787 2.54 0 1.517-1.13 2.752-2.823 2.752-1.905 0-2.751-1.447-2.751-2.646 0-1.094.846-2.646 2.787-2.646zm.176 5.045c.635 0 1.905-.318 1.905-2.293 0-1.623-.988-2.47-2.081-2.47-1.165 0-2.011.741-2.011 2.223-.035 1.552.917 2.54 2.187 2.54zM100.292 67.097c.424-.918 1.341-3.21 1.482-3.705.035-.105.071-.211.071-.247 0-.035-.036-.105-.106-.14-.071-.036-.177-.036-.247-.036a.076.076 0 01-.071-.07c0-.036.035-.071.177-.071h1.234c.071 0 .106 0 .106.035 0 .036-.035.07-.07.07-.036 0-.212 0-.318.071-.106.071-.212.177-.388.635-.071.177-.423.988-.776 1.835-.423.987-.741 1.728-.917 2.046-.177.423-.247.494-.318.494-.07 0-.141-.07-.247-.424l-1.728-4.162c-.177-.388-.247-.459-.494-.494-.106-.035-.247-.035-.282-.035a.076.076 0 01-.07-.071c0-.035.07-.035.175-.035H98.987c.141 0 .177 0 .177.035s-.036.07-.071.07c-.07 0-.176 0-.247.036-.07.035-.07.07-.07.106 0 .07.07.282.176.564l1.34 3.493zM104.137 64.803v-1.446c0-.247-.071-.353-.282-.388h-.247a.076.076 0 01-.071-.07c0-.036.035-.071.106-.071h2.469c.141 0 .247-.035.318-.035.035 0 .07-.036.106-.036.035 0 .035.036.035.07 0 .036-.035.142-.071.318 0 .07-.035.353-.035.459 0 .035-.035.07-.07.07a.076.076 0 01-.071-.07c0-.035 0-.176-.035-.247-.036-.106-.106-.176-.494-.212-.106 0-.917-.035-1.023-.035-.035 0-.035.035-.035.07v1.835c0 .035 0 .07.035.07h1.164c.176 0 .282-.035.353-.105.035-.035.07-.07.106-.07.035 0 .035 0 .035.07 0 .035-.035.14-.071.388 0 .14-.035.388-.035.423 0 .07 0 .141-.071.141-.035 0-.035-.035-.035-.07 0-.07 0-.141-.035-.212-.035-.106-.071-.176-.353-.212-.176-.035-.952-.035-1.058-.035-.035 0-.035.035-.035.035V67.167c0 .459.141.53.846.53.177 0 .529 0 .706-.072.176-.07.282-.211.317-.458 0-.07.035-.106.071-.106.035 0 .035.07.035.106 0 .035-.071.494-.106.67-.035.177-.106.177-.388.177-.529 0-.917 0-1.235-.036h-.564-.741c-.07 0-.106 0-.106-.07 0-.035 0-.07.071-.07.07 0 .141-.036.212-.036.141-.035.141-.177.176-.353.035-.282.035-.811.035-1.481v-1.165h.071zM108.794 67.343c-.67-.6-.847-1.375-.847-2.01 0-.459.177-1.235.776-1.835.424-.423 1.059-.74 2.152-.74.282 0 .671.035 1.023.07.247.035.494.106.706.106.07 0 .07.035.07.07 0 .07 0 .141-.035.388v.706c0 .106-.035.141-.07.141-.036 0-.071-.035-.071-.141 0-.247-.106-.53-.282-.67-.247-.212-.741-.388-1.376-.388-.917 0-1.341.246-1.587.458-.53.494-.635 1.094-.635 1.764 0 1.305 1.023 2.47 2.539 2.47.53 0 .882-.036 1.165-.318.141-.141.247-.423.282-.564 0-.071.035-.106.07-.106.036 0 .071.035.071.106 0 .035-.106.635-.176.881-.036.142-.071.142-.177.212-.282.106-.811.141-1.27.141-1.058-.035-1.764-.282-2.328-.74zm1.164-5.997c.035-.035.035-.035.071-.035.035 0 .035 0 .07.035.177.177.565.494.67.565.036 0 .071.035.071.035.035 0 .071 0 .141-.035.176-.106.494-.353.67-.494.071-.07.106-.07.141-.07.036 0 .071.035.071.07s-.035.07-.035.07c-.071.071-.812.741-.882.812-.071.07-.106.07-.141.07-.036 0-.071-.035-.106-.07-.071-.035-.706-.53-.812-.6a.433.433 0 01-.105-.07c0-.036.035-.036.035-.071l.141-.212zM113.909 67.52c0-.177.141-.423.424-.423.246 0 .423.176.423.423a.445.445 0 01-.459.458.454.454 0 01-.388-.458z" fill="#87764E"/>
    <path d="M65.791 23.847c-.247-.529-.317-.67-.74-.74-.177-.036-.283-.036-.353-.036-.106 0-.141-.035-.141-.07 0-.071.07-.071.176-.071.53 0 1.2.035 1.305.035.106 0 .635-.035 1.059-.035.14 0 .176.035.176.07 0 .071-.035.106-.176.106-.177 0-.247.036-.353.07-.106.071-.106.142-.106.213 0 .07.07.282.176.564l2.011 5.08c.565-1.27 1.905-4.621 2.117-5.292a.92.92 0 00.106-.388c0-.07 0-.14-.106-.176-.106-.035-.247-.035-.353-.035-.07 0-.141-.036-.141-.071 0-.07.035-.106.176-.106.424 0 .953.035 1.094.035.035 0 .494-.035.776-.035.106 0 .176.035.176.07 0 .071-.035.107-.14.107-.142 0-.283 0-.495.105-.14.106-.247.247-.529.882-.07.141-.635 1.447-1.164 2.646-.6 1.411-1.094 2.505-1.27 2.893-.317.635-.353.811-.459.811-.14 0-.211-.14-.388-.635l-2.434-5.997zM76.48 29.844c1.023 0 1.446-.106 1.623-.458.106-.212.14-.353.176-.53.035-.105.035-.176.106-.176.07 0 .07.07.07.177 0 .317-.14.952-.211 1.199-.07.247-.106.282-.353.282-1.693 0-3.316-.035-5.115-.035-.141 0-.176 0-.176-.07 0-.071.035-.106.14-.283 1.518-2.222 2.964-4.339 4.375-6.561h-2.117c-.635 0-1.164 0-1.517.14-.352.142-.458.6-.493.847-.036.141-.07.177-.106.177-.035 0-.07-.07-.07-.141 0-.141.14-1.059.21-1.34.036-.142.036-.212.107-.212.106 0 .176.07.458.07 1.094.035 1.588.035 1.729.035h2.822c.141 0 .247 0 .247.07a.595.595 0 01-.07.177c-1.517 2.293-2.893 4.41-4.41 6.632h2.575zM81.172 27.48c-.07 0-.106.036-.106.107l-.494 1.446c-.106.317-.212.635-.212.811 0 .212.142.282.389.282h.07c.106 0 .141.036.141.071 0 .07-.106.07-.176.07-.247 0-.776-.035-.917-.035-.106 0-.635.035-1.094.035-.141 0-.176-.035-.176-.07s.035-.07.14-.07h.248c.494-.036.705-.424.882-.918l2.293-6.067c.14-.318.176-.388.247-.388.07 0 .105.035.246.352.177.388 1.73 4.375 2.329 5.821.388.917.705 1.058.882 1.129.14.07.317.07.388.07.07 0 .14.036.14.071 0 .035-.034.07-.175.07-.106 0-.988 0-1.764-.035-.212 0-.283-.035-.283-.07 0-.036.036-.07.071-.07.035-.036.106-.071.035-.248l-.917-2.293c-.035-.035-.035-.07-.106-.07h-2.081zm1.94-.387c.035 0 .035-.036.035-.07l-.917-2.54c-.07-.177-.07-.177-.14 0l-.848 2.54c-.035.034 0 .07.036.07h1.834z" fill="white"/>
    <path d="M88.121 27.94c0 1.657 0 2.292-.317 3.033-.212.494-.67.953-1.552 1.552-.141.07-.282.212-.388.247h-.07c-.036 0-.071 0-.071-.07s.07-.106.14-.141c.107-.07.248-.177.318-.247.706-.67 1.023-1.164 1.023-3.775v-2.822c0-1.517 0-1.8-.035-2.081-.035-.318-.141-.459-.459-.565-.07 0-.246-.035-.352-.035a.076.076 0 01-.07-.07c0-.071.07-.107.175-.107.494 0 1.165.036 1.2.036.035 0 .74-.035 1.058-.035.106 0 .177.035.177.105 0 .036-.036.07-.071.07-.07 0-.141 0-.247.036-.247.07-.353.247-.388.565-.035.317-.035.564-.035 2.081v2.222h-.035zM90.803 25.752c0-1.517 0-1.799-.035-2.081-.036-.318-.106-.494-.424-.565-.07 0-.176-.035-.282-.035-.07 0-.141-.035-.141-.07 0-.071.07-.106.176-.106.247 0 .53.035 1.2.035h2.328c.247 0 .353-.035.459-.07.07-.036.07-.036.14-.036.036 0 .036.035.036.07 0 .071-.07.248-.106.53 0 .212-.035.388-.035.6 0 .105-.035.176-.07.176-.036 0-.071-.035-.071-.141a.759.759 0 00-.07-.353c-.071-.247-.177-.317-.742-.353-.14 0-1.27-.035-1.305-.035-.035 0-.07.035-.07.106v2.61c0 .07 0 .106.07.106.141 0 1.305 0 1.552-.035.247 0 .424-.035.53-.177.035-.07.07-.105.14-.105.036 0 .036 0 .036.07s-.035.282-.07.6c-.036.317-.036.564-.036.706 0 .105-.035.14-.07.14-.071 0-.071-.07-.071-.14 0-.071 0-.177-.035-.283-.036-.14-.106-.317-.565-.352-.247-.036-1.2-.036-1.376-.036-.07 0-.07.036-.07.07v2.4c.035.423.07.635.317.74.177.071.459.106.847.106.212 0 .6 0 .882-.07.353-.106.423-.318.53-.776.034-.106.07-.177.105-.177.07 0 .07.106.07.177 0 .07-.105.811-.14.987-.036.247-.142.247-.495.247-.776 0-1.093-.035-1.481-.035-.388 0-.917-.035-1.34-.035-.248 0-.495.035-.777.035-.106 0-.176-.035-.176-.07 0-.036.035-.071.106-.071.07 0 .14 0 .247-.035.211-.036.352-.212.352-.918 0-.388.036-.846.036-1.728v-1.623h-.106zM104.031 29.033c.036.282.106.917.565 1.023.211.035.423.07.599.07.036 0 .142 0 .142.071 0 .07-.036.106-.177.106a36.25 36.25 0 01-1.799-.07c-.247-.036-.353-.036-.353-.107 0-.035.036-.07.106-.105.071-.036.106-.177.071-.318l-.529-4.903-2.435 4.938c-.211.46-.246.565-.352.565-.07 0-.141-.106-.353-.494-.177-.318-1.094-2.187-1.164-2.293-.07-.141-1.2-2.363-1.27-2.61l-.423 4.41v.422c0 .142.07.283.282.353.14.035.211.035.317.035.106 0 .106.036.106.071 0 .07-.07.106-.212.106-.352 0-.846-.035-.952-.035-.106 0-.6.035-.882.035-.106 0-.176 0-.176-.106 0-.035.035-.07.14-.07h.212c.283-.036.388-.283.424-.777l.776-6.314c.035-.212.07-.282.14-.282.071 0 .107.035.177.176l3.069 5.962 2.928-5.962c.071-.141.106-.212.177-.212.07 0 .106.106.106.283l.74 6.032zM106.677 29.386c-.988-.847-1.235-1.976-1.235-2.928 0-.635.247-1.8 1.165-2.646.635-.6 1.552-1.023 3.104-1.023.529 0 .952.035 1.517.141.353.07.741.106 1.023.141.106 0 .106.07.106.106 0 .106-.036.212-.071.564 0 .318 0 .918-.035 1.059 0 .176-.035.211-.106.211s-.106-.07-.106-.211c0-.318-.176-.776-.458-.988-.353-.282-1.165-.6-2.047-.6-1.269 0-1.869.353-2.222.67-.741.67-.917 1.517-.917 2.505 0 1.905 1.552 3.598 3.563 3.598.776 0 1.34-.07 1.764-.458.211-.212.317-.494.388-.812.035-.105.07-.176.141-.176.07 0 .07.07.07.176 0 .106-.141 1.023-.247 1.27-.07.177-.105.212-.247.283-.388.176-1.164.247-1.799.247-1.481-.071-2.54-.424-3.351-1.13zM114.086 25.752c0-1.517 0-1.799-.036-2.116-.035-.318-.106-.494-.317-.53-.106-.035-.212-.035-.247-.035-.071 0-.141-.035-.141-.07 0-.071.035-.071.176-.071.353 0 1.023.035 1.058.035.036 0 .706-.035 1.023-.035.106 0 .177.035.177.07 0 .036-.035.071-.141.071-.071 0-.141 0-.212.035-.317.036-.353.212-.388.565-.035.317 0 .564 0 2.081v1.729c0 .882 0 1.693.035 2.116.036.318.106.459.388.53.141.035.388.035.424.035.105 0 .141.035.141.07s-.036.07-.177.07c-.599 0-1.27-.035-1.305-.035-.035 0-.705.036-1.023.036-.106 0-.176-.036-.176-.07 0-.036.035-.071.141-.071.07 0 .176 0 .282-.036.212-.035.247-.282.247-.564.071-.423.071-1.235.071-2.081v-1.729zM66.144 42.226c0-3.175 0-3.739-.035-4.374-.035-.635-.177-1.023-.706-1.093-.247-.036-.423-.036-.564-.071-.177-.035-.247-.07-.247-.177 0-.105.106-.176.353-.176.74 0 2.116.07 2.187.07.106 0 1.481-.07 2.152-.07.247 0 .352.035.352.176 0 .106-.07.142-.246.177-.141.035-.247.035-.424.035-.705.106-.776.459-.811 1.164-.035.635-.035 1.2-.035 4.375v3.598c0 1.834-.036 3.528.105 4.374.106.706.177.953.812 1.094.317.07.811.106.917.106.212.035.247.07.247.176 0 .106-.106.176-.353.176-1.234 0-2.61-.07-2.751-.07-.071 0-1.482.07-2.152.07-.212 0-.388-.035-.388-.176 0-.106.105-.176.317-.176.106 0 .388-.036.565-.07.423-.107.493-.565.564-1.165.106-.847.106-2.575.106-4.374v-3.599h.035zM73.27 37.04c0-.74.071-.987.247-.987.177 0 .565.494.741.635.212.247 3.563 3.633 6.914 7.09 1.87 1.835 4.269 4.304 4.904 4.869l-.247-9.983c-.035-1.306-.176-1.73-.811-1.906a6.879 6.879 0 00-.953-.105c-.247 0-.282-.106-.282-.177 0-.105.176-.14.423-.14 1.023 0 2.046.07 2.258.07.247 0 .988-.07 1.905-.07.247 0 .353.035.353.14 0 .106-.07.177-.212.177-.141.035-.353.035-.6.07-.564.106-.705.353-.705 1.8l-.035 12.029c0 1.2-.036 1.305-.212 1.305-.177 0-.424-.176-1.588-1.27-.106-.035-3.422-3.351-5.503-5.397a741.828 741.828 0 01-5.503-5.715l.317 9.383c.036 1.659.177 2.294.777 2.435.388.105.776.105.987.105.212 0 .283.071.283.177s-.106.176-.388.176c-1.306 0-2.152-.07-2.329-.07-.176 0-1.058.07-2.081.07-.212 0-.353-.035-.353-.176 0-.106.106-.177.353-.177.176 0 .423 0 .74-.105.53-.177.636-.812.636-2.576-.036-11.394 0-7.69-.036-11.676z" fill="white"/>
    <path d="M91.05 38.31c-.494-1.128-.635-1.41-1.517-1.552-.353-.035-.6-.07-.706-.07-.176 0-.282-.07-.282-.177 0-.105.176-.176.388-.176 1.093 0 2.505.07 2.752.07.211 0 1.34-.07 2.222-.07.282 0 .388.035.388.141 0 .106-.106.177-.353.177-.352 0-.564.035-.74.105-.212.106-.212.247-.212.424 0 .176.14.635.388 1.2l4.233 10.617c1.2-2.645 3.951-9.63 4.374-11.041.106-.318.177-.635.177-.776 0-.141-.036-.318-.212-.388s-.494-.106-.776-.106c-.176 0-.317-.035-.317-.141 0-.106.07-.177.352-.177.847 0 2.011.071 2.293.071.106 0 1.059-.07 1.658-.07.247 0 .353.035.353.14 0 .106-.106.177-.247.177-.282 0-.6 0-1.023.247-.247.176-.564.494-1.129 1.87-.106.282-1.305 3.033-2.399 5.503-1.27 2.963-2.257 5.22-2.645 6.032-.635 1.305-.706 1.693-.953 1.693-.282 0-.423-.282-.811-1.34L91.05 38.31z" fill="white"/>
    <path d="M107.347 42.226c0-3.14 0-3.704-.035-4.374-.035-.67-.212-1.023-.917-1.164-.141-.035-.388-.035-.565-.035-.176 0-.317-.071-.317-.142 0-.14.106-.176.352-.176.494 0 1.129.035 2.47.07.106 0 4.374 0 4.868-.035.494-.035.741-.035.953-.105.141-.036.176-.071.246-.071.036 0 .106.035.106.176s-.141.494-.176 1.094c-.035.423-.035.776-.071 1.235 0 .211-.035.352-.176.352s-.176-.105-.176-.247a2.826 2.826 0 00-.177-.776c-.141-.493-.353-.635-1.552-.705-.317-.035-2.681-.035-2.752-.035-.07 0-.105.035-.105.176v5.433c0 .14.035.247.141.247.282 0 2.751-.036 3.245-.071.565-.035.917-.106 1.094-.353.106-.14.176-.176.247-.176.035 0 .106.035.106.14 0 .107-.106.565-.177 1.27-.07.671-.07 1.165-.106 1.447-.035.177-.07.247-.176.247-.106 0-.141-.141-.141-.317 0-.142-.035-.388-.071-.565-.106-.317-.247-.635-1.164-.705a96.65 96.65 0 00-2.893-.106c-.141 0-.176.07-.176.176v1.764c0 .74-.035 2.857 0 3.245.035.883.176 1.341.67 1.553.353.176.953.211 1.764.211.459 0 1.235.036 1.835-.14.705-.212.881-.706 1.093-1.588.035-.247.106-.353.212-.353.141 0 .141.212.141.353 0 .176-.176 1.693-.247 2.081-.106.494-.247.53-1.058.53-1.588 0-2.258-.036-3.105-.036-.846-.035-1.94-.07-2.822-.07-.564 0-1.023.07-1.587.07-.212 0-.353-.035-.353-.176 0-.106.106-.177.212-.177.141 0 .317-.035.493-.07.424-.106.706-.424.777-1.905.035-.812.035-1.8.035-3.634v-3.563h.035zM117.719 51.504c-.318-.14-.318-.247-.318-.811 0-1.094.071-1.905.106-2.258.035-.212.071-.353.177-.353.105 0 .176.07.176.247 0 .141 0 .424.071.706.317 1.552 1.728 2.152 3.104 2.152 1.975 0 2.963-1.376 2.963-2.575 0-1.376-.635-2.223-2.363-3.634l-.953-.74c-2.293-1.835-2.787-3.105-2.787-4.551 0-2.223 1.764-3.705 4.445-3.705.847 0 1.411.07 1.94.177.459.106.635.106.812.106.176 0 .211.035.211.14 0 .106-.105.953-.105 2.329 0 .353-.036.494-.177.494-.106 0-.141-.106-.176-.247-.036-.212-.071-.706-.282-1.129-.106-.212-.671-1.129-2.681-1.129-1.447 0-2.505.847-2.505 2.293 0 1.13.564 1.835 2.575 3.352l.565.423c2.504 1.905 3.139 3.175 3.139 4.903a4.24 4.24 0 01-1.834 3.422c-.953.6-2.082.847-3.246.847-1.023.07-1.975-.07-2.857-.459zM134.687 45.825c0 1.834.035 3.563.105 4.444.071.565.106.918.706 1.059.282.07.741.106.952.106.177 0 .283.07.283.14 0 .107-.071.177-.318.177-1.234 0-2.646-.07-2.751-.07-.106 0-1.517.07-2.152.07-.247 0-.353-.035-.353-.176 0-.07.07-.177.247-.177.176 0 .353 0 .529-.035.459-.07.529-.353.635-1.164.106-.847.106-2.575.106-4.374v-8.573c-.776 0-2.046 0-3.034.036-1.552.035-1.87.247-2.222.776a3.888 3.888 0 00-.353.74c-.071.177-.106.177-.212.177s-.106-.106-.106-.212c-.035-.14.353-1.728.494-2.363.071-.283.141-.388.212-.388.176 0 .635.211 1.058.246.847.106 1.517.106 1.552.106h7.867c.67 0 1.376-.035 1.729-.105.317-.071.388-.106.458-.106.106 0 .141.105.141.211 0 .67-.035 2.258-.035 2.434 0 .212-.106.283-.176.283-.106 0-.177-.106-.177-.283 0-.07 0-.105-.035-.352-.106-.953-.423-1.2-2.822-1.235-.917 0-1.658-.035-2.364-.035v8.642h.036z" fill="white"/>
    <path fill-rule="evenodd" clip-rule="evenodd" d="M31.96 27.516h-.282l-2.187-1.093-5.291 1.552-5.539-.388-2.01.846s-3.175-.776-6.491-2.68a22.22 22.22 0 00-1.447 2.398c-.494.953-.917 1.8-1.234 2.434.423.318.846.565 1.234.776 2.152.988 3.105 1.058 3.316 1.058h.036l-1.482 1.13s2.505 1.587 3.563 1.834c.494.106.917.14 1.2.14.352 0 .599-.034.599-.034l-.212.635 3.14 7.76-.353 5.998-.705 1.234.388 1.411s1.834 2.117 5.503 2.117c1.552 0 3.457-.388 5.68-1.482.423-1.693 1.375-8.078 1.375-8.078l4.445-6.35-1.446-3.986 5.22-2.152.742-.67-2.117-1.2 3.387-2.61s.246-8.36-12.1-11.994c-.706-.212-1.482-.388-2.258-.565.705.282 1.34.6 1.94.988 4.939 3.069 5.362 8.643 5.362 8.643s.423 2.328-1.975 2.328z" fill="#87764E"/>
    <path fill-rule="evenodd" clip-rule="evenodd" d="M28.398 62.828c-.142-.106-2.152-3.81-2.152-3.81s-.283-1.587-.459-3.422c-.706.142-1.376.212-2.046.212-4.092 0-6.244-2.399-6.315-2.505l-.176-.211-.07-.247-.389-1.411-.14-.494.246-.459.565-.988.317-5.432-2.998-7.408c-.283-.036-.565-.07-.847-.141-1.164-.283-3.457-1.694-3.916-1.976l-1.446-.917.882-.67c-.353-.142-.74-.318-1.164-.494H8.219a16.325 16.325 0 01-1.234-.741c-.036.106-.071.141-.071.141a18.966 18.966 0 00-.847 10.654l-1.234 1.975-.741 2.117 1.905 3.845 2.928 9.384s-1.235 1.41-1.411 2.116l-.388 2.858H17.99s-.353-2.858-.988-4.128-2.258-2.328-2.258-2.328L12.1 51.892c.14.141.317.282.458.459 1.059 1.093 4.516 4.903 5.221 5.926.706 1.059 3.563 4.586 3.21 7.656 0 0-1.058 1.128-1.658 2.786-.352.988-.388 3.246-.388 3.246h14.922s-1.375-5.856-1.587-6.174c-.952-1.34-3.74-2.857-3.88-2.963zM49.881 53.727c.212-2.822 2.329-5.115 2.329-5.115s.494-4.516.494-5.221c0 0-3.246-2.893-4.022-3.599-.07-1.164-1.023-2.01-1.023-2.01-.035-.283.176-1.729-1.023-5.856-2.152-7.267-6.703-13.723-7.796-15.028-1.059-1.306-6.068-7.056-10.266-8.326-1.764.53-4.233 2.364-6.597 4.375-.917-1.8-1.799-3.387-3.598-3.563-3.034-.247-4.903 4.374-8.678 3.668-2.434-2.927 1.164-4.55 1.023-7.62C10.548.636 3.316-2.221 0 2.188c1.34.494 3.81-.458 4.833 1.094-1.129 2.68.67 4.021 1.728 5.432-.6 1.553-.352 4.198 0 5.821 3.246 3.986 8.467.176 11.43-1.446.741.458 1.094 1.34 1.376 2.293-.423.423-1.588 1.517-1.588 1.517-1.834 1.799-3.104 3.175-3.104 3.175s-1.905 2.081-3.88 4.762c2.47 1.376 4.868 2.117 5.715 2.363l1.658-.705.247-.106.246.035 5.362.389 5.116-1.482.423-.106.388.176 1.976.988c.211 0 .564-.035.705-.212.176-.211.176-.634.141-.776V25.294c0-.071-.458-5.221-5.185-7.938-.142-.176-5.715-3.245-5.715-3.245s2.787-.07 4.974.282c.917.141 1.552.317 1.587.317 5.574 1.482 9.525 4.022 11.853 7.585 1.94 3.034 1.87 5.68 1.87 5.785l-.035.565-.46.353-1.975 1.517.53.317 1.446.811-1.235 1.13-.74.67-.142.14-.176.071-4.198 1.729 1.058 2.892.212.6-.353.53-4.268 6.137c-.177 1.27-.988 6.35-1.376 7.902l-.106.53-.459.247c-.352.176-.705.352-1.058.494 1.411.458 2.01 1.516 2.01 1.516l8.926-6.173 4.022 1.058-.177 2.646s-2.787.776-3.669 4.057c-.882 3.28 3.422 6.914 3.422 6.914s2.54 2.187 4.586 1.305c3.951-1.728 3.493-6.208 3.493-6.208l.882-1.764c.035-.07-2.681-1.023-2.435-4.34z" fill="#87764E"/>
    <path fill-rule="evenodd" clip-rule="evenodd" d="M26.634 15.522c6.773 2.68 7.302 9.595 7.302 9.595s.459 2.575-2.258 2.399l-2.187-1.094-5.291 1.552-5.539-.387-2.01.846S4.41 25.47 2.716 16.721c-1.27 8.96 2.928 13.053 5.997 14.675 2.434 1.13 3.352 1.059 3.352 1.059l-1.482 1.093s2.505 1.588 3.563 1.835c1.023.247 1.799.105 1.799.105l-.212.636 3.14 7.76-.353 5.997-.705 1.235.388 1.411s3.774 4.304 11.147.6c.423-1.693 1.376-8.079 1.376-8.079l4.445-6.35-1.447-3.986 5.222-2.152.74-.67-2.116-1.2 3.386-2.61c.07 0 .353-9.348-14.322-12.558z" fill="#87764E"/>
  </g>
  <defs>
    <clipPath id="clip0">
      <path fill="white" d="M0 0h142v72H0z"/>
    </clipPath>
  </defs>
</svg>
