<svg width="168" height="56" viewBox="0 0 168 56" fill="none" xmlns="http://www.w3.org/2000/svg">
  <path fill-rule="evenodd" clip-rule="evenodd" d="M0 48h41.322V8H0v40z" fill="black"/>
  <path fill-rule="evenodd" clip-rule="evenodd" d="M27.346 35.463h3.646V19.94h-3.646v15.523zM21.877 35.463h3.646V19.94h-3.646v15.523zM15.8 35.463h3.646V19.94H15.8v15.523zM9.723 35.346h3.646v-7.761H9.723v7.76z" fill="white"/>
  <path fill-rule="evenodd" clip-rule="evenodd" d="M48.848 34.858l-.23-1.698.07-.123c1.649-.124 2.553-1.079 2.553-2.299l-.018-8.717-1.506-.283v-1.697h5.617v1.697l-1.364.283v8.717c0 2.776-1.684 4.12-4.874 4.12h-.248zM60.704 30.155c1.258 0 1.95-.884 1.95-2.582 0-1.68-.692-2.581-1.95-2.581s-1.932.884-1.932 2.581c0 1.645.709 2.582 1.932 2.582zm0-6.967c2.818 0 4.572 1.645 4.572 4.385 0 1.362-.407 2.422-1.24 3.218-.816.778-1.932 1.167-3.332 1.167s-2.517-.389-3.332-1.167c-.815-.796-1.223-1.856-1.223-3.218 0-2.74 1.737-4.385 4.555-4.385zM67.42 25.416l-1.33-.318v-1.68h3.811v.778l-.337 1.308h.089c.39-1.06 1.33-2.316 3.03-2.316 1.914 0 2.871 1.096 2.871 3.271v3.448l1.223.3v1.521h-4.82v-1.591l1.046-.23v-3.342c0-.972-.337-1.432-1.028-1.432-1.117 0-2.003 1.803-2.003 3.766v1.008l1.028.3v1.521h-4.82v-1.52l1.24-.301v-4.491zM81.296 30.155c.443 0 .85-.195 1.205-.566.355-.371.532-.813.532-1.326v-.036h-.71c-1.257 0-2.055.071-2.055.92 0 .566.372 1.008 1.028 1.008zm-2.269-2.883c.23-.123.55-.194.957-.247.408-.053.745-.07 1.01-.07.266-.018.639-.018 1.1-.018h.939v-.478c0-1.043-.514-1.468-1.702-1.468-.815 0-1.825.213-3.03.62l-.089-.054v-1.662c.213-.123.727-.265 1.524-.442a10.85 10.85 0 012.304-.265c1.826 0 3.545.39 3.562 3.218v3.501l1.223.3v1.521h-3.544v-1.114l.124-.866h-.071c-.337 1.467-1.312 2.21-2.96 2.21-1.701 0-2.729-1.025-2.729-2.493 0-1.308.585-1.839 1.382-2.192zM88.136 21.526h2.091v1.892h2.535v1.786h-2.535v3.607c0 .866.266 1.273 1.135 1.273.23 0 .443 0 .655-.053.213-.053.567-.124.727-.177l.124.053.195 1.644c-.868.266-1.684.407-2.481.407-2.109 0-2.907-.76-2.907-2.334v-4.42h-1.311v-1.786l1.365-.424.407-1.468zM97.741 30.155c.443 0 .851-.195 1.205-.566.355-.371.532-.813.532-1.326v-.036h-.709c-1.258 0-2.056.071-2.056.92 0 .566.373 1.008 1.028 1.008zm-2.268-2.883c.23-.123.55-.194.957-.247.407-.053.744-.07 1.01-.07.266-.018.638-.018 1.099-.018h.94v-.478c0-1.043-.515-1.468-1.702-1.468-.816 0-1.826.213-3.03.62l-.09-.054v-1.662c.213-.123.727-.265 1.525-.442a10.85 10.85 0 012.304-.265c1.825 0 3.544.39 3.562 3.218v3.501l1.223.3v1.521h-3.545v-1.114l.124-.866h-.07c-.338 1.467-1.312 2.21-2.96 2.21-1.702 0-2.73-1.025-2.73-2.493 0-1.308.585-1.839 1.383-2.192zM105.308 25.416l-1.329-.318v-1.68h3.81v.778l-.337 1.308h.089c.39-1.06 1.329-2.316 3.03-2.316 1.914 0 2.871 1.096 2.871 3.271v3.448l1.223.3v1.521h-4.82v-1.591l1.046-.23v-3.342c0-.972-.337-1.432-1.028-1.432-1.117 0-2.003 1.803-2.003 3.766v1.008l1.028.3v1.521h-4.821v-1.52l1.241-.301v-4.491zM115.675 21.738v-1.697h5.334l2.499 6.524.213 1.38h.142l.39-1.38 2.534-6.524h5.423v1.697l-1.347.283-.018 7.762 1.347.3v1.645h-5.423v-1.644l1.329-.3v-5.5l.142-1.485h-.159l-.568 1.485-2.605 6.436h-2.498l-2.552-6.436-.603-1.591h-.16l.142 1.591v5.5l1.329.3v1.644h-4.891v-1.644l1.347-.3V22.02l-1.347-.283zM137.047 30.155c.443 0 .851-.195 1.205-.566.355-.371.532-.813.532-1.326v-.036h-.709c-1.258 0-2.056.071-2.056.92 0 .566.372 1.008 1.028 1.008zm-2.268-2.883c.23-.123.549-.194.957-.247.407-.053.744-.07 1.01-.07.266-.018.638-.018 1.099-.018h.939v-.478c0-1.043-.514-1.468-1.701-1.468-.816 0-1.826.213-3.031.62l-.089-.054v-1.662c.213-.123.727-.265 1.524-.442a10.861 10.861 0 012.304-.265c1.826 0 3.545.39 3.563 3.218v3.501l1.222.3v1.521h-3.544v-1.114l.124-.866h-.071c-.337 1.467-1.311 2.21-2.96 2.21-1.701 0-2.729-1.025-2.729-2.493 0-1.308.585-1.839 1.383-2.192zM144.614 25.398l-1.329-.3v-1.68h3.81v.778l-.337 1.308h.089c.337-1.025 1.223-2.316 3.013-2.316.301 0 .726.07.886.088l.159.018v3.837h-1.79l-.195-1.821c-1.169.265-1.754 2.016-1.754 3.554v1.043l1.542.3v1.521h-5.335v-1.52l1.241-.301v-4.509zM155.991 23.188c.549 0 1.152.053 1.808.177.673.106 1.169.23 1.506.353v2.83h-1.843l-.231-1.503a5.837 5.837 0 00-1.258-.124c-.797 0-1.223.283-1.223.725 0 .636.621.76 1.56 1.06l.23.054c.957.265 1.648.477 2.251.866.532.39.868.884.868 1.68 0 1.768-1.471 2.652-4.005 2.652-.602 0-1.24-.07-1.896-.194a11.95 11.95 0 01-1.542-.39V28.9h2.038l.319 1.167c.425.089.815.124 1.152.124.868 0 1.311-.265 1.311-.778 0-.336-.23-.442-1.559-.796-1.01-.265-1.684-.477-2.056-.654-.673-.336-1.081-.813-1.24-1.432a3.769 3.769 0 01-.054-.672c0-2.086 2.145-2.67 3.864-2.67zM106.568 36.352l-.412-.06v-.243h.981l1.139 2.682.048.244h.033l.081-.244 1.16-2.682h.987v.243l-.412.06v2.958l.412.07v.227h-1.242v-.227l.45-.07v-2.585l.022-.276h-.038l-.103.276-1.16 2.639h-.363l-1.133-2.64-.114-.286h-.043l.021.287v2.585l.467.07v.227h-1.187v-.227l.406-.07v-2.958zM112.774 38.46h-.428c-.58 0-.867.114-.867.477 0 .275.173.465.558.465.477 0 .737-.487.737-.92v-.021zm-1.425-.021c.26-.168.596-.2 1.008-.2h.417v-.26c0-.449-.135-.638-.596-.638-.314 0-.607.06-.883.173l-.006-.005v-.27c.081-.038.212-.076.396-.114.184-.038.368-.06.558-.06.629 0 .895.276.895.92v1.34l.422.06v.222h-.759v-.41l.049-.244-.021-.006c-.093.476-.429.73-.884.73-.504 0-.84-.254-.84-.713 0-.244.097-.422.244-.525zM114.319 36.011l-.428-.065v-.254h.786v2.585l1.046-.85-.45-.053v-.238h1.241v.243l-.412.065-.753.633.927 1.244.401.06v.226h-.613l-.964-1.325-.423.282v.762l.406.06v.221h-1.192v-.221l.428-.06v-3.315zM117.479 36.617l-.287-.292v-.044l.287-.286h.043l.288.286v.044l-.288.292h-.043zm-.586.773v-.254h.835v2.19l.423.06v.221h-1.209v-.222l.429-.059v-1.871l-.478-.065zM118.975 37.455l-.434-.065v-.254h.786v.692l-.065.325h.027c.065-.38.428-1.088 1.025-1.088.628 0 .759.384.759.893v1.368l.428.06v.221h-1.198v-.227l.417-.054v-1.238c0-.217-.005-.32-.043-.455-.049-.184-.179-.281-.45-.281-.499 0-.894.914-.894 1.552v.422l.406.06v.221h-1.192v-.222l.428-.059v-1.871zM122.216 37.952c0 .363.222.622.678.622.455 0 .672-.26.672-.622s-.255-.621-.672-.621c-.418 0-.678.27-.678.621zm-.13 2.099c0 .281.369.449.873.449.412 0 .916-.109.916-.487 0-.157-.081-.265-.249-.325a1.985 1.985 0 00-.581-.08l-.33-.017c-.222.038-.629.184-.629.46zm-.374.043c0-.325.287-.552.716-.617-.196-.043-.358-.205-.358-.384l.358-.335c-.38-.135-.57-.4-.57-.795 0-.546.391-.898 1.036-.898.162 0 .314.022.45.07h.959v.271l-.661-.016v.016a.239.239 0 01.124.076c.109.119.163.281.163.481 0 .703-.618.87-1.035.87-.065 0-.125-.005-.179-.01l-.287.281a.452.452 0 00.065.098c.081.07.276.119.585.135.249.016.515.027.764.113.228.092.407.244.407.509 0 .503-.504.81-1.312.81-.661 0-1.225-.21-1.225-.675zM126.769 37.455l-.434-.065v-.254h.786v.692l-.065.325h.027c.065-.38.429-1.088 1.025-1.088.244 0 .417.07.509.163a.47.47 0 01.12.189c.059.157.07.276.076.492l-.049.244h.027c.065-.374.428-1.088 1.024-1.088.618.006.727.384.727.893v1.368l.422.06v.221h-1.192v-.227l.406-.054v-1.325c0-.405-.01-.649-.449-.649-.158 0-.309.087-.45.26-.282.34-.439.854-.445 1.292v.422l.423.06v.221h-1.192v-.227l.412-.054v-1.298c0-.184 0-.324-.044-.443-.054-.141-.157-.233-.412-.233-.498 0-.894.914-.894 1.552v.422l.406.06v.221h-1.192v-.222l.428-.059v-1.871zM132.558 39.402c.58 0 .873-.4.873-1.033 0-.622-.293-1.028-.873-1.028-.569 0-.867.406-.867 1.028 0 .627.298 1.033.867 1.033zm-1.236-1.028c0-.795.455-1.309 1.236-1.309.786 0 1.241.514 1.241 1.31 0 .783-.455 1.303-1.236 1.303-.786 0-1.241-.52-1.241-1.304zM134.623 37.455l-.434-.065v-.254h.786v.692l-.065.325h.027c.076-.303.363-1.088 1.09-1.088a.87.87 0 01.152.017l.027.005v.984h-.255l-.054-.697c-.607.075-.916 1.016-.916 1.525v.427l.52.06v.221h-1.306v-.222l.428-.059v-1.871zM138.319 38.228v-.054c0-.584-.238-.833-.715-.833-.634 0-.77.546-.802.887h1.517zm.239 1.293c-.125.07-.455.157-.759.157-.954 0-1.377-.536-1.377-1.288 0-.897.553-1.325 1.198-1.325.656 0 1.03.357 1.03 1.136 0 .092-.005.195-.016.303h-1.838c.044.579.401.865.981.865.055 0 .136-.005.239-.01.163 0 .331-.033.499-.098l.043.26zM141.528 39.31a1.6 1.6 0 00.553.092c.819 0 1.008-.487 1.008-1.109 0-.514-.124-.941-.488-.941-.731 0-1.073 1.011-1.073 1.547v.41zm-.357-1.855l-.44-.065v-.254h.786v.692l-.059.325h.027c.06-.32.396-1.088 1.198-1.088.504 0 .786.439.786 1.201 0 .827-.385 1.412-1.328 1.412a1.75 1.75 0 01-.537-.076l-.07-.022v.925l.515.065v.216h-1.307v-.216l.429-.065v-3.05zM145.105 39.402c.58 0 .873-.4.873-1.033 0-.622-.293-1.028-.873-1.028-.569 0-.867.406-.867 1.028 0 .627.298 1.033.867 1.033zm-1.235-1.028c0-.795.455-1.309 1.235-1.309.786 0 1.242.514 1.242 1.31 0 .783-.456 1.303-1.236 1.303-.786 0-1.241-.52-1.241-1.304zM147.772 37.065c.309 0 .656.07.808.13v.822h-.26l-.06-.627a2.254 2.254 0 00-.493-.054c-.347 0-.58.14-.58.395 0 .173.086.248.206.33.043.026.173.075.222.097l.266.086.303.103c.13.043.163.06.255.12.2.107.309.253.314.497 0 .476-.374.714-1.04.714-.374 0-.732-.07-.884-.136v-.616h.276l.071.427c.163.038.347.054.553.054.434 0 .65-.135.65-.438a.288.288 0 00-.087-.206.455.455 0 00-.129-.075c-.114-.06-.196-.081-.407-.162a13.947 13.947 0 01-.515-.179c-.206-.097-.336-.222-.39-.368a.579.579 0 01-.038-.221c0-.433.396-.693.959-.693zM150.217 37.065c.309 0 .655.07.807.13v.822h-.26l-.06-.627a2.254 2.254 0 00-.493-.054c-.347 0-.58.14-.58.395 0 .173.087.248.206.33.043.026.174.075.222.097l.266.086.304.103a.85.85 0 01.254.12c.201.107.309.253.315.497 0 .476-.374.714-1.041.714-.374 0-.732-.07-.884-.136v-.616h.277l.07.427c.163.038.347.054.553.054.434 0 .651-.135.651-.438a.288.288 0 00-.087-.206.463.463 0 00-.13-.075c-.114-.06-.195-.081-.407-.162a15.544 15.544 0 01-.515-.179c-.206-.097-.336-.222-.39-.368a.579.579 0 01-.038-.221c0-.433.396-.693.96-.693zM152.168 36.617l-.288-.292v-.044l.288-.286h.043l.287.286v.044l-.287.292h-.043zm-.586.773v-.254h.835v2.19l.423.06v.221h-1.209v-.222l.428-.059v-1.871l-.477-.065zM153.908 39.315c.168.06.352.087.563.087.808 0 1.003-.487 1.003-1.109 0-.514-.119-.94-.493-.94-.342 0-.64.248-.813.578-.168.324-.26.687-.26.968v.416zm-.786-3.623h.786v2.125l-.071.336h.027c.065-.314.429-1.087 1.166-1.087.547 0 .818.4.818 1.2 0 .828-.379 1.412-1.328 1.412-.32 0-.677-.06-.845-.12l-.125-.037v-3.51l-.428-.065v-.254zM156.168 35.946v-.254h.791v3.634l.423.06v.221h-1.209v-.221l.429-.06v-3.315l-.434-.065zM159.669 38.228v-.054c0-.584-.238-.833-.715-.833-.634 0-.77.546-.802.887h1.517zm.239 1.293c-.125.07-.455.157-.759.157-.954 0-1.377-.536-1.377-1.288 0-.897.553-1.325 1.198-1.325.656 0 1.03.357 1.03 1.136 0 .092-.005.195-.016.303h-1.838c.044.579.401.865.981.865.055 0 .136-.005.239-.01.162 0 .33-.033.498-.098l.044.26z" fill="black"/>
</svg>
