<svg width="160" height="40" viewBox="0 0 160 40" fill="none" xmlns="http://www.w3.org/2000/svg">
<path fill-rule="evenodd" clip-rule="evenodd" d="M0 40H41.3223V0H0V40Z" fill="black"/>
<path fill-rule="evenodd" clip-rule="evenodd" d="M27.3457 27.4628H30.9918V11.9404H27.3457V27.4628Z" fill="white"/>
<path fill-rule="evenodd" clip-rule="evenodd" d="M21.8766 27.4628H25.5227V11.9404H21.8766V27.4628Z" fill="white"/>
<path fill-rule="evenodd" clip-rule="evenodd" d="M15.7997 27.4628H19.4458V11.9404H15.7997V27.4628Z" fill="white"/>
<path fill-rule="evenodd" clip-rule="evenodd" d="M9.7229 27.3455H13.369V19.5843H9.7229V27.3455Z" fill="white"/>
<path fill-rule="evenodd" clip-rule="evenodd" d="M48.8482 26.858L48.6178 25.1606L48.6887 25.0368C50.3369 24.9131 51.2407 23.9582 51.2407 22.7382L51.223 14.0211L49.7166 13.7383V12.0407H55.3344V13.7383L53.9699 14.0211V22.7382C53.9699 25.5142 52.2864 26.858 49.0963 26.858H48.8482Z" fill="black"/>
<path fill-rule="evenodd" clip-rule="evenodd" d="M60.7038 22.1546C61.9621 22.1546 62.6532 21.2706 62.6532 19.5732C62.6532 17.8934 61.9621 16.9916 60.7038 16.9916C59.4455 16.9916 58.7721 17.8756 58.7721 19.5732C58.7721 21.2175 59.4809 22.1546 60.7038 22.1546ZM60.7039 15.188C63.5216 15.188 65.2761 16.8325 65.2761 19.5732C65.2761 20.9346 64.8686 21.9955 64.0356 22.7912C63.2203 23.5692 62.1039 23.9581 60.7039 23.9581C59.3038 23.9581 58.1874 23.5692 57.3721 22.7912C56.5569 21.9955 56.1493 20.9346 56.1493 19.5732C56.1493 16.8325 57.8861 15.188 60.7039 15.188Z" fill="black"/>
<path fill-rule="evenodd" clip-rule="evenodd" d="M67.42 17.416L66.0908 17.0978V15.4181H69.9011V16.1959L69.5644 17.5045H69.653C70.0429 16.4434 70.9821 15.1881 72.6835 15.1881C74.5975 15.1881 75.5545 16.2844 75.5545 18.4592V21.9072L76.7773 22.2077V23.7283H71.9569V22.137L73.0025 21.9072V18.5654C73.0025 17.5928 72.6658 17.1331 71.9747 17.1331C70.8581 17.1331 69.972 18.9366 69.972 20.8992V21.9072L70.9999 22.2077V23.7283H66.1795V22.2077L67.42 21.9072V17.416Z" fill="black"/>
<path fill-rule="evenodd" clip-rule="evenodd" d="M81.2959 22.1546C81.739 22.1546 82.1466 21.9602 82.5011 21.5888C82.8555 21.2175 83.0327 20.7755 83.0327 20.2626V20.2274H82.3239C81.0655 20.2274 80.2679 20.2981 80.2679 21.1468C80.2679 21.7125 80.6402 22.1546 81.2959 22.1546ZM79.0274 19.2725C79.2578 19.1487 79.5769 19.078 79.9845 19.025C80.3921 18.9719 80.7287 18.9542 80.9946 18.9542C81.2604 18.9366 81.6326 18.9366 82.0934 18.9366H83.0327V18.4591C83.0327 17.416 82.5186 16.9915 81.3313 16.9915C80.5161 16.9915 79.5059 17.2038 78.3008 17.6105L78.2122 17.5574V15.8953C78.4249 15.7716 78.9388 15.6301 79.7363 15.4533C80.5514 15.2765 81.3136 15.188 82.0401 15.188C83.8656 15.188 85.5847 15.5771 85.6024 18.4061V21.9072L86.8251 22.2077V23.7283H83.2808V22.6144L83.4048 21.7479H83.3339C82.9971 23.2155 82.0224 23.9581 80.3742 23.9581C78.673 23.9581 77.645 22.9325 77.645 21.465C77.645 20.1566 78.2298 19.6262 79.0274 19.2725Z" fill="black"/>
<path fill-rule="evenodd" clip-rule="evenodd" d="M88.1363 13.526H90.2274V15.418H92.7617V17.2039H90.2274V20.8109C90.2274 21.6772 90.4932 22.084 91.3616 22.084C91.592 22.084 91.8047 22.084 92.0174 22.031C92.23 21.9778 92.5844 21.9072 92.7439 21.854L92.868 21.9072L93.0629 23.5515C92.1947 23.8168 91.3794 23.9582 90.5819 23.9582C88.473 23.9582 87.6754 23.1979 87.6754 21.6242V17.2039H86.364V15.418L87.7286 14.9937L88.1363 13.526Z" fill="black"/>
<path fill-rule="evenodd" clip-rule="evenodd" d="M97.7412 22.1546C98.1844 22.1546 98.592 21.9602 98.9464 21.5888C99.3008 21.2175 99.478 20.7755 99.478 20.2626V20.2274H98.7692C97.5108 20.2274 96.7133 20.2981 96.7133 21.1468C96.7133 21.7125 97.0855 22.1546 97.7412 22.1546ZM95.4728 19.2725C95.7032 19.1487 96.0223 19.078 96.4299 19.025C96.8375 18.9719 97.1741 18.9542 97.44 18.9542C97.7058 18.9366 98.078 18.9366 98.5389 18.9366H99.4781V18.4591C99.4781 17.416 98.9641 16.9915 97.7767 16.9915C96.9615 16.9915 95.9513 17.2038 94.7463 17.6105L94.6577 17.5574V15.8953C94.8703 15.7716 95.3842 15.6301 96.1817 15.4533C96.9969 15.2765 97.759 15.188 98.4856 15.188C100.311 15.188 102.03 15.5771 102.048 18.4061V21.9072L103.271 22.2077V23.7283H99.7262V22.6144L99.8502 21.7479H99.7794C99.4425 23.2155 98.4679 23.9581 96.8197 23.9581C95.1184 23.9581 94.0905 22.9325 94.0905 21.465C94.0905 20.1566 94.6753 19.6262 95.4728 19.2725Z" fill="black"/>
<path fill-rule="evenodd" clip-rule="evenodd" d="M105.308 17.416L103.979 17.0978V15.4181H107.789V16.1959L107.452 17.5045H107.541C107.931 16.4434 108.87 15.1881 110.571 15.1881C112.485 15.1881 113.442 16.2844 113.442 18.4592V21.9072L114.665 22.2077V23.7283H109.845V22.137L110.891 21.9072V18.5654C110.891 17.5928 110.554 17.1331 109.863 17.1331C108.746 17.1331 107.86 18.9366 107.86 20.8992V21.9072L108.888 22.2077V23.7283H104.067V22.2077L105.308 21.9072V17.416Z" fill="black"/>
<path fill-rule="evenodd" clip-rule="evenodd" d="M115.675 13.7382V12.0407H121.009L123.508 18.5653L123.721 19.9445H123.863L124.253 18.5653L126.787 12.0407H132.21V13.7382L130.863 14.0211L130.845 21.7833L132.192 22.0839V23.7283H126.769V22.0839L128.098 21.7833V16.2844L128.24 14.7991H128.081L127.513 16.2844L124.908 22.7204H122.41L119.858 16.2844L119.255 14.693H119.095L119.237 16.2844V21.7833L120.566 22.0839V23.7283H115.675V22.0839L117.022 21.7833V14.0211L115.675 13.7382Z" fill="black"/>
<path fill-rule="evenodd" clip-rule="evenodd" d="M137.047 22.1546C137.49 22.1546 137.898 21.9602 138.252 21.5888C138.607 21.2175 138.784 20.7755 138.784 20.2626V20.2274H138.075C136.817 20.2274 136.019 20.2981 136.019 21.1468C136.019 21.7125 136.391 22.1546 137.047 22.1546ZM134.779 19.2725C135.009 19.1487 135.328 19.078 135.736 19.025C136.143 18.9719 136.48 18.9542 136.746 18.9542C137.012 18.9366 137.384 18.9366 137.845 18.9366H138.784V18.4591C138.784 17.416 138.27 16.9915 137.083 16.9915C136.267 16.9915 135.257 17.2038 134.052 17.6105L133.963 17.5574V15.8953C134.176 15.7716 134.69 15.6301 135.487 15.4533C136.303 15.2765 137.065 15.188 137.791 15.188C139.617 15.188 141.336 15.5771 141.354 18.4061V21.9072L142.576 22.2077V23.7283H139.032V22.6144L139.156 21.7479H139.085C138.748 23.2155 137.774 23.9581 136.125 23.9581C134.424 23.9581 133.396 22.9325 133.396 21.465C133.396 20.1566 133.981 19.6262 134.779 19.2725Z" fill="black"/>
<path fill-rule="evenodd" clip-rule="evenodd" d="M144.614 17.3983L143.285 17.0978V15.4181H147.095V16.1959L146.758 17.5045H146.847C147.184 16.4789 148.07 15.1881 149.86 15.1881C150.161 15.1881 150.586 15.2588 150.746 15.2766L150.905 15.2943V19.1312H149.115L148.92 17.3099C147.751 17.5751 147.166 19.3257 147.166 20.864V21.9072L148.708 22.2079V23.7284H143.373V22.2079L144.614 21.9072V17.3983Z" fill="black"/>
<path fill-rule="evenodd" clip-rule="evenodd" d="M155.991 15.1881C156.54 15.1881 157.143 15.2413 157.799 15.3649C158.472 15.4711 158.968 15.5949 159.305 15.7185V18.5477H157.462L157.231 17.0447C156.824 16.9563 156.416 16.9209 155.973 16.9209C155.176 16.9209 154.75 17.204 154.75 17.6459C154.75 18.2824 155.371 18.4061 156.31 18.7067L156.54 18.7598C157.497 19.0251 158.188 19.2372 158.791 19.6262C159.323 20.0152 159.659 20.5103 159.659 21.306C159.659 23.0742 158.188 23.9583 155.654 23.9583C155.052 23.9583 154.414 23.8874 153.758 23.7637C153.102 23.6399 152.588 23.4986 152.216 23.3748V20.8992H154.254L154.573 22.0663C154.998 22.1547 155.388 22.1901 155.725 22.1901C156.593 22.1901 157.036 21.9248 157.036 21.4121C157.036 21.0762 156.806 20.97 155.477 20.6164C154.467 20.3513 153.793 20.139 153.421 19.9622C152.748 19.6262 152.34 19.1488 152.181 18.5299C152.145 18.3355 152.127 18.1056 152.127 17.8581C152.127 15.7717 154.272 15.1881 155.991 15.1881Z" fill="black"/>
<path fill-rule="evenodd" clip-rule="evenodd" d="M106.568 28.3515L106.156 28.292V28.0487H107.137L108.276 30.7311L108.324 30.9745H108.357L108.438 30.7311L109.598 28.0487H110.585V28.292L110.173 28.3515V31.3098L110.585 31.38V31.6071H109.343V31.38L109.793 31.3098V28.7247L109.815 28.4489H109.777L109.674 28.7247L108.514 31.3637H108.151L107.018 28.7247L106.904 28.4381H106.861L106.882 28.7247V31.3098L107.349 31.38V31.6071H106.162V31.38L106.568 31.3098V28.3515Z" fill="black"/>
<path fill-rule="evenodd" clip-rule="evenodd" d="M112.774 30.4607H112.346C111.766 30.4607 111.479 30.5742 111.479 30.9367C111.479 31.2124 111.652 31.4016 112.037 31.4016C112.514 31.4016 112.774 30.915 112.774 30.4822V30.4607ZM111.349 30.439C111.609 30.2714 111.945 30.2389 112.357 30.2389H112.774V29.9793C112.774 29.5304 112.639 29.3412 112.178 29.3412C111.864 29.3412 111.571 29.4007 111.295 29.5142L111.289 29.5088V29.2383C111.37 29.2006 111.501 29.1627 111.685 29.1248C111.869 29.087 112.053 29.0654 112.243 29.0654C112.872 29.0654 113.138 29.3412 113.138 29.9847V31.3259L113.56 31.3854V31.6071H112.801V31.1961L112.85 30.9528L112.829 30.9473C112.736 31.4233 112.4 31.6775 111.945 31.6775C111.441 31.6775 111.105 31.4233 111.105 30.9636C111.105 30.7203 111.202 30.5418 111.349 30.439Z" fill="black"/>
<path fill-rule="evenodd" clip-rule="evenodd" d="M114.319 28.0108L113.891 27.946V27.6918H114.677V30.2767L115.723 29.4278L115.273 29.3736V29.1357H116.514V29.379L116.102 29.4439L115.349 30.0767L116.276 31.3206L116.677 31.3801V31.6072H116.064L115.1 30.2822L114.677 30.5634V31.326L115.083 31.3855V31.6072H113.891V31.3855L114.319 31.326V28.0108Z" fill="black"/>
<path fill-rule="evenodd" clip-rule="evenodd" d="M117.479 28.6165L117.192 28.3246V28.2813L117.479 27.9946H117.522L117.81 28.2813V28.3246L117.522 28.6165H117.479ZM116.893 29.3898V29.1356H117.728V31.326L118.151 31.3853V31.6071H116.942V31.3853L117.371 31.326V29.4548L116.893 29.3898Z" fill="black"/>
<path fill-rule="evenodd" clip-rule="evenodd" d="M118.975 29.4549L118.541 29.39V29.1358H119.327V29.828L119.262 30.1525H119.289C119.354 29.7739 119.717 29.0654 120.314 29.0654C120.942 29.0654 121.073 29.4494 121.073 29.9579V31.326L121.501 31.3854V31.6072H120.303V31.3801L120.72 31.326V30.0876C120.72 29.8713 120.715 29.7684 120.677 29.6333C120.628 29.4494 120.498 29.352 120.227 29.352C119.728 29.352 119.333 30.266 119.333 30.9042V31.326L119.739 31.3854V31.6072H118.547V31.3854L118.975 31.326V29.4549Z" fill="black"/>
<path fill-rule="evenodd" clip-rule="evenodd" d="M122.216 29.9524C122.216 30.3147 122.438 30.5743 122.894 30.5743C123.349 30.5743 123.566 30.3147 123.566 29.9524C123.566 29.5902 123.311 29.3305 122.894 29.3305C122.476 29.3305 122.216 29.6008 122.216 29.9524ZM122.086 32.0507C122.086 32.332 122.455 32.4997 122.959 32.4997C123.371 32.4997 123.875 32.3914 123.875 32.0129C123.875 31.8561 123.794 31.7479 123.626 31.6885C123.468 31.6397 123.306 31.6127 123.045 31.6073C123.035 31.6073 122.926 31.6019 122.715 31.591C122.493 31.629 122.086 31.7749 122.086 32.0507ZM121.712 32.0939C121.712 31.7694 121.999 31.5424 122.428 31.4774C122.232 31.4341 122.07 31.2719 122.07 31.0934L122.428 30.7582C122.048 30.6229 121.858 30.358 121.858 29.9632C121.858 29.417 122.249 29.0654 122.894 29.0654C123.056 29.0654 123.208 29.0871 123.344 29.1358H124.303V29.4062L123.642 29.39V29.4062C123.68 29.4116 123.723 29.4386 123.766 29.4818C123.875 29.6008 123.929 29.7631 123.929 29.9632C123.929 30.6662 123.311 30.8339 122.894 30.8339C122.829 30.8339 122.769 30.8285 122.715 30.8231L122.428 31.1042C122.455 31.1529 122.476 31.1854 122.493 31.2016C122.574 31.2719 122.769 31.3207 123.078 31.3368C123.327 31.353 123.593 31.3638 123.842 31.4504C124.07 31.5424 124.249 31.6938 124.249 31.9588C124.249 32.4616 123.745 32.7699 122.937 32.7699C122.276 32.7699 121.712 32.559 121.712 32.0939Z" fill="black"/>
<path fill-rule="evenodd" clip-rule="evenodd" d="M126.769 29.4549L126.335 29.39V29.1358H127.121V29.828L127.056 30.1525H127.083C127.148 29.7739 127.512 29.0654 128.108 29.0654C128.352 29.0654 128.525 29.1358 128.617 29.2277C128.666 29.2763 128.71 29.3359 128.737 29.417C128.796 29.5738 128.807 29.6928 128.813 29.9091L128.764 30.1525H128.791C128.856 29.7793 129.219 29.0654 129.815 29.0654C130.433 29.0708 130.542 29.4494 130.542 29.9579V31.326L130.964 31.3854V31.6072H129.772V31.3801L130.178 31.326V30.001C130.178 29.5955 130.168 29.352 129.729 29.352C129.571 29.352 129.42 29.4386 129.279 29.6117C128.997 29.9523 128.84 30.4662 128.834 30.9042V31.326L129.257 31.3854V31.6072H128.065V31.3801L128.477 31.326V30.0281C128.477 29.8443 128.477 29.7037 128.433 29.5846C128.379 29.444 128.276 29.352 128.021 29.352C127.523 29.352 127.127 30.266 127.127 30.9042V31.326L127.533 31.3854V31.6072H126.341V31.3854L126.769 31.326V29.4549Z" fill="black"/>
<path fill-rule="evenodd" clip-rule="evenodd" d="M132.558 31.4018C133.138 31.4018 133.431 31.0017 133.431 30.3688C133.431 29.7469 133.138 29.3414 132.558 29.3414C131.989 29.3414 131.691 29.7469 131.691 30.3688C131.691 30.9963 131.989 31.4018 132.558 31.4018ZM131.322 30.3743C131.322 29.5792 131.777 29.0654 132.558 29.0654C133.344 29.0654 133.799 29.5792 133.799 30.3743C133.799 31.1584 133.344 31.6775 132.563 31.6775C131.777 31.6775 131.322 31.1584 131.322 30.3743Z" fill="black"/>
<path fill-rule="evenodd" clip-rule="evenodd" d="M134.623 29.4549L134.189 29.39V29.1358H134.975V29.828L134.91 30.1525H134.937C135.013 29.8496 135.3 29.0654 136.027 29.0654C136.086 29.0654 136.151 29.0762 136.179 29.0817L136.206 29.0871V30.0713H135.951L135.897 29.3737C135.29 29.4494 134.981 30.3903 134.981 30.8987V31.326L135.501 31.3854V31.6072H134.195V31.3854L134.623 31.326V29.4549Z" fill="black"/>
<path fill-rule="evenodd" clip-rule="evenodd" d="M138.319 30.2282V30.1741C138.319 29.59 138.081 29.3413 137.604 29.3413C136.97 29.3413 136.834 29.8874 136.802 30.2282H138.319ZM138.558 31.5207C138.433 31.5909 138.103 31.6775 137.799 31.6775C136.845 31.6775 136.422 31.1421 136.422 30.3903C136.422 29.4926 136.975 29.0654 137.62 29.0654C138.276 29.0654 138.65 29.4223 138.65 30.2011C138.65 30.293 138.645 30.3959 138.634 30.5039H136.796C136.84 31.0825 137.197 31.3692 137.777 31.3692C137.832 31.3692 137.913 31.3638 138.016 31.3584C138.179 31.3584 138.347 31.326 138.515 31.2611L138.558 31.5207Z" fill="black"/>
<path fill-rule="evenodd" clip-rule="evenodd" d="M141.528 31.3098C141.691 31.3694 141.875 31.4018 142.081 31.4018C142.9 31.4018 143.089 30.9151 143.089 30.2932C143.089 29.7794 142.965 29.352 142.601 29.352C141.87 29.352 141.528 30.3634 141.528 30.8988V31.3098ZM141.171 29.4549L140.731 29.3899V29.1357H141.517V29.828L141.458 30.1525H141.485C141.545 29.8334 141.881 29.0654 142.683 29.0654C143.187 29.0654 143.469 29.5035 143.469 30.266C143.469 31.0934 143.084 31.6775 142.141 31.6775C141.924 31.6775 141.696 31.6396 141.604 31.6018L141.534 31.5801V32.5049L142.049 32.5699V32.7861H140.742V32.5699L141.171 32.5049V29.4549Z" fill="black"/>
<path fill-rule="evenodd" clip-rule="evenodd" d="M145.105 31.4018C145.685 31.4018 145.978 31.0017 145.978 30.3688C145.978 29.7469 145.685 29.3414 145.105 29.3414C144.536 29.3414 144.238 29.7469 144.238 30.3688C144.238 30.9963 144.536 31.4018 145.105 31.4018ZM143.87 30.3743C143.87 29.5792 144.325 29.0654 145.105 29.0654C145.891 29.0654 146.347 29.5792 146.347 30.3743C146.347 31.1584 145.891 31.6775 145.111 31.6775C144.325 31.6775 143.87 31.1584 143.87 30.3743Z" fill="black"/>
<path fill-rule="evenodd" clip-rule="evenodd" d="M147.772 29.0654C148.081 29.0654 148.428 29.1357 148.58 29.1952V30.0172H148.32L148.26 29.3899C148.092 29.352 147.924 29.3358 147.767 29.3358C147.42 29.3358 147.187 29.4765 147.187 29.7306C147.187 29.9037 147.273 29.9793 147.393 30.0605C147.436 30.0875 147.566 30.1362 147.615 30.1579L147.881 30.2444L148.184 30.3471C148.314 30.3903 148.347 30.4066 148.439 30.4661C148.639 30.5743 148.748 30.7203 148.753 30.9636C148.753 31.4396 148.379 31.6775 147.713 31.6775C147.339 31.6775 146.981 31.6072 146.829 31.5422V30.9257H147.105L147.176 31.353C147.339 31.3909 147.523 31.4071 147.729 31.4071C148.163 31.4071 148.379 31.2719 148.379 30.969C148.379 30.8825 148.341 30.8123 148.292 30.7635C148.265 30.7365 148.222 30.7148 148.163 30.6878C148.049 30.6283 147.967 30.6068 147.756 30.5256C147.479 30.4336 147.311 30.3742 147.241 30.3471C147.035 30.2497 146.905 30.1254 146.851 29.9793C146.824 29.9146 146.813 29.8387 146.813 29.7576C146.813 29.325 147.209 29.0654 147.772 29.0654Z" fill="black"/>
<path fill-rule="evenodd" clip-rule="evenodd" d="M150.217 29.0654C150.526 29.0654 150.872 29.1357 151.024 29.1952V30.0172H150.764L150.704 29.3899C150.536 29.352 150.368 29.3358 150.211 29.3358C149.864 29.3358 149.631 29.4765 149.631 29.7306C149.631 29.9037 149.718 29.9793 149.837 30.0605C149.88 30.0875 150.011 30.1362 150.059 30.1579L150.325 30.2444L150.629 30.3471C150.759 30.3903 150.791 30.4066 150.883 30.4661C151.084 30.5743 151.192 30.7203 151.198 30.9636C151.198 31.4396 150.824 31.6775 150.157 31.6775C149.783 31.6775 149.425 31.6072 149.273 31.5422V30.9257H149.55L149.62 31.353C149.783 31.3909 149.967 31.4071 150.173 31.4071C150.607 31.4071 150.824 31.2719 150.824 30.969C150.824 30.8825 150.786 30.8123 150.737 30.7635C150.71 30.7365 150.666 30.7148 150.607 30.6878C150.493 30.6283 150.412 30.6068 150.2 30.5256C149.924 30.4336 149.756 30.3742 149.685 30.3471C149.479 30.2497 149.349 30.1254 149.295 29.9793C149.268 29.9146 149.257 29.8387 149.257 29.7576C149.257 29.325 149.653 29.0654 150.217 29.0654Z" fill="black"/>
<path fill-rule="evenodd" clip-rule="evenodd" d="M152.168 28.6165L151.88 28.3246V28.2813L152.168 27.9946H152.211L152.498 28.2813V28.3246L152.211 28.6165H152.168ZM151.582 29.3898V29.1356H152.417V31.326L152.84 31.3853V31.6071H151.631V31.3853L152.059 31.326V29.4548L151.582 29.3898Z" fill="black"/>
<path fill-rule="evenodd" clip-rule="evenodd" d="M153.908 31.3152C154.076 31.3748 154.26 31.4018 154.471 31.4018C155.279 31.4018 155.474 30.9151 155.474 30.2932C155.474 29.7794 155.355 29.352 154.981 29.352C154.639 29.352 154.341 29.6008 154.168 29.9307C154 30.2553 153.908 30.6176 153.908 30.8988V31.3152ZM153.122 27.6918H153.908V29.8171L153.837 30.1525H153.864C153.929 29.8388 154.293 29.0655 155.03 29.0655C155.577 29.0655 155.848 29.4657 155.848 30.2661C155.848 31.0935 155.469 31.6775 154.52 31.6775C154.2 31.6775 153.843 31.6181 153.675 31.5586L153.55 31.5207V28.0109L153.122 27.946V27.6918Z" fill="black"/>
<path fill-rule="evenodd" clip-rule="evenodd" d="M156.168 27.946V27.6918H156.959V31.326L157.382 31.3855V31.6073H156.173V31.3855L156.602 31.326V28.0108L156.168 27.946Z" fill="black"/>
<path fill-rule="evenodd" clip-rule="evenodd" d="M159.669 30.2282V30.1741C159.669 29.59 159.431 29.3413 158.954 29.3413C158.32 29.3413 158.184 29.8874 158.152 30.2282H159.669ZM159.908 31.5207C159.783 31.5909 159.453 31.6775 159.149 31.6775C158.195 31.6775 157.772 31.1421 157.772 30.3903C157.772 29.4926 158.325 29.0654 158.97 29.0654C159.626 29.0654 160 29.4223 160 30.2011C160 30.293 159.995 30.3959 159.984 30.5039H158.146C158.19 31.0825 158.547 31.3692 159.127 31.3692C159.182 31.3692 159.263 31.3638 159.366 31.3584C159.528 31.3584 159.696 31.326 159.864 31.2611L159.908 31.5207Z" fill="black"/>
</svg>
