<svg width="38" height="38" viewBox="0 0 38 38" fill="none" xmlns="http://www.w3.org/2000/svg">
  <g opacity=".15">
    <path d="M34.555 0H3.445A3.445 3.445 0 000 3.445v31.11A3.445 3.445 0 003.445 38h31.11A3.445 3.445 0 0038 34.555V3.445A3.445 3.445 0 0034.555 0z" fill="#1C1C1C"/>
    <path fill-rule="evenodd" clip-rule="evenodd" d="M15.107 9.378c0 1.31-1.051 2.308-2.306 2.308-1.254 0-2.305-.999-2.305-2.308a2.296 2.296 0 012.305-2.308c1.255 0 2.306 1 2.306 2.308zM7.817 25.78c0-.516.067-1.148.203-1.734l1.728-7.177H7.07l.814-3.05h6.442l-2.543 10.249c-.17.655-.238 1.198-.238 1.576 0 .656.318.848.814.961.303.07 2.712.021 4.024-2.942l1.67-6.794H15.34l.814-3.05h5.797l-.745 3.463c1.016-1.93 3.05-3.763 5.05-3.763 2.137 0 3.9 1.546 3.9 4.509 0 .758-.102 1.582-.373 2.512l-1.085 3.96c-.102.414-.17.758-.17 1.069 0 .688.271 1.032.78 1.032s1.153-.38 1.899-2.48l1.491.585c-.881 3.136-2.475 4.444-4.475 4.444-2.34 0-3.458-1.412-3.458-3.341 0-.551.068-1.137.237-1.723l1.12-4.065c.135-.448.169-.86.169-1.24 0-1.308-.78-2.101-2.034-2.101-1.594 0-2.645 1.162-3.187 3.401l-2.17 8.844h-3.797l.681-2.78c-1.116 1.864-2.666 3.017-4.578 3.017-2.305 0-3.39-1.35-3.39-3.382z" fill="white"/>
  </g>
</svg>
