<svg opacity=".5" width="459" height="330" viewBox="0 0 459 330" fill="none" xmlns="http://www.w3.org/2000/svg">
  <path fill-rule="evenodd" clip-rule="evenodd" d="M142.331 304H-396v-4h542.331v528h-4V304z" fill="#54BAB3"/>
  <path fill-rule="evenodd" clip-rule="evenodd" d="M134.331 312H-404v-4h542.331v528h-4V312z" fill="#54BAB3"/>
  <path fill-rule="evenodd" clip-rule="evenodd" d="M126.331 320H-412v-4h542.331v528h-4V320z" fill="#54BAB3"/>
  <path fill-rule="evenodd" clip-rule="evenodd" d="M150.331 296H-388v-4h542.331v528h-4V296z" fill="#54BAB3"/>
  <path fill-rule="evenodd" clip-rule="evenodd" d="M158.331 288H-380v-4h542.331v528h-4V288z" fill="#54BAB3"/>
  <path fill-rule="evenodd" clip-rule="evenodd" d="M166.331 280H-372v-4h542.331v528h-4V280z" fill="#54BAB3"/>
  <path fill-rule="evenodd" clip-rule="evenodd" d="M174.331 272H-364v-4h542.331v528h-4V272z" fill="#54BAB3"/>
  <path fill-rule="evenodd" clip-rule="evenodd" d="M182.331 264H-356v-4h542.331v528h-4V264z" fill="#54BAB3"/>
  <path fill-rule="evenodd" clip-rule="evenodd" d="M190.331 256H-348v-4h542.331v528h-4V256z" fill="#54BAB3"/>
  <path fill-rule="evenodd" clip-rule="evenodd" d="M198.331 248H-340v-4h542.331v528h-4V248z" fill="#54BAB3"/>
  <path fill-rule="evenodd" clip-rule="evenodd" d="M206.331 240H-332v-4h542.331v528h-4V240z" fill="#54BAB3"/>
  <path fill-rule="evenodd" clip-rule="evenodd" d="M214.331 232H-324v-4h542.331v528h-4V232z" fill="#54BAB3"/>
  <path fill-rule="evenodd" clip-rule="evenodd" d="M222.331 224H-316v-4h542.331v528h-4V224z" fill="#54BAB3"/>
  <path fill-rule="evenodd" clip-rule="evenodd" d="M230.331 216H-308v-4h542.331v528h-4V216z" fill="#54BAB3"/>
  <path fill-rule="evenodd" clip-rule="evenodd" d="M238.331 208H-300v-4h542.331v528h-4V208z" fill="#54BAB3"/>
  <path fill-rule="evenodd" clip-rule="evenodd" d="M246.331 200H-292v-4h542.331v528h-4V200z" fill="#54BAB3"/>
  <path fill-rule="evenodd" clip-rule="evenodd" d="M254.331 192H-284v-4h542.331v528h-4V192z" fill="#54BAB3"/>
  <path fill-rule="evenodd" clip-rule="evenodd" d="M262.331 184H-276v-4h542.331v528h-4V184z" fill="#54BAB3"/>
  <path fill-rule="evenodd" clip-rule="evenodd" d="M270.331 176H-268v-4h542.331v528h-4V176z" fill="#54BAB3"/>
  <path fill-rule="evenodd" clip-rule="evenodd" d="M278.331 168H-260v-4h542.331v528h-4V168z" fill="#54BAB3"/>
  <path fill-rule="evenodd" clip-rule="evenodd" d="M286.331 160H-252v-4h542.331v528h-4V160z" fill="#54BAB3"/>
  <path fill-rule="evenodd" clip-rule="evenodd" d="M294.331 152H-244v-4h542.331v528h-4V152z" fill="#54BAB3"/>
  <path fill-rule="evenodd" clip-rule="evenodd" d="M302.331 144H-236v-4h542.331v528h-4V144z" fill="#54BAB3"/>
  <path fill-rule="evenodd" clip-rule="evenodd" d="M310.331 136H-228v-4h542.331v528h-4V136z" fill="#54BAB3"/>
  <path fill-rule="evenodd" clip-rule="evenodd" d="M318.331 128H-220v-4h542.331v528h-4V128z" fill="#54BAB3"/>
  <path fill-rule="evenodd" clip-rule="evenodd" d="M326.331 120H-212v-4h542.331v528h-4V120z" fill="#54BAB3"/>
  <path fill-rule="evenodd" clip-rule="evenodd" d="M334.331 112H-204v-4h542.331v528h-4V112z" fill="#54BAB3"/>
  <path fill-rule="evenodd" clip-rule="evenodd" d="M342.331 104H-196v-4h542.331v528h-4V104z" fill="#54BAB3"/>
  <path fill-rule="evenodd" clip-rule="evenodd" d="M350.331 96H-188v-4h542.331v528h-4V96z" fill="#54BAB3"/>
  <path fill-rule="evenodd" clip-rule="evenodd" d="M358.331 88H-180v-4h542.331v528h-4V88z" fill="#54BAB3"/>
  <path fill-rule="evenodd" clip-rule="evenodd" d="M366.331 80H-172v-4h542.331v528h-4V80z" fill="#54BAB3"/>
  <path fill-rule="evenodd" clip-rule="evenodd" d="M374.331 72H-164v-4h542.331v528h-4V72z" fill="#54BAB3"/>
  <path fill-rule="evenodd" clip-rule="evenodd" d="M382.331 64H-156v-4h542.331v528h-4V64z" fill="#54BAB3"/>
  <path fill-rule="evenodd" clip-rule="evenodd" d="M390.331 56H-148v-4h542.331v528h-4V56z" fill="#54BAB3"/>
  <path fill-rule="evenodd" clip-rule="evenodd" d="M398.331 48H-140v-4h542.331v528h-4V48z" fill="#54BAB3"/>
  <path fill-rule="evenodd" clip-rule="evenodd" d="M406.331 40H-132v-4h542.331v528h-4V40z" fill="#54BAB3"/>
  <path fill-rule="evenodd" clip-rule="evenodd" d="M414.331 32H-124v-4h542.331v528h-4V32z" fill="#54BAB3"/>
  <path fill-rule="evenodd" clip-rule="evenodd" d="M422.331 24H-116v-4h542.331v528h-4V24z" fill="#54BAB3"/>
  <path fill-rule="evenodd" clip-rule="evenodd" d="M430.331 16H-108v-4h542.331v528h-4V16z" fill="#54BAB3"/>
  <path fill-rule="evenodd" clip-rule="evenodd" d="M438.331 8H-100V4h542.331v528h-4V8z" fill="#54BAB3"/>
  <path fill-rule="evenodd" clip-rule="evenodd" d="M446.331 0H-92v-4h542.331v528h-4V0z" fill="#54BAB3"/>
  <path fill-rule="evenodd" clip-rule="evenodd" d="M454.331-8H-84v-4h542.331v528h-4V-8z" fill="#54BAB3"/>
</svg>
