<svg width="323" height="211" viewBox="0 0 323 211" fill="none" xmlns="http://www.w3.org/2000/svg">
  <path fill="white" d="M-70 0h458v3H-70zM-70 8h458v3H-70zM-70 16h458v3H-70zM-70 24h458v3H-70zM-70 32h458v3H-70zM-70 40h458v3H-70zM-70 48h458v3H-70zM-70 56h458v3H-70zM-70 64h458v3H-70zM-70 72h458v3H-70zM-70 80h458v3H-70zM-70 88h458v3H-70zM-70 96h458v3H-70zM-70 104h458v3H-70zM-70 112h458v3H-70zM-70 120h458v3H-70zM-70 128h458v3H-70zM-70 136h458v3H-70zM-70 144h458v3H-70zM-70 152h458v3H-70zM-70 160h458v3H-70zM-70 168h458v3H-70zM-70 176h458v3H-70zM-70 184h458v3H-70zM-70 192h458v3H-70zM-70 200h458v3H-70zM-70 208h458v3H-70z"/>
</svg>
