<svg width="459" height="330" fill="none" xmlns="http://www.w3.org/2000/svg"><path d="M-396 302h540.331v526" stroke="#54BAB3" stroke-width="4"/><path d="M-404 310h540.331v526" stroke="#54BAB3" stroke-width="4"/><path d="M-412 318h540.331v526" stroke="#54BAB3" stroke-width="4"/><path d="M-388 294h540.331v526" stroke="#54BAB3" stroke-width="4"/><path d="M-380 286h540.331v526" stroke="#54BAB3" stroke-width="4"/><path d="M-372 278h540.331v526" stroke="#54BAB3" stroke-width="4"/><path d="M-364 270h540.331v526" stroke="#54BAB3" stroke-width="4"/><path d="M-356 262h540.331v526" stroke="#54BAB3" stroke-width="4"/><path d="M-348 254h540.331v526" stroke="#54BAB3" stroke-width="4"/><path d="M-340 246h540.331v526" stroke="#54BAB3" stroke-width="4"/><path d="M-332 238h540.331v526" stroke="#54BAB3" stroke-width="4"/><path d="M-324 230h540.331v526" stroke="#54BAB3" stroke-width="4"/><path d="M-316 222h540.331v526" stroke="#54BAB3" stroke-width="4"/><path d="M-308 214h540.331v526" stroke="#54BAB3" stroke-width="4"/><path d="M-300 206h540.331v526" stroke="#54BAB3" stroke-width="4"/><path d="M-292 198h540.331v526" stroke="#54BAB3" stroke-width="4"/><path d="M-284 190h540.331v526" stroke="#54BAB3" stroke-width="4"/><path d="M-276 182h540.331v526" stroke="#54BAB3" stroke-width="4"/><path d="M-268 174h540.331v526" stroke="#54BAB3" stroke-width="4"/><path d="M-260 166h540.331v526" stroke="#54BAB3" stroke-width="4"/><path d="M-252 158h540.331v526" stroke="#54BAB3" stroke-width="4"/><path d="M-244 150h540.331v526" stroke="#54BAB3" stroke-width="4"/><path d="M-236 142h540.331v526" stroke="#54BAB3" stroke-width="4"/><path d="M-228 134h540.331v526" stroke="#54BAB3" stroke-width="4"/><path d="M-220 126h540.331v526" stroke="#54BAB3" stroke-width="4"/><path d="M-212 118h540.331v526" stroke="#54BAB3" stroke-width="4"/><path d="M-204 110h540.331v526" stroke="#54BAB3" stroke-width="4"/><path d="M-196 102h540.331v526" stroke="#54BAB3" stroke-width="4"/><path d="M-188 94h540.331v526" stroke="#54BAB3" stroke-width="4"/><path d="M-180 86h540.331v526" stroke="#54BAB3" stroke-width="4"/><path d="M-172 78h540.331v526" stroke="#54BAB3" stroke-width="4"/><path d="M-164 70h540.331v526" stroke="#54BAB3" stroke-width="4"/><path d="M-156 62h540.331v526" stroke="#54BAB3" stroke-width="4"/><path d="M-148 54h540.331v526" stroke="#54BAB3" stroke-width="4"/><path d="M-140 46h540.331v526" stroke="#54BAB3" stroke-width="4"/><path d="M-132 38h540.331v526" stroke="#54BAB3" stroke-width="4"/><path d="M-124 30h540.331v526" stroke="#54BAB3" stroke-width="4"/><path d="M-116 22h540.331v526" stroke="#54BAB3" stroke-width="4"/><path d="M-108 14h540.331v526" stroke="#54BAB3" stroke-width="4"/><path d="M-100 6h540.331v526" stroke="#54BAB3" stroke-width="4"/><path d="M-92-2h540.331v526" stroke="#54BAB3" stroke-width="4"/><path d="M-84-10h540.331v526" stroke="#54BAB3" stroke-width="4"/></svg>