<svg width="148" height="126" viewBox="0 0 148 126" fill="none" xmlns="http://www.w3.org/2000/svg">
  <path d="M-119 110H12v131" stroke="#54BAB3" stroke-width="2"/>
  <path d="M-113 104H18v131" stroke="#54BAB3" stroke-width="2"/>
  <path d="M-107 98H25v131" stroke="#54BAB3" stroke-width="2"/>
  <path d="M-101 91H31v132" stroke="#54BAB3" stroke-width="2"/>
  <path d="M-94 85H37v132" stroke="#54BAB3" stroke-width="2"/>
  <path d="M-88 79H43v131" stroke="#54BAB3" stroke-width="2"/>
  <path d="M-82 73H49v131" stroke="#54BAB3" stroke-width="2"/>
  <path d="M-76 67H55v131" stroke="#54BAB3" stroke-width="2"/>
  <path d="M-70 61H61v131" stroke="#54BAB3" stroke-width="2"/>
  <path d="M-64 55H67v131" stroke="#54BAB3" stroke-width="2"/>
  <path d="M-58 49H74v131" stroke="#54BAB3" stroke-width="2"/>
  <path d="M-52 42H80v132" stroke="#54BAB3" stroke-width="2"/>
  <path d="M-45 36H86v132" stroke="#54BAB3" stroke-width="2"/>
  <path d="M-39 30H92v131" stroke="#54BAB3" stroke-width="2"/>
  <path d="M-33 24H98v131" stroke="#54BAB3" stroke-width="2"/>
  <path d="M-27 18h131v131" stroke="#54BAB3" stroke-width="2"/>
  <path d="M-21 12h131v131" stroke="#54BAB3" stroke-width="2"/>
  <path d="M-15 6h131v131" stroke="#54BAB3" stroke-width="2"/>
  <path d="M-9 0h132v131" stroke="#54BAB3" stroke-width="2"/>
  <path d="M-3-7h132v132" stroke="#54BAB3" stroke-width="2"/>
  <path d="M4-13h131v132" stroke="#54BAB3" stroke-width="2"/>
  <path d="M10-19h131v131" stroke="#54BAB3" stroke-width="2"/>
  <path d="M16-25h131v131" stroke="#54BAB3" stroke-width="2"/>
</svg>
