<svg width="882" height="657" viewBox="0 0 882 657" fill="none" xmlns="http://www.w3.org/2000/svg">
<path opacity="0.5" fill-rule="evenodd" clip-rule="evenodd" d="M882 0H0V8.26229H874.421V656.852H882V0ZM866.159 656.852V16.5246H0V24.7869H857.896V656.852H866.159ZM849.634 656.852V33.0492H0V41.3115H841.372V656.852H849.634ZM833.109 656.852V49.5738H0V57.8361H824.847V656.852H833.109ZM816.585 656.852V66.0984H0V74.3607H808.323V656.852H816.585ZM800.06 656.852V82.623H0V90.8852H791.798V656.852H800.06ZM783.536 656.852V99.1475H0V107.41H775.273V656.852H783.536ZM767.011 656.852V115.672H0V123.934H758.749V656.852H767.011ZM750.486 656.852V132.197H0V140.459H742.224V656.852H750.486ZM733.962 656.852V148.721H0V156.984H725.7V656.852H733.962ZM717.437 656.852V165.246H0V173.508H709.175V656.852H717.437ZM700.913 656.852V181.77H0V190.033H692.65V656.852H700.913ZM684.388 656.852V198.295H0V206.557H676.126V656.852H684.388ZM667.864 656.852V214.82H0V223.082H659.601V656.852H667.864ZM651.339 656.852V231.344H0V239.606H643.077V656.852H651.339ZM634.814 656.852V247.869H0V256.131H626.552V656.852H634.814ZM618.29 656.852V264.393H0V272.656H610.028V656.852H618.29ZM601.765 656.852V280.918H0V289.18H593.503V656.852H601.765ZM585.241 656.852V297.443H0V305.705H576.978V656.852H585.241ZM568.716 656.852V313.967H0V322.229H560.454V656.852H568.716ZM552.192 656.852V330.492H0V338.754H543.929V656.852H552.192ZM535.667 656.852V347.016H0V355.279H527.405V656.852H535.667ZM519.142 656.852V363.541H0V371.803H510.88V656.852H519.142ZM502.618 656.852V380.065H0V388.328H494.355V656.852H502.618ZM486.093 656.852V396.59H0V404.852H477.831V656.852H486.093ZM469.568 656.852V413.115H0V421.377H461.306V656.852H469.568ZM453.044 656.852V429.639H0V437.902H444.782V656.852H453.044ZM436.519 656.852V446.164H0V454.426H428.257V656.852H436.519ZM419.995 656.852V462.688H0V470.951H411.732V656.852H419.995ZM403.47 656.852V479.213H0V487.475H395.208V656.852H403.47ZM386.946 656.852V495.738H0V504H378.683V656.852H386.946ZM370.421 656.852V512.262H0V520.525H362.159V656.852H370.421ZM353.896 656.852V528.787H0V537.049H345.634V656.852H353.896ZM337.372 656.852V545.311H0V553.574H329.109V656.852H337.372ZM320.847 656.852V561.836H0V570.098H312.585V656.852H320.847ZM304.323 656.852V578.361H0V586.623H296.06V656.852H304.323ZM287.798 656.852V594.885H0V603.147H279.536V656.852H287.798ZM271.273 656.852V611.41H0V619.672H263.011V656.852H271.273ZM254.749 656.852V627.934H0V636.197H246.487V656.852H254.749ZM238.224 656.852V644.459H0V652.721H229.962V656.852H238.224Z" fill="#54BAB3"/>
</svg>
