<svg width="296" height="296" viewBox="0 0 296 296" fill="none" xmlns="http://www.w3.org/2000/svg">
<path opacity="0.5" fill-rule="evenodd" clip-rule="evenodd" d="M0 0H296V3.7237H2.54181V296H0V0ZM5.31464 296V7.44697H296V11.1702H8.08887V296H5.31464ZM10.8617 296V14.8935H296V18.6176H13.6338V296H10.8617ZM16.4066 296V22.3409H296V26.0603H19.1807V296H16.4066ZM21.9535 296V29.7835H296V33.5124H24.7236V296H21.9535ZM27.4965 296V37.2357H296V40.9551H30.2705V296H27.4965ZM33.0433 296V44.6784H296V48.4025H35.8154V296H33.0433ZM38.5883 296V52.1258H296V55.8499H41.3604V296H38.5883ZM44.1332 296V59.5732H296V63.2973H46.9072V296H44.1332ZM49.6801 296V67.0206H296V70.74H52.4541V296H49.6801ZM55.2269 296V74.4632H296V78.1897H57.999V296H55.2269ZM60.7719 296V81.913H296V85.6348H63.5459V296H60.7719ZM66.3187 296V89.358H296V93.0846H69.0908V296H66.3187ZM71.8636 296V96.8078H296V100.527H74.6338V296H71.8636ZM77.4066 296V104.25H296V107.975H80.1826V296H77.4066ZM82.9554 296V111.698H296V115.422H85.7256V296H82.9554ZM88.4984 296V119.145H296V122.869H91.2744V296H88.4984ZM94.0472 296V126.593H296V130.314H96.8213V296H94.0472ZM99.5941 296V134.038H296V137.762H102.362V296H99.5941ZM105.135 296V141.485H296V145.209H107.909V296H105.135ZM110.682 296V148.933H296V152.652H113.458V296H110.682ZM116.231 296V156.375H296V160.102H119.001V296H116.231ZM121.774 296V163.825H296V167.547H124.55V296H121.774ZM127.323 296V171.27H296V174.997H130.093V296H127.323ZM132.866 296V178.72H296V182.439H135.638V296H132.866ZM138.411 296V186.162H296V189.887H141.183V296H138.411ZM143.955 296V193.61H296V197.334H146.729V296H143.955ZM149.502 296V201.057H296V204.781H152.276V296H149.502ZM155.049 296V208.505H296V212.224H157.819V296H155.049ZM160.592 296V215.947H296V219.674H163.366V296H160.592ZM166.139 296V223.397H296V227.119H168.911V296H166.139ZM171.684 296V230.842H296V234.566H174.458V296H171.684ZM177.231 296V238.29H296V242.014H180.003V296H177.231ZM182.776 296V245.737H296V249.459H185.548V296H182.776ZM188.321 296V253.182H296V256.909H191.093V296H188.321ZM193.866 296V260.632H296V264.354H196.642V296H193.866ZM199.414 296V268.077H296V271.799H202.185V296H199.414ZM204.957 296V275.522H296V279.244H207.733V296H204.957ZM210.506 296V282.967H296V286.693H213.28V296H210.506ZM216.053 296V290.417H296V294.136H218.823V296H216.053Z" fill="#54BAB3"/>
</svg>
