<svg width="184" height="184" viewBox="0 0 184 184" fill="none" xmlns="http://www.w3.org/2000/svg">
<path opacity="0.5" fill-rule="evenodd" clip-rule="evenodd" d="M183.136 0.464844H-5.95898V3.89883H181.51V273.623H183.136V0.464844ZM179.738 273.623V7.33478H-5.95898V10.7719H177.97V273.623H179.738ZM176.198 273.623V14.2078H-5.95898V17.6449H174.427V273.623H176.198ZM172.656 273.623V21.0809H-5.95898V24.518H170.881V273.623H172.656ZM169.11 273.623V27.9539H-5.95898V31.388H167.338V273.623H169.11ZM165.567 273.623V34.824H-5.95898V38.2581H163.798V273.623H165.567ZM162.027 273.623V41.694H-5.95898V45.1311H160.253V273.623H162.027ZM158.481 273.623V48.5671H-5.95898V52.0042H156.713V273.623H158.481ZM154.941 273.623V55.4401H-5.95898V58.8772H153.167V273.623H154.941ZM151.396 273.623V62.3132H-5.95898V65.7473H149.624V273.623H151.396ZM147.853 273.623V69.1832H-5.95898V72.6173H146.084V273.623H147.853ZM144.313 273.623V76.0533H-5.95898V79.4904H142.541V273.623H144.313ZM140.77 273.623V82.9263H-5.95898V86.3634H138.996V273.623H140.77ZM137.224 273.623V89.7994H-5.95898V93.2365H135.456V273.623H137.224ZM133.684 273.623V96.6724H-5.95898V100.104H131.91V273.623H133.684ZM130.138 273.623V103.539H-5.95898V106.977H128.37V273.623H130.138ZM126.599 273.623V110.413H-5.95898V113.85H124.827V273.623H126.599ZM123.056 273.623V117.286H-5.95898V120.723H121.284V273.623H123.056ZM119.513 273.623V124.159H-5.95898V127.596H117.742V273.623H119.513ZM115.97 273.623V131.032H-5.95898V134.466H114.199V273.623H115.97ZM112.427 273.623V137.902H-5.95898V141.339H110.656V273.623H112.427ZM108.884 273.623V144.775H-5.95898V148.209H107.113V273.623H108.884ZM105.342 273.623V151.645H-5.95898V155.085H103.57V273.623H105.342ZM101.799 273.623V158.521H-5.95898V161.952H100.027V273.623H101.799ZM98.2559 273.623V165.388H-5.95898V168.825H96.4845V273.623H98.2559ZM94.7131 273.623V172.261H-5.95898V175.698H92.9416V273.623H94.7131ZM91.1702 273.623V179.134H-5.95898V182.571H89.3988V273.623H91.1702ZM87.6274 273.623V186.007H-5.95898V189.444H85.8559V273.623H87.6274ZM84.0846 273.623V192.88H-5.95898V196.311H82.3131V273.623H84.0846ZM80.5417 273.623V199.747H-5.95898V203.184H78.7703V273.623H80.5417ZM76.9989 273.623V206.62H-5.95898V210.057H75.2274V273.623H76.9989ZM73.4561 273.623V213.493H-5.95898V216.93H71.6846V273.623H73.4561ZM69.9132 273.623V220.366H-5.95898V223.803H68.1418V273.623H69.9132ZM66.3704 273.623V227.239H-5.95898V230.67H64.5989V273.623H66.3704ZM62.8275 273.623V234.106H-5.95898V237.544H61.0591V273.623H62.8275ZM59.2877 273.623V240.979H-5.95898V244.417H57.5133V273.623H59.2877ZM55.7419 273.623V247.852H-5.95898V251.29H53.9704V273.623H55.7419ZM52.199 273.623V254.726H-5.95898V258.16H50.4276V273.623H52.199ZM48.6562 273.623V261.596H-5.95898V265.03H46.8877V273.623H48.6562ZM45.1163 273.623V268.466H-5.95898V271.903H43.3419V273.623H45.1163Z" fill="#54BAB3"/>
</svg>
