<svg width="632" height="468" viewBox="0 0 632 468" fill="none" xmlns="http://www.w3.org/2000/svg">
<path opacity="0.5" fill-rule="evenodd" clip-rule="evenodd" d="M632 0H0V5.88672H626.573V468H632V0ZM620.653 468V11.7735H0V17.6602H614.729V468H620.653ZM608.808 468V23.5469H0V29.4336H602.892V468H608.808ZM596.972 468V35.3204H0V41.207H591.048V468H596.972ZM585.127 468V47.0938H0V52.9824H579.211V468H585.127ZM573.291 468V58.8692H0V64.7559H567.37V468H573.291ZM561.45 468V70.6427H0V76.5273H555.53V468H561.45ZM549.61 468V82.4141H0V88.3027H543.689V468H549.61ZM537.769 468V94.1895H0V100.076H531.849V468H537.769ZM525.928 468V105.963H0V111.85H520.004V468H525.928ZM514.084 468V117.736H0V123.623H508.164V468H514.084ZM502.243 468V129.51H0V135.396H496.323V468H502.243ZM490.403 468V141.283H0V147.17H484.483V468H490.403ZM478.562 468V153.057H0V158.943H472.65V468H478.562ZM466.73 468V164.83H0V170.717H460.801V468H466.73ZM454.881 468V176.604H0V182.49H448.965V468H454.881ZM443.044 468V188.377H0V194.264H437.12V468H443.044ZM431.2 468V200.15H0V206.037H425.276V468H431.2ZM419.355 468V211.924H0V217.812H413.443V468H419.355ZM407.523 468V223.699H0V229.586H401.603V468H407.523ZM395.682 468V235.473H0V241.359H389.754V468H395.682ZM383.834 468V247.246H0V253.133H377.918V468H383.834ZM371.997 468V259.02H0V264.906H366.073V468H371.997ZM360.153 468V270.793H0V276.68H354.236V468H360.153ZM348.316 468V282.566H0V288.453H342.396V468H348.316ZM336.475 468V294.34H0V300.227H330.555V468H336.475ZM324.635 468V306.113H0V312H318.715V468H324.635ZM312.794 468V317.887H0V323.773H306.87V468H312.794ZM300.95 468V329.66H0V335.547H295.034V468H300.95ZM289.113 468V341.434H0V347.32H283.193V468H289.113ZM277.273 468V353.207H0V359.094H271.352V468H277.273ZM265.432 468V364.981H0V370.869H259.508V468H265.432ZM253.588 468V376.756H0V382.641H247.671V468H253.588ZM241.751 468V388.527H0V394.414H235.831V468H241.751ZM229.91 468V400.301H0V406.189H223.99V468H229.91ZM218.07 468V412.076H0V417.963H212.146V468H218.07ZM206.225 468V423.85H0V429.736H200.309V468H206.225ZM194.389 468V435.623H0V441.51H188.461V468H194.389ZM182.54 468V447.397H0V453.283H176.62V468H182.54ZM170.7 468V459.17H0V465.057H164.783V468H170.7Z" fill="#54BAB3"/>
</svg>
