<svg width="476" height="344" viewBox="0 0 476 344" fill="none" xmlns="http://www.w3.org/2000/svg">
<path opacity="0.5" fill-rule="evenodd" clip-rule="evenodd" d="M0 0H476V4.33008H4.08838V343.999H0V0ZM8.54742 343.999V8.65711H476V12.9844H13.0091V343.999H8.54742ZM17.4681 343.999V17.3114H476V21.6387H21.922V343.999H17.4681ZM26.381 343.999V25.9657H476V30.291H30.8427V343.999H26.381ZM35.3018 343.999V34.618H476V38.9473H39.7596V343.999H35.3018ZM44.2186 343.999V43.2743H476V47.6016H48.6764V343.999H44.2186ZM53.1354 343.999V51.9286H476V56.2539H57.5952V343.999H53.1354ZM62.0541 343.999V60.5809H476V64.9082H66.51V343.999H62.0541ZM70.969 343.999V69.2352H476V73.5625H75.4288V343.999H70.969ZM79.8878 343.999V77.8895H476V82.2188H84.3495V343.999H79.8878ZM88.8085 343.999V86.5458H476V90.8711H93.2682V343.999H88.8085ZM97.7272 343.999V95.1981H476V99.5234H102.189V343.999H97.7272ZM106.648 343.999V103.85H476V108.178H111.104V343.999H106.648ZM115.563 343.999V112.505H476V116.834H120.017V343.999H115.563ZM124.476 343.999V121.161H476V125.486H128.941V343.999H124.476ZM133.4 343.999V129.813H476V134.141H137.856V343.999H133.4ZM142.315 343.999V138.468H476V142.795H146.779V343.999H142.315ZM151.238 343.999V147.122H476V151.451H155.698V343.999H151.238ZM160.157 343.999V155.778H476V160.104H164.607V343.999H160.157ZM169.066 343.999V164.431H476V168.758H173.527V343.999H169.066ZM177.986 343.999V173.085H476V177.412H182.45V343.999H177.986ZM186.909 343.999V181.739H476V186.066H191.365V343.999H186.909ZM195.824 343.999V190.393H476V194.721H200.288V343.999H195.824ZM204.747 343.999V199.048H476V203.375H209.2V343.999H204.747ZM213.659 343.999V207.702H476V212.029H218.121V343.999H213.659ZM222.58 343.999V216.356H476V220.682H227.036V343.999H222.58ZM231.495 343.999V225.009H476V229.336H235.953V343.999H231.495ZM240.412 343.999V233.663H476V237.99H244.875V343.999H240.412ZM249.335 343.999V242.317H476V246.645H253.792V343.999H249.335ZM258.251 343.999V250.972H476V255.299H262.709V343.999H258.251ZM267.168 343.999V259.626H476V263.953H271.628V343.999H267.168ZM276.087 343.999V268.28H476V272.609H280.549V343.999H276.087ZM285.008 343.999V276.936H476V281.26H289.462V343.999H285.008ZM293.921 343.999V285.587H476V289.914H298.382V343.999H293.921ZM302.841 343.999V294.241H476V298.57H307.297V343.999H302.841ZM311.756 343.999V302.897H476V307.223H316.22V343.999H311.756ZM320.679 343.999V311.55H476V315.877H325.135V343.999H320.679ZM329.594 343.999V320.204H476V324.529H334.057V343.999H329.594ZM338.516 343.999V328.856H476V333.184H342.976V343.999H338.516ZM347.435 343.999V337.511H476V341.838H351.889V343.999H347.435Z" fill="#54BAB3"/>
</svg>
