<svg width="407" height="407" viewBox="0 0 407 407" fill="none" xmlns="http://www.w3.org/2000/svg">
<path opacity="0.5" fill-rule="evenodd" clip-rule="evenodd" d="M406.085 0.03125H-13.2129V7.64334H402.478V605.729H406.085V0.03125ZM398.55 605.729V15.2622H-13.2129V22.8841H394.627V605.729H398.55ZM390.699 605.729V30.5029H-13.2129V38.1228H386.772V605.729H390.699ZM382.844 605.729V45.7417H-13.2129V53.3635H378.909V605.729H382.844ZM374.982 605.729V60.9824H-13.2129V68.5964H371.053V605.729H374.982ZM367.125 605.729V76.2153H-13.2129V83.8293H363.206V605.729H367.125ZM359.278 605.729V91.4481H-13.2129V99.07H355.345V605.729H359.278ZM351.417 605.729V106.689H-13.2129V114.311H347.494V605.729H351.417ZM343.566 605.729V121.93H-13.2129V129.551H339.627V605.729H343.566ZM335.699 605.729V137.17H-13.2129V144.784H331.774V605.729H335.699ZM327.846 605.729V152.403H-13.2129V160.019H323.925V605.729H327.846ZM319.997 605.729V167.638H-13.2129V175.26H316.068V605.729H319.997ZM312.14 605.729V182.879H-13.2129V190.499H308.207V605.729H312.14ZM304.28 605.729V198.118H-13.2129V205.739H300.36V605.729H304.28ZM296.432 605.729V213.358H-13.2129V220.97H292.498V605.729H296.432ZM288.57 605.729V228.589H-13.2129V236.211H284.643V605.729H288.57ZM280.715 605.729V243.83H-13.2129V251.448H276.79V605.729H280.715ZM272.862 605.729V259.067H-13.2129V266.689H268.935V605.729H272.862ZM265.007 605.729V274.307H-13.2129V281.929H261.078V605.729H265.007ZM257.15 605.729V289.548H-13.2129V297.16H253.223V605.729H257.15ZM249.295 605.729V304.779H-13.2129V312.399H245.368V605.729H249.295ZM241.44 605.729V320.018H-13.2129V327.638H237.513V605.729H241.44ZM233.585 605.729V335.257H-13.2129V342.88H229.656V605.729H233.585ZM225.729 605.729V350.499H-13.2129V358.107H221.801V605.729H225.729ZM217.874 605.729V365.726H-13.2129V373.348H213.945V605.729H217.874ZM210.017 605.729V380.967H-13.2129V388.589H206.088V605.729H210.017ZM202.16 605.729V396.208H-13.2129V403.826H198.231V605.729H202.16ZM194.303 605.729V411.444H-13.2129V419.066H190.376V605.729H194.303ZM186.448 605.729V426.685H-13.2129V434.297H182.521V605.729H186.448ZM178.593 605.729V441.916H-13.2129V449.538H174.664V605.729H178.593ZM170.736 605.729V457.157H-13.2129V464.777H166.805V605.729H170.736ZM162.877 605.729V472.396H-13.2129V480.018H158.95V605.729H162.877ZM155.023 605.729V487.636H-13.2129V495.258H151.095V605.729H155.023ZM147.168 605.729V502.877H-13.2129V510.485H143.239V605.729H147.168ZM139.311 605.729V518.104H-13.2129V525.726H135.392V605.729H139.311ZM131.464 605.729V533.345H-13.2129V540.967H127.531V605.729H131.464ZM123.603 605.729V548.585H-13.2129V556.207H119.676V605.729H123.603ZM115.748 605.729V563.826H-13.2129V571.44H111.819V605.729H115.748ZM107.891 605.729V579.059H-13.2129V586.673H103.966V605.729H107.891ZM100.038 605.729V594.292H-13.2129V601.914H96.1072V605.729H100.038Z" fill="#54BAB3"/>
</svg>
