<svg width="144" height="144" viewBox="0 0 144 144" fill="none" xmlns="http://www.w3.org/2000/svg">
<path opacity="0.5" fill-rule="evenodd" clip-rule="evenodd" d="M0 0H144V1.81154H1.23651V144H0V0ZM2.58548 144V3.62286H144V5.43416H3.93512V144H2.58548ZM5.28406 144V7.24548H144V9.05721H6.63263V144H5.28406ZM7.98157 144V10.8685H144V12.678H9.33112V144H7.98157ZM10.6801 144V14.4893H144V16.3033H12.0277V144H10.6801ZM13.3766 144V18.1147H144V19.9241H14.7262V144H13.3766ZM16.0751 144V21.7354H144V23.5472H17.4237V144H16.0751ZM18.7726 144V25.3585H144V27.1702H20.1212V144H18.7726ZM21.4702 144V28.9815H144V30.7933H22.8197V144H21.4702ZM24.1687 144V32.6046H144V34.414H25.5182V144H24.1687ZM26.8671 144V36.2254H144V38.0383H28.2157V144H26.8671ZM29.5647 144V39.8496H144V41.6602H30.9142V144H29.5647ZM32.2631 144V43.4715H144V45.2844H33.6117V144H32.2631ZM34.9607 144V47.0957H144V48.9051H36.3083V144H34.9607ZM37.6572 144V50.7165H144V52.5282H39.0077V144H37.6572ZM40.3567 144V54.3395H144V56.1513H41.7043V144H40.3567ZM43.0533 144V57.9626H144V59.7743H44.4038V144H43.0533ZM45.7527 144V61.5857H144V63.3962H47.1022V144H45.7527ZM48.4512 144V65.2076H144V67.0193H49.7979V144H48.4512ZM51.1468 144V68.8306H144V70.6424H52.4963V144H51.1468ZM53.8453 144V72.4537H144V74.2631H55.1958V144H53.8453ZM56.5447 144V76.0744H144V77.8873H57.8924V144H56.5447ZM59.2413 144V79.6986H144V81.5092H60.5918V144H59.2413ZM61.9407 144V83.3206H144V85.1335H63.2884V144H61.9407ZM64.6373 144V86.9448H144V88.7542H65.9859V144H64.6373ZM67.3348 144V90.5655H144V92.3773H68.6834V144H67.3348ZM70.0324 144V94.1886H144V96.0003H71.3819V144H70.0324ZM72.7308 144V97.8116H144V99.6234H74.0804V144H72.7308ZM75.4293 144V101.435H144V103.244H76.777V144H75.4293ZM78.1259 144V105.055H144V106.868H79.4754V144H78.1259ZM80.8244 144V108.68H144V110.49H82.173V144H80.8244ZM83.5219 144V112.302H144V114.113H84.8715V144H83.5219ZM86.2204 144V115.925H144V117.736H87.569V144H86.2204ZM88.9179 144V119.548H144V121.358H90.2665V144H88.9179ZM91.6154 144V123.17H144V124.983H92.964V144H91.6154ZM94.313 144V126.794H144V128.604H95.6635V144H94.313ZM97.0124 144V130.416H144V132.226H98.3601V144H97.0124ZM99.709 144V134.038H144V135.848H101.059V144H99.709ZM102.408 144V137.66H144V139.472H103.758V144H102.408ZM105.107 144V141.284H144V143.093H106.455V144H105.107Z" fill="#54BAB3"/>
</svg>
