<svg width="160" height="56" viewBox="0 0 160 56" fill="none" xmlns="http://www.w3.org/2000/svg">
  <path fill-rule="evenodd" clip-rule="evenodd" d="M24.827 21.375h-.222l-1.712-.856-4.122 1.205-4.312-.286-1.554.666s-2.441-.602-5.041-2.06c-.317.443-.698 1.077-1.11 1.87-.38.73-.698 1.395-.951 1.902.317.222.665.444.983.603 1.68.793 2.41.824 2.568.824h.032l-1.142.856s1.966 1.237 2.759 1.427c.38.095.697.095.951.095.285 0 .444-.031.444-.031l-.159.507 2.442 6.024-.285 4.662-.54.95.318 1.079s1.426 1.649 4.28 1.649c1.205 0 2.695-.286 4.407-1.173.318-1.332 1.079-6.279 1.079-6.279l3.456-4.946-1.11-3.107 4.059-1.681.57-.507-1.617-.92 2.632-2.03s.19-6.5-9.417-9.321a20.77 20.77 0 00-1.776-.444 9.386 9.386 0 011.49.76c3.805 2.41 4.154 6.723 4.154 6.723s.317 1.839-1.554 1.839z" fill="#87764E"/>
  <path fill-rule="evenodd" clip-rule="evenodd" d="M22.069 48.802c-.095-.095-1.68-2.949-1.68-2.949s-.223-1.236-.35-2.663a9.265 9.265 0 01-1.585.158c-3.17 0-4.851-1.839-4.915-1.934l-.127-.158-.063-.19-.317-1.079-.095-.38.19-.349.444-.76.254-4.218-2.347-5.74a28.495 28.495 0 01-.634-.094c-.92-.19-2.695-1.332-3.044-1.554l-1.141-.73.666-.507c-.286-.095-.571-.253-.92-.38h-.063c-.286-.159-.635-.349-.952-.57l-.031.03c-1.174 3.013-1.174 5.962-.635 8.277l-.95 1.522-.571 1.648 1.49 3.044 2.283 7.293s-.983 1.11-1.11 1.649l-.317 2.22h8.402s-.253-2.22-.76-3.203c-.508-.983-1.744-1.807-1.744-1.807l-2.061-5.01.348.349c.825.824 3.52 3.805 4.059 4.629.539.824 2.759 3.583 2.505 5.961 0 0-.824.888-1.3 2.156-.285.761-.317 2.537-.317 2.537h11.637s-1.078-4.534-1.237-4.788c-.73-1.142-2.917-2.315-3.012-2.41zM38.747 41.763c.159-2.188 1.807-3.995 1.807-3.995s.381-3.488.381-4.059c0 0-2.537-2.22-3.14-2.822-.063-.887-.792-1.553-.792-1.553-.032-.222.159-1.332-.792-4.535-1.65-5.612-5.2-10.653-6.025-11.668-.824-.983-4.724-5.486-7.99-6.437-1.396.412-3.298 1.84-5.137 3.425-.73-1.396-1.395-2.632-2.822-2.759-2.315-.254-3.773 3.33-6.722 2.79-1.871-2.283.888-3.52.792-5.93C8.212.48 2.568-1.708 0 1.685c1.046.412 2.949-.349 3.773.856-.888 2.093.508 3.14 1.332 4.218-.476 1.204-.285 3.265 0 4.502 2.505 3.107 6.563.159 8.878-1.141.571.348.856 1.046 1.047 1.775-.35.317-1.237 1.205-1.237 1.205-1.427 1.395-2.41 2.473-2.41 2.473s-1.49 1.617-3.012 3.678a21.78 21.78 0 004.439 1.84l1.3-.54.19-.095h.19l4.218.35 3.963-1.174.317-.095.286.158 1.553.761c.159 0 .444-.031.54-.158.126-.159.126-.508.095-.603V19.6c0-.032-.35-4.058-4.027-6.151-.127-.064-4.471-2.473-4.471-2.473s2.156-.064 3.868.222c.698.127 1.205.253 1.205.253 4.312 1.142 7.42 3.14 9.195 5.898 1.522 2.346 1.459 4.407 1.459 4.503v.443l-.349.254-1.522 1.173.412.254 1.11.634-.951.856-.507.54-.127.094-.127.064-3.266 1.331.824 2.252.159.475-.285.413-3.33 4.756c-.158.983-.76 4.946-1.046 6.151l-.095.412-.38.19c-.286.127-.54.254-.825.381 1.11.349 1.553 1.173 1.553 1.173l6.945-4.788 3.139.825-.127 2.06s-2.156.603-2.854 3.14 2.664 5.359 2.664 5.359 1.965 1.712 3.583 1.014c3.075-1.332 2.727-4.82 2.727-4.82l.697-1.363c-.032-.063-2.156-.793-1.966-3.36z" fill="#87764E"/>
  <path fill-rule="evenodd" clip-rule="evenodd" d="M20.705 12.053c5.264 2.06 5.676 7.483 5.676 7.483s.349 1.997-1.744 1.839l-1.712-.856-4.122 1.205-4.313-.286-1.553.666s-9.513-2.283-10.844-9.1C1.14 19.98 4.407 23.151 6.785 24.419c1.903.888 2.6.824 2.6.824l-1.141.856s1.966 1.237 2.759 1.427c.792.19 1.395.064 1.395.064l-.159.507 2.442 6.024-.286 4.662-.539.95.317 1.079s2.95 3.33 8.688.476c.317-1.332 1.078-6.279 1.078-6.279l3.457-4.946-1.11-3.107 4.058-1.681.571-.507-1.617-.92 2.632-2.03c-.064 0 .159-7.26-11.225-9.765z" fill="#87764E"/>
  <path d="M54.21 19.677c.799-1.912 2.641-6.952 2.92-7.995.069-.209.138-.417.138-.556 0-.105-.035-.244-.174-.313-.173-.07-.382-.07-.521-.07-.07 0-.139 0-.139-.07 0-.104.07-.104.313-.104.556 0 1.182.035 1.355.035.07 0 .66-.034 1.078-.034.14 0 .243.034.243.104 0 .07-.07.104-.173.104-.105 0-.383 0-.66.174-.175.139-.383.382-.766 1.356-.139.417-.834 2.12-1.53 3.893-.833 2.085-1.459 3.65-1.772 4.345-.382.869-.452 1.077-.59 1.077-.175 0-.244-.208-.488-.903l-3.371-8.83c-.313-.8-.522-.973-.974-1.112-.208-.07-.451-.07-.521-.07s-.104-.034-.104-.104c0-.104.139-.104.347-.104.66 0 1.425.035 1.6.035.138 0 .764-.035 1.285-.035.244 0 .383.035.383.104 0 .07-.035.105-.14.105-.138 0-.381 0-.52.07a.286.286 0 00-.174.277c0 .174.173.626.382 1.182l2.572 7.439zM63.907 20.824c1.287 0 1.6-.209 1.878-.556.139-.174.208-.487.243-.66.035-.105.07-.175.139-.175.07 0 .104.035.104.278 0 .383-.174 1.113-.243 1.426-.07.312-.07.312-.348.312-2.016 0-4.067-.07-6.187-.07-.14 0-.209 0-.209-.103 0-.07 0-.14.174-.383 1.808-2.746 3.58-5.457 5.249-8.203h-2.538c-.625 0-1.32 0-1.703.208-.417.244-.66.66-.695.974-.035.173-.104.208-.174.208-.07 0-.07-.07-.07-.174 0-.139.174-1.251.244-1.633 0-.174.035-.244.104-.244.105 0 .209.07.522.105 1.147.034 1.738.034 2.12.034h3.372c.174 0 .243.035.243.105 0 .07 0 .139-.07.208-1.772 2.816-3.51 5.562-5.352 8.343h3.197zM70.999 12.412c.139-.417.208-.487.278-.487.139 0 .174.174.278.452.208.522 2.155 5.562 2.885 7.439.452 1.078.765 1.251 1.043 1.356.174.07.347.07.486.07.07 0 .14.034.14.103 0 .07-.14.105-.279.105-.173 0-1.077 0-1.912-.035-.243 0-.417 0-.417-.104 0-.07.035-.07.07-.07.07-.035.209-.139.104-.348l-1.077-2.815c-.035-.07-.035-.07-.105-.07h-2.78c-.07 0-.105.035-.14.105l-.695 1.946c-.104.313-.174.591-.174.834 0 .244.209.348.418.348h.104c.104 0 .139.035.139.104 0 .07-.07.105-.174.105-.278 0-.938-.035-1.078-.035-.138 0-.73.035-1.216.035-.14 0-.243-.035-.243-.105 0-.07.07-.104.104-.104.07 0 .278 0 .347-.035.557-.07.765-.486 1.008-1.112L71 12.412zm1.32 5.075c.07 0 .07-.035.035-.104l-1.181-3.337c-.07-.174-.14-.174-.21 0l-1.111 3.337c0 .07 0 .104.034.104h2.434zM79.063 18.634c0 1.981-.035 2.746-.382 3.615-.243.626-.8 1.182-1.773 1.877-.174.104-.382.243-.487.313h-.07c-.034 0-.069 0-.069-.07s.035-.139.14-.208c.138-.07.312-.243.416-.348.8-.834 1.148-1.46 1.148-4.588v-3.511c0-1.912 0-2.26-.035-2.642-.035-.417-.104-.625-.487-.66-.104 0-.313-.035-.417-.035-.035 0-.104-.07-.104-.104 0-.07.07-.104.208-.104.556 0 1.321.034 1.39.034.07 0 .8-.034 1.183-.034.139 0 .208.034.208.104 0 .034-.07.104-.104.104-.07 0-.174 0-.313.035-.313.07-.382.243-.417.66V18.634h-.035zM82.609 15.714c0-1.912 0-2.26-.035-2.642-.035-.417-.104-.625-.486-.66-.105 0-.313-.035-.418-.035-.034 0-.104-.07-.104-.104 0-.07.07-.104.209-.104.556 0 1.32.034 1.39.034h2.885c.243 0 .452-.069.556-.069.07 0 .105-.07.174-.07.035 0 .07.07.07.105 0 .104-.07.243-.105.59 0 .105-.034.661-.07.8 0 .07-.069.14-.103.14-.07 0-.105-.07-.105-.175 0-.07 0-.278-.07-.417-.069-.208-.208-.278-.868-.382-.209-.035-1.6-.035-1.738-.035-.07 0-.07.035-.07.14v3.336c0 .104 0 .14.07.14.139 0 1.738 0 2.016-.036.278-.034.452-.034.59-.173.07-.07.14-.174.175-.174.034 0 .07.035.07.104 0 .07-.07.278-.105.66-.035.244-.07.696-.07.8 0 .104-.034.243-.104.243-.07 0-.07-.034-.07-.104 0-.104 0-.243-.069-.417-.035-.174-.14-.313-.626-.382-.313-.035-1.633-.07-1.842-.07-.07 0-.07.035-.07.07v3.093c.035.835.244.974 1.426.974.313 0 .903 0 1.216-.14.313-.138.487-.347.556-.834.035-.139.07-.173.14-.173.069 0 .069.104.069.173 0 .105-.104.904-.174 1.182-.07.313-.208.313-.66.313-.904 0-1.6-.035-2.086-.035-.521-.034-.834-.034-1.008-.034h-.521c-.244 0-.522.034-.696.034-.139 0-.208-.034-.208-.104 0-.035.035-.104.104-.104.104 0 .243-.035.383-.07.243-.035.243-.278.312-.66.07-.487.07-1.46.07-2.642v-2.086zM99.016 19.85c.035.418.139 1.113.625 1.252.348.104.661.104.765.104.07 0 .105.035.105.07 0 .07-.105.104-.244.104-.278 0-1.633 0-2.05-.07-.279-.034-.348-.069-.348-.138 0-.035.034-.07.07-.105.069 0 .069-.208.069-.417l-.591-6.222h-.035l-2.92 6.257c-.243.521-.313.66-.417.66-.104 0-.174-.104-.417-.556-.313-.59-1.112-2.19-1.425-2.85-.348-.765-1.321-2.85-1.53-3.337h-.07l-.451 5.527v.625c0 .174.104.313.278.348.208.07.382.07.452.07.035 0 .104.034.104.07 0 .103-.07.103-.208.103-.452 0-1.043-.034-1.113-.034-.104 0-.695.034-1.008.034-.139 0-.208-.034-.208-.104 0-.035.07-.07.139-.07.104 0 .174 0 .347-.034.383-.07.417-.522.452-.974l.87-7.995c0-.138.069-.208.138-.208.07 0 .174.035.243.174l3.685 7.647 3.511-7.578c.07-.104.104-.208.209-.208.104 0 .139.104.173.347l.8 7.509zM102.561 20.268c-1.181-1.078-1.46-2.468-1.46-3.615 0-.835.279-2.26 1.356-3.337.73-.73 1.808-1.321 3.685-1.321.486 0 1.182.034 1.773.139.451.104.834.173 1.251.173.139 0 .139.07.139.14 0 .104-.035.243-.07.695 0 .417 0 1.077-.034 1.251 0 .174-.07.243-.139.243-.07 0-.105-.07-.105-.243 0-.487-.208-.973-.521-1.216-.417-.383-1.321-.661-2.364-.661-1.564 0-2.294.417-2.711.834-.904.87-1.078 1.947-1.078 3.198 0 2.33 1.773 4.45 4.345 4.45.904 0 1.495-.07 1.982-.591.278-.278.417-.8.452-1.008.034-.14.034-.174.139-.174.069 0 .104.07.104.174 0 .07-.174 1.147-.278 1.564-.07.243-.104.278-.313.348-.487.208-1.39.278-2.19.278-1.807 0-3.024-.452-3.963-1.321zM113.059 17.87c0 1.181 0 2.154.07 2.641.034.348.069.591.452.66.173.035.451.07.556.07.069 0 .104.07.104.104 0 .07-.069.105-.209.105-.66 0-1.459-.035-1.494-.035-.07 0-.835.035-1.182.035-.139 0-.209-.035-.209-.105 0-.034.035-.104.105-.104.104 0 .243-.035.382-.07.243-.069.278-.278.313-.66.069-.487.069-1.46.069-2.642v-2.155c0-1.912 0-2.26-.034-2.642-.035-.417-.139-.59-.383-.66-.139-.035-.278-.035-.382-.035-.07 0-.104-.07-.104-.104 0-.07.069-.104.208-.104.382 0 1.147.034 1.217.034.069 0 .834-.034 1.216-.034.139 0 .209.034.209.104 0 .034-.07.104-.104.104-.07 0-.174 0-.313.035-.313.07-.383.243-.417.66v4.797h-.07zM49.551 33.025c0-5.11.035-3.267 0-6.013 0-.557.035-.696.14-.696.104 0 .347.313.486.452.209.244 2.329 2.538 4.519 4.867 1.39 1.494 2.955 3.232 3.407 3.684l-.14-7.195c0-.904-.104-1.217-.556-1.356-.243-.07-.486-.07-.625-.07-.14 0-.209-.034-.209-.104 0-.069.104-.104.278-.104.626 0 1.321.035 1.46.035.14 0 .626-.035 1.217-.035.139 0 .243 0 .243.105 0 .069-.07.069-.139.104-.104 0-.209.034-.382.07-.383.069-.487.312-.487 1.285l-.035 8.274c0 .938-.035 1.008-.139 1.008-.104 0-.278-.14-1.043-.904-.139-.14-2.19-2.225-3.684-3.824a265.155 265.155 0 01-3.685-4.067l.174 6.778c.035 1.148.174 1.53.556 1.634.278.07.591.07.695.07.07 0 .105.034.105.07 0 .069-.07.103-.244.103-.8 0-1.39-.034-1.495-.034-.139 0-.73.035-1.355.035-.14 0-.243 0-.243-.105 0-.07.034-.07.104-.07.104 0 .382 0 .59-.069.348-.104.418-.521.418-1.807v-2.12h.07zM62.482 31.565c0-1.842 0-2.19-.034-2.572-.035-.383-.14-.591-.522-.695-.07 0-.243-.035-.347-.035-.105 0-.174-.035-.174-.07 0-.07.07-.104.208-.104.278 0 .66.035 1.46.035h2.885c.279 0 .452-.035.557-.07.07-.034.104-.034.139-.034.034 0 .07.034.07.104 0 .07-.07.278-.105.626 0 .243-.035.451-.035.73 0 .139-.035.208-.104.208-.07 0-.104-.07-.104-.139 0-.209-.07-.348-.105-.452-.07-.278-.208-.382-.903-.417-.174 0-1.6-.035-1.6-.035-.034 0-.069.035-.069.105v3.198c0 .069 0 .139.07.139.173 0 1.599 0 1.911-.035.313 0 .522-.07.66-.209.07-.07.105-.104.14-.104.035 0 .07 0 .07.07 0 .069-.07.347-.105.764-.035.383-.035.695-.07.87 0 .104-.034.138-.104.138-.07 0-.07-.07-.07-.174 0-.07 0-.243-.034-.347-.07-.174-.139-.383-.695-.417-.313-.035-1.46-.07-1.703-.07-.07 0-.105.035-.105.105V35.632c.035.522.105.8.383.904.208.104.556.139 1.042.139.279 0 .73 0 1.078-.07.417-.139.521-.417.626-.938.034-.14.07-.209.139-.209.07 0 .07.14.07.209 0 .104-.105 1.008-.14 1.216-.07.279-.139.313-.625.313-.939 0-1.321-.034-1.843-.034-.486 0-1.147-.035-1.668-.035-.313 0-.591.035-.939.035-.139 0-.208-.035-.208-.105 0-.07.07-.104.139-.104.07 0 .173 0 .278-.035.243-.07.417-.243.452-1.112 0-.487.034-1.078.034-2.155v-2.086zM69.886 31.565c0-1.947 0-2.225-.034-2.607-.035-.382-.14-.591-.522-.695-.104 0-.313-.035-.452-.035-.034 0-.07-.035-.07-.07 0-.069.07-.104.21-.104.625 0 1.39.035 1.46.035.312 0 1.007-.035 1.598-.035 1.565 0 2.12.522 2.33.695.277.244.625.8.625 1.6 0 1.564-1.286 2.71-3.059 2.71h-.278c-.07 0-.14-.034-.14-.069 0-.104.07-.104.349-.104 1.112 0 2.05-.765 2.05-2.016 0-.174.035-1.043-.625-1.704-.696-.73-1.495-.66-1.773-.66a1.81 1.81 0 00-.487.07c-.07.034-.07.139-.07.243v4.866c0 1.078 0 2.12.07 2.607.035.348.105.626.487.66.174.036.452.07.556.07.07 0 .07.035.07.07 0 .07-.07.104-.209.104-.73 0-1.53-.035-1.599-.035 0 0-.834.035-1.251.035-.14 0-.209-.035-.209-.104 0-.035.035-.07.104-.07.105 0 .244-.034.383-.07.243-.034.313-.312.382-.66.07-.52.07-1.529.07-2.607v-2.12h.034zM77.812 31.565c0-1.877 0-2.225-.035-2.607-.035-.382-.139-.591-.556-.695-.07 0-.243-.035-.348-.035-.104 0-.139-.035-.139-.07 0-.069.035-.104.174-.104.626 0 1.46.035 1.495.035.139 0 1.077-.035 1.494-.035.8 0 1.669.07 2.33.522.277.208.834.764.834 1.738 0 .764-.383 1.772-1.495 2.676 1.043 1.286 1.877 2.33 2.607 3.06.695.694 1.112.799 1.495.868.104 0 .382.035.452.035.104 0 .139.035.139.104 0 .07-.07.104-.244.104h-1.008c-.66 0-.973-.034-1.286-.173-.59-.244-1.008-.904-1.773-1.843-.556-.695-1.112-1.46-1.355-1.738-.07-.07-.07-.07-.174-.07h-1.46c-.07 0-.07 0-.07.07v.209c0 1.147 0 2.155.07 2.676.035.348.07.626.556.696.14 0 .313.035.417.035.14 0 .174.034.174.069 0 .07-.07.104-.209.104-.73 0-1.529-.035-1.599-.035-.243 0-.834.035-1.216.035-.14 0-.209-.035-.209-.104 0-.035.07-.07.174-.07.104 0 .209 0 .313-.034.243-.035.313-.209.382-.522.07-.521.07-1.668.07-2.746v-2.155zm1.112 1.008c0 .07 0 .14.07.174.174.104.764.174 1.251.174.313 0 .66 0 .939-.209.417-.278.695-.904.695-1.807 0-1.53-.834-2.399-2.086-2.399-.347 0-.66.035-.834.07-.035 0-.07.07-.07.139v3.858h.035z" fill="#272A33"/>
  <path d="M87.023 31.565c0-1.842 0-2.19-.034-2.572-.035-.383-.14-.591-.522-.695-.07 0-.243-.035-.347-.035-.105 0-.174-.035-.174-.07 0-.07.07-.104.208-.104.279 0 .66.035 1.46.035H90.5c.279 0 .452-.035.557-.07.07-.034.104-.034.139-.034.034 0 .07.034.07.104 0 .07-.07.278-.105.626 0 .243-.035.451-.035.73 0 .139-.035.208-.104.208-.07 0-.104-.07-.104-.139 0-.209-.07-.348-.105-.452-.07-.278-.208-.382-.903-.417-.174 0-1.6-.035-1.6-.035-.034 0-.069.035-.069.105v3.198c0 .069 0 .139.07.139.173 0 1.599 0 1.911-.035.313 0 .522-.07.66-.209.07-.07.105-.104.14-.104.035 0 .07 0 .07.07 0 .069-.07.347-.105.764-.035.383-.035.695-.07.87 0 .104-.034.138-.104.138-.07 0-.07-.07-.07-.174 0-.07 0-.243-.034-.347-.07-.174-.139-.383-.695-.417-.313-.035-1.46-.07-1.704-.07-.069 0-.104.035-.104.105V35.632c.035.522.105.8.383.904.208.104.556.139 1.042.139.279 0 .73 0 1.078-.07.417-.139.521-.417.626-.938.034-.14.07-.209.139-.209.07 0 .07.14.07.209 0 .104-.105 1.008-.14 1.216-.07.279-.139.313-.626.313-.938 0-1.32-.034-1.842-.034-.486 0-1.147-.035-1.668-.035-.313 0-.591.035-.939.035-.139 0-.208-.035-.208-.105 0-.07.07-.104.139-.104.07 0 .173 0 .278-.035.243-.07.417-.243.452-1.112 0-.487.034-1.078.034-2.155v-2.086zM104.021 35.632c.035.348.139 1.147.696 1.251.243.07.521.07.73.105.069 0 .173 0 .173.07 0 .069-.069.103-.208.103-.243 0-1.773-.069-2.225-.069-.313-.035-.417-.07-.417-.14 0-.034.07-.103.139-.138.07-.035.104-.209.07-.383l-.626-6.048-2.99 6.083c-.278.556-.312.695-.451.695-.07 0-.14-.139-.418-.625-.243-.417-1.355-2.677-1.46-2.816-.069-.174-1.46-2.92-1.599-3.198l-.52 5.458v.521c0 .14.069.382.347.417.139.035.243.035.382.035.104 0 .14.07.14.07 0 .104-.07.104-.244.104-.452 0-1.078-.035-1.182-.035-.14 0-.73.035-1.078.035-.139 0-.208 0-.208-.105 0-.034.07-.07.174-.07h.278c.347-.034.452-.381.521-.938l.939-7.786c.034-.243.07-.348.139-.348.07 0 .104.035.208.244l3.79 7.334 3.614-7.334c.07-.14.139-.244.209-.244.069 0 .139.14.139.348l.938 7.404zM107.776 31.565c0-1.877 0-2.225-.035-2.607-.035-.382-.104-.591-.417-.66-.139-.035-.244-.035-.313-.035-.104 0-.139-.035-.139-.105 0-.069.069-.104.208-.104.452 0 1.252.035 1.287.035.069 0 .869-.035 1.286-.035.139 0 .208.035.208.105 0 .069-.035.069-.139.104-.069 0-.139 0-.243.034-.417.07-.452.279-.487.696-.035.382 0 .695 0 2.572v2.12c0 1.078 0 2.086.07 2.607.069.418.104.557.486.66a5.5 5.5 0 00.522.07c.139 0 .139.035.139.105 0 .07-.07.104-.209.104-.73 0-1.529-.035-1.599-.035-.034 0-.869.035-1.286.035-.139 0-.243-.035-.243-.104 0-.07.069-.105.174-.105.069 0 .243 0 .347-.034.244-.07.278-.348.313-.696.07-.52.07-1.529.07-2.572v-2.155zM113.302 36.049c-1.216-1.043-1.529-2.434-1.529-3.615 0-.8.313-2.19 1.425-3.268.765-.73 1.912-1.251 3.824-1.251.66 0 1.182.07 1.877.139.452.07.904.139 1.251.139.105 0 .139.07.139.139 0 .104-.034.243-.069.695 0 .383 0 1.147-.035 1.286 0 .209-.035.278-.104.278-.105 0-.105-.07-.105-.278 0-.417-.208-.973-.556-1.216-.417-.383-1.425-.73-2.502-.73-1.565 0-2.295.451-2.712.834-.904.834-1.147 1.842-1.147 3.094 0 2.363 1.912 4.414 4.415 4.414.973 0 1.668-.104 2.155-.59.243-.279.382-.626.452-1.009.035-.139.069-.208.139-.208.069 0 .069.104.069.208 0 .105-.173 1.252-.278 1.565-.069.243-.139.278-.313.347-.486.209-1.46.278-2.224.278-1.912.07-3.198-.382-4.172-1.251zm3.025-9.073c-.244-.139-1.426-.973-1.669-1.147-.139-.104-.139-.139-.139-.139 0-.035.035-.035.07-.07l.486-.312c.035-.035.07-.07.139 0 .348.313 1.147.834 1.391.973.069.035.139.07.173.07.035 0 .07 0 .209-.07.348-.174 1.078-.626 1.53-.869a.552.552 0 01.278-.104c.069 0 .104.07-.035.174-.522.382-1.773 1.355-1.947 1.494-.139.07-.208.14-.243.14-.035-.07-.104-.07-.243-.14zM122.862 28.506c0-.452.034-.591.139-.591.104 0 .347.278.452.382.139.14 2.085 2.156 4.067 4.172 1.112 1.077 2.537 2.537 2.885 2.885l-.139-5.875c0-.764-.105-1.008-.487-1.112-.243-.035-.452-.07-.556-.07-.139 0-.174-.07-.174-.104 0-.07.104-.07.243-.07.626 0 1.217.035 1.321.035.139 0 .591-.034 1.147-.034.139 0 .209 0 .209.07 0 .069-.035.103-.139.103-.07 0-.209 0-.348.035-.313.07-.417.209-.417 1.078l-.035 7.126c0 .695-.034.764-.139.764-.104 0-.243-.104-.938-.764-.07-.035-2.016-1.982-3.268-3.198-1.46-1.53-2.885-2.99-3.232-3.372l.173 5.527c.035.973.105 1.355.452 1.425.244.07.452.07.591.07.139 0 .174.034.174.104 0 .07-.07.104-.243.104-.765 0-1.286-.035-1.391-.035-.104 0-.625.035-1.216.035-.139 0-.209 0-.209-.104 0-.07.07-.104.209-.104.104 0 .243 0 .452-.07.312-.104.382-.487.382-1.53.035-6.708.035-4.518.035-6.882zM134.472 31.565c0-1.877 0-2.225-.035-2.607-.035-.382-.104-.591-.417-.66-.139-.035-.244-.035-.313-.035-.104 0-.139-.035-.139-.105 0-.069.069-.104.208-.104.452 0 1.252.035 1.287.035.069 0 .869-.035 1.286-.035.139 0 .208.035.208.105 0 .069-.034.069-.139.104-.069 0-.139 0-.243.034-.417.07-.452.279-.487.696-.034.382 0 .695 0 2.572v2.12c0 1.078 0 2.086.07 2.607.069.418.104.557.486.66a5.5 5.5 0 00.522.07c.139 0 .139.035.139.105 0 .07-.07.104-.209.104-.73 0-1.529-.035-1.599-.035-.034 0-.869.035-1.286.035-.139 0-.243-.035-.243-.104 0-.07.069-.105.174-.105.069 0 .243 0 .347-.034.244-.07.278-.348.313-.696.07-.52.07-1.529.07-2.572v-2.155zM139.373 28.506c0-.452.035-.591.139-.591.104 0 .348.278.452.382.139.14 2.086 2.156 4.067 4.172 1.112 1.077 2.537 2.537 2.885 2.885l-.139-5.875c0-.764-.104-1.008-.487-1.112-.243-.035-.452-.07-.556-.07-.139 0-.174-.07-.174-.104 0-.07.105-.07.244-.07.625 0 1.216.035 1.321.035.139 0 .591-.034 1.147-.034.139 0 .208 0 .208.07 0 .069-.034.103-.139.103-.069 0-.208 0-.347.035-.313.07-.417.209-.417 1.078l-.035 7.126c0 .695-.035.764-.139.764-.105 0-.244-.104-.939-.764-.069-.035-2.016-1.982-3.267-3.198-1.46-1.53-2.885-2.99-3.233-3.372l.174 5.527c.034.973.104 1.355.452 1.425.243.07.451.07.591.07.139 0 .173.034.173.104 0 .07-.069.104-.243.104-.765 0-1.286-.035-1.39-.035-.105 0-.626.035-1.217.035-.139 0-.209 0-.209-.104 0-.07.07-.104.209-.104.104 0 .243 0 .452-.07.313-.104.382-.487.382-1.53.035-6.708.035-4.518.035-6.882zM150.948 31.6c0-1.843 0-2.19-.035-2.573-.034-.382-.139-.59-.521-.695-.07 0-.243-.035-.348-.035-.104 0-.173-.034-.173-.069 0-.07.069-.104.208-.104.278 0 .661.035 1.46.035h2.885c.278 0 .452-.035.556-.07.07-.035.105-.035.139-.035.035 0 .07.035.07.105 0 .069-.07.278-.104.625 0 .244-.035.452-.035.73 0 .14-.035.209-.104.209-.07 0-.105-.07-.105-.14 0-.208-.069-.347-.104-.451-.069-.278-.208-.383-.904-.417-.173 0-1.599-.035-1.599-.035-.034 0-.069.035-.069.104v3.198c0 .07 0 .14.069.14.174 0 1.599 0 1.912-.036.313 0 .522-.07.661-.208.069-.07.104-.104.139-.104.034 0 .069 0 .069.07 0 .069-.069.347-.104.764-.035.382-.035.695-.07.869 0 .104-.034.139-.104.139-.069 0-.069-.07-.069-.174 0-.07 0-.243-.035-.348-.07-.173-.139-.382-.695-.417-.313-.034-1.46-.07-1.704-.07-.069 0-.104.036-.104.105v2.955c.035.521.104.8.382.904.209.104.557.139 1.043.139.278 0 .73 0 1.078-.07.417-.139.521-.417.626-.938.034-.14.069-.209.139-.209.069 0 .069.139.069.209 0 .104-.104 1.008-.139 1.216-.069.278-.139.313-.626.313-.938 0-1.321-.035-1.842-.035-.487 0-1.147-.035-1.668-.035-.313 0-.591.035-.939.035-.139 0-.209-.035-.209-.104 0-.07.07-.104.139-.104.07 0 .174 0 .279-.035.243-.07.417-.243.451-1.112 0-.487.035-1.078.035-2.156V31.6z" fill="#272A33"/>
  <path d="M51.359 50.753c.417-.904 1.32-3.163 1.46-3.65a1.41 1.41 0 00.07-.243c0-.035-.035-.105-.105-.14-.07-.034-.174-.034-.243-.034a.075.075 0 01-.07-.07c0-.034.035-.07.174-.07h1.217c.07 0 .104 0 .104.036 0 .034-.035.07-.07.07-.034 0-.208 0-.312.069-.105.07-.209.174-.383.625-.07.174-.417.974-.764 1.808-.418.973-.73 1.703-.904 2.016-.174.417-.244.487-.313.487-.07 0-.14-.07-.243-.417l-1.738-3.998c-.174-.382-.244-.452-.487-.487-.104-.034-.243-.034-.278-.034a.075.075 0 01-.07-.07c0-.035.07-.035.174-.035h1.46c.14 0 .174 0 .174.035s-.035.07-.07.07c-.07 0-.174 0-.243.034-.07.035-.07.07-.07.105 0 .07.07.278.174.556l1.356 3.337z" fill="#87764E"/>
  <path fill-rule="evenodd" clip-rule="evenodd" d="M53.5 46.651h-.63c.034.024.06.053.08.081a.24.24 0 01.043.127.28.28 0 01-.009.062 5.452 5.452 0 01-.065.212c-.144.5-1.048 2.76-1.465 3.663l-.101.219-1.447-3.563a8.133 8.133 0 01-.128-.361 1.997 1.997 0 01-.037-.13.46.46 0 01-.016-.102v-.002c0-.017 0-.056.02-.096a.183.183 0 01.027-.04h-.774a.44.44 0 01.097.074c.085.084.153.215.239.404v.001l1.74 4.003.003.006c.051.173.091.265.122.313l.02.027a.226.226 0 00.032-.038c.041-.06.099-.173.186-.381l.002-.006.003-.005c.17-.306.48-1.03.898-2.006.201-.482.401-.95.548-1.293.108-.253.187-.438.216-.512.165-.429.276-.57.397-.657zm.538-.159a.133.133 0 01.032.09.174.174 0 01-.052.121.173.173 0 01-.121.052c-.017 0-.063 0-.116.008a.355.355 0 00-.14.044c-.077.052-.171.131-.342.577-.03.075-.111.264-.22.52-.148.346-.348.813-.546 1.29l-.006.014c-.41.958-.723 1.687-.9 2.007-.086.206-.15.335-.204.414a.363.363 0 01-.09.096.195.195 0 01-.224.002.309.309 0 01-.085-.092 1.498 1.498 0 01-.145-.36l-1.736-3.99c-.087-.194-.141-.289-.195-.343-.046-.046-.098-.067-.21-.084h-.01l-.009-.004a.881.881 0 00-.245-.03.174.174 0 01-.122-.051.174.174 0 01-.052-.122c0-.053.03-.09.063-.11a.197.197 0 01.074-.024c.038-.005.088-.005.135-.005H50.049c.06 0 .11 0 .145.006.019.003.052.01.08.035.034.031.042.07.042.098a.174.174 0 01-.052.121.174.174 0 01-.122.053c-.035 0-.073 0-.11.004a.26.26 0 00-.098.026v.005a1.751 1.751 0 00.043.168c.03.093.072.212.123.35l1.264 3.11c.446-1.005 1.228-2.97 1.355-3.414v-.004l.048-.145a.87.87 0 00.016-.063.1.1 0 00-.046-.048.257.257 0 00-.085-.02 1.14 1.14 0 00-.111-.004.174.174 0 01-.122-.052.173.173 0 01-.052-.122.15.15 0 01.025-.083.171.171 0 01.067-.058.422.422 0 01.186-.033h1.224a.42.42 0 01.096.008.14.14 0 01.072.042z" fill="#87764E"/>
  <path d="M55.183 48.528v-1.425c0-.243-.07-.348-.279-.382h-.243a.075.075 0 01-.07-.07c0-.035.035-.07.105-.07h2.433c.14 0 .244-.034.313-.034.035 0 .07-.035.104-.035.035 0 .035.035.035.07s-.035.139-.07.313c0 .07-.034.347-.034.451 0 .035-.035.07-.07.07a.075.075 0 01-.07-.07c0-.034 0-.173-.034-.243-.035-.104-.104-.174-.487-.208-.104 0-.903-.035-1.008-.035-.035 0-.035.035-.035.07v1.807c0 .035 0 .07.035.07h1.147c.174 0 .279-.035.348-.105.035-.035.07-.07.104-.07.035 0 .035 0 .035.07 0 .035-.035.14-.07.383 0 .139-.034.382-.034.417 0 .07 0 .139-.07.139-.035 0-.035-.035-.035-.07 0-.07 0-.139-.034-.208-.035-.105-.07-.174-.348-.209-.174-.035-.938-.035-1.043-.035-.035 0-.035.035-.035.035v1.703c0 .452.14.522.835.522.174 0 .521 0 .695-.07.174-.07.278-.208.313-.452 0-.07.035-.104.07-.104.034 0 .034.07.034.104 0 .035-.07.487-.104.66-.035.175-.104.175-.383.175-.52 0-.903 0-1.216-.035h-.556-.73c-.07 0-.105 0-.105-.07 0-.035 0-.07.07-.07s.139-.034.209-.034c.139-.035.139-.174.173-.348.035-.278.035-.8.035-1.46v-1.147h.07z" fill="#87764E"/>
  <path fill-rule="evenodd" clip-rule="evenodd" d="M57.46 46.65a.162.162 0 01-.018.001c-.02 0-.043.004-.083.01l-.03.006a1.187 1.187 0 01-.2.019h-2.014a.332.332 0 01.092.087c.063.088.08.202.08.33v1.53h-.07v1.055c0 .65 0 1.176-.035 1.46v.004l-.001.004-.014.072-.008.049a.778.778 0 01-.03.12.311.311 0 01-.069.114.258.258 0 01-.052.041H56.028c.306.035.682.035 1.206.035.07 0 .123 0 .166-.003a.278.278 0 00.078-.012c.01-.003.012-.006.015-.01a.195.195 0 00.02-.065c.012-.056.027-.144.042-.237a.566.566 0 01-.213.146c-.104.041-.249.06-.38.068-.133.009-.267.009-.353.009h-.001c-.175 0-.32-.005-.436-.019a.74.74 0 01-.296-.088c-.174-.105-.207-.29-.207-.519v-1.703h.06-.06v-.004-.005a.158.158 0 01.016-.055.136.136 0 01.123-.075c.053 0 .27 0 .498.004.113.002.23.006.329.01.094.005.18.012.233.022.14.018.24.046.31.097.038.027.063.06.082.091a1.86 1.86 0 00.008-.155v-.007l.001-.008c.015-.102.03-.18.042-.24a.645.645 0 01-.356.081h-1.147a.135.135 0 01-.084-.027.136.136 0 01-.045-.066.248.248 0 01-.01-.077v-1.811-.003c0-.014 0-.048.01-.078a.136.136 0 01.045-.065.136.136 0 01.084-.028c.054 0 .28.009.5.017h.008c.228.01.45.018.5.018h.01c.193.018.323.045.41.09a.311.311 0 01.158.17c.008-.074.013-.132.013-.156v-.01l.002-.01c.018-.09.036-.16.05-.213l.002-.011zm-1.582 2.573v1.634c0 .224.036.299.106.341a.544.544 0 00.213.06c.104.012.238.016.41.016.088 0 .215 0 .342-.008.13-.009.245-.026.315-.054a.349.349 0 00.162-.124.551.551 0 00.086-.24c.003-.095.059-.2.173-.2.051 0 .087.029.106.057a.18.18 0 01.027.067c.007.032.007.067.007.083v.002c0 .012-.003.03-.004.044a13.077 13.077 0 01-.102.637.389.389 0 01-.05.136.231.231 0 01-.116.093.472.472 0 01-.141.026c-.05.003-.108.003-.176.003h-.009c-.513 0-.898 0-1.216-.035H54.73c-.016 0-.035 0-.053-.002a.193.193 0 01-.07-.018.145.145 0 01-.068-.071.202.202 0 01-.016-.083v-.002a.182.182 0 01.026-.104c.038-.056.1-.068.148-.068.02 0 .042-.005.079-.014l.004-.001a.56.56 0 01.11-.02.056.056 0 00.022-.013.108.108 0 00.021-.039.591.591 0 00.029-.128l.014-.08c.034-.27.034-.781.034-1.443v-1.251h.07v-1.321c0-.116-.018-.175-.042-.209-.02-.028-.057-.054-.141-.07h-.235a.174.174 0 01-.121-.051.174.174 0 01-.053-.122c0-.118.112-.174.209-.174h2.433a.981.981 0 00.188-.02c.038-.006.08-.014.117-.014a.178.178 0 01.112-.035c.027 0 .058.007.084.028.026.02.04.045.046.065.01.03.01.063.01.077v.003a.299.299 0 01-.009.062l-.016.067v.001c-.013.05-.03.115-.045.195-.002.04-.008.111-.015.182l-.003.03a3.19 3.19 0 00-.017.228.174.174 0 01-.052.122.174.174 0 01-.122.052.174.174 0 01-.121-.052.174.174 0 01-.053-.122c0-.017 0-.056-.003-.099a.323.323 0 00-.02-.097l-.004-.007-.002-.007a.124.124 0 00-.02-.04.115.115 0 00-.04-.03c-.051-.025-.146-.05-.333-.067-.061 0-.28-.01-.495-.018h-.008l-.43-.016v1.737h1.077c.162 0 .233-.033.274-.074l.002-.002c.016-.016.038-.038.062-.055a.193.193 0 01.114-.043h.002c.005 0 .024 0 .041.004a.12.12 0 01.081.062c.013.026.014.052.015.062v.046a.322.322 0 01-.008.061l-.008.039-.008.035a3.72 3.72 0 00-.045.255c0 .075-.01.171-.018.25l-.009.079a4.298 4.298 0 00-.008.08v.006c0 .03 0 .08-.014.123a.168.168 0 01-.055.08.167.167 0 01-.105.035.136.136 0 01-.084-.028.137.137 0 01-.045-.065.25.25 0 01-.01-.078v-.003a.345.345 0 00-.023-.162l-.004-.007-.002-.007c-.017-.049-.026-.065-.045-.079-.026-.018-.082-.042-.217-.059h-.007a1.754 1.754 0 00-.207-.02 25.023 25.023 0 00-.746-.015z" fill="#87764E"/>
  <path d="M59.702 48.528v-1.425c0-.243-.07-.348-.279-.383h-.243a.075.075 0 01-.07-.069c0-.035.035-.07.105-.07h1.738c.695 0 1.947-.069 2.78.765.348.348.661.904.661 1.704 0 .834-.347 1.494-.73 1.877-.313.312-.904.764-2.085.764-.313 0-.66-.035-.974-.035-.313-.034-.521-.034-.556-.034H59.354c-.07 0-.104 0-.104-.07 0-.035 0-.07.07-.07.069 0 .138 0 .208-.034.139-.035.139-.174.174-.348.034-.278.034-.8.034-1.46v-1.112h-.034zm.625.73v1.46c0 .174.035.417.07.487.07.139.313.278 1.147.278.626 0 1.217-.209 1.634-.591.347-.348.556-.974.556-1.6a2.34 2.34 0 00-.66-1.668c-.661-.66-1.426-.73-2.225-.73-.14 0-.348.035-.417.035-.07.035-.07.07-.07.14v2.19h-.035z" fill="#87764E"/>
  <path fill-rule="evenodd" clip-rule="evenodd" d="M61.104 46.685l-.151.001h-1.32a.332.332 0 01.092.087c.063.088.08.202.08.33v1.321h.035v1.23c0 .65 0 1.175-.035 1.46v.003l-.001.004a2.9 2.9 0 00-.014.073l-.008.048a.775.775 0 01-.03.12.311.311 0 01-.069.114.254.254 0 01-.052.042h.418c.037 0 .247 0 .562.035.15 0 .306.008.46.016a2.127 2.127 0 01-.417-.073c-.19-.057-.298-.14-.35-.244a.495.495 0 01-.035-.105 2.213 2.213 0 01-.047-.43v-1.563h.036v-2.086-.006c0-.029 0-.074.016-.115a.214.214 0 01.11-.11l.023-.012h.024c.023 0 .067-.005.13-.012l.041-.005a2.4 2.4 0 01.247-.018c.804 0 1.606.07 2.298.76.293.293.691.875.691 1.743 0 .644-.214 1.3-.587 1.673l-.003.003c-.436.4-1.047.615-1.689.618h.02c1.149 0 1.714-.437 2.011-.734.364-.364.7-.998.7-1.803 0-.77-.3-1.3-.63-1.63-.397-.397-.895-.581-1.387-.666-.425-.073-.837-.07-1.169-.069zm-.673 2.678v1.355a2.01 2.01 0 00.042.383.334.334 0 00.017.057c.017.034.065.09.223.138.16.048.418.083.83.083.604 0 1.167-.201 1.562-.562.321-.322.524-.917.524-1.524 0-.8-.366-1.331-.63-1.595-.629-.629-1.356-.7-2.15-.7-.063 0-.145.009-.224.018l-.036.004c-.044.005-.088.01-.122.012v2.331h-.036zm-.8-.73h-.034v-1.53c0-.115-.017-.175-.041-.209-.02-.028-.057-.054-.142-.069h-.234a.174.174 0 01-.121-.052.174.174 0 01-.053-.122c0-.118.111-.174.209-.174H61.1c.33-.002.763-.005 1.208.072.517.089 1.061.286 1.498.724.366.365.691.948.691 1.777 0 .863-.36 1.55-.76 1.95-.329.33-.945.796-2.16.796-.159 0-.326-.009-.49-.017h-.002a9.368 9.368 0 00-.48-.018h-.012c-.307-.035-.512-.035-.545-.035h-.697l-.052-.001a.19.19 0 01-.071-.018.145.145 0 01-.068-.072.202.202 0 01-.016-.082v-.003c0-.013-.001-.062.026-.103.038-.056.1-.068.148-.068a.343.343 0 00.162-.024l.01-.005.011-.003a.062.062 0 00.032-.016.107.107 0 00.021-.04.569.569 0 00.029-.128l.014-.079c.034-.27.034-.782.034-1.443v-1.008z" fill="#87764E"/>
  <path d="M66.48 50.718c0 .556.07.73.278.765.139.034.278.034.348.034.034 0 .069.035.069.07s-.035.07-.139.07c-.382 0-.66-.035-.73-.035-.07 0-.348.034-.66.034-.07 0-.105 0-.105-.07 0-.034.035-.069.07-.069.07 0 .174 0 .278-.034.174-.035.208-.244.208-.835v-3.823c0-.278.035-.348.105-.348.07 0 .208.14.278.209.104.104 1.112 1.181 2.19 2.294.695.695 1.425 1.495 1.633 1.703l-.069-3.337c0-.417-.035-.59-.243-.626-.14-.034-.278-.034-.348-.034a.075.075 0 01-.07-.07c0-.035.07-.035.14-.035H71.032c.07 0 .14 0 .14.035s-.035.07-.07.07h-.174c-.243.034-.243.173-.243.59v3.928c0 .452 0 .487-.07.487s-.139-.07-.521-.417c-.07-.07-1.078-1.043-1.808-1.807-.8-.835-1.564-1.669-1.807-1.878v3.129z" fill="#87764E"/>
  <path fill-rule="evenodd" clip-rule="evenodd" d="M66.218 46.594c-.01.039-.016.109-.016.23v3.825c0 .293-.008.505-.042.649a.455.455 0 01-.085.19.276.276 0 01-.054.05c.013 0 .026-.002.038-.003l.105-.008c.064-.005.115-.01.142-.01.025 0 .072.004.132.01l.123.008.043.003a.402.402 0 01-.161-.206c-.05-.136-.067-.336-.067-.614v-3.355l.172.148c.126.108.383.374.703.71l.343.364c.24.254.502.532.769.81a74.844 74.844 0 001.804 1.804l.094.086c.135.123.22.2.278.248a.955.955 0 00.038.03c.004-.065.005-.174.005-.358v-3.93c0-.103 0-.192.004-.267a.78.78 0 01.031-.203.318.318 0 01.07-.12h-.514a.359.359 0 01.116.17c.041.12.05.285.05.49l.074 3.596-.183-.184c-.075-.075-.216-.225-.397-.417l-.24-.254a52 52 0 00-.997-1.032l-.001-.001c-.734-.758-1.432-1.496-1.838-1.924a41.958 41.958 0 00-.35-.37 2.047 2.047 0 00-.133-.123.555.555 0 00-.056-.042zm3.412.096zm1.485 0zm-.178.1a.205.205 0 00-.088.03c-.013.008-.024.022-.034.05a.589.589 0 00-.021.149c-.004.069-.004.153-.004.258v3.945c0 .21 0 .337-.01.41a.21.21 0 01-.048.119.154.154 0 01-.116.045c-.076 0-.137-.043-.21-.102-.062-.052-.152-.134-.287-.257l-.094-.085-.002-.002-.002-.002-.09-.089c-.276-.268-1.098-1.07-1.719-1.72-.267-.279-.53-.557-.77-.812l-.343-.362a28.6 28.6 0 00-.515-.533v2.886c0 .279.018.444.054.542a.197.197 0 00.055.087.164.164 0 00.082.033h.004l.004.002c.126.031.253.031.323.031.05 0 .093.025.121.053.028.027.052.07.052.121a.16.16 0 01-.08.137.315.315 0 01-.163.037 7.064 7.064 0 01-.632-.028 1.672 1.672 0 00-.098-.007c-.018 0-.054.003-.108.008l-.123.01a5.83 5.83 0 01-.43.017h-.002c-.015 0-.034 0-.052-.002a.193.193 0 01-.07-.018.145.145 0 01-.069-.071.202.202 0 01-.015-.083c0-.051.025-.094.052-.121a.174.174 0 01.122-.053c.07 0 .159 0 .245-.03l.006-.001.006-.001a.072.072 0 00.046-.026.259.259 0 00.043-.104c.027-.117.036-.305.036-.602v-3.824c0-.14.008-.241.032-.311a.218.218 0 01.064-.102.172.172 0 01.113-.039c.047 0 .089.021.116.037.03.019.061.042.09.065.055.047.11.102.145.136v.001c.034.034.162.169.356.374.408.43 1.107 1.17 1.835 1.92a51.902 51.902 0 011.245 1.295l.205.218-.064-3.073c0-.21-.01-.34-.038-.422a.153.153 0 00-.043-.07.15.15 0 00-.076-.03l-.004-.001-.004-.001a1.34 1.34 0 00-.322-.032.174.174 0 01-.121-.052.174.174 0 01-.053-.122c0-.051.03-.088.06-.107a.187.187 0 01.07-.026c.036-.006.078-.006.11-.006h1.329a.7.7 0 01.108.006c.018.003.046.01.071.026.03.02.06.056.06.107a.174.174 0 01-.052.122.173.173 0 01-.122.052h-.166zm-.317 4.797h-.002.002z" fill="#87764E"/>
  <path d="M74.753 46.512c1.564 0 2.746.939 2.746 2.503 0 1.495-1.112 2.711-2.78 2.711-1.878 0-2.712-1.425-2.712-2.607 0-1.077.834-2.607 2.746-2.607zm.174 4.936c.625 0 1.877-.313 1.877-2.26 0-1.598-.974-2.433-2.051-2.433-1.147 0-1.981.73-1.981 2.19-.035 1.53.903 2.503 2.155 2.503z" fill="#87764E"/>
  <path fill-rule="evenodd" clip-rule="evenodd" d="M74.753 46.616c-1.84 0-2.642 1.468-2.642 2.503 0 .568.2 1.195.626 1.678.423.48 1.072.825 1.981.825 1.61 0 2.677-1.17 2.677-2.607 0-.754-.284-1.35-.751-1.76-.469-.41-1.13-.639-1.891-.639zm-2.85 2.503c0-1.12.867-2.711 2.85-2.711.802 0 1.515.24 2.028.69.515.452.822 1.106.822 1.917 0 1.551-1.158 2.815-2.885 2.815-.967 0-1.674-.368-2.138-.895a2.785 2.785 0 01-.677-1.816zm1.354-1.889c.375-.389.9-.579 1.496-.579.566 0 1.107.22 1.506.65.399.431.649 1.067.649 1.888 0 .997-.322 1.594-.742 1.94-.416.342-.912.423-1.24.423-.653 0-1.23-.255-1.637-.712-.407-.458-.64-1.11-.622-1.896 0-.75.215-1.325.59-1.714zm.15.145c-.329.341-.531.86-.531 1.57v.003c-.017.742.202 1.341.569 1.753.366.411.884.643 1.482.643.298 0 .74-.075 1.107-.376.361-.298.665-.83.665-1.78 0-.777-.236-1.359-.593-1.745a1.82 1.82 0 00-1.353-.583c-.551 0-1.017.175-1.346.515z" fill="#87764E"/>
  <path d="M83.617 50.753c.417-.904 1.32-3.163 1.46-3.65.035-.104.07-.208.07-.243s-.035-.105-.105-.14c-.07-.034-.174-.034-.243-.034a.075.075 0 01-.07-.07c0-.034.035-.069.174-.069h1.217c.07 0 .104 0 .104.035s-.035.07-.07.07c-.034 0-.208 0-.312.069-.105.07-.209.174-.383.626-.07.173-.417.973-.764 1.807-.418.973-.73 1.703-.904 2.016-.174.417-.244.487-.313.487-.07 0-.14-.07-.243-.417l-1.704-4.102c-.174-.383-.243-.452-.486-.487-.105-.035-.244-.035-.279-.035a.075.075 0 01-.069-.069c0-.035.07-.035.174-.035h1.46c.139 0 .174 0 .174.035s-.035.07-.07.07a.59.59 0 00-.243.034c-.07.035-.07.07-.07.104 0 .07.07.279.174.557l1.32 3.441z" fill="#87764E"/>
  <path fill-rule="evenodd" clip-rule="evenodd" d="M82.065 46.616h-.775a.44.44 0 01.098.074c.085.085.152.216.238.404l.001.004 1.706 4.106.001.005c.052.173.092.265.123.313a.16.16 0 00.02.027.223.223 0 00.032-.038c.041-.06.099-.173.185-.381l.003-.006.002-.005c.17-.306.48-1.03.9-2.006.2-.482.4-.95.547-1.293.107-.253.186-.438.216-.512.165-.429.276-.569.397-.657h-.63c.033.024.059.053.078.081a.24.24 0 01.044.128.288.288 0 01-.01.061l-.016.064-.049.149c-.143.499-1.047 2.759-1.465 3.663l-.103.224-1.41-3.673a8.023 8.023 0 01-.127-.361 1.99 1.99 0 01-.038-.13.455.455 0 01-.015-.102v-.003c0-.016 0-.055.02-.095a.183.183 0 01.027-.04zm.502-.167c.034.031.042.07.042.098a.174.174 0 01-.052.121.174.174 0 01-.122.053c-.035 0-.074 0-.111.003a.26.26 0 00-.098.027v.004a1.751 1.751 0 00.043.168c.03.094.073.213.124.352l1.232 3.207c.446-1.007 1.225-2.965 1.352-3.408v-.004l.048-.145a.93.93 0 00.014-.051l.002-.012a.101.101 0 00-.046-.048.261.261 0 00-.085-.02 1.142 1.142 0 00-.111-.004.173.173 0 01-.122-.052.174.174 0 01-.052-.122.15.15 0 01.025-.083.172.172 0 01.067-.058.422.422 0 01.186-.032h1.223a.42.42 0 01.097.007.133.133 0 01.105.132.174.174 0 01-.052.121.174.174 0 01-.122.052c-.016 0-.062 0-.115.008a.354.354 0 00-.14.044c-.077.052-.171.131-.343.577v.001c-.03.074-.11.263-.22.52-.147.345-.347.813-.545 1.289l-.006.013c-.41.959-.723 1.688-.9 2.008-.086.206-.15.335-.204.414a.364.364 0 01-.09.096.195.195 0 01-.224.002.31.31 0 01-.086-.092 1.5 1.5 0 01-.145-.36l-1.7-4.096c-.088-.192-.142-.287-.196-.341-.046-.046-.097-.068-.21-.084l-.01-.001-.008-.003a.881.881 0 00-.246-.03.174.174 0 01-.121-.052.174.174 0 01-.052-.121c0-.053.03-.09.063-.11a.199.199 0 01.074-.024c.038-.005.088-.005.135-.005h1.476c.06 0 .111 0 .146.005.018.004.052.01.08.036z" fill="#87764E"/>
  <path d="M87.44 48.528v-1.425c0-.243-.069-.348-.278-.382h-.243a.075.075 0 01-.07-.07c0-.035.035-.07.105-.07h2.433c.14 0 .243-.034.313-.034.035 0 .07-.035.104-.035.035 0 .035.035.035.07s-.035.139-.07.313c0 .07-.034.347-.034.451 0 .035-.035.07-.07.07a.075.075 0 01-.07-.07c0-.034 0-.173-.034-.243-.035-.104-.104-.174-.487-.208-.104 0-.903-.035-1.008-.035-.035 0-.035.035-.035.07v1.807c0 .035 0 .07.035.07h1.147c.174 0 .278-.035.348-.105.035-.035.07-.07.104-.07.035 0 .035 0 .035.07 0 .035-.035.14-.07.383 0 .139-.034.382-.034.417 0 .07 0 .139-.07.139-.035 0-.035-.035-.035-.07 0-.07 0-.139-.034-.208-.035-.105-.07-.174-.348-.209-.174-.035-.938-.035-1.043-.035-.035 0-.035.035-.035.035v1.703c0 .452.14.522.835.522.174 0 .521 0 .695-.07.174-.07.278-.208.313-.452 0-.07.035-.104.07-.104.034 0 .034.07.034.104 0 .035-.07.487-.104.66-.035.175-.105.175-.383.175-.521 0-.903 0-1.216-.035h-.556-.73c-.07 0-.105 0-.105-.07 0-.035 0-.07.07-.07s.139-.034.209-.034c.139-.035.139-.174.173-.348.035-.278.035-.8.035-1.46v-1.147h.07z" fill="#87764E"/>
  <path fill-rule="evenodd" clip-rule="evenodd" d="M89.719 46.65a.161.161 0 01-.019.001c-.02 0-.043.004-.083.01l-.03.006a1.187 1.187 0 01-.2.019h-2.014a.33.33 0 01.092.087c.063.088.08.202.08.33v1.53h-.07v1.054c0 .651 0 1.177-.035 1.461v.004l-.001.004-.014.072a.79.79 0 01-.038.168.311.311 0 01-.069.115.255.255 0 01-.052.041H88.286c.306.035.682.035 1.205.035.071 0 .124 0 .166-.003a.278.278 0 00.08-.012c.009-.003.01-.006.014-.01a.2.2 0 00.02-.065c.012-.056.027-.144.042-.237a.568.568 0 01-.213.146c-.104.041-.249.06-.38.068-.133.009-.267.009-.353.009h-.001c-.175 0-.32-.005-.437-.019a.74.74 0 01-.295-.088c-.174-.105-.207-.29-.207-.519v-1.703h.104-.104v-.004-.005l.002-.014a.146.146 0 01.014-.041.135.135 0 01.123-.075c.052 0 .27 0 .498.004.113.002.23.006.329.01.094.005.18.012.233.022.14.018.24.046.31.097.038.027.063.06.081.091a1.86 1.86 0 00.01-.155v-.015c.015-.102.03-.18.042-.24a.645.645 0 01-.356.081h-1.147a.135.135 0 01-.13-.092.25.25 0 01-.009-.078v-1.811-.003c0-.014 0-.048.01-.078a.136.136 0 01.045-.065.136.136 0 01.084-.028c.054 0 .28.009.5.017h.008c.228.01.45.018.5.018h.01c.193.018.323.045.41.09a.324.324 0 01.112.086.313.313 0 01.047.084 2.52 2.52 0 00.012-.156v-.01l.002-.01c.018-.09.036-.16.05-.213l.002-.011zm-1.583 2.573v1.634c0 .224.036.299.106.341a.544.544 0 00.213.06c.104.012.238.016.41.016.088 0 .215 0 .341-.008.13-.009.246-.026.316-.054a.349.349 0 00.162-.124.549.549 0 00.086-.24c.003-.095.059-.2.173-.2.051 0 .087.029.106.057.017.024.024.05.027.067.006.032.006.067.006.083v.002l-.003.044a5.103 5.103 0 01-.037.25c-.022.14-.048.298-.066.387a.393.393 0 01-.05.137.231.231 0 01-.115.092.472.472 0 01-.141.026c-.05.003-.109.003-.176.003h-.009c-.513 0-.898 0-1.216-.035h-1.282c-.016 0-.035 0-.053-.002a.193.193 0 01-.07-.018.145.145 0 01-.068-.071.202.202 0 01-.016-.083v-.002a.182.182 0 01.026-.104c.038-.056.1-.068.148-.068.02 0 .042-.005.079-.014l.004-.001a.56.56 0 01.11-.02.055.055 0 00.022-.013.107.107 0 00.021-.039.591.591 0 00.022-.087l.007-.041.014-.08c.033-.27.034-.781.034-1.443v-1.251h.07v-1.321c0-.116-.018-.175-.042-.209-.02-.028-.057-.054-.142-.07h-.234a.174.174 0 01-.121-.051.174.174 0 01-.053-.122c0-.118.112-.174.209-.174h2.433a.98.98 0 00.188-.02c.038-.006.08-.014.117-.014a.178.178 0 01.112-.035c.027 0 .058.007.084.028.026.02.04.045.046.065.01.03.01.063.01.077v.003a.306.306 0 01-.009.062l-.016.067v.001c-.013.05-.03.115-.045.195-.002.04-.008.111-.015.182l-.003.03a3.19 3.19 0 00-.017.228.174.174 0 01-.052.122.174.174 0 01-.122.052.174.174 0 01-.121-.052.174.174 0 01-.052-.122c0-.017 0-.056-.005-.099a.323.323 0 00-.02-.097l-.003-.007-.002-.007a.124.124 0 00-.02-.04.116.116 0 00-.04-.03c-.051-.025-.146-.05-.333-.067-.062 0-.28-.01-.495-.018h-.008l-.43-.016v1.737h1.077c.162 0 .233-.033.274-.074l.002-.002a.6.6 0 01.061-.055.193.193 0 01.115-.043h.001c.006 0 .025 0 .042.004a.118.118 0 01.08.063c.014.025.015.05.016.06v.047a.323.323 0 01-.008.061l-.008.04-.008.034c-.012.058-.029.14-.045.255 0 .075-.01.171-.018.25l-.009.079a2.817 2.817 0 01-.007.068v.012H89.7v.006c0 .03 0 .08-.014.123a.168.168 0 01-.056.08.167.167 0 01-.104.035.136.136 0 01-.084-.028.136.136 0 01-.045-.065c-.01-.03-.01-.064-.01-.078v-.003a.344.344 0 00-.024-.162l-.003-.007-.002-.007c-.017-.049-.026-.065-.045-.079-.026-.018-.082-.042-.217-.059h-.007a1.754 1.754 0 00-.207-.02c-.096-.004-.21-.007-.322-.01-.168-.003-.33-.003-.424-.004z" fill="#87764E"/>
  <path d="M91.994 50.996c-.66-.59-.834-1.355-.834-1.981 0-.452.174-1.217.765-1.808.417-.417 1.043-.73 2.12-.73.278 0 .66.035 1.008.07.243.035.487.104.695.104.07 0 .07.035.07.07 0 .07 0 .139-.035.382v.695c0 .105-.035.14-.07.14-.034 0-.069-.035-.069-.14 0-.243-.104-.521-.278-.66-.243-.209-.73-.383-1.356-.383-.904 0-1.32.244-1.564.452-.521.487-.626 1.078-.626 1.738 0 1.286 1.008 2.434 2.503 2.434.522 0 .87-.035 1.147-.313.14-.14.244-.417.278-.556 0-.07.035-.105.07-.105s.07.035.07.105c0 .034-.105.625-.174.869-.035.139-.07.139-.174.208-.278.104-.8.14-1.252.14-1.042 0-1.738-.244-2.294-.73zm1.147-5.874c.035-.035.035-.035.07-.035s.035 0 .07.035c.173.173.555.486.66.556.034 0 .07.035.07.035.034 0 .069 0 .138-.035a8.01 8.01 0 00.66-.487c.07-.07.105-.07.14-.07.035 0 .07.035.07.07s-.035.07-.035.07c-.07.07-.8.73-.87.8-.069.069-.104.069-.139.069-.034 0-.069-.035-.104-.07-.07-.035-.695-.521-.8-.59-.069-.035-.103-.07-.103-.07 0-.035.034-.035.034-.07l.14-.208z" fill="#87764E"/>
  <path fill-rule="evenodd" clip-rule="evenodd" d="M93.213 45.202c.18.179.56.49.67.563l.026.017h.022a.068.068 0 01.005.004l.001.001.03.03h.045c.017 0 .043 0 .075-.007a.432.432 0 00.109-.039l.004-.002.003-.002c.083-.05.194-.128.307-.212l-.031.028-.009.008c-.195.178-.393.359-.43.395a.164.164 0 01-.047.038l-.006.001h-.001a.214.214 0 01-.017-.015l-.024-.024-.012-.012-.015-.007-.01-.006a27.86 27.86 0 01-.361-.267l-.083-.063c-.148-.112-.288-.217-.334-.249l-.006-.003-.006-.003a.737.737 0 01-.015-.008l.11-.166zm-.245.198l-.074.073-.03-.03V45.4a.142.142 0 01.034-.095V45.3l.162-.244.009-.008.023-.023a.17.17 0 01.037-.026c.033-.016.066-.016.079-.015h.006c.013 0 .046-.001.078.015.017.008.03.019.037.026a.616.616 0 01.024.023h.001c.16.162.507.446.627.531.027.007.05.02.063.028h.002a.222.222 0 00.053-.02c.166-.1.467-.333.641-.473a.35.35 0 01.114-.08c.04-.016.074-.016.093-.016h.002c.051 0 .094.025.121.052.028.028.053.07.053.122a.194.194 0 01-.035.106.272.272 0 01-.027.033l-.002.003h-.001v.001l-.043-.042.042.042c-.036.037-.234.217-.429.396l-.009.007a36.56 36.56 0 00-.43.397.357.357 0 01-.118.084c-.04.016-.075.016-.094.016h-.001a.192.192 0 01-.115-.043.515.515 0 01-.054-.047 4.62 4.62 0 01-.137-.097 25.05 25.05 0 01-.248-.186l-.086-.065c-.143-.108-.271-.205-.317-.237a.611.611 0 01-.121-.082l-.003-.002v-.001h-.001l.073-.074zm1.077 1.181c-1.055 0-1.652.305-2.047.7a2.563 2.563 0 00-.734 1.734c0 .607.169 1.338.8 1.903.532.466 1.2.704 2.224.704.224 0 .464-.009.681-.03.213-.021.398-.053.524-.099l.038-.025.018-.01a.173.173 0 00.03-.023c.006-.006.018-.02.033-.082l.001-.003c.031-.108.07-.291.103-.463a.997.997 0 01-.172.252c-.312.312-.701.344-1.22.344-1.555 0-2.608-1.196-2.608-2.538 0-.671.106-1.298.659-1.814l.003-.003c.264-.226.706-.477 1.632-.477.64 0 1.154.177 1.422.406.11.089.194.22.247.363v-.332c.03-.198.034-.276.034-.333a2.177 2.177 0 01-.318-.04l-.106-.02c-.083-.017-.165-.033-.249-.045a11.235 11.235 0 00-.995-.069zm1.738 3.928v-.002.003zm-3.932-3.376c.44-.44 1.094-.76 2.194-.76.284 0 .672.035 1.019.07h.004c.09.013.18.03.266.048l.099.018c.116.022.221.038.315.038.049 0 .11.012.148.068.028.041.026.09.026.103v.003c0 .074 0 .148-.035.39v.687c0 .061-.01.118-.036.162a.159.159 0 01-.137.081.16.16 0 01-.138-.08.314.314 0 01-.036-.163c0-.221-.097-.465-.24-.579l-.002-.002c-.218-.187-.677-.357-1.288-.357-.879 0-1.272.234-1.494.425-.489.457-.591 1.011-.591 1.66 0 1.23.963 2.33 2.398 2.33.523 0 .829-.038 1.074-.283a.885.885 0 00.157-.248c.042-.093.074-.186.09-.25.006-.093.062-.193.174-.193.118 0 .174.111.174.209 0 .014-.004.036-.006.052l-.013.081c-.011.065-.026.15-.044.242a7.065 7.065 0 01-.115.52.358.358 0 01-.087.178.373.373 0 01-.064.05l-.026.015a1.356 1.356 0 00-.04.026l-.01.007-.01.004a2.467 2.467 0 01-.587.114c-.226.023-.473.031-.702.031-1.06 0-1.783-.248-2.362-.755l-.001-.001c-.69-.617-.87-1.415-.87-2.06 0-.472.181-1.266.796-1.88z" fill="#87764E"/>
  <path d="M97.034 51.17c0-.174.14-.417.418-.417.243 0 .417.174.417.417a.438.438 0 01-.452.452c-.243 0-.383-.243-.383-.452z" fill="#87764E"/>
  <path fill-rule="evenodd" clip-rule="evenodd" d="M97.452 50.857c-.205 0-.313.18-.313.313 0 .083.028.174.079.241.05.066.116.106.199.106a.334.334 0 00.347-.347.298.298 0 00-.312-.313zm-.522.313c0-.214.17-.522.522-.522.3 0 .521.22.521.522a.542.542 0 01-.556.556.451.451 0 01-.366-.19.624.624 0 01-.12-.366z" fill="#87764E"/>
</svg>
