<svg width="102" height="29" viewBox="0 0 102 29" fill="none" xmlns="http://www.w3.org/2000/svg">
  <g opacity=".15">
    <mask id="a" maskUnits="userSpaceOnUse" x="3" y="0" width="23" height="29">
      <path fill-rule="evenodd" clip-rule="evenodd" d="M3.336 28.986h21.679V.93H3.335v28.056z" fill="white"/>
    </mask>
    <g mask="url(#a)">
      <path d="M18.375 2.658a2.529 2.529 0 00-3.18-1.605 2.495 2.495 0 00-1.622 3.15l6.528 19.894a2.53 2.53 0 003.07 1.55c1.34-.382 2.157-1.792 1.73-3.095L18.374 2.658z" fill="#1C1C1C"/>
    </g>
    <mask id="b" maskUnits="userSpaceOnUse" x="3" y="0" width="23" height="29">
      <path fill-rule="evenodd" clip-rule="evenodd" d="M3.336 28.986h21.679V.93H3.335v28.056z" fill="white"/>
    </mask>
    <g mask="url(#b)">
      <path d="M8.262 5.914A2.53 2.53 0 005.08 4.309a2.495 2.495 0 00-1.62 3.15l6.526 19.893a2.53 2.53 0 003.071 1.55c1.34-.381 2.156-1.79 1.729-3.094L8.262 5.914z" fill="#1C1C1C"/>
    </g>
    <path d="M26.591 19.133a2.496 2.496 0 001.621-3.15 2.53 2.53 0 00-3.18-1.606L4.949 20.843a2.495 2.495 0 00-1.565 3.041c.386 1.327 1.809 2.136 3.125 1.713l20.082-6.464z" fill="#1C1C1C"/>
    <path d="M9.134 24.753l4.8-1.545-1.56-4.755L7.574 20l1.56 4.754zM19.248 21.496l4.8-1.545-1.56-4.756-4.8 1.546 1.56 4.755zM23.306 9.116a2.496 2.496 0 001.621-3.151 2.53 2.53 0 00-3.18-1.606L1.663 10.825a2.495 2.495 0 00-1.565 3.042c.386 1.327 1.809 2.136 3.125 1.712l20.082-6.463z" fill="#1C1C1C"/>
    <path d="M5.85 14.734l4.8-1.545-1.56-4.755-4.8 1.545 1.56 4.755zM15.963 11.479l4.8-1.545-1.56-4.756-4.8 1.545 1.56 4.756zM46.964 7.895c.888.384.952.672.258 1.983-.71 1.344-.888 1.424-1.76 1.072-1.098-.464-2.503-.816-3.408-.816-1.485 0-2.47.528-2.47 1.328 0 2.64 8.51 1.216 8.51 6.846 0 2.832-2.455 4.72-6.136 4.72-1.938 0-4.328-.64-5.975-1.473-.824-.415-.872-.655-.162-2 .614-1.183.808-1.31 1.696-.943 1.405.608 3.181 1.072 4.376 1.072 1.357 0 2.26-.544 2.26-1.344 0-2.56-8.654-1.343-8.654-6.798 0-2.895 2.438-4.831 6.087-4.831 1.712 0 3.876.512 5.378 1.184zM53.825 1.208v20.987c0 .32-.34.656-.823.656h-2.23c-.484 0-.823-.336-.823-.656V1.208c0-1.04.291-1.136 1.938-1.136 1.873 0 1.938.128 1.938 1.136z" fill="#1C1C1C"/>
    <path fill-rule="evenodd" clip-rule="evenodd" d="M69.668 22.051v-9.037c0-3.967-2.73-6.303-7.073-6.303-1.938 0-4.037.64-5.587 1.632-.808.512-.84.751 0 2.015.855 1.264 1.05 1.296 1.84.848 1.034-.592 2.326-1.008 3.376-1.008 2.244 0 3.568.992 3.568 2.656v1.04c-1.066-.433-2.373-.688-3.81-.688-3.78.015-6.298 2.047-6.298 5.07 0 2.848 2.228 4.751 5.555 4.751 1.711 0 3.423-.688 4.618-2l-.032.976c-.033.496.322.864.823.864h2.196c.485 0 .824-.336.824-.816zm-7.961-2.015c-1.389 0-2.31-.72-2.31-1.792 0-1.327 1.39-2.303 3.456-2.303.97 0 2.051.192 2.94.528v1.407c-.889 1.36-2.407 2.16-4.086 2.16z" fill="#1C1C1C"/>
    <path d="M84.785 7.927c.807.464.84.72-.048 2.08-.84 1.279-.986 1.359-1.873.911-.679-.352-1.76-.656-2.649-.656-2.794 0-4.65 1.824-4.65 4.575 0 2.863 1.856 4.783 4.65 4.783.97 0 2.18-.368 2.971-.8.808-.464.985-.432 1.841.8.775 1.152.76 1.424.065 1.903-1.244.848-3.214 1.504-4.941 1.504-5.168 0-8.624-3.28-8.624-8.19 0-4.879 3.456-8.126 8.656-8.126 1.582 0 3.44.528 4.602 1.216zM101.645 20.867c.646.816.387 1.104-1.227 1.68-1.647.591-1.874.56-2.455-.192l-4.618-6.11-2.067 1.983v3.967c0 .32-.34.656-.824.656h-2.228c-.484 0-.824-.336-.824-.656V1.208c0-1.04.291-1.136 1.938-1.136 1.873 0 1.938.128 1.938 1.136V13.14l6.33-6.014c.694-.656 1.082-.608 2.325.207 1.373.88 1.47 1.12.808 1.76l-4.716 4.543 5.62 7.23z" fill="#1C1C1C"/>
  </g>
</svg>
