<svg width="80" height="33" viewBox="0 0 80 33" fill="none" xmlns="http://www.w3.org/2000/svg">
  <path fill-rule="evenodd" clip-rule="evenodd" d="M43.333 4.562L37.5 5.775V1.19L43.333 0v4.562zM20.645 2.475l-5.622 1.16L15 21.494c0 3.3 2.558 5.73 5.968 5.73 1.89 0 3.272-.334 4.032-.736v-4.526c-.737.29-4.378 1.315-4.378-1.985v-7.915H25v-4.75h-4.378l.023-4.838zm-15 10.021c0-.848.713-1.175 1.896-1.175 1.695 0 3.837.501 5.532 1.393V7.601C11.223 6.883 9.393 6.6 7.541 6.6 3.01 6.6 0 8.906 0 12.758c0 3.625 3.089 4.713 5.538 5.575 1.608.567 2.94 1.036 2.94 2.062 0 1-.893 1.327-2.142 1.327-1.852 0-4.217-.74-6.09-1.74v5.178c2.074.87 4.171 1.24 6.09 1.24 4.64 0 7.83-2.241 7.83-6.136-.013-4.018-3.284-5.103-5.769-5.928-1.524-.505-2.753-.913-2.753-1.84zm25.932-4.84l.364 1.655c1.34-2.415 4-1.923 4.727-1.655V12.8c-.705-.246-2.977-.56-4.318 1.163v13.262h-5.682V7.656h4.909zm5.923-.231h5.833V26.4H37.5V7.425zM54.75 6.6c-2.227 0-3.66 1.027-4.455 1.742L50 6.957h-5V33l5.682-1.184.023-6.32c.818.58 2.022 1.407 4.022 1.407 4.069 0 7.773-3.217 7.773-10.297C62.477 10.13 58.727 6.6 54.75 6.6zm-3.897 13.853c.513.552 1.261.997 2.522.997 1.966 0 3.29-2.12 3.29-4.96 0-2.778-1.346-4.94-3.29-4.94-1.218 0-1.987.424-2.543 1.038l.021 7.865zM80 16.576C79.999 11 77.217 6.6 71.9 6.6c-5.339 0-8.569 4.4-8.569 9.932 0 6.557 3.814 9.868 9.287 9.868 2.67 0 4.688-.588 6.213-1.416v-4.357c-1.525.741-3.275 1.199-5.495 1.199-2.176 0-4.105-.741-4.352-3.311h10.969c0-.12.008-.393.017-.707.013-.428.028-.931.028-1.232zm-7.846-5.026c-1.425 0-2.985.97-2.985 3.3h5.833c0-2.33-1.47-3.3-2.849-3.3z" fill="#1C1C1C" opacity=".15"/>
</svg>
