<svg width="86" height="18" viewBox="0 0 86 18" fill="none" xmlns="http://www.w3.org/2000/svg">
  <path d="M13.518.433v9.89c0 3.304-1.462 4.675-4.89 4.675-3.43 0-4.892-1.371-4.892-4.674V0H.433C.145 0 0 .145 0 .433v10.053c0 5.523 3.52 7.454 8.627 7.454 5.108 0 8.627-1.93 8.627-7.454V0h-3.303c-.288 0-.433.145-.433.433zM61.4 2.87c.271 0 .397-.09.487-.29l.957-2.364c.054-.144 0-.216-.144-.216H49.398c-1.245 0-1.714.379-1.714 1.227v15.36c0 .722.36 1.047 1.317 1.047h12.4c.27 0 .396-.09.486-.29l.957-2.364c.054-.144 0-.216-.144-.216H51.347V11.64c0-1.083.596-1.57 2.202-1.57h4.928c.27 0 .396-.09.487-.288l.92-2.275c.054-.144 0-.216-.144-.216h-8.393V2.87H61.4z" fill="#1C1C1C"/>
  <path fill-rule="evenodd" clip-rule="evenodd" d="M40.02 4.476c0 1.679-.596 3.104-2.04 3.862 1.986.524 2.888 2.31 2.888 4.422 0 3.52-2.49 4.874-5.974 4.874h-9.24c-.957 0-1.318-.325-1.318-1.047V1.227C24.336.38 24.805 0 26.05 0h7.509c3.284 0 6.46.578 6.46 4.476zM27.996 2.834h5.832c1.949 0 2.49.734 2.49 2.256 0 1.522-.541 2.256-2.49 2.256h-5.832V2.834zM34.514 14.8h-6.518v-3.23c0-1.084.596-1.571 2.202-1.571h4.316c2.075 0 2.653.794 2.653 2.419 0 1.624-.578 2.382-2.654 2.382zM81.946 10.54l3.952 6.787c.073.108.073.306-.162.306h-3.358c-.27 0-.379-.108-.487-.288l-3.573-6.426h-3.249c-1.606 0-2.202.488-2.202 1.57v5.145h-3.23c-.29 0-.434-.145-.434-.434V1.227c0-.848.47-1.227 1.715-1.227h7.544c4.386 0 7.039 1.155 7.039 5.433 0 3.303-1.588 4.602-3.555 5.107zm-9.079-2.364h6.137c2.291 0 2.797-.866 2.797-2.671 0-1.787-.505-2.671-2.797-2.671h-6.137v5.342z" fill="#1C1C1C"/>
</svg>
