<svg width="142" height="72" viewBox="0 0 142 72" fill="none" xmlns="http://www.w3.org/2000/svg">
  <g clip-path="url(#clip0)">
    <path d="M67.555 67.097c.423-.917 1.34-3.21 1.482-3.704.035-.106.07-.212.07-.247s-.035-.106-.106-.141c-.07-.036-.176-.036-.247-.036a.076.076 0 01-.07-.07c0-.035.035-.07.176-.07H70.095c.07 0 .106 0 .106.035s-.035.07-.07.07c-.036 0-.212 0-.318.07-.106.071-.212.177-.388.636-.07.176-.424.987-.776 1.834-.424.988-.741 1.729-.918 2.046-.176.423-.246.494-.317.494-.07 0-.141-.07-.247-.423l-1.729-4.163c-.176-.388-.246-.459-.493-.494-.106-.035-.247-.035-.283-.035-.035 0-.07-.035-.07-.07 0-.036.07-.036.176-.036h1.481c.142 0 .177 0 .177.035s-.035.07-.07.07c-.07 0-.177 0-.247.036-.07.035-.07.07-.07.106 0 .07.07.282.175.564l1.341 3.493zM71.4 64.803v-1.446c0-.247-.07-.353-.282-.388h-.247a.076.076 0 01-.07-.07c0-.036.035-.071.105-.071H73.376c.14 0 .247-.035.317-.035.035 0 .07-.036.106-.036.035 0 .035.036.035.07 0 .036-.035.142-.07.318 0 .07-.036.353-.036.459 0 .035-.035.07-.07.07a.076.076 0 01-.07-.07c0-.035 0-.176-.036-.247-.035-.106-.106-.176-.494-.212-.106 0-.917-.035-1.023-.035-.035 0-.035.035-.035.07v1.835c0 .035 0 .07.035.07H73.2c.177 0 .282-.035.353-.105.035-.035.07-.07.106-.07.035 0 .035 0 .035.07 0 .035-.035.14-.07.388 0 .14-.036.388-.036.423 0 .07 0 .141-.07.141-.035 0-.035-.035-.035-.07 0-.07 0-.141-.036-.212-.035-.106-.07-.176-.353-.212-.176-.035-.952-.035-1.058-.035-.035 0-.035.035-.035.035V67.167c0 .459.14.53.847.53.176 0 .529 0 .705-.072.176-.07.282-.211.317-.458 0-.07.036-.106.071-.106.035 0 .035.07.035.106 0 .035-.07.494-.105.67-.036.177-.106.177-.389.177-.529 0-.917 0-1.234-.036h-.565-.74c-.071 0-.106 0-.106-.07 0-.035 0-.07.07-.07s.141-.036.212-.036c.141-.035.141-.177.176-.353.036-.282.036-.811.036-1.481v-1.165h.07zM76.022 64.804v-1.447c0-.247-.071-.352-.283-.388h-.247a.076.076 0 01-.07-.07c0-.036.035-.07.106-.07h1.764c.705 0 1.975-.072 2.822.775.352.353.67.917.67 1.729 0 .846-.353 1.517-.74 1.905-.318.317-.918.776-2.117.776-.318 0-.67-.035-.988-.035-.318-.036-.53-.036-.565-.036h-.705c-.07 0-.106 0-.106-.07 0-.036 0-.07.07-.07.071 0 .142 0 .212-.036.141-.035.141-.176.177-.353.035-.282.035-.811.035-1.481v-1.13h-.035zm.635.74v1.482c0 .176.035.423.07.494.07.141.318.282 1.164.282.635 0 1.235-.212 1.658-.6.353-.352.565-.987.565-1.622 0-.847-.388-1.411-.67-1.694-.67-.67-1.447-.74-2.258-.74-.141 0-.353.035-.424.035-.07.035-.07.07-.07.141v2.222h-.035zM82.865 67.061c0 .564.07.74.282.776.141.035.282.035.353.035.035 0 .07.036.07.071 0 .035-.035.07-.14.07-.389 0-.67-.035-.741-.035-.07 0-.353.036-.67.036-.071 0-.106 0-.106-.071 0-.035.035-.07.07-.07.07 0 .176 0 .282-.036.177-.035.212-.247.212-.847v-3.88c0-.282.035-.353.106-.353.07 0 .212.141.282.212.106.106 1.129 1.2 2.223 2.328.705.706 1.446 1.517 1.658 1.729l-.071-3.387c0-.423-.035-.6-.247-.635-.141-.035-.282-.035-.353-.035a.076.076 0 01-.07-.07c0-.036.07-.036.14-.036h1.342c.07 0 .14 0 .14.035 0 .036-.035.071-.07.071h-.177c-.246.035-.246.176-.246.6v3.986c0 .459 0 .494-.071.494-.07 0-.141-.07-.53-.424-.07-.07-1.093-1.058-1.834-1.834-.81-.846-1.587-1.693-1.834-1.905v3.175zM91.296 62.757c1.588 0 2.787.953 2.787 2.54 0 1.517-1.129 2.752-2.822 2.752-1.905 0-2.752-1.447-2.752-2.646 0-1.094.847-2.646 2.787-2.646zm.177 5.045c.635 0 1.905-.318 1.905-2.293 0-1.623-.988-2.47-2.082-2.47-1.164 0-2.01.741-2.01 2.223-.036 1.552.917 2.54 2.187 2.54zM100.292 67.097c.423-.917 1.34-3.21 1.481-3.704.036-.106.071-.212.071-.247s-.035-.106-.106-.141c-.07-.036-.176-.036-.247-.036-.035 0-.07-.035-.07-.07s.035-.07.176-.07H102.832c.07 0 .106 0 .106.035s-.036.07-.071.07c-.035 0-.212 0-.317.07-.106.071-.212.177-.388.636-.071.176-.424.987-.777 1.834-.423.988-.74 1.729-.917 2.046-.176.423-.247.494-.317.494-.071 0-.141-.07-.247-.423l-1.729-4.163c-.176-.388-.247-.459-.494-.494-.105-.035-.247-.035-.282-.035a.076.076 0 01-.07-.07c0-.036.07-.036.176-.036h1.481c.142 0 .177 0 .177.035s-.035.07-.07.07c-.071 0-.177 0-.248.036-.07.035-.07.07-.07.106 0 .07.07.282.176.564l1.341 3.493zM104.137 64.803v-1.446c0-.247-.07-.353-.282-.388h-.247c-.035 0-.071-.035-.071-.07 0-.036.036-.071.106-.071H106.113c.141 0 .247-.035.317-.035.035 0 .071-.036.106-.036s.035.036.035.07c0 .036-.035.142-.07.318 0 .07-.036.353-.036.459 0 .035-.035.07-.07.07s-.071-.035-.071-.07 0-.176-.035-.247c-.035-.106-.106-.176-.494-.212-.106 0-.917-.035-1.023-.035-.035 0-.035.035-.035.07v1.835c0 .035 0 .07.035.07h1.164c.177 0 .283-.035.353-.105.035-.035.071-.07.106-.07s.035 0 .035.07c0 .035-.035.14-.07.388 0 .14-.036.388-.036.423 0 .07 0 .141-.07.141-.035 0-.035-.035-.035-.07 0-.07 0-.141-.036-.212-.035-.106-.07-.176-.353-.212-.176-.035-.952-.035-1.058-.035-.035 0-.035.035-.035.035V67.167c0 .459.141.53.847.53.176 0 .529 0 .705-.072.176-.07.282-.211.318-.458 0-.07.035-.106.07-.106s.035.07.035.106c0 .035-.07.494-.105.67-.036.177-.106.177-.388.177-.53 0-.918 0-1.235-.036h-.565-.74c-.071 0-.106 0-.106-.07 0-.035 0-.07.07-.07.071 0 .141-.036.212-.036.141-.035.141-.177.176-.353.036-.282.036-.811.036-1.481v-1.165h.07zM108.794 67.343c-.671-.6-.847-1.375-.847-2.01 0-.459.176-1.235.776-1.835.423-.423 1.058-.74 2.152-.74.282 0 .67.035 1.023.07.247.035.494.106.706.106.07 0 .07.035.07.07 0 .07 0 .141-.035.388v.706c0 .106-.035.141-.071.141-.035 0-.07-.035-.07-.141 0-.247-.106-.53-.282-.67-.247-.212-.741-.388-1.376-.388-.917 0-1.341.246-1.588.458-.529.494-.635 1.094-.635 1.764 0 1.305 1.023 2.47 2.54 2.47.529 0 .882-.036 1.164-.318.141-.141.247-.423.283-.564 0-.071.035-.106.07-.106s.071.035.071.106c0 .035-.106.635-.177.881-.035.142-.07.142-.176.212-.282.106-.811.141-1.27.141-1.058-.035-1.764-.282-2.328-.74zm1.164-5.997c.035-.035.035-.035.07-.035.036 0 .036 0 .071.035.176.177.564.494.67.565.035 0 .071.035.071.035.035 0 .07 0 .141-.035.176-.106.494-.353.67-.494.071-.07.106-.07.141-.07.035 0 .071.035.071.07s-.036.07-.036.07c-.07.071-.811.741-.881.812-.071.07-.106.07-.142.07-.035 0-.07-.035-.105-.07-.071-.035-.706-.53-.812-.6a.456.456 0 01-.106-.07c0-.036.036-.036.036-.071l.141-.212zM113.909 67.52c0-.176.141-.423.423-.423.247 0 .423.176.423.423a.444.444 0 01-.458.459.454.454 0 01-.388-.459z" fill="#87764E"/>
    <path d="M65.791 23.847c-.247-.529-.317-.67-.74-.74-.177-.036-.283-.036-.353-.036-.106 0-.141-.035-.141-.07 0-.07.07-.07.176-.07.53 0 1.2.034 1.305.034.106 0 .635-.035 1.058-.035.141 0 .177.035.177.07 0 .071-.035.107-.177.107-.176 0-.246.035-.352.07-.106.07-.106.141-.106.212 0 .07.07.282.176.564l2.011 5.08c.564-1.27 1.905-4.621 2.117-5.292a.919.919 0 00.105-.387c0-.071 0-.142-.105-.177-.106-.035-.247-.035-.353-.035-.07 0-.141-.035-.141-.07 0-.071.035-.107.176-.107.423 0 .953.036 1.094.036.035 0 .494-.036.776-.036.106 0 .176.036.176.071 0 .07-.035.106-.14.106-.142 0-.283 0-.495.106-.14.105-.247.247-.529.882-.07.14-.635 1.446-1.164 2.645-.6 1.411-1.094 2.505-1.27 2.893-.318.635-.353.811-.459.811-.14 0-.211-.14-.388-.635l-2.434-5.997zM76.48 29.845c1.023 0 1.446-.106 1.623-.459.106-.212.14-.353.176-.53.035-.105.035-.176.106-.176.07 0 .07.071.07.177 0 .317-.14.952-.211 1.2-.07.246-.106.282-.353.282-1.693 0-3.316-.036-5.115-.036-.141 0-.176 0-.176-.07s.035-.106.14-.282c1.518-2.223 2.964-4.34 4.375-6.562h-2.117c-.635 0-1.164 0-1.517.141-.352.141-.458.6-.493.847-.036.14-.07.176-.106.176-.035 0-.07-.07-.07-.141 0-.141.14-1.058.21-1.34.036-.142.036-.212.107-.212.106 0 .176.07.458.07 1.094.036 1.588.036 1.729.036h2.822c.141 0 .247 0 .247.07a.595.595 0 01-.07.177c-1.517 2.293-2.893 4.41-4.41 6.632h2.575zM81.172 27.481c-.07 0-.106.035-.106.106l-.494 1.446c-.106.318-.212.635-.212.812 0 .211.142.282.389.282h.07c.106 0 .141.035.141.07 0 .07-.106.07-.176.07-.247 0-.776-.034-.917-.034-.106 0-.635.035-1.094.035-.141 0-.176-.035-.176-.07 0-.036.035-.071.14-.071h.248c.494-.035.705-.424.882-.917l2.293-6.068c.14-.317.176-.388.247-.388.07 0 .105.035.246.353.177.388 1.73 4.374 2.329 5.82.388.918.705 1.059.882 1.13.14.07.317.07.388.07.07 0 .14.035.14.07 0 .036-.034.07-.175.07-.106 0-.988 0-1.764-.034-.212 0-.283-.036-.283-.071 0-.035.036-.07.071-.07.035-.036.106-.071.035-.247l-.917-2.293c-.035-.036-.035-.071-.106-.071h-2.081zm1.94-.388c.035 0 .035-.035.035-.07l-.917-2.54c-.07-.177-.07-.177-.14 0l-.848 2.54c-.035.035 0 .07.036.07h1.834z" fill="#1A262E"/>
    <path d="M88.121 27.94c0 1.658 0 2.293-.317 3.034-.212.493-.67.952-1.552 1.552-.141.07-.282.211-.388.247h-.07c-.036 0-.072 0-.072-.07 0-.072.071-.107.142-.142.105-.07.247-.176.317-.247.706-.67 1.023-1.164 1.023-3.775v-2.822c0-1.517 0-1.799-.035-2.081-.035-.317-.141-.459-.459-.564-.07 0-.247-.036-.352-.036a.076.076 0 01-.071-.07c0-.07.07-.106.176-.106.494 0 1.165.035 1.2.035.035 0 .74-.035 1.058-.035.106 0 .176.035.176.106 0 .035-.035.07-.07.07-.07 0-.141 0-.247.035-.247.071-.353.247-.388.565-.035.317-.035.564-.035 2.081v2.223h-.036zM90.803 25.753c0-1.517 0-1.8-.036-2.082-.035-.317-.105-.494-.423-.564-.07 0-.176-.035-.282-.035-.07 0-.141-.036-.141-.07 0-.072.07-.107.176-.107.247 0 .53.035 1.2.035h2.328c.247 0 .353-.035.458-.07.07-.035.07-.035.141-.035.036 0 .036.035.036.07 0 .07-.07.247-.106.53 0 .211-.035.387-.035.6 0 .105-.036.176-.07.176-.036 0-.072-.036-.072-.142a.76.76 0 00-.07-.352c-.07-.247-.176-.318-.74-.353-.142 0-1.27-.035-1.306-.035-.035 0-.07.035-.07.105v2.61c0 .072 0 .107.07.107.141 0 1.305 0 1.552-.035.247 0 .423-.036.53-.177.035-.07.07-.106.14-.106.036 0 .036 0 .036.07 0 .071-.036.283-.07.6-.036.318-.036.565-.036.706 0 .106-.035.141-.07.141-.071 0-.071-.07-.071-.141 0-.07 0-.176-.036-.282-.035-.141-.105-.318-.564-.353-.247-.035-1.2-.035-1.376-.035-.07 0-.07.035-.07.07v2.399c.035.424.07.635.317.741.177.07.459.106.847.106.211 0 .6 0 .882-.07.352-.107.423-.318.529-.777.035-.106.07-.176.106-.176.07 0 .07.106.07.176 0 .07-.106.811-.14.988-.036.247-.142.247-.495.247-.776 0-1.093-.035-1.481-.035-.388 0-.918-.036-1.34-.036-.248 0-.495.036-.777.036-.106 0-.176-.036-.176-.071 0-.035.035-.07.105-.07.071 0 .142 0 .247-.036.212-.035.353-.212.353-.917 0-.388.035-.847.035-1.729v-1.622h-.105zM104.031 29.033c.036.282.106.918.565 1.023.211.036.423.07.599.07.036 0 .142 0 .142.071s-.036.106-.177.106a36.25 36.25 0 01-1.799-.07c-.247-.036-.353-.036-.353-.106 0-.035.036-.07.106-.106.071-.035.106-.176.071-.317l-.529-4.904-2.435 4.939c-.211.458-.246.564-.352.564-.07 0-.141-.106-.353-.494-.177-.317-1.094-2.187-1.164-2.293-.07-.14-1.2-2.363-1.27-2.61l-.423 4.41v.423c0 .14.07.282.282.353.14.035.211.035.317.035.106 0 .106.035.106.07 0 .071-.07.106-.212.106-.352 0-.846-.035-.952-.035-.106 0-.6.035-.882.035-.106 0-.176 0-.176-.106 0-.035.035-.07.14-.07h.212c.283-.035.388-.282.424-.776l.776-6.315c.035-.211.07-.282.14-.282.071 0 .107.035.177.176l3.069 5.962 2.928-5.962c.071-.14.106-.211.177-.211.07 0 .106.106.106.282l.74 6.032zM106.677 29.386c-.988-.846-1.235-1.975-1.235-2.928 0-.635.247-1.799 1.165-2.645.635-.6 1.552-1.023 3.104-1.023.529 0 .952.035 1.517.14.353.071.741.107 1.023.142.106 0 .106.07.106.106 0 .105-.036.211-.071.564 0 .317 0 .917-.035 1.058 0 .177-.035.212-.106.212s-.106-.07-.106-.212c0-.317-.176-.776-.458-.987-.353-.283-1.165-.6-2.047-.6-1.269 0-1.869.353-2.222.67-.741.67-.917 1.517-.917 2.505 0 1.905 1.552 3.598 3.563 3.598.776 0 1.34-.07 1.764-.459.211-.211.317-.494.388-.81.035-.107.07-.177.141-.177.07 0 .07.07.07.176 0 .106-.141 1.023-.247 1.27-.07.176-.105.212-.247.282-.388.177-1.164.247-1.799.247-1.481-.07-2.54-.423-3.351-1.129zM114.085 25.752c0-1.517 0-1.799-.035-2.116-.035-.318-.106-.494-.318-.53-.105-.035-.211-.035-.247-.035-.07 0-.141-.035-.141-.07 0-.07.036-.07.177-.07.353 0 1.023.034 1.058.034.035 0 .706-.035 1.023-.035.106 0 .176.035.176.07 0 .036-.035.071-.141.071-.07 0-.141 0-.211.036-.318.035-.353.211-.388.564-.036.317 0 .564 0 2.081v1.729c0 .882 0 1.693.035 2.116.035.318.106.46.388.53a2.2 2.2 0 00.423.035c.106 0 .141.035.141.07 0 .036-.035.071-.176.071-.6 0-1.27-.035-1.305-.035-.036 0-.706.035-1.023.035-.106 0-.177-.035-.177-.07 0-.036.036-.071.141-.071.071 0 .177 0 .283-.035.211-.036.247-.283.247-.565.07-.423.07-1.235.07-2.081v-1.729zM66.144 42.227c0-3.175 0-3.74-.035-4.375-.036-.635-.177-1.023-.706-1.093-.247-.035-.423-.035-.564-.07-.177-.036-.247-.071-.247-.177s.106-.177.353-.177c.74 0 2.116.071 2.187.071.106 0 1.481-.07 2.152-.07.246 0 .352.035.352.176 0 .106-.07.14-.247.176-.14.035-.246.035-.423.035-.705.106-.776.46-.811 1.165-.035.635-.035 1.199-.035 4.374v3.598c0 1.835-.036 3.528.105 4.374.106.706.177.953.812 1.094.317.07.811.106.917.106.212.035.247.07.247.176 0 .106-.106.177-.353.177-1.235 0-2.61-.07-2.752-.07-.07 0-1.481.07-2.151.07-.212 0-.388-.036-.388-.177 0-.105.105-.176.317-.176.106 0 .388-.035.564-.07.424-.106.494-.565.565-1.165.106-.846.106-2.575.106-4.374v-3.598h.035zM73.27 37.041c0-.74.07-.987.247-.987.176 0 .564.494.74.635.212.247 3.564 3.633 6.915 7.09 1.87 1.835 4.268 4.304 4.903 4.868l-.246-9.983c-.036-1.305-.177-1.728-.812-1.905a6.879 6.879 0 00-.952-.106c-.247 0-.283-.105-.283-.176 0-.106.177-.141.424-.141 1.023 0 2.046.07 2.257.07.247 0 .988-.07 1.905-.07.247 0 .353.035.353.141 0 .106-.07.176-.212.176-.14.036-.352.036-.6.071-.564.106-.705.353-.705 1.8l-.035 12.029c0 1.199-.035 1.305-.212 1.305-.176 0-.423-.177-1.587-1.27-.106-.035-3.422-3.352-5.503-5.398a746.48 746.48 0 01-5.504-5.714l.318 9.383c.035 1.658.176 2.293.776 2.434.388.106.776.106.988.106.212 0 .282.07.282.176 0 .106-.106.177-.388.177-1.305 0-2.152-.07-2.328-.07-.177 0-1.058.07-2.082.07-.211 0-.352-.035-.352-.177 0-.105.106-.176.352-.176.177 0 .424 0 .741-.106.53-.176.635-.811.635-2.575-.035-11.394 0-7.69-.035-11.677z" fill="#1A262E"/>
    <path d="M91.05 38.311c-.494-1.129-.635-1.411-1.517-1.552-.353-.035-.6-.07-.706-.07-.176 0-.282-.071-.282-.177s.176-.177.388-.177c1.093 0 2.504.071 2.751.071.212 0 1.341-.07 2.223-.07.282 0 .388.035.388.14 0 .106-.106.177-.353.177-.353 0-.564.035-.74.106-.212.106-.212.247-.212.423s.14.635.388 1.2L97.61 49c1.2-2.646 3.951-9.63 4.374-11.042.106-.317.177-.635.177-.776 0-.141-.036-.317-.212-.388-.176-.07-.494-.106-.776-.106-.177 0-.318-.035-.318-.14 0-.107.071-.177.353-.177.847 0 2.011.07 2.293.07.106 0 1.058-.07 1.658-.07.247 0 .353.035.353.14 0 .107-.106.177-.247.177-.282 0-.6 0-1.023.247-.247.176-.564.494-1.129 1.87-.106.282-1.305 3.034-2.399 5.503-1.27 2.963-2.257 5.221-2.645 6.032-.635 1.306-.706 1.694-.953 1.694-.282 0-.423-.283-.811-1.34L91.049 38.31zM107.347 42.227c0-3.14 0-3.704-.035-4.375-.035-.67-.212-1.023-.917-1.164-.141-.035-.388-.035-.565-.035-.176 0-.317-.07-.317-.141 0-.141.106-.177.353-.177.493 0 1.128.036 2.469.071.106 0 4.374 0 4.868-.035.494-.036.741-.036.953-.106.141-.035.176-.07.247-.07.035 0 .105.035.105.176 0 .14-.141.494-.176 1.093-.035.424-.035.776-.071 1.235 0 .212-.035.353-.176.353s-.176-.106-.176-.247a2.826 2.826 0 00-.177-.776c-.141-.494-.352-.635-1.552-.706-.317-.035-2.681-.035-2.751-.035-.071 0-.106.035-.106.176v5.433c0 .141.035.247.141.247.282 0 2.751-.035 3.245-.07.565-.036.917-.106 1.094-.353.106-.142.176-.177.247-.177.035 0 .106.035.106.141 0 .106-.106.565-.177 1.27-.07.67-.07 1.164-.106 1.447-.035.176-.07.246-.176.246-.106 0-.141-.14-.141-.317 0-.141-.035-.388-.071-.564-.105-.318-.247-.635-1.164-.706a96.612 96.612 0 00-2.892-.106c-.142 0-.177.07-.177.177v1.764c0 .74-.035 2.857 0 3.245.035.882.177 1.34.67 1.552.353.177.953.212 1.764.212.459 0 1.235.035 1.835-.141.705-.212.882-.706 1.093-1.588.036-.247.106-.353.212-.353.141 0 .141.212.141.353 0 .177-.176 1.694-.247 2.081-.106.494-.247.53-1.058.53-1.588 0-2.258-.036-3.105-.036a73.4 73.4 0 00-2.822-.07c-.564 0-1.023.07-1.587.07-.212 0-.353-.035-.353-.176 0-.106.106-.176.212-.176.141 0 .317-.036.494-.07.423-.107.705-.424.776-1.906.035-.811.035-1.799.035-3.633v-3.563h.035zM117.719 51.505c-.318-.141-.318-.247-.318-.812 0-1.093.071-1.905.106-2.257.035-.212.071-.353.176-.353.106 0 .177.07.177.247 0 .14 0 .423.07.705.318 1.553 1.729 2.152 3.105 2.152 1.975 0 2.963-1.376 2.963-2.575 0-1.376-.635-2.222-2.364-3.634l-.952-.74c-2.293-1.835-2.787-3.105-2.787-4.551 0-2.222 1.764-3.704 4.445-3.704.847 0 1.411.07 1.94.176.459.106.635.106.811.106.177 0 .212.035.212.141 0 .106-.106.953-.106 2.328 0 .353-.035.494-.176.494-.106 0-.141-.105-.176-.247-.036-.211-.071-.705-.283-1.128-.106-.212-.67-1.13-2.681-1.13-1.446 0-2.504.847-2.504 2.294 0 1.129.564 1.834 2.575 3.351l.564.423c2.505 1.905 3.14 3.175 3.14 4.904a4.24 4.24 0 01-1.834 3.422c-.953.6-2.082.846-3.246.846-1.023.07-1.975-.07-2.857-.458zM134.687 45.825c0 1.834.035 3.563.106 4.445.07.564.106.917.705 1.058.282.07.741.106.953.106.176 0 .282.07.282.141 0 .106-.071.176-.318.176-1.234 0-2.645-.07-2.751-.07-.106 0-1.517.07-2.152.07-.247 0-.353-.035-.353-.176 0-.07.071-.176.247-.176.177 0 .353 0 .529-.035.459-.071.529-.353.635-1.165.106-.846.106-2.575.106-4.374v-8.572c-.776 0-2.046 0-3.034.035-1.552.035-1.869.247-2.222.776a3.891 3.891 0 00-.353.74c-.07.177-.106.177-.212.177-.105 0-.105-.105-.105-.211-.036-.141.352-1.729.493-2.364.071-.282.142-.388.212-.388.176 0 .635.212 1.058.247.847.106 1.517.106 1.553.106h7.866c.671 0 1.376-.035 1.729-.106.317-.07.388-.106.459-.106.105 0 .141.106.141.212 0 .67-.036 2.258-.036 2.434 0 .212-.105.282-.176.282-.106 0-.176-.106-.176-.282 0-.07 0-.106-.036-.353-.106-.952-.423-1.2-2.822-1.234-.917 0-1.658-.036-2.363-.036v8.643h.035z" fill="#1A262E"/>
    <path fill-rule="evenodd" clip-rule="evenodd" d="M31.96 27.516h-.281l-2.188-1.094-5.291 1.553-5.538-.389-2.011.847s-3.175-.776-6.491-2.68a22.229 22.229 0 00-1.447 2.398c-.493.952-.917 1.8-1.234 2.434.423.317.846.564 1.234.776 2.152.988 3.105 1.058 3.317 1.058h.035l-1.482 1.13s2.505 1.587 3.563 1.834c.494.105.917.14 1.2.14.352 0 .6-.035.6-.035l-.213.636 3.14 7.76-.353 5.998-.705 1.234.388 1.411s1.834 2.117 5.503 2.117c1.552 0 3.457-.388 5.68-1.482.423-1.693 1.376-8.078 1.376-8.078l4.444-6.35-1.446-3.986 5.221-2.152.74-.67-2.116-1.2 3.387-2.61s.247-8.36-12.1-11.994c-.706-.212-1.482-.389-2.258-.565.706.282 1.34.6 1.94.988 4.94 3.069 5.362 8.643 5.362 8.643s.424 2.328-1.975 2.328z" fill="#87764E"/>
    <path fill-rule="evenodd" clip-rule="evenodd" d="M28.398 62.828c-.141-.105-2.152-3.81-2.152-3.81s-.282-1.587-.459-3.421c-.705.14-1.375.211-2.046.211-4.092 0-6.244-2.398-6.314-2.504l-.177-.212-.07-.247-.388-1.41-.141-.495.247-.458.564-.988.317-5.433-2.998-7.408c-.282-.035-.565-.07-.847-.141-1.164-.282-3.457-1.693-3.915-1.976l-1.447-.917.882-.67c-.353-.141-.74-.317-1.164-.494H8.219a16.323 16.323 0 01-1.234-.74c-.036.105-.07.14-.07.14a18.966 18.966 0 00-.847 10.654l-1.235 1.976-.741 2.116 1.905 3.845 2.928 9.384s-1.235 1.411-1.411 2.117l-.388 2.857H17.99s-.353-2.857-.988-4.127c-.635-1.27-2.257-2.329-2.257-2.329L12.1 51.893c.141.14.317.282.459.458 1.058 1.094 4.515 4.904 5.22 5.927.706 1.058 3.563 4.586 3.21 7.655 0 0-1.058 1.129-1.657 2.787-.353.987-.388 3.245-.388 3.245h14.922s-1.376-5.856-1.588-6.173c-.952-1.34-3.74-2.858-3.88-2.964zM49.881 53.727c.212-2.822 2.329-5.115 2.329-5.115s.494-4.516.494-5.221c0 0-3.246-2.893-4.022-3.599-.07-1.164-1.023-2.01-1.023-2.01-.035-.282.176-1.729-1.023-5.856-2.152-7.267-6.703-13.723-7.796-15.028-1.059-1.305-6.068-7.056-10.266-8.325-1.764.529-4.233 2.363-6.597 4.374-.917-1.8-1.799-3.387-3.598-3.563-3.034-.247-4.903 4.374-8.678 3.669-2.434-2.928 1.164-4.551 1.023-7.62C10.548.635 3.316-2.222 0 2.187c1.34.494 3.81-.458 4.833 1.094-1.129 2.681.67 4.022 1.728 5.433-.6 1.552-.352 4.198 0 5.82 3.246 3.987 8.467.177 11.43-1.446.741.459 1.094 1.34 1.376 2.293-.423.423-1.588 1.517-1.588 1.517-1.834 1.799-3.104 3.175-3.104 3.175s-1.905 2.081-3.88 4.762c2.47 1.376 4.868 2.117 5.715 2.364l1.658-.706.247-.106.246.036 5.362.388 5.116-1.482.423-.106.388.177 1.976.987c.211 0 .564-.035.705-.211.176-.212.176-.635.141-.776V25.294c0-.07-.458-5.221-5.185-7.938-.142-.176-5.715-3.245-5.715-3.245s2.787-.07 4.974.282c.917.141 1.552.318 1.587.318 5.574 1.481 9.525 4.021 11.853 7.584 1.94 3.034 1.87 5.68 1.87 5.786l-.035.564-.46.353-1.975 1.517.53.317 1.446.812-1.235 1.128-.74.67-.142.142-.176.07-4.198 1.729 1.058 2.893.212.6-.353.529-4.268 6.138c-.177 1.27-.988 6.35-1.376 7.902l-.106.529-.459.247c-.352.176-.705.353-1.058.494 1.411.458 2.01 1.516 2.01 1.516l8.926-6.173 4.022 1.058-.177 2.646s-2.787.776-3.669 4.057c-.882 3.28 3.422 6.914 3.422 6.914s2.54 2.187 4.586 1.305c3.951-1.728 3.493-6.208 3.493-6.208l.882-1.764c.035-.07-2.681-1.023-2.435-4.34z" fill="#87764E"/>
    <path fill-rule="evenodd" clip-rule="evenodd" d="M26.634 15.522c6.773 2.681 7.302 9.595 7.302 9.595s.459 2.575-2.258 2.4l-2.187-1.095-5.291 1.553-5.539-.388-2.01.846S4.41 25.47 2.716 16.721c-1.27 8.96 2.928 13.053 5.997 14.675 2.434 1.13 3.352 1.059 3.352 1.059l-1.482 1.093s2.505 1.588 3.563 1.835c1.023.247 1.799.106 1.799.106l-.212.635 3.14 7.76-.353 5.998-.705 1.234.388 1.411s3.774 4.304 11.147.6c.423-1.693 1.376-8.078 1.376-8.078l4.445-6.35-1.447-3.986 5.222-2.152.74-.67-2.116-1.2 3.386-2.61c.07 0 .353-9.349-14.322-12.559z" fill="#87764E"/>
  </g>
  <defs>
    <clipPath id="clip0">
      <path fill="white" d="M0 0h142v72H0z"/>
    </clipPath>
  </defs>
</svg>
